<svg xmlns="http://www.w3.org/2000/svg" xmlns:xlink="http://www.w3.org/1999/xlink" width="445.766" height="339.781" viewBox="0 0 445.766 339.781">
  <defs>
    <linearGradient id="linear-gradient" x1="0.5" x2="0.5" y2="1" gradientUnits="objectBoundingBox">
      <stop offset="0" stop-color="#7e89be"/>
      <stop offset="1" stop-color="#29398a"/>
    </linearGradient>
    <linearGradient id="linear-gradient-2" x1="0.5" x2="0.5" y2="1" gradientUnits="objectBoundingBox">
      <stop offset="0" stop-color="#ba68c8"/>
      <stop offset="0.19" stop-color="#9139af"/>
      <stop offset="0.31" stop-color="#7b1fa2"/>
      <stop offset="1" stop-color="#45147b"/>
    </linearGradient>
  </defs>
  <g id="Grupo_146974" data-name="Grupo 146974" transform="translate(-198 -7609)">
    <g id="Grupo_79644" data-name="Grupo 79644" transform="translate(198 7653.863)" opacity="0.76">
      <path id="Trazado_145969" data-name="Trazado 145969" d="M54.689,0A54.689,54.689,0,1,1,0,54.689,54.689,54.689,0,0,1,54.689,0Z" transform="translate(333.527 -44.863)" opacity="0.6" fill="url(#linear-gradient)" style="mix-blend-mode: multiply;isolation: isolate"/>
      <rect id="Rectángulo_34812" data-name="Rectángulo 34812" width="426.667" height="294.918" fill="none"/>
      <path id="Trazado_145971" data-name="Trazado 145971" d="M34.57,0A34.57,34.57,0,1,1,0,34.57,34.57,34.57,0,0,1,34.57,0Z" transform="translate(357.528 196.447)" fill="#fda929" opacity="0.444" style="mix-blend-mode: multiply;isolation: isolate"/>
      <g id="Grupo_145732" data-name="Grupo 145732" transform="translate(23 -0.486)">
        <path id="Trazado_145968" data-name="Trazado 145968" d="M80.036,0A80.036,80.036,0,1,1,0,80.036,80.036,80.036,0,0,1,80.036,0Z" transform="translate(19 89)" opacity="0.444" fill="url(#linear-gradient-2)" style="mix-blend-mode: multiply;isolation: isolate"/>
        <g id="Grupo_78276" data-name="Grupo 78276" transform="translate(49 122)">
          <g id="Grupo_53306" data-name="Grupo 53306" transform="translate(0)">
            <path id="Trazado_99200" data-name="Trazado 99200" d="M416.388,51.263a1.088,1.088,0,1,1-1.087-1.039A1.064,1.064,0,0,1,416.388,51.263Z" transform="translate(-414.214 -50.224)" fill="url(#linear-gradient-2)"/>
            <path id="Trazado_99201" data-name="Trazado 99201" d="M424.834,51.263a1.088,1.088,0,1,1-1.086-1.039A1.064,1.064,0,0,1,424.834,51.263Z" transform="translate(-412.879 -50.224)" fill="url(#linear-gradient-2)"/>
            <path id="Trazado_99202" data-name="Trazado 99202" d="M433.28,51.263a1.088,1.088,0,1,1-1.086-1.039A1.064,1.064,0,0,1,433.28,51.263Z" transform="translate(-411.544 -50.224)" fill="url(#linear-gradient-2)"/>
            <path id="Trazado_99203" data-name="Trazado 99203" d="M441.727,51.263a1.088,1.088,0,1,1-1.087-1.039A1.064,1.064,0,0,1,441.727,51.263Z" transform="translate(-410.21 -50.224)" fill="url(#linear-gradient-2)"/>
            <path id="Trazado_99204" data-name="Trazado 99204" d="M450.173,51.263a1.088,1.088,0,1,1-1.086-1.039A1.064,1.064,0,0,1,450.173,51.263Z" transform="translate(-408.875 -50.224)" fill="url(#linear-gradient-2)"/>
            <path id="Trazado_99205" data-name="Trazado 99205" d="M458.619,51.263a1.088,1.088,0,1,1-1.086-1.039A1.063,1.063,0,0,1,458.619,51.263Z" transform="translate(-407.54 -50.224)" fill="url(#linear-gradient-2)"/>
            <path id="Trazado_99206" data-name="Trazado 99206" d="M467.066,51.263a1.088,1.088,0,1,1-1.087-1.039A1.065,1.065,0,0,1,467.066,51.263Z" transform="translate(-406.205 -50.224)" fill="url(#linear-gradient-2)"/>
            <path id="Trazado_99207" data-name="Trazado 99207" d="M475.512,51.263a1.088,1.088,0,1,1-1.086-1.039A1.064,1.064,0,0,1,475.512,51.263Z" transform="translate(-404.87 -50.224)" fill="url(#linear-gradient-2)"/>
            <path id="Trazado_99208" data-name="Trazado 99208" d="M483.958,51.263a1.088,1.088,0,1,1-1.086-1.039A1.064,1.064,0,0,1,483.958,51.263Z" transform="translate(-403.536 -50.224)" fill="url(#linear-gradient-2)"/>
            <path id="Trazado_99209" data-name="Trazado 99209" d="M492.4,51.263a1.088,1.088,0,1,1-1.087-1.039A1.064,1.064,0,0,1,492.4,51.263Z" transform="translate(-402.201 -50.224)" fill="url(#linear-gradient-2)"/>
            <path id="Trazado_99210" data-name="Trazado 99210" d="M500.851,51.263a1.088,1.088,0,1,1-1.087-1.039A1.064,1.064,0,0,1,500.851,51.263Z" transform="translate(-400.866 -50.224)" fill="url(#linear-gradient-2)"/>
          </g>
          <g id="Grupo_53307" data-name="Grupo 53307" transform="translate(0 8.315)">
            <path id="Trazado_99211" data-name="Trazado 99211" d="M416.388,58.771a1.088,1.088,0,1,1-1.087-1.039A1.064,1.064,0,0,1,416.388,58.771Z" transform="translate(-414.214 -57.732)" fill="url(#linear-gradient-2)"/>
            <path id="Trazado_99212" data-name="Trazado 99212" d="M424.834,58.771a1.088,1.088,0,1,1-1.086-1.039A1.063,1.063,0,0,1,424.834,58.771Z" transform="translate(-412.879 -57.732)" fill="url(#linear-gradient-2)"/>
            <path id="Trazado_99213" data-name="Trazado 99213" d="M433.28,58.771a1.088,1.088,0,1,1-1.086-1.039A1.064,1.064,0,0,1,433.28,58.771Z" transform="translate(-411.544 -57.732)" fill="url(#linear-gradient-2)"/>
            <path id="Trazado_99214" data-name="Trazado 99214" d="M441.727,58.771a1.088,1.088,0,1,1-1.087-1.039A1.064,1.064,0,0,1,441.727,58.771Z" transform="translate(-410.21 -57.732)" fill="url(#linear-gradient-2)"/>
            <path id="Trazado_99215" data-name="Trazado 99215" d="M450.173,58.771a1.088,1.088,0,1,1-1.086-1.039A1.064,1.064,0,0,1,450.173,58.771Z" transform="translate(-408.875 -57.732)" fill="url(#linear-gradient-2)"/>
            <path id="Trazado_99216" data-name="Trazado 99216" d="M458.619,58.771a1.088,1.088,0,1,1-1.086-1.039A1.063,1.063,0,0,1,458.619,58.771Z" transform="translate(-407.54 -57.732)" fill="url(#linear-gradient-2)"/>
            <path id="Trazado_99217" data-name="Trazado 99217" d="M467.066,58.771a1.088,1.088,0,1,1-1.087-1.039A1.065,1.065,0,0,1,467.066,58.771Z" transform="translate(-406.205 -57.732)" fill="url(#linear-gradient-2)"/>
            <path id="Trazado_99218" data-name="Trazado 99218" d="M475.512,58.771a1.088,1.088,0,1,1-1.086-1.039A1.064,1.064,0,0,1,475.512,58.771Z" transform="translate(-404.87 -57.732)" fill="url(#linear-gradient-2)"/>
            <path id="Trazado_99219" data-name="Trazado 99219" d="M483.958,58.771a1.088,1.088,0,1,1-1.086-1.039A1.064,1.064,0,0,1,483.958,58.771Z" transform="translate(-403.536 -57.732)" fill="url(#linear-gradient-2)"/>
            <path id="Trazado_99220" data-name="Trazado 99220" d="M492.4,58.771a1.088,1.088,0,1,1-1.087-1.039A1.064,1.064,0,0,1,492.4,58.771Z" transform="translate(-402.201 -57.732)" fill="url(#linear-gradient-2)"/>
            <path id="Trazado_99221" data-name="Trazado 99221" d="M500.851,58.771a1.088,1.088,0,1,1-1.087-1.039A1.064,1.064,0,0,1,500.851,58.771Z" transform="translate(-400.866 -57.732)" fill="url(#linear-gradient-2)"/>
          </g>
          <g id="Grupo_53308" data-name="Grupo 53308" transform="translate(0 16.629)">
            <ellipse id="Elipse_3955" data-name="Elipse 3955" cx="1.087" cy="1.039" rx="1.087" ry="1.039" fill="url(#linear-gradient-2)"/>
            <path id="Trazado_99222" data-name="Trazado 99222" d="M424.834,66.279a1.088,1.088,0,1,1-1.086-1.039A1.064,1.064,0,0,1,424.834,66.279Z" transform="translate(-412.879 -65.24)" fill="url(#linear-gradient-2)"/>
            <ellipse id="Elipse_3956" data-name="Elipse 3956" cx="1.087" cy="1.039" rx="1.087" ry="1.039" transform="translate(19.562)" fill="url(#linear-gradient-2)"/>
            <path id="Trazado_99223" data-name="Trazado 99223" d="M441.727,66.279a1.088,1.088,0,1,1-1.087-1.039A1.065,1.065,0,0,1,441.727,66.279Z" transform="translate(-410.209 -65.24)" fill="url(#linear-gradient-2)"/>
            <path id="Trazado_99224" data-name="Trazado 99224" d="M450.173,66.279a1.088,1.088,0,1,1-1.086-1.039A1.064,1.064,0,0,1,450.173,66.279Z" transform="translate(-408.875 -65.24)" fill="url(#linear-gradient-2)"/>
            <ellipse id="Elipse_3957" data-name="Elipse 3957" cx="1.087" cy="1.039" rx="1.087" ry="1.039" transform="translate(48.906)" fill="url(#linear-gradient-2)"/>
            <path id="Trazado_99225" data-name="Trazado 99225" d="M467.066,66.279a1.088,1.088,0,1,1-1.087-1.039A1.065,1.065,0,0,1,467.066,66.279Z" transform="translate(-406.205 -65.24)" fill="url(#linear-gradient-2)"/>
            <ellipse id="Elipse_3958" data-name="Elipse 3958" cx="1.087" cy="1.039" rx="1.087" ry="1.039" transform="translate(68.468)" fill="url(#linear-gradient-2)"/>
            <ellipse id="Elipse_3959" data-name="Elipse 3959" cx="1.087" cy="1.039" rx="1.087" ry="1.039" transform="translate(78.249)" fill="url(#linear-gradient-2)"/>
            <path id="Trazado_99226" data-name="Trazado 99226" d="M492.4,66.279a1.088,1.088,0,1,1-1.087-1.039A1.065,1.065,0,0,1,492.4,66.279Z" transform="translate(-402.201 -65.24)" fill="url(#linear-gradient-2)"/>
            <path id="Trazado_99227" data-name="Trazado 99227" d="M500.851,66.279a1.088,1.088,0,1,1-1.087-1.039A1.065,1.065,0,0,1,500.851,66.279Z" transform="translate(-400.866 -65.24)" fill="url(#linear-gradient-2)"/>
          </g>
          <g id="Grupo_53309" data-name="Grupo 53309" transform="translate(0 24.943)">
            <ellipse id="Elipse_3960" data-name="Elipse 3960" cx="1.087" cy="1.039" rx="1.087" ry="1.039" transform="translate(0 0)" fill="url(#linear-gradient-2)"/>
            <path id="Trazado_99228" data-name="Trazado 99228" d="M424.834,73.787a1.088,1.088,0,1,1-1.086-1.04A1.063,1.063,0,0,1,424.834,73.787Z" transform="translate(-412.879 -72.747)" fill="url(#linear-gradient-2)"/>
            <ellipse id="Elipse_3961" data-name="Elipse 3961" cx="1.087" cy="1.039" rx="1.087" ry="1.039" transform="translate(19.562 0)" fill="url(#linear-gradient-2)"/>
            <path id="Trazado_99229" data-name="Trazado 99229" d="M441.727,73.787a1.088,1.088,0,1,1-1.087-1.04A1.064,1.064,0,0,1,441.727,73.787Z" transform="translate(-410.209 -72.747)" fill="url(#linear-gradient-2)"/>
            <path id="Trazado_99230" data-name="Trazado 99230" d="M450.173,73.787a1.088,1.088,0,1,1-1.086-1.04A1.063,1.063,0,0,1,450.173,73.787Z" transform="translate(-408.875 -72.747)" fill="url(#linear-gradient-2)"/>
            <ellipse id="Elipse_3962" data-name="Elipse 3962" cx="1.087" cy="1.039" rx="1.087" ry="1.039" transform="translate(48.906 0)" fill="url(#linear-gradient-2)"/>
            <path id="Trazado_99231" data-name="Trazado 99231" d="M467.066,73.787a1.088,1.088,0,1,1-1.087-1.04A1.064,1.064,0,0,1,467.066,73.787Z" transform="translate(-406.205 -72.747)" fill="url(#linear-gradient-2)"/>
            <ellipse id="Elipse_3963" data-name="Elipse 3963" cx="1.087" cy="1.039" rx="1.087" ry="1.039" transform="translate(68.468 0)" fill="url(#linear-gradient-2)"/>
            <ellipse id="Elipse_3964" data-name="Elipse 3964" cx="1.087" cy="1.039" rx="1.087" ry="1.039" transform="translate(78.249 0)" fill="url(#linear-gradient-2)"/>
            <path id="Trazado_99232" data-name="Trazado 99232" d="M492.4,73.787a1.088,1.088,0,1,1-1.087-1.04A1.064,1.064,0,0,1,492.4,73.787Z" transform="translate(-402.201 -72.747)" fill="url(#linear-gradient-2)"/>
            <path id="Trazado_99233" data-name="Trazado 99233" d="M500.851,73.787a1.088,1.088,0,1,1-1.087-1.04A1.064,1.064,0,0,1,500.851,73.787Z" transform="translate(-400.866 -72.747)" fill="url(#linear-gradient-2)"/>
          </g>
          <g id="Grupo_53310" data-name="Grupo 53310" transform="translate(0 33.258)">
            <path id="Trazado_99234" data-name="Trazado 99234" d="M416.388,81.295a1.088,1.088,0,1,1-1.087-1.04A1.064,1.064,0,0,1,416.388,81.295Z" transform="translate(-414.214 -80.255)" fill="url(#linear-gradient-2)"/>
            <path id="Trazado_99235" data-name="Trazado 99235" d="M424.834,81.295a1.088,1.088,0,1,1-1.086-1.04A1.063,1.063,0,0,1,424.834,81.295Z" transform="translate(-412.879 -80.255)" fill="url(#linear-gradient-2)"/>
            <path id="Trazado_99236" data-name="Trazado 99236" d="M433.28,81.295a1.088,1.088,0,1,1-1.086-1.04A1.063,1.063,0,0,1,433.28,81.295Z" transform="translate(-411.544 -80.255)" fill="url(#linear-gradient-2)"/>
            <path id="Trazado_99237" data-name="Trazado 99237" d="M441.727,81.295a1.088,1.088,0,1,1-1.087-1.04A1.064,1.064,0,0,1,441.727,81.295Z" transform="translate(-410.21 -80.255)" fill="url(#linear-gradient-2)"/>
            <path id="Trazado_99238" data-name="Trazado 99238" d="M450.173,81.295a1.088,1.088,0,1,1-1.086-1.04A1.063,1.063,0,0,1,450.173,81.295Z" transform="translate(-408.875 -80.255)" fill="url(#linear-gradient-2)"/>
            <path id="Trazado_99239" data-name="Trazado 99239" d="M458.619,81.295a1.088,1.088,0,1,1-1.086-1.04A1.063,1.063,0,0,1,458.619,81.295Z" transform="translate(-407.54 -80.255)" fill="url(#linear-gradient-2)"/>
            <path id="Trazado_99240" data-name="Trazado 99240" d="M467.066,81.295a1.088,1.088,0,1,1-1.087-1.04A1.064,1.064,0,0,1,467.066,81.295Z" transform="translate(-406.205 -80.255)" fill="url(#linear-gradient-2)"/>
            <path id="Trazado_99241" data-name="Trazado 99241" d="M475.512,81.295a1.088,1.088,0,1,1-1.086-1.04A1.063,1.063,0,0,1,475.512,81.295Z" transform="translate(-404.87 -80.255)" fill="url(#linear-gradient-2)"/>
            <path id="Trazado_99242" data-name="Trazado 99242" d="M483.958,81.295a1.088,1.088,0,1,1-1.086-1.04A1.063,1.063,0,0,1,483.958,81.295Z" transform="translate(-403.536 -80.255)" fill="url(#linear-gradient-2)"/>
            <path id="Trazado_99243" data-name="Trazado 99243" d="M492.4,81.295a1.088,1.088,0,1,1-1.087-1.04A1.064,1.064,0,0,1,492.4,81.295Z" transform="translate(-402.201 -80.255)" fill="url(#linear-gradient-2)"/>
            <path id="Trazado_99244" data-name="Trazado 99244" d="M500.851,81.295a1.088,1.088,0,1,1-1.087-1.04A1.064,1.064,0,0,1,500.851,81.295Z" transform="translate(-400.866 -80.255)" fill="url(#linear-gradient-2)"/>
          </g>
          <g id="Grupo_53311" data-name="Grupo 53311" transform="translate(0 41.573)">
            <ellipse id="Elipse_3965" data-name="Elipse 3965" cx="1.087" cy="1.039" rx="1.087" ry="1.039" transform="translate(0 0)" fill="url(#linear-gradient-2)"/>
            <path id="Trazado_99245" data-name="Trazado 99245" d="M424.834,88.8a1.088,1.088,0,1,1-1.086-1.04A1.063,1.063,0,0,1,424.834,88.8Z" transform="translate(-412.879 -87.763)" fill="url(#linear-gradient-2)"/>
            <ellipse id="Elipse_3966" data-name="Elipse 3966" cx="1.087" cy="1.039" rx="1.087" ry="1.039" transform="translate(19.562 0)" fill="url(#linear-gradient-2)"/>
            <path id="Trazado_99246" data-name="Trazado 99246" d="M441.727,88.8a1.088,1.088,0,1,1-1.087-1.04A1.064,1.064,0,0,1,441.727,88.8Z" transform="translate(-410.209 -87.763)" fill="url(#linear-gradient-2)"/>
            <path id="Trazado_99247" data-name="Trazado 99247" d="M450.173,88.8a1.088,1.088,0,1,1-1.086-1.04A1.063,1.063,0,0,1,450.173,88.8Z" transform="translate(-408.875 -87.763)" fill="url(#linear-gradient-2)"/>
            <ellipse id="Elipse_3967" data-name="Elipse 3967" cx="1.087" cy="1.039" rx="1.087" ry="1.039" transform="translate(48.906 0)" fill="url(#linear-gradient-2)"/>
            <path id="Trazado_99248" data-name="Trazado 99248" d="M467.066,88.8a1.088,1.088,0,1,1-1.087-1.04A1.064,1.064,0,0,1,467.066,88.8Z" transform="translate(-406.205 -87.763)" fill="url(#linear-gradient-2)"/>
            <ellipse id="Elipse_3968" data-name="Elipse 3968" cx="1.087" cy="1.039" rx="1.087" ry="1.039" transform="translate(68.468 0)" fill="url(#linear-gradient-2)"/>
            <ellipse id="Elipse_3969" data-name="Elipse 3969" cx="1.087" cy="1.039" rx="1.087" ry="1.039" transform="translate(78.249 0)" fill="url(#linear-gradient-2)"/>
            <path id="Trazado_99249" data-name="Trazado 99249" d="M492.4,88.8a1.088,1.088,0,1,1-1.087-1.04A1.064,1.064,0,0,1,492.4,88.8Z" transform="translate(-402.201 -87.763)" fill="url(#linear-gradient-2)"/>
            <path id="Trazado_99250" data-name="Trazado 99250" d="M500.851,88.8a1.088,1.088,0,1,1-1.087-1.04A1.064,1.064,0,0,1,500.851,88.8Z" transform="translate(-400.866 -87.763)" fill="url(#linear-gradient-2)"/>
          </g>
          <g id="Grupo_53312" data-name="Grupo 53312" transform="translate(0 49.887)">
            <ellipse id="Elipse_3970" data-name="Elipse 3970" cx="1.087" cy="1.039" rx="1.087" ry="1.039" fill="url(#linear-gradient-2)"/>
            <path id="Trazado_99251" data-name="Trazado 99251" d="M424.834,96.31a1.088,1.088,0,1,1-1.086-1.039A1.064,1.064,0,0,1,424.834,96.31Z" transform="translate(-412.879 -95.271)" fill="url(#linear-gradient-2)"/>
            <ellipse id="Elipse_3971" data-name="Elipse 3971" cx="1.087" cy="1.039" rx="1.087" ry="1.039" transform="translate(19.562)" fill="url(#linear-gradient-2)"/>
            <path id="Trazado_99252" data-name="Trazado 99252" d="M441.727,96.31a1.088,1.088,0,1,1-1.087-1.039A1.064,1.064,0,0,1,441.727,96.31Z" transform="translate(-410.209 -95.271)" fill="url(#linear-gradient-2)"/>
            <path id="Trazado_99253" data-name="Trazado 99253" d="M450.173,96.31a1.088,1.088,0,1,1-1.086-1.039A1.064,1.064,0,0,1,450.173,96.31Z" transform="translate(-408.875 -95.271)" fill="url(#linear-gradient-2)"/>
            <ellipse id="Elipse_3972" data-name="Elipse 3972" cx="1.087" cy="1.039" rx="1.087" ry="1.039" transform="translate(48.906)" fill="url(#linear-gradient-2)"/>
            <path id="Trazado_99254" data-name="Trazado 99254" d="M467.066,96.31a1.088,1.088,0,1,1-1.087-1.039A1.065,1.065,0,0,1,467.066,96.31Z" transform="translate(-406.205 -95.271)" fill="url(#linear-gradient-2)"/>
            <ellipse id="Elipse_3973" data-name="Elipse 3973" cx="1.087" cy="1.039" rx="1.087" ry="1.039" transform="translate(68.468)" fill="url(#linear-gradient-2)"/>
            <ellipse id="Elipse_3974" data-name="Elipse 3974" cx="1.087" cy="1.039" rx="1.087" ry="1.039" transform="translate(78.249)" fill="url(#linear-gradient-2)"/>
            <path id="Trazado_99255" data-name="Trazado 99255" d="M492.4,96.31a1.088,1.088,0,1,1-1.087-1.039A1.065,1.065,0,0,1,492.4,96.31Z" transform="translate(-402.201 -95.271)" fill="url(#linear-gradient-2)"/>
            <path id="Trazado_99256" data-name="Trazado 99256" d="M500.851,96.31a1.088,1.088,0,1,1-1.087-1.039A1.064,1.064,0,0,1,500.851,96.31Z" transform="translate(-400.866 -95.271)" fill="url(#linear-gradient-2)"/>
          </g>
          <g id="Grupo_53313" data-name="Grupo 53313" transform="translate(0 58.202)">
            <path id="Trazado_99257" data-name="Trazado 99257" d="M416.388,103.818a1.088,1.088,0,1,1-1.087-1.039A1.064,1.064,0,0,1,416.388,103.818Z" transform="translate(-414.214 -102.779)" fill="url(#linear-gradient-2)"/>
            <path id="Trazado_99258" data-name="Trazado 99258" d="M424.834,103.818a1.088,1.088,0,1,1-1.086-1.039A1.064,1.064,0,0,1,424.834,103.818Z" transform="translate(-412.879 -102.779)" fill="url(#linear-gradient-2)"/>
            <path id="Trazado_99259" data-name="Trazado 99259" d="M433.28,103.818a1.088,1.088,0,1,1-1.086-1.039A1.064,1.064,0,0,1,433.28,103.818Z" transform="translate(-411.544 -102.779)" fill="url(#linear-gradient-2)"/>
            <path id="Trazado_99260" data-name="Trazado 99260" d="M441.727,103.818a1.088,1.088,0,1,1-1.087-1.039A1.064,1.064,0,0,1,441.727,103.818Z" transform="translate(-410.21 -102.779)" fill="url(#linear-gradient-2)"/>
            <path id="Trazado_99261" data-name="Trazado 99261" d="M450.173,103.818a1.088,1.088,0,1,1-1.086-1.039A1.064,1.064,0,0,1,450.173,103.818Z" transform="translate(-408.875 -102.779)" fill="url(#linear-gradient-2)"/>
            <path id="Trazado_99262" data-name="Trazado 99262" d="M458.619,103.818a1.088,1.088,0,1,1-1.086-1.039A1.064,1.064,0,0,1,458.619,103.818Z" transform="translate(-407.54 -102.779)" fill="url(#linear-gradient-2)"/>
            <path id="Trazado_99263" data-name="Trazado 99263" d="M467.066,103.818a1.088,1.088,0,1,1-1.087-1.039A1.065,1.065,0,0,1,467.066,103.818Z" transform="translate(-406.205 -102.779)" fill="url(#linear-gradient-2)"/>
            <path id="Trazado_99264" data-name="Trazado 99264" d="M475.512,103.818a1.088,1.088,0,1,1-1.086-1.039A1.064,1.064,0,0,1,475.512,103.818Z" transform="translate(-404.87 -102.779)" fill="url(#linear-gradient-2)"/>
            <path id="Trazado_99265" data-name="Trazado 99265" d="M483.958,103.818a1.088,1.088,0,1,1-1.086-1.039A1.064,1.064,0,0,1,483.958,103.818Z" transform="translate(-403.536 -102.779)" fill="url(#linear-gradient-2)"/>
            <path id="Trazado_99266" data-name="Trazado 99266" d="M492.4,103.818a1.088,1.088,0,1,1-1.087-1.039A1.065,1.065,0,0,1,492.4,103.818Z" transform="translate(-402.201 -102.779)" fill="url(#linear-gradient-2)"/>
            <path id="Trazado_99267" data-name="Trazado 99267" d="M500.851,103.818a1.088,1.088,0,1,1-1.087-1.039A1.064,1.064,0,0,1,500.851,103.818Z" transform="translate(-400.866 -102.779)" fill="url(#linear-gradient-2)"/>
          </g>
          <g id="Grupo_53314" data-name="Grupo 53314" transform="translate(0 66.517)">
            <ellipse id="Elipse_3975" data-name="Elipse 3975" cx="1.087" cy="1.039" rx="1.087" ry="1.039" fill="url(#linear-gradient-2)"/>
            <path id="Trazado_99268" data-name="Trazado 99268" d="M424.834,111.326a1.088,1.088,0,1,1-1.086-1.039A1.064,1.064,0,0,1,424.834,111.326Z" transform="translate(-412.879 -110.287)" fill="url(#linear-gradient-2)"/>
            <ellipse id="Elipse_3976" data-name="Elipse 3976" cx="1.087" cy="1.039" rx="1.087" ry="1.039" transform="translate(19.562)" fill="url(#linear-gradient-2)"/>
            <path id="Trazado_99269" data-name="Trazado 99269" d="M441.727,111.326a1.088,1.088,0,1,1-1.087-1.039A1.065,1.065,0,0,1,441.727,111.326Z" transform="translate(-410.209 -110.287)" fill="url(#linear-gradient-2)"/>
            <path id="Trazado_99270" data-name="Trazado 99270" d="M450.173,111.326a1.088,1.088,0,1,1-1.086-1.039A1.064,1.064,0,0,1,450.173,111.326Z" transform="translate(-408.875 -110.287)" fill="url(#linear-gradient-2)"/>
            <ellipse id="Elipse_3977" data-name="Elipse 3977" cx="1.087" cy="1.039" rx="1.087" ry="1.039" transform="translate(48.906)" fill="url(#linear-gradient-2)"/>
            <path id="Trazado_99271" data-name="Trazado 99271" d="M467.066,111.326a1.088,1.088,0,1,1-1.087-1.039A1.065,1.065,0,0,1,467.066,111.326Z" transform="translate(-406.205 -110.287)" fill="url(#linear-gradient-2)"/>
            <ellipse id="Elipse_3978" data-name="Elipse 3978" cx="1.087" cy="1.039" rx="1.087" ry="1.039" transform="translate(68.468)" fill="url(#linear-gradient-2)"/>
            <ellipse id="Elipse_3979" data-name="Elipse 3979" cx="1.087" cy="1.039" rx="1.087" ry="1.039" transform="translate(78.249)" fill="url(#linear-gradient-2)"/>
            <path id="Trazado_99272" data-name="Trazado 99272" d="M492.4,111.326a1.088,1.088,0,1,1-1.087-1.039A1.065,1.065,0,0,1,492.4,111.326Z" transform="translate(-402.201 -110.287)" fill="url(#linear-gradient-2)"/>
            <path id="Trazado_99273" data-name="Trazado 99273" d="M500.851,111.326a1.088,1.088,0,1,1-1.087-1.039A1.065,1.065,0,0,1,500.851,111.326Z" transform="translate(-400.866 -110.287)" fill="url(#linear-gradient-2)"/>
          </g>
          <g id="Grupo_53315" data-name="Grupo 53315" transform="translate(0 74.831)">
            <path id="Trazado_99274" data-name="Trazado 99274" d="M416.388,118.834a1.088,1.088,0,1,1-1.087-1.04A1.065,1.065,0,0,1,416.388,118.834Z" transform="translate(-414.214 -117.794)" fill="url(#linear-gradient-2)"/>
            <path id="Trazado_99275" data-name="Trazado 99275" d="M424.834,118.834a1.088,1.088,0,1,1-1.086-1.04A1.064,1.064,0,0,1,424.834,118.834Z" transform="translate(-412.879 -117.794)" fill="url(#linear-gradient-2)"/>
            <path id="Trazado_99276" data-name="Trazado 99276" d="M433.28,118.834a1.088,1.088,0,1,1-1.086-1.04A1.064,1.064,0,0,1,433.28,118.834Z" transform="translate(-411.544 -117.794)" fill="url(#linear-gradient-2)"/>
            <path id="Trazado_99277" data-name="Trazado 99277" d="M441.727,118.834a1.088,1.088,0,1,1-1.087-1.04A1.065,1.065,0,0,1,441.727,118.834Z" transform="translate(-410.21 -117.794)" fill="url(#linear-gradient-2)"/>
            <path id="Trazado_99278" data-name="Trazado 99278" d="M450.173,118.834a1.088,1.088,0,1,1-1.086-1.04A1.064,1.064,0,0,1,450.173,118.834Z" transform="translate(-408.875 -117.794)" fill="url(#linear-gradient-2)"/>
            <path id="Trazado_99279" data-name="Trazado 99279" d="M458.619,118.834a1.088,1.088,0,1,1-1.086-1.04A1.064,1.064,0,0,1,458.619,118.834Z" transform="translate(-407.54 -117.794)" fill="url(#linear-gradient-2)"/>
            <path id="Trazado_99280" data-name="Trazado 99280" d="M467.066,118.834a1.088,1.088,0,1,1-1.087-1.04A1.065,1.065,0,0,1,467.066,118.834Z" transform="translate(-406.205 -117.794)" fill="url(#linear-gradient-2)"/>
            <path id="Trazado_99281" data-name="Trazado 99281" d="M475.512,118.834a1.088,1.088,0,1,1-1.086-1.04A1.064,1.064,0,0,1,475.512,118.834Z" transform="translate(-404.87 -117.794)" fill="url(#linear-gradient-2)"/>
            <path id="Trazado_99282" data-name="Trazado 99282" d="M483.958,118.834a1.088,1.088,0,1,1-1.086-1.04A1.064,1.064,0,0,1,483.958,118.834Z" transform="translate(-403.536 -117.794)" fill="url(#linear-gradient-2)"/>
            <path id="Trazado_99283" data-name="Trazado 99283" d="M492.4,118.834a1.088,1.088,0,1,1-1.087-1.04A1.065,1.065,0,0,1,492.4,118.834Z" transform="translate(-402.201 -117.794)" fill="url(#linear-gradient-2)"/>
            <path id="Trazado_99284" data-name="Trazado 99284" d="M500.851,118.834a1.088,1.088,0,1,1-1.087-1.04A1.065,1.065,0,0,1,500.851,118.834Z" transform="translate(-400.866 -117.794)" fill="url(#linear-gradient-2)"/>
          </g>
          <g id="Grupo_53316" data-name="Grupo 53316" transform="translate(0 83.145)">
            <ellipse id="Elipse_3980" data-name="Elipse 3980" cx="1.087" cy="1.039" rx="1.087" ry="1.039" transform="translate(0 0)" fill="url(#linear-gradient-2)"/>
            <path id="Trazado_99285" data-name="Trazado 99285" d="M424.834,126.342a1.088,1.088,0,1,1-1.086-1.04A1.063,1.063,0,0,1,424.834,126.342Z" transform="translate(-412.879 -125.302)" fill="url(#linear-gradient-2)"/>
            <ellipse id="Elipse_3981" data-name="Elipse 3981" cx="1.087" cy="1.039" rx="1.087" ry="1.039" transform="translate(19.562 0)" fill="url(#linear-gradient-2)"/>
            <path id="Trazado_99286" data-name="Trazado 99286" d="M441.727,126.342a1.088,1.088,0,1,1-1.087-1.04A1.064,1.064,0,0,1,441.727,126.342Z" transform="translate(-410.209 -125.302)" fill="url(#linear-gradient-2)"/>
            <path id="Trazado_99287" data-name="Trazado 99287" d="M450.173,126.342a1.088,1.088,0,1,1-1.086-1.04A1.063,1.063,0,0,1,450.173,126.342Z" transform="translate(-408.875 -125.302)" fill="url(#linear-gradient-2)"/>
            <ellipse id="Elipse_3982" data-name="Elipse 3982" cx="1.087" cy="1.039" rx="1.087" ry="1.039" transform="translate(48.906 0)" fill="url(#linear-gradient-2)"/>
            <path id="Trazado_99288" data-name="Trazado 99288" d="M467.066,126.342a1.088,1.088,0,1,1-1.087-1.04A1.064,1.064,0,0,1,467.066,126.342Z" transform="translate(-406.205 -125.302)" fill="url(#linear-gradient-2)"/>
            <ellipse id="Elipse_3983" data-name="Elipse 3983" cx="1.087" cy="1.039" rx="1.087" ry="1.039" transform="translate(68.468 0)" fill="url(#linear-gradient-2)"/>
            <ellipse id="Elipse_3984" data-name="Elipse 3984" cx="1.087" cy="1.039" rx="1.087" ry="1.039" transform="translate(78.249 0)" fill="url(#linear-gradient-2)"/>
            <path id="Trazado_99289" data-name="Trazado 99289" d="M492.4,126.342a1.088,1.088,0,1,1-1.087-1.04A1.064,1.064,0,0,1,492.4,126.342Z" transform="translate(-402.201 -125.302)" fill="url(#linear-gradient-2)"/>
            <path id="Trazado_99290" data-name="Trazado 99290" d="M500.851,126.342a1.088,1.088,0,1,1-1.087-1.04A1.064,1.064,0,0,1,500.851,126.342Z" transform="translate(-400.866 -125.302)" fill="url(#linear-gradient-2)"/>
          </g>
          <g id="Grupo_53317" data-name="Grupo 53317" transform="translate(0 91.461)">
            <ellipse id="Elipse_3985" data-name="Elipse 3985" cx="1.087" cy="1.039" rx="1.087" ry="1.039" transform="translate(0 0)" fill="url(#linear-gradient-2)"/>
            <path id="Trazado_99291" data-name="Trazado 99291" d="M424.834,133.85a1.088,1.088,0,1,1-1.086-1.04A1.063,1.063,0,0,1,424.834,133.85Z" transform="translate(-412.879 -132.81)" fill="url(#linear-gradient-2)"/>
            <ellipse id="Elipse_3986" data-name="Elipse 3986" cx="1.087" cy="1.039" rx="1.087" ry="1.039" transform="translate(19.562 0)" fill="url(#linear-gradient-2)"/>
            <path id="Trazado_99292" data-name="Trazado 99292" d="M441.727,133.85a1.088,1.088,0,1,1-1.087-1.04A1.064,1.064,0,0,1,441.727,133.85Z" transform="translate(-410.209 -132.81)" fill="url(#linear-gradient-2)"/>
            <path id="Trazado_99293" data-name="Trazado 99293" d="M450.173,133.85a1.088,1.088,0,1,1-1.086-1.04A1.063,1.063,0,0,1,450.173,133.85Z" transform="translate(-408.875 -132.81)" fill="url(#linear-gradient-2)"/>
            <ellipse id="Elipse_3987" data-name="Elipse 3987" cx="1.087" cy="1.039" rx="1.087" ry="1.039" transform="translate(48.906 0)" fill="url(#linear-gradient-2)"/>
            <path id="Trazado_99294" data-name="Trazado 99294" d="M467.066,133.85a1.088,1.088,0,1,1-1.087-1.04A1.064,1.064,0,0,1,467.066,133.85Z" transform="translate(-406.205 -132.81)" fill="url(#linear-gradient-2)"/>
            <ellipse id="Elipse_3988" data-name="Elipse 3988" cx="1.087" cy="1.039" rx="1.087" ry="1.039" transform="translate(68.468 0)" fill="url(#linear-gradient-2)"/>
            <ellipse id="Elipse_3989" data-name="Elipse 3989" cx="1.087" cy="1.039" rx="1.087" ry="1.039" transform="translate(78.249 0)" fill="url(#linear-gradient-2)"/>
            <path id="Trazado_99295" data-name="Trazado 99295" d="M492.4,133.85a1.088,1.088,0,1,1-1.087-1.04A1.064,1.064,0,0,1,492.4,133.85Z" transform="translate(-402.201 -132.81)" fill="url(#linear-gradient-2)"/>
            <path id="Trazado_99296" data-name="Trazado 99296" d="M500.851,133.85a1.088,1.088,0,1,1-1.087-1.04A1.064,1.064,0,0,1,500.851,133.85Z" transform="translate(-400.866 -132.81)" fill="url(#linear-gradient-2)"/>
          </g>
        </g>
      </g>
    </g>
    <g id="Grupo_107435" data-name="Grupo 107435" transform="translate(984.608 7578.757)">
      <rect id="Rectángulo_37007" data-name="Rectángulo 37007" width="386.766" height="245.396" transform="translate(-727.609 89.5)" fill="none"/>
      <g id="Grupo_107434" data-name="Grupo 107434" transform="translate(-707.805 89.243)">
        <g id="Grupo_107423" data-name="Grupo 107423" transform="translate(262.735 75.51)">
          <rect id="Rectángulo_37007-2" data-name="Rectángulo 37007" width="43.486" height="45.331" transform="translate(2.954 0.011)" fill="#e0e0e0"/>
          <rect id="Rectángulo_37008" data-name="Rectángulo 37008" width="43.486" height="45.331" transform="translate(0.011 0.011)" fill="#fafafa"/>
          <path id="Trazado_156619" data-name="Trazado 156619" d="M-266.331,233.271h-43.508V187.918h43.508Zm-43.486-.028h43.458v-45.3h-43.458Z" transform="translate(309.839 -187.918)" fill="#e0e0e0"/>
          <rect id="Rectángulo_37009" data-name="Rectángulo 37009" width="31.796" height="33.142" transform="translate(5.859 6.106)" fill="#fafafa"/>
          <path id="Trazado_156620" data-name="Trazado 156620" d="M-303.963,239.482a5.729,5.729,0,0,1-.785.914c-.51.56-1.222,1.261-2.024,2.046s-1.537,1.492-2.075,1.991a4.9,4.9,0,0,1-.919.762,5.217,5.217,0,0,1,.779-.908c.51-.533,1.222-1.262,2.024-2.053s1.542-1.491,2.08-1.99A4.91,4.91,0,0,1-303.963,239.482Z" transform="translate(309.822 -200.016)" fill="#e0e0e0"/>
          <path id="Trazado_156621" data-name="Trazado 156621" d="M-260.649,239.379a4.837,4.837,0,0,1,.914.785c.561.5,1.261,1.216,2.047,2.018s1.491,1.536,1.99,2.074a4.909,4.909,0,0,1,.763.92,5.167,5.167,0,0,1-.909-.78c-.533-.5-1.261-1.222-2.052-2.024s-1.492-1.542-1.991-2.08A5.254,5.254,0,0,1-260.649,239.379Z" transform="translate(298.298 -199.992)" fill="#e0e0e0"/>
          <path id="Trazado_156622" data-name="Trazado 156622" d="M-260.759,194.259a4.639,4.639,0,0,1,.785-.914c.5-.56,1.216-1.261,2.018-2.052s1.536-1.486,2.08-1.985a5.228,5.228,0,0,1,.914-.768,4.724,4.724,0,0,1-.78.909c-.5.561-1.222,1.261-2.024,2.052s-1.536,1.5-2.08,2A5.251,5.251,0,0,1-260.759,194.259Z" transform="translate(298.324 -188.064)" fill="#e0e0e0"/>
          <path id="Trazado_156623" data-name="Trazado 156623" d="M-304.053,194.336a5.388,5.388,0,0,1-.914-.785c-.533-.5-1.255-1.222-2.046-2.018S-308.5,190-309,189.452a5.222,5.222,0,0,1-.762-.919,5.283,5.283,0,0,1,.908.779c.532.51,1.261,1.228,2.052,2.03s1.491,1.536,1.99,2.08A5.22,5.22,0,0,1-304.053,194.336Z" transform="translate(309.822 -188.062)" fill="#e0e0e0"/>
          <path id="Trazado_156624" data-name="Trazado 156624" d="M-270.5,228.972a.828.828,0,0,1,0-.162v-2.249c0-1.57,0-3.858-.034-6.756,0-5.8-.039-14.073-.061-23.975l.123.123h-31.707l.14-.14v33.142l-.117-.123,22.954.061,6.448.034h.05l-6.419.028-23.033.062h-.124v-33.4H-270.3v.123c-.028,9.929-.051,18.228-.067,24.053,0,2.888,0,5.164-.028,6.729v2.214A.459.459,0,0,1-270.5,228.972Z" transform="translate(308.066 -189.724)" fill="#e0e0e0"/>
          <rect id="Rectángulo_37010" data-name="Rectángulo 37010" width="10.608" height="10.608" transform="translate(16.45 17.37)" fill="#ebebeb"/>
        </g>
        <g id="Grupo_107424" data-name="Grupo 107424" transform="translate(105.888 0)">
          <rect id="Rectángulo_37011" data-name="Rectángulo 37011" width="143.654" height="210.905" transform="matrix(1, -0.028, 0.028, 1, 19.458, 5.477)" fill="#e8e8e8"/>
          <rect id="Rectángulo_37012" data-name="Rectángulo 37012" width="210.905" height="143.654" transform="matrix(0.055, -0.998, 0.998, 0.055, 0, 210.588)" fill="#e8e8e8"/>
          <rect id="Rectángulo_37013" data-name="Rectángulo 37013" width="210.905" height="143.654" transform="matrix(0.085, -0.996, 0.996, 0.085, 19.026, 219.428)" fill="#e8e8e8"/>
        </g>
        <g id="Grupo_107425" data-name="Grupo 107425" transform="translate(23.566 125.916)">
          <path id="Trazado_156625" data-name="Trazado 156625" d="M-656.483,331.494a18.206,18.206,0,0,0-7.766-2.677,5.2,5.2,0,0,0-3.675.68.752.752,0,0,0-.379.667.789.789,0,0,0,.361.457,11.105,11.105,0,0,0,11.46.873" transform="translate(670.324 -271.368)" fill="#e8e8e8"/>
          <path id="Trazado_156626" data-name="Trazado 156626" d="M-655.654,328.309a37.275,37.275,0,0,1-5.017-4.415,12.632,12.632,0,0,1-3.147-5.817,2.319,2.319,0,0,1,.247-1.943c4,3.122,7.141,7.165,7.917,12.176" transform="translate(669.298 -268.405)" fill="#e8e8e8"/>
          <path id="Trazado_156627" data-name="Trazado 156627" d="M-652.993,328.614a18.222,18.222,0,0,1,.09-6.588,8.9,8.9,0,0,1,3.513-5.414,7.778,7.778,0,0,1-.1,5.167,25.128,25.128,0,0,1-3.477,7.321" transform="translate(666.793 -268.518)" fill="#e8e8e8"/>
          <path id="Trazado_156628" data-name="Trazado 156628" d="M-650.792,341.473a11.463,11.463,0,0,0-6.232,3.152,11.782,11.782,0,0,0-3.561,6.118c2.334-.145,4.313-1.8,5.751-3.64s2.406-3.867,4.006-5.594" transform="translate(668.514 -274.35)" fill="#e8e8e8"/>
          <path id="Trazado_156629" data-name="Trazado 156629" d="M-647,338.48a15.379,15.379,0,0,1,1.775-14.534A18.479,18.479,0,0,1-647,338.48" transform="translate(665.577 -270.238)" fill="#e8e8e8"/>
          <path id="Trazado_156630" data-name="Trazado 156630" d="M-643.219,350.993a11.134,11.134,0,0,0-10.624,6.112c-.126.265-.247.6-.067.836a.778.778,0,0,0,.7.2,9.248,9.248,0,0,0,5.48-2.827,53.176,53.176,0,0,1,4.554-4.331" transform="translate(666.969 -276.579)" fill="#e8e8e8"/>
          <path id="Trazado_156631" data-name="Trazado 156631" d="M-640.4,346.043a19.782,19.782,0,0,1-.2-11.051,5.493,5.493,0,0,1,2.358-3.609.462.462,0,0,1,.361-.06.456.456,0,0,1,.228.265,6.616,6.616,0,0,1,.559,3.17,19.905,19.905,0,0,1-.5,3.206c-.415,1.967-.638,4.073-1.708,5.763a11.225,11.225,0,0,0-.7,1.287c-.2.427-.2.6-.391.92" transform="translate(663.987 -271.966)" fill="#e8e8e8"/>
          <path id="Trazado_156632" data-name="Trazado 156632" d="M-622.322,349.5a14.264,14.264,0,0,1,2.5-11.719c.174-.234.416-.487.71-.457.445.042.566.638.541,1.089a21.161,21.161,0,0,1-3.753,11.087" transform="translate(659.62 -273.376)" fill="#e8e8e8"/>
          <path id="Trazado_156633" data-name="Trazado 156633" d="M-620.595,353.09a17.037,17.037,0,0,0,13.987-2.845,11.337,11.337,0,0,0-7.574-.927,10.989,10.989,0,0,0-6.412,3.772" transform="translate(659.131 -276.126)" fill="#e8e8e8"/>
          <path id="Trazado_156634" data-name="Trazado 156634" d="M-619.235,348.718a16.178,16.178,0,0,1,12.693-7.339,7.941,7.941,0,0,1-4.151,4.589,22.842,22.842,0,0,1-6.094,1.8,4.351,4.351,0,0,0-2.448.969" transform="translate(658.812 -274.328)" fill="#e8e8e8"/>
          <path id="Trazado_156635" data-name="Trazado 156635" d="M-622.427,330.133A37.371,37.371,0,0,0-620.8,322.7a12.416,12.416,0,0,0-1.48-7.327,16.162,16.162,0,0,0-.217,15.039" transform="translate(659.989 -268.227)" fill="#e8e8e8"/>
          <path id="Trazado_156636" data-name="Trazado 156636" d="M-611.061,326.139c2.869-5.221,8.728-9.391,14.66-9.974-2.286,5.7-8.524,10.094-14.66,9.974" transform="translate(656.895 -268.413)" fill="#e8e8e8"/>
          <path id="Trazado_156637" data-name="Trazado 156637" d="M-613.427,330.267c4.283.656,7.935,3.387,11.935,5.047a5.352,5.352,0,0,0,2.7.517,2.112,2.112,0,0,0,2.086-2.137,2.111,2.111,0,0,0-.762-1.6,5.728,5.728,0,0,0-1.962-1.2,21.863,21.863,0,0,0-13.631-.759" transform="translate(657.45 -271.519)" fill="#e8e8e8"/>
          <path id="Trazado_156638" data-name="Trazado 156638" d="M-616.674,334.4a5.052,5.052,0,0,1,2.069,1.432,22.307,22.307,0,0,0,9.024,4.65c.343.084.8.12.968-.192s-.042-.6-.234-.849a12.512,12.512,0,0,0-5.462-3.711c-2.093-.776-3.9-1.714-6.395-1.51" transform="translate(658.219 -272.641)" fill="#e8e8e8"/>
          <path id="Trazado_156639" data-name="Trazado 156639" d="M-620.32,310.611a17.127,17.127,0,0,0,13.132,4.47.921.921,0,0,0,.6-.217c.331-.36-.067-.915-.452-1.2a15.141,15.141,0,0,0-13.282-3.038" transform="translate(659.067 -267.004)" fill="#e8e8e8"/>
          <path id="Trazado_156640" data-name="Trazado 156640" d="M-616.021,308.07a18.3,18.3,0,0,1,16.393-2.7,13.021,13.021,0,0,1-7.821,3.429,24.727,24.727,0,0,1-8.572-.728" transform="translate(658.058 -265.678)" fill="#e8e8e8"/>
          <path id="Trazado_156641" data-name="Trazado 156641" d="M-618.388,294.715c-.379-3.856-.132-6.894-.4-10.768,0-.306-.09-.68-.38-.794-.4-.156-.739.343-.872.752a12.356,12.356,0,0,0,1.642,10.726" transform="translate(659.132 -260.661)" fill="#e8e8e8"/>
          <path id="Trazado_156642" data-name="Trazado 156642" d="M-618.072,295.143a22.642,22.642,0,0,0,6.383-6.239c1.263-1.721,2.328-3.79,2.039-5.907a6.09,6.09,0,0,0-4.6,2.286A12.8,12.8,0,0,0-616.6,290c-.511,1.7-.866,3.441-1.468,5.107" transform="translate(658.539 -260.631)" fill="#e8e8e8"/>
          <path id="Trazado_156643" data-name="Trazado 156643" d="M-609.9,293.589a51.377,51.377,0,0,0,15.713-9.264,8.039,8.039,0,0,0-5.9.457,18.61,18.61,0,0,0-9.9,8.777" transform="translate(656.642 -260.852)" fill="#e8e8e8"/>
          <path id="Trazado_156644" data-name="Trazado 156644" d="M-615.769,300.185a31.872,31.872,0,0,0,8.728.042,36.726,36.726,0,0,0,8.139-2.7.963.963,0,0,0,.553-.421.6.6,0,0,0-.2-.7,1.6,1.6,0,0,0-.692-.324,15.082,15.082,0,0,0-8.8.523,41.266,41.266,0,0,0-7.73,3.579" transform="translate(657.999 -263.598)" fill="#e8e8e8"/>
          <path id="Trazado_156645" data-name="Trazado 156645" d="M-637.852,307.007a15.432,15.432,0,0,1-.139-12.771,9.774,9.774,0,0,1,1.131,6.347c-.217,2.177-.866,4.416-.927,6.624" transform="translate(663.521 -263.268)" fill="#e8e8e8"/>
          <path id="Trazado_156646" data-name="Trazado 156646" d="M-651.792,305.711a17.789,17.789,0,0,0-13.234,5.643,12.4,12.4,0,0,0,7.249-1.348,36.492,36.492,0,0,0,6.2-4.157" transform="translate(669.555 -265.96)" fill="#e8e8e8"/>
          <path id="Trazado_156647" data-name="Trazado 156647" d="M-658.492,303.321c-2.406-.2-4.746-.5-7.068.217a8.462,8.462,0,0,0-5.384,4.565,12.778,12.778,0,0,0,6.617-1.251,37.928,37.928,0,0,0,5.829-3.531" transform="translate(670.944 -265.344)" fill="#e8e8e8"/>
          <path id="Trazado_156648" data-name="Trazado 156648" d="M-648.735,302.358a22.292,22.292,0,0,0-6.942-3.465c-2.533-.59-5.463-.151-7.219,1.757,2.045,1.2,4.529,1.341,6.906,1.341a24.8,24.8,0,0,1,7.531.765" transform="translate(669.056 -264.303)" fill="#e8e8e8"/>
          <path id="Trazado_156649" data-name="Trazado 156649" d="M-645.669,298.986c-3.717-3.646-5.125-10.226-3.609-15.2a23.156,23.156,0,0,1,3.609,15.2" transform="translate(666.002 -260.817)" fill="#e8e8e8"/>
          <path id="Trazado_156650" data-name="Trazado 156650" d="M-631.025,286.451c.7-1.63,1.2-3.339,1.8-5a14.423,14.423,0,0,1,2.6-4.608,6.863,6.863,0,0,1,4.608-2.406,18.539,18.539,0,0,1-8.94,12.031" transform="translate(661.578 -258.623)" fill="#e8e8e8"/>
          <path id="Trazado_156651" data-name="Trazado 156651" d="M-636.386,290.94c-1.161-1.594-2.5-3.76-4.073-4.951a6.786,6.786,0,0,0-5.546-1.456,12.9,12.9,0,0,0,9.625,6.406" transform="translate(665.093 -260.958)" fill="#e8e8e8"/>
          <path id="Trazado_156652" data-name="Trazado 156652" d="M-633.558,286.642a27.611,27.611,0,0,1-1.8-5.937,9.259,9.259,0,0,1,.932-6.016c2.039,3.856,2.695,8,1.005,12.032" transform="translate(662.632 -258.682)" fill="#e8e8e8"/>
          <path id="Trazado_156653" data-name="Trazado 156653" d="M-631.007,272.155c1.155-3.82,4.656-6.617,8.422-7.929A3.128,3.128,0,0,1-621.1,264a1.3,1.3,0,0,1,1.088.909c.139.655-.4,1.2-.908,1.666a28.623,28.623,0,0,1-10.1,5.577" transform="translate(661.578 -256.172)" fill="#e8e8e8"/>
          <path id="Trazado_156654" data-name="Trazado 156654" d="M-630.973,266.63a27.583,27.583,0,0,1,1.1-7.3,9.249,9.249,0,0,1,4.6-5.552c.385,2.49-.716,4.969-2.04,7.11s-2.923,4.163-3.717,6.557" transform="translate(661.58 -253.775)" fill="#e8e8e8"/>
          <path id="Trazado_156655" data-name="Trazado 156655" d="M-633.221,268.685c-.957-2.791-1.052-6.328-2.719-8.759-1.167-1.7-3.008-2.851-4.043-4.65a7.081,7.081,0,0,0,.234,5.282,15.4,15.4,0,0,0,3.086,4.421c1.239,1.318,2.292,2.311,3.441,3.706" transform="translate(663.774 -254.127)" fill="#e8e8e8"/>
          <path id="Trazado_156656" data-name="Trazado 156656" d="M-631.046,354.562c-.073,0-.139-18.589-.145-41.508s.054-41.508.126-41.508.139,18.589.145,41.508S-630.967,354.562-631.046,354.562Z" transform="translate(661.617 -257.944)" fill="#e8e8e8"/>
          <path id="Trazado_156657" data-name="Trazado 156657" d="M-614.723,307.26a4.327,4.327,0,0,1-.7.259l-1.919.649c-1.624.554-3.85,1.354-6.269,2.347s-4.656,1.858-5.937,2.971a4.47,4.47,0,0,0-1.2,1.582c-.181.433-.217.7-.24.7a.658.658,0,0,1,0-.2,3.227,3.227,0,0,1,.138-.542,4.174,4.174,0,0,1,1.167-1.678,10.4,10.4,0,0,1,2.575-1.6c1.029-.481,2.172-.987,3.387-1.486,2.406-.993,4.668-1.769,6.311-2.274.818-.253,1.486-.445,1.949-.566A3.517,3.517,0,0,1-614.723,307.26Z" transform="translate(661.573 -266.323)" fill="#e8e8e8"/>
          <path id="Trazado_156658" data-name="Trazado 156658" d="M-609.046,290.165a1.5,1.5,0,0,1-.2.21l-.6.56-2.226,2.027-7.411,6.617c-2.894,2.575-5.414,5.035-7.129,6.888-.866.926-1.552,1.69-2.015,2.226l-.541.6a1.149,1.149,0,0,1-.2.2,1.382,1.382,0,0,1,.157-.235c.114-.15.276-.373.505-.65.439-.559,1.1-1.347,1.955-2.292a94.452,94.452,0,0,1,7.087-6.96c2.905-2.569,5.547-4.872,7.466-6.539l2.286-1.961.6-.517A1.2,1.2,0,0,1-609.046,290.165Z" transform="translate(661.189 -262.313)" fill="#e8e8e8"/>
          <path id="Trazado_156659" data-name="Trazado 156659" d="M-620.526,303.888c-.079-.037.523-1.432,1.13-3.195s.89-3.254.969-3.242a10.874,10.874,0,0,1-.716,3.326,20.636,20.636,0,0,1-.9,2.238A3.9,3.9,0,0,1-620.526,303.888Z" transform="translate(659.117 -264.022)" fill="#e8e8e8"/>
          <path id="Trazado_156660" data-name="Trazado 156660" d="M-634.262,316.405a3.382,3.382,0,0,1-.445-.517l-1.143-1.462c-.957-1.239-2.286-2.954-3.772-4.812s-2.852-3.555-3.844-4.771l-1.186-1.432a3.571,3.571,0,0,1-.4-.553,3.53,3.53,0,0,1,.481.481c.3.325.722.8,1.2,1.4,1.029,1.2,2.406,2.846,3.91,4.722s2.791,3.61,3.711,4.879c.464.632.83,1.156,1.077,1.516A3.247,3.247,0,0,1-634.262,316.405Z" transform="translate(664.87 -265.291)" fill="#e8e8e8"/>
          <path id="Trazado_156661" data-name="Trazado 156661" d="M-636.2,312.861a6.551,6.551,0,0,1-1.492-2.791,7.911,7.911,0,0,1-.337-2.815h.114c-.048.217-.09.331-.108.325a1.665,1.665,0,0,1,0-.343h.12a12.484,12.484,0,0,0,.475,2.737A20.894,20.894,0,0,0-636.2,312.861Z" transform="translate(663.224 -266.318)" fill="#e8e8e8"/>
          <path id="Trazado_156662" data-name="Trazado 156662" d="M-644.1,306.677a4.859,4.859,0,0,0-1.047-.6,6.849,6.849,0,0,0-2.888-.229,17.917,17.917,0,0,0-2.918.469,9.661,9.661,0,0,1-1.2.289,3.952,3.952,0,0,1,1.15-.469,13.26,13.26,0,0,1,2.941-.56,6.312,6.312,0,0,1,3.008.325A1.85,1.85,0,0,1-644.1,306.677Z" transform="translate(666.537 -265.915)" fill="#e8e8e8"/>
          <path id="Trazado_156663" data-name="Trazado 156663" d="M-646.531,304.673c0,.042-.6-.246-1.594-.6a16.126,16.126,0,0,0-8.043-.6c-1.029.187-1.655.38-1.666.331a1.587,1.587,0,0,1,.421-.181,10.75,10.75,0,0,1,1.2-.337A14.29,14.29,0,0,1-652.1,303a14.466,14.466,0,0,1,4.031.908,10.633,10.633,0,0,1,1.137.517C-646.657,304.572-646.519,304.638-646.531,304.673Z" transform="translate(667.868 -265.314)" fill="#e8e8e8"/>
          <path id="Trazado_156664" data-name="Trazado 156664" d="M-631.656,294.952a33.531,33.531,0,0,1-1.149-4.043,33.381,33.381,0,0,1-.909-4.109,32.766,32.766,0,0,1,1.167,4.043A32.685,32.685,0,0,1-631.656,294.952Z" transform="translate(662.209 -261.523)" fill="#e8e8e8"/>
          <path id="Trazado_156665" data-name="Trazado 156665" d="M-631.931,296.112a19.57,19.57,0,0,0-1.287-2.406,10.511,10.511,0,0,0-1.9-1.961,1.711,1.711,0,0,1,.734.379A5.924,5.924,0,0,1-633,293.55,5.3,5.3,0,0,1-631.931,296.112Z" transform="translate(662.539 -262.683)" fill="#e8e8e8"/>
          <path id="Trazado_156666" data-name="Trazado 156666" d="M-636.227,358.738s-.084-.452-.289-1.239a18.1,18.1,0,0,0-1.245-3.218A44.394,44.394,0,0,0-644.378,345c-1.468-1.684-2.894-3.266-4.109-4.812a33.809,33.809,0,0,1-2.942-4.241,20.259,20.259,0,0,1-1.479-3.146c-.139-.385-.241-.686-.295-.9a1.436,1.436,0,0,1-.073-.325s.157.428.464,1.2a22.721,22.721,0,0,0,1.582,3.092,35.233,35.233,0,0,0,2.965,4.181c1.2,1.5,2.647,3.08,4.121,4.764a42.106,42.106,0,0,1,6.557,9.378,15.74,15.74,0,0,1,1.2,3.278,8.993,8.993,0,0,1,.168.933A1.369,1.369,0,0,1-636.227,358.738Z" transform="translate(666.799 -272.029)" fill="#e8e8e8"/>
          <path id="Trazado_156667" data-name="Trazado 156667" d="M-616.318,345.4a7.609,7.609,0,0,1-.764.427,15.7,15.7,0,0,0-2,1.323,22.447,22.447,0,0,0-2.623,2.406c-.921.968-1.865,2.1-2.833,3.309a78.659,78.659,0,0,0-4.813,6.286,22.651,22.651,0,0,0-1.2,2.07,7.326,7.326,0,0,1-.427.776.949.949,0,0,1,.073-.223c.06-.139.138-.343.259-.6a20.671,20.671,0,0,1,1.143-2.124,69.541,69.541,0,0,1,4.776-6.353c.969-1.2,1.931-2.34,2.864-3.314a21.808,21.808,0,0,1,2.689-2.37,14.136,14.136,0,0,1,2.051-1.275c.259-.126.463-.2.6-.265S-616.318,345.39-616.318,345.4Z" transform="translate(661.567 -275.272)" fill="#e8e8e8"/>
          <path id="Trazado_156668" data-name="Trazado 156668" d="M-614.553,352.422a11.525,11.525,0,0,1-1.625.235,21.069,21.069,0,0,0-3.856.758,11.681,11.681,0,0,0-3.453,1.8,9.759,9.759,0,0,0-1.2,1.094,1.4,1.4,0,0,1,.24-.373,6.1,6.1,0,0,1,.849-.866,10.492,10.492,0,0,1,3.489-1.919,17.551,17.551,0,0,1,3.923-.7A8.664,8.664,0,0,1-614.553,352.422Z" transform="translate(660.092 -276.914)" fill="#e8e8e8"/>
          <path id="Trazado_156669" data-name="Trazado 156669" d="M-624.079,355.063c-.084-.048.65-1.167,1.2-2.671s.656-2.851.752-2.839a2.455,2.455,0,0,1,0,.872,8.884,8.884,0,0,1-1.419,3.94A2.591,2.591,0,0,1-624.079,355.063Z" transform="translate(659.95 -276.246)" fill="#e8e8e8"/>
          <path id="Trazado_156670" data-name="Trazado 156670" d="M-611.57,326.532a1.361,1.361,0,0,1-.265.138l-.764.349c-.331.145-.739.325-1.2.566s-.993.481-1.551.818l-.891.505c-.307.175-.6.385-.932.6-.656.4-1.311.884-2.009,1.384a37.518,37.518,0,0,0-4.211,3.688,37.95,37.95,0,0,0-3.543,4.313c-.475.716-.938,1.39-1.312,2.057-.192.331-.39.638-.56.957l-.474.9c-.313.566-.542,1.113-.765,1.582s-.391.872-.523,1.2-.235.572-.319.776a1.19,1.19,0,0,1-.132.265,1.289,1.289,0,0,1,.078-.283c.073-.211.162-.475.277-.794a11.509,11.509,0,0,1,.487-1.239c.205-.475.422-1.029.728-1.607l.464-.92c.162-.319.354-.632.547-.969.367-.674.83-1.359,1.3-2.081a33.336,33.336,0,0,1,7.79-8.061c.71-.5,1.378-.987,2.039-1.378.331-.2.638-.4.951-.6l.9-.494c.566-.325,1.113-.559,1.576-.781a12.11,12.11,0,0,1,1.2-.53l.782-.3A1.433,1.433,0,0,1-611.57,326.532Z" transform="translate(661.578 -270.845)" fill="#e8e8e8"/>
          <path id="Trazado_156671" data-name="Trazado 156671" d="M-620.792,336.108a1.919,1.919,0,0,1,.644-.951,4.022,4.022,0,0,1,2.575-.987,6.972,6.972,0,0,1,2.707.53,3.815,3.815,0,0,1,1.023.493,5.667,5.667,0,0,1-1.088-.318,8.385,8.385,0,0,0-2.635-.439,4.212,4.212,0,0,0-2.46.866A8.545,8.545,0,0,0-620.792,336.108Z" transform="translate(659.177 -272.637)" fill="#e8e8e8"/>
          <path id="Trazado_156672" data-name="Trazado 156672" d="M-623.055,337.547a9.811,9.811,0,0,0,.728-2.376,9.423,9.423,0,0,0-.157-2.509,1.561,1.561,0,0,1,.3.692,4.964,4.964,0,0,1,.132,1.8,4.8,4.8,0,0,1-.547,1.738C-622.832,337.355-623.031,337.565-623.055,337.547Z" transform="translate(659.708 -272.283)" fill="#e8e8e8"/>
          <path id="Trazado_156673" data-name="Trazado 156673" d="M-647.774,370.538c.4,7.1,2.539,14.33,5.835,21.657h14.317a62.094,62.094,0,0,0,5.486-21.657Z" transform="translate(665.508 -281.169)" fill="#e8e8e8"/>
          <path id="Trazado_156674" data-name="Trazado 156674" d="M-623.764,385.517c0,.078-4.71.139-10.527.139s-10.528-.06-10.528-.139,4.71-.132,10.528-.132S-623.764,385.445-623.764,385.517Z" transform="translate(664.815 -284.653)" fill="#e8e8e8"/>
          <path id="Trazado_156675" data-name="Trazado 156675" d="M-623.78,388.881c0,.072-4.415.132-9.866.132s-9.884-.06-9.884-.132,4.416-.132,9.872-.132S-623.78,388.809-623.78,388.881Z" transform="translate(664.512 -285.442)" fill="#e8e8e8"/>
          <path id="Trazado_156676" data-name="Trazado 156676" d="M-639.892,376.676a39.483,39.483,0,0,1,0,6.618A40.991,40.991,0,0,1-639.892,376.676Z" transform="translate(663.69 -282.61)" fill="#e8e8e8"/>
          <path id="Trazado_156677" data-name="Trazado 156677" d="M-629.865,376.676a44.178,44.178,0,0,1,0,6.828A42.21,42.21,0,0,1-629.865,376.676Z" transform="translate(661.339 -282.61)" fill="#e8e8e8"/>
          <path id="Trazado_156678" data-name="Trazado 156678" d="M-620.456,376.558a46.018,46.018,0,0,1,0,6.967A43.894,43.894,0,0,1-620.456,376.558Z" transform="translate(659.131 -282.582)" fill="#e8e8e8"/>
          <path id="Trazado_156679" data-name="Trazado 156679" d="M-622.437,376.634c0,.073-5.534.132-12.35.132s-12.35-.06-12.35-.132,5.528-.138,12.35-.138S-622.437,376.526-622.437,376.634Z" transform="translate(665.359 -282.567)" fill="#e8e8e8"/>
        </g>
        <g id="Grupo_107426" data-name="Grupo 107426" transform="translate(45 20.465)">
          <rect id="Rectángulo_37014" data-name="Rectángulo 37014" width="53.5" height="77.548" transform="translate(2.691 0)" fill="#e0e0e0"/>
          <rect id="Rectángulo_37015" data-name="Rectángulo 37015" width="53.5" height="77.548" transform="translate(0.011 0)" fill="#f5f5f5"/>
          <rect id="Rectángulo_37016" data-name="Rectángulo 37016" width="40.206" height="60.75" transform="translate(6.655 8.399)" fill="#fff"/>
          <path id="Trazado_156680" data-name="Trazado 156680" d="M-652.857,197.46v-4.519c0-2.91,0-7.155-.034-12.509,0-10.715-.039-25.881-.067-43.733l.134.129h-40.2l.145-.145c0,22.915,0,44.042-.027,60.744l-.118-.112,29.268.061,8.085.028h.045l-8.063.028-29.335.062h-.118V136.486h40.487v.134c0,17.9-.05,33.081-.067,43.829,0,5.348,0,9.582-.034,12.486v4.149A.869.869,0,0,1-652.857,197.46Z" transform="translate(699.718 -128.316)" fill="#e0e0e0"/>
          <path id="Trazado_156681" data-name="Trazado 156681" d="M-633.862,125.812a9.389,9.389,0,0,1-.953,1.385c-.623.83-1.5,1.962-2.512,3.185s-1.946,2.3-2.641,3.072a9.085,9.085,0,0,1-1.177,1.2,9.547,9.547,0,0,1,1.02-1.335l2.574-3.123,2.573-3.129A10.1,10.1,0,0,1-633.862,125.812Z" transform="translate(687.519 -125.812)" fill="#e0e0e0"/>
          <path id="Trazado_156682" data-name="Trazado 156682" d="M-640.237,215.894a49.675,49.675,0,0,0,7.009,8.774" transform="translate(687.306 -146.947)" fill="#fff"/>
          <path id="Trazado_156683" data-name="Trazado 156683" d="M-633.229,224.666a8.4,8.4,0,0,1-1.222-1.121,38.991,38.991,0,0,1-2.646-2.983,39.624,39.624,0,0,1-2.327-3.235,7.591,7.591,0,0,1-.814-1.441,12.252,12.252,0,0,1,.981,1.323c.595.83,1.419,1.962,2.389,3.173s1.89,2.243,2.568,3.023A9.769,9.769,0,0,1-633.229,224.666Z" transform="translate(687.306 -146.945)" fill="#e0e0e0"/>
          <path id="Trazado_156684" data-name="Trazado 156684" d="M-701.734,224.378l7.009-8.646" transform="translate(701.734 -146.909)" fill="#fff"/>
          <path id="Trazado_156685" data-name="Trazado 156685" d="M-694.725,215.747a54.011,54.011,0,0,1-3.392,4.419,52.671,52.671,0,0,1-3.616,4.216,54.365,54.365,0,0,1,3.392-4.412A53.488,53.488,0,0,1-694.725,215.747Z" transform="translate(701.734 -146.912)" fill="#e0e0e0"/>
          <path id="Trazado_156686" data-name="Trazado 156686" d="M-701.719,125.812a48.551,48.551,0,0,1,3.4,4.065,48.132,48.132,0,0,1,3.173,4.245,47.918,47.918,0,0,1-3.4-4.065A47.282,47.282,0,0,1-701.719,125.812Z" transform="translate(701.73 -125.812)" fill="#e0e0e0"/>
          <rect id="Rectángulo_37017" data-name="Rectángulo 37017" width="13.462" height="38.221" transform="translate(20.874 20.729)" fill="#e0e0e0"/>
        </g>
        <g id="freepik--Floor--inject-35" transform="translate(16.789 236.901)">
          <path id="Trazado_156687" data-name="Trazado 156687" d="M-360.562,398.927c0,.084-94.361.145-163.442.145s-155.795-.061-155.795-.145,86.657-.146,155.795-.146S-360.562,398.848-360.562,398.927Z" transform="translate(679.799 -398.781)" fill="#263238"/>
        </g>
        <g id="freepik--Manual--inject-35" transform="translate(108.816 15.983)">
          <path id="Trazado_156688" data-name="Trazado 156688" d="M-558.67,112.392h157.724a5.971,5.971,0,0,1,5.971,5.965V324.565a5.971,5.971,0,0,1-5.971,5.971H-558.67V112.392Z" transform="translate(559.353 -110.672)" fill="#18a263"/>
          <rect id="Rectángulo_37018" data-name="Rectángulo 37018" width="87.51" height="211.385" transform="translate(72.333 8.474)" fill="#e0e0e0"/>
          <path id="Trazado_156690" data-name="Trazado 156690" d="M-559.562,110.145h146.587A5.971,5.971,0,0,1-407,116.116h0V324.038a5.971,5.971,0,0,1-5.971,5.971H-559.562V110.145Z" transform="translate(559.562 -110.145)" fill="#20cb7d"/>
          <path id="Trazado_156691" data-name="Trazado 156691" d="M-539.117,330.4c-.083,0-.145-49.31-.145-110.123s.061-110.134.145-110.134.144,49.3.144,110.134S-539.04,330.4-539.117,330.4Z" transform="translate(554.799 -110.145)" fill="#263238"/>
          <path id="Trazado_156692" data-name="Trazado 156692" d="M-533.738,330.4c-.077,0-.144-49.31-.144-110.123s.067-110.134.144-110.134.145,49.3.145,110.134S-533.66,330.4-533.738,330.4Z" transform="translate(553.537 -110.145)" fill="#263238"/>
          <path id="Trazado_156693" data-name="Trazado 156693" d="M-489.721,212.8l-.039-6.887-3.329,5.6h-1.637l-3.329-5.422v6.7h-3.4v-13h3.024l4.562,7.5,4.439-7.5h3.025l.038,13Z" transform="translate(545.928 -138.835)" fill="#fff"/>
          <path id="Trazado_156694" data-name="Trazado 156694" d="M-470.088,210.272H-475.6l-1.021,2.524h-3.751l5.738-13h3.623l5.755,13h-3.824Zm-1.076-2.7-1.665-4.162-1.665,4.162Z" transform="translate(540.984 -138.833)" fill="#fff"/>
          <path id="Trazado_156695" data-name="Trazado 156695" d="M-446.879,199.808v13h-3.029l-5.76-6.926V212.8h-3.6v-13h3.046l5.738,6.925v-6.925Z" transform="translate(536.032 -138.835)" fill="#fff"/>
          <path id="Trazado_156696" data-name="Trazado 156696" d="M-439.833,207.007v-7.214h3.707v7.092c0,2.22.927,3.119,2.47,3.119s2.447-.888,2.447-3.119V199.8h3.624v7.214c0,3.884-2.265,6.054-6.1,6.054S-439.833,210.892-439.833,207.007Z" transform="translate(531.472 -138.831)" fill="#fff"/>
          <path id="Trazado_156697" data-name="Trazado 156697" d="M-412.763,210.272h-5.5l-1.021,2.524h-3.751l5.738-13h3.623l5.755,13h-3.824Zm-1.076-2.708L-415.5,203.4l-1.665,4.162Z" transform="translate(527.53 -138.833)" fill="#fff"/>
          <path id="Trazado_156698" data-name="Trazado 156698" d="M-401.907,199.808h3.674V209.89h6.2V212.8h-9.877Z" transform="translate(522.574 -138.835)" fill="#fff"/>
          <g id="Grupo_107428" data-name="Grupo 107428" transform="translate(15.682)" opacity="0.3">
            <rect id="Rectángulo_37019" data-name="Rectángulo 37019" width="4.123" height="220.258"/>
          </g>
          <path id="Trazado_156710" data-name="Trazado 156710" d="M-420.489,135.31V110.145h24.239v25.632l-11.886,11.886Z" transform="translate(526.933 -110.145)" fill="#455a64"/>
          <path id="Trazado_156711" data-name="Trazado 156711" d="M-357.456,121.216c.077,0,.144,46.812.144,104.546s-.067,104.557-.144,104.557-.145-46.8-.145-104.557S-357.523,121.216-357.456,121.216Z" transform="translate(512.179 -112.742)" fill="#263238"/>
          <path id="Trazado_156712" data-name="Trazado 156712" d="M-354.194,121.216c.078,0,.145,46.812.145,104.546s-.067,104.557-.145,104.557-.144-46.8-.144-104.557S-354.278,121.216-354.194,121.216Z" transform="translate(511.413 -112.742)" fill="#263238"/>
          <path id="Trazado_156713" data-name="Trazado 156713" d="M-357.391,160.954h6.071l5.549,4.206-4.978,4.972h-6.642Z" transform="translate(512.129 -122.065)" fill="#455a64"/>
          <rect id="Rectángulo_37020" data-name="Rectángulo 37020" width="11.465" height="7.636" transform="translate(157.219 56.912)" fill="#20cb7d"/>
          <g id="Grupo_107429" data-name="Grupo 107429" transform="translate(55.777 98.567)" opacity="0.3">
            <path id="Trazado_156714" data-name="Trazado 156714" d="M-429.594,288.005l-6.848,6.66a1.81,1.81,0,0,1-2.52,0l-47.168-45.148a1.814,1.814,0,0,1-.056-2.563l7.147-7.469a1.816,1.816,0,0,1,2.566-.054l.015.015,46.885,45.941a1.809,1.809,0,0,1,.04,2.558Z" transform="translate(486.688 -238.925)"/>
          </g>
          <path id="Trazado_156715" data-name="Trazado 156715" d="M-470.712,243.613a15.244,15.244,0,0,1-1.9,2.175,14.76,14.76,0,0,1-2.1,1.982,14.877,14.877,0,0,1,1.9-2.175A14.432,14.432,0,0,1-470.712,243.613Z" transform="translate(539.655 -141.459)" fill="#263238"/>
          <path id="Trazado_156716" data-name="Trazado 156716" d="M-460.917,253.046a29.188,29.188,0,0,1-4,4.162,14.791,14.791,0,0,1,1.9-2.181A15.147,15.147,0,0,1-460.917,253.046Z" transform="translate(537.357 -143.672)" fill="#263238"/>
          <path id="Trazado_156717" data-name="Trazado 156717" d="M-466.455,247.927a26.359,26.359,0,0,1-2.591,2.875,26.953,26.953,0,0,1-2.775,2.669,26.608,26.608,0,0,1,2.591-2.869A26.1,26.1,0,0,1-466.455,247.927Z" transform="translate(538.976 -142.471)" fill="#263238"/>
          <path id="Trazado_156718" data-name="Trazado 156718" d="M-456.384,258a26.073,26.073,0,0,1-2.592,2.869,26.627,26.627,0,0,1-2.775,2.675,52.057,52.057,0,0,1,5.383-5.549Z" transform="translate(536.614 -144.832)" fill="#263238"/>
          <path id="Trazado_156719" data-name="Trazado 156719" d="M-451.338,262.631a14.54,14.54,0,0,1-1.9,2.175,14.85,14.85,0,0,1-2.1,1.981,14.593,14.593,0,0,1,1.893-2.175A14.677,14.677,0,0,1-451.338,262.631Z" transform="translate(535.108 -145.921)" fill="#263238"/>
          <path id="Trazado_156720" data-name="Trazado 156720" d="M-446.783,267.583a27.669,27.669,0,0,1-2.585,2.869,25.956,25.956,0,0,1-2.774,2.669,27.3,27.3,0,0,1,2.591-2.869A26.13,26.13,0,0,1-446.783,267.583Z" transform="translate(534.36 -147.082)" fill="#263238"/>
          <path id="Trazado_156721" data-name="Trazado 156721" d="M-441.755,272.208a29.139,29.139,0,0,1-4,4.162,14.752,14.752,0,0,1,1.9-2.181A14.384,14.384,0,0,1-441.755,272.208Z" transform="translate(532.861 -148.167)" fill="#263238"/>
          <path id="Trazado_156722" data-name="Trazado 156722" d="M-437.227,277.16a25.456,25.456,0,0,1-2.586,2.869,25.726,25.726,0,0,1-2.774,2.675A26.449,26.449,0,0,1-440,279.829,26.906,26.906,0,0,1-437.227,277.16Z" transform="translate(532.118 -149.329)" fill="#263238"/>
          <path id="Trazado_156723" data-name="Trazado 156723" d="M-432.178,281.786a29.1,29.1,0,0,1-4,4.161,15.1,15.1,0,0,1,1.9-2.181A15.564,15.564,0,0,1-432.178,281.786Z" transform="translate(530.614 -150.415)" fill="#263238"/>
          <path id="Trazado_156724" data-name="Trazado 156724" d="M-427.644,286.709a26.355,26.355,0,0,1-2.592,2.874,26.872,26.872,0,0,1-2.774,2.669,27.01,27.01,0,0,1,2.585-2.869A26.293,26.293,0,0,1-427.644,286.709Z" transform="translate(529.871 -151.57)" fill="#263238"/>
          <path id="Trazado_156725" data-name="Trazado 156725" d="M-422.6,291.37a14.224,14.224,0,0,1-1.892,2.175,15.065,15.065,0,0,1-2.1,1.982,14.426,14.426,0,0,1,1.9-2.175A14.853,14.853,0,0,1-422.6,291.37Z" transform="translate(528.366 -152.663)" fill="#263238"/>
          <g id="Grupo_107430" data-name="Grupo 107430" transform="translate(87.971 97.997)" opacity="0.3">
            <path id="Trazado_156726" data-name="Trazado 156726" d="M-444.625,257.694l6.6,6.193,4.439-4.367s7.142,2.22,11.736-2.853c4.173-4.589,2.93-11.265,2.93-11.265l-7.691,6.787-6.509-6.509,6.864-7.12a11.8,11.8,0,0,0-11.975,3.807c-4.128,4.678-2,10.826-2,10.826Z" transform="translate(444.625 -238.181)"/>
          </g>
          <g id="Grupo_107431" data-name="Grupo 107431" transform="translate(54.104 129.407)" opacity="0.3">
            <path id="Trazado_156727" data-name="Trazado 156727" d="M-463.208,285.4c-.161-.289-6.592-6.177-6.592-6.177l-4.184,4.1s-7.852-1.565-11.736,2.852c-4.35,4.944-2.93,11.265-2.93,11.265l7.691-6.787,6.509,6.515-6.864,7.114a11.81,11.81,0,0,0,11.975-3.785c4.129-4.678,2-10.832,2-10.832Z" transform="translate(488.873 -279.219)"/>
          </g>
          <path id="Trazado_156728" data-name="Trazado 156728" d="M-412.9,365.583c0,.083-20.831.144-46.518.144s-46.525-.06-46.525-.144,20.826-.145,46.525-.145S-412.9,365.5-412.9,365.583Z" transform="translate(546.981 -170.041)" fill="#fff"/>
          <path id="Trazado_156729" data-name="Trazado 156729" d="M-423.412,371.376c0,.077-13.7.144-30.592.144s-30.6-.067-30.6-.144,13.7-.145,30.6-.145S-423.412,371.292-423.412,371.376Z" transform="translate(541.975 -171.4)" fill="#fff"/>
          <rect id="Rectángulo_37021" data-name="Rectángulo 37021" width="7.33" height="7.33" transform="translate(83.898 204.232)" fill="#e0e0e0"/>
        </g>
        <g id="freepik--Character--inject-35" transform="translate(67.499 26.674)">
          <path id="Trazado_156730" data-name="Trazado 156730" d="M-563.86,382.885l-1.706,12.406s12.033,5.9,11.941,8.216l-24.163-2.455,1.841-19.432Z" transform="translate(605.155 -184.528)" fill="#455a64"/>
          <path id="Trazado_156731" data-name="Trazado 156731" d="M-571.69,397.123a.989.989,0,0,0-.792,1.055.951.951,0,0,0,1.037.8,1.049,1.049,0,0,0,.84-1.123.993.993,0,0,0-1.178-.711" transform="translate(603.911 -188.164)" fill="#e0e0e0"/>
          <g id="Grupo_107432" data-name="Grupo 107432" transform="translate(27.367 214.592)" opacity="0.6">
            <path id="Trazado_156732" data-name="Trazado 156732" d="M-577.788,406.436l.264-1.951,23.07,3.068s1.031.577.829,1.32Z" transform="translate(577.788 -404.485)" fill="#fff"/>
          </g>
          <path id="Trazado_156733" data-name="Trazado 156733" d="M-562,399.321c0,.116-.614.11-1.228.435s-.975.785-1.08.724.142-.718.9-1.1S-561.967,399.2-562,399.321Z" transform="translate(601.999 -188.643)" fill="#263238"/>
          <path id="Trazado_156734" data-name="Trazado 156734" d="M-558.658,401.061c0,.116-.515.263-.97.724s-.613.975-.736.957-.122-.693.448-1.227S-558.652,400.944-558.658,401.061Z" transform="translate(601.083 -189.076)" fill="#263238"/>
          <path id="Trazado_156735" data-name="Trazado 156735" d="M-556.672,404.628c-.11,0-.214-.613.154-1.227s.951-.816.987-.712-.338.411-.613.92S-556.549,404.628-556.672,404.628Z" transform="translate(600.225 -189.465)" fill="#263238"/>
          <path id="Trazado_156736" data-name="Trazado 156736" d="M-561.957,395.45c-.061.1-.614-.11-1.228-.135s-1.227.135-1.264.031.491-.478,1.282-.442S-561.89,395.364-561.957,395.45Z" transform="translate(602.026 -187.644)" fill="#263238"/>
          <path id="Trazado_156737" data-name="Trazado 156737" d="M-603.371,272.464s-4.436,31.489-2.2,36.636c1.724,3.982,4.78,5.713,8.689,6.719A139.114,139.114,0,0,0-582.2,318.3l3.068-18.143-6.891-1.5,6.344-22.573-11.246-7.688Z" transform="translate(611.822 -157.964)" fill="#263238"/>
          <path id="Trazado_156738" data-name="Trazado 156738" d="M-573.287,275.707l-5.559,86.987,15.34.779,6.829-43.152s7.29-35.587,7.786-39.938,0-13.591,0-13.591Z" transform="translate(605.403 -157.587)" fill="#263238"/>
          <path id="Trazado_156739" data-name="Trazado 156739" d="M-573.551,287.315a.707.707,0,0,1,0,.171v.5c0,.46-.037,1.1-.067,1.92-.08,1.669-.2,4.086-.38,7.068-.35,5.964-.933,14.2-1.534,23.316-.276,4.553-.54,8.885-.779,12.835s-.669,7.48-.964,10.431-.521,5.381-.651,7.045c-.061.816-.11,1.453-.147,1.92a1.682,1.682,0,0,1-.043.5.544.544,0,0,1,0,.165v-.668c0-.442.043-1.086.092-1.921.092-1.669.27-4.086.546-7.062s.613-6.516.9-10.431.442-8.283.755-12.829c.614-9.087,1.227-17.309,1.626-23.316.2-2.964.368-5.369.479-7.062.061-.817.1-1.454.135-1.921a1.679,1.679,0,0,1,.043-.5A.8.8,0,0,1-573.551,287.315Z" transform="translate(605.232 -162.402)" fill="#455a64"/>
          <path id="Trazado_156740" data-name="Trazado 156740" d="M-578.551,297.191a2.621,2.621,0,0,1-.092.681c-.086.436-.22,1.068-.4,1.841-.362,1.54-.944,3.681-1.724,5.952s-1.607,4.326-2.258,5.774c-.325.723-.613,1.307-.8,1.7a2.672,2.672,0,0,1-.344.614,3.2,3.2,0,0,1,.233-.651c.19-.478.429-1.055.706-1.737.613-1.466,1.387-3.5,2.166-5.792s1.386-4.381,1.841-5.909l.5-1.8A2.936,2.936,0,0,1-578.551,297.191Z" transform="translate(606.654 -164.72)" fill="#455a64"/>
          <path id="Trazado_156741" data-name="Trazado 156741" d="M-588.963,173.279l-3.682,2.939s-11.719,2.092-12.719,3.92l3.81,23.513,2.957,20.174s-4.43,11.9-4.553,16.917,0,9.2,0,9.2h2.2a19.828,19.828,0,0,1,13.726,5.521h0l4.044-3.681.792,6.982s15.866.976,19.9-2.086,9.517-9.554,9.517-9.554.944-16.284-3.884-24.506-6.043-9.928-6.043-9.928,1.718-14.186,1.718-14.677,1.466-19.843,1.466-19.843l-12.173-3.068-3.522-2.694Z" transform="translate(611.625 -135.445)" fill="#fda929"/>
          <g id="Grupo_107433" data-name="Grupo 107433" transform="translate(12.534 82.573)" opacity="0.3">
            <path id="Trazado_156742" data-name="Trazado 156742" d="M-597.1,238.939a6.815,6.815,0,0,0,5.639,1.73,27.736,27.736,0,0,1,4.037-.749c2,.031,3.724,1.307,5.466,2.282a20.11,20.11,0,0,0,12.462,2.344c4.908-.681,9.406-3.166,13.579-5.859a3.033,3.033,0,0,0,.828-.693,1.9,1.9,0,0,0-.11-2.2,3.176,3.176,0,0,0-2.007-1.129,12.31,12.31,0,0,0-4.227.307,26.362,26.362,0,0,1-9.019-.08c-3.78-.687-7.363-2.2-11.192-2.706a21.912,21.912,0,0,0-12.529,2.037,6.854,6.854,0,0,0-2.253,1.577,4.245,4.245,0,0,0-.674,3.135" transform="translate(597.168 -231.997)"/>
          </g>
          <path id="Trazado_156743" data-name="Trazado 156743" d="M-579.79,190.25a.615.615,0,0,1,0,.184,3.247,3.247,0,0,0,.037.552l.148,2.123c.1,1.841.246,4.522.423,7.792.325,6.6.779,15.689,1.276,25.721.117,2.51.233,4.964.344,7.332s.227,4.651.221,6.836c0,1.092,0,2.159-.1,3.19a28.047,28.047,0,0,0-.184,2.988c0,1.926.16,3.743.129,5.388a33.418,33.418,0,0,0,.38,4.418c.135,1.3.276,2.411.387,3.332s.178,1.607.233,2.11a5.085,5.085,0,0,0,.049.553,1.146,1.146,0,0,1,0,.19,1.071,1.071,0,0,1-.043-.19,4.336,4.336,0,0,0-.08-.546l-.289-2.1-.442-3.332c-.153-1.3-.35-2.774-.429-4.43,0-1.657-.147-3.442-.166-5.394,0-.975.1-1.982.166-3.006s.092-2.086.086-3.172c0-2.172-.122-4.454-.24-6.823s-.233-4.823-.349-7.332c-.467-10.032-.884-19.119-1.185-25.721-.135-3.277-.245-5.933-.319-7.8,0-.9-.055-1.613-.073-2.117v-.552A.712.712,0,0,1-579.79,190.25Z" transform="translate(605.629 -139.629)" fill="#263238"/>
          <path id="Trazado_156744" data-name="Trazado 156744" d="M-602.749,186.917l-.356,24.629,1.841,4.295-1.528,11.732-6.2-3.486a8.792,8.792,0,0,1-4.5-8.59v-.08c.57-4.774,1.515-12.382,2.307-17.21,1.227-7.474,2.086-13.351,3.921-15.677Z" transform="translate(613.544 -137.818)" fill="#fda929"/>
          <path id="Trazado_156745" data-name="Trazado 156745" d="M-546.675,179.936s3.552-.73,5.393,7.841,3.307,23.513,3.307,23.513a1.228,1.228,0,0,1,.88,1.5,1.227,1.227,0,0,1-.149.344s-.245,8.069-1.227,9.045l-10.229-6.037-1.166-1.7Z" transform="translate(598.604 -137.206)" fill="#fda929"/>
          <path id="Trazado_156746" data-name="Trazado 156746" d="M-599.5,238.22l13.738-1.528,1.055-6.682-13.474-1.08Z" transform="translate(610.248 -148.704)" fill="#9d6054"/>
          <path id="Trazado_156747" data-name="Trazado 156747" d="M-579.415,183.963a4.873,4.873,0,0,1-.461.706c-.355.484-.81,1.1-1.343,1.841l-2.025,2.718a.414.414,0,0,1-.3.178.508.508,0,0,1-.319-.1,3.116,3.116,0,0,1-.387-.344,8.353,8.353,0,0,1-.724-.736,13.559,13.559,0,0,1-1.307-1.731,13.306,13.306,0,0,1-2-7.222,11.06,11.06,0,0,1,.264-2.276,4.39,4.39,0,0,1,.239-.8,20.818,20.818,0,0,0-.276,3.068A13.157,13.157,0,0,0-584.742,188a9.9,9.9,0,0,0,.7.724,3.87,3.87,0,0,0,.344.319c.122.067.148.073.227,0,.761-1.013,1.479-1.914,2.067-2.669l1.43-1.78A3.784,3.784,0,0,1-579.415,183.963Z" transform="translate(607.617 -136.331)" fill="#263238"/>
          <path id="Trazado_156748" data-name="Trazado 156748" d="M-565.134,175.941a.7.7,0,0,1,.037.251,6.922,6.922,0,0,1,0,.712,9.885,9.885,0,0,1-.393,2.608,26.862,26.862,0,0,1-1.424,3.633,35.672,35.672,0,0,1-2.27,4.2c-.448.724-.9,1.418-1.332,2.086-.11.166-.214.331-.325.491a3.014,3.014,0,0,1-.368.5.5.5,0,0,1-.387.116.612.612,0,0,1-.324-.165,3.178,3.178,0,0,1-.368-.449l-2.283-3.111-1.552-2.111a5.269,5.269,0,0,1-.533-.8,6.493,6.493,0,0,1,.613.724c.418.534.97,1.227,1.633,2.056l2.393,3.068c.215.289.473.614.614.442a3.181,3.181,0,0,0,.313-.436l.319-.5c.435-.669.877-1.362,1.319-2.08a38.48,38.48,0,0,0,2.276-4.154,31.325,31.325,0,0,0,1.479-3.577A14.356,14.356,0,0,0-565.134,175.941Z" transform="translate(604.89 -136.272)" fill="#263238"/>
          <path id="Trazado_156749" data-name="Trazado 156749" d="M-590.741,188.411c0,.056-.651.166-1.638.614a8.339,8.339,0,0,0-3.271,2.724l-.092.129-.135-.1a8.12,8.12,0,0,0-1.074-.675,8.618,8.618,0,0,0-4.994-.964,19.769,19.769,0,0,0-2.1.46,1.8,1.8,0,0,1,.522-.263,7.5,7.5,0,0,1,1.552-.418,8.353,8.353,0,0,1,5.191.915,8.713,8.713,0,0,1,1.1.718h-.227a8.009,8.009,0,0,1,3.449-2.73,7,7,0,0,1,1.227-.38A1.376,1.376,0,0,1-590.741,188.411Z" transform="translate(611.317 -139.196)" fill="#263238"/>
          <path id="Trazado_156750" data-name="Trazado 156750" d="M-550.895,190a5.147,5.147,0,0,0-2.283-.614,6.322,6.322,0,0,0-2.515.472,17.323,17.323,0,0,0-2.8,1.515l-.295.184-.122.08-.086-.116a7.024,7.024,0,0,0-4.706-2.577,10.9,10.9,0,0,0-2.289.067,2.205,2.205,0,0,1,.613-.184,6.193,6.193,0,0,1,1.706-.1,7.053,7.053,0,0,1,2.455.651,6.812,6.812,0,0,1,2.454,1.957l-.214-.037.295-.19a15.709,15.709,0,0,1,2.871-1.522,6.334,6.334,0,0,1,2.632-.423,4.3,4.3,0,0,1,1.737.467A1.54,1.54,0,0,1-550.895,190Z" transform="translate(602.388 -139.266)" fill="#263238"/>
          <path id="Trazado_156751" data-name="Trazado 156751" d="M-559.437,260.219a2.8,2.8,0,0,1-.24.2l-.718.522-.527.368c-.2.129-.424.251-.657.393a16.855,16.855,0,0,1-1.639.9l-.975.472c-.344.16-.712.289-1.092.449a25.716,25.716,0,0,1-2.455.84,27.418,27.418,0,0,1-11.805.7c-.9-.172-1.76-.313-2.546-.546-.393-.1-.774-.19-1.136-.313l-1.024-.355a16.46,16.46,0,0,1-1.731-.7c-.252-.111-.484-.209-.7-.313l-.564-.307-.779-.429c-.172-.1-.264-.16-.258-.172a1.325,1.325,0,0,1,.289.117l.8.374.576.282c.209.093.448.184.706.289.5.2,1.068.454,1.73.651l1.025.331c.356.11.736.19,1.129.289.779.22,1.632.35,2.521.515a31.319,31.319,0,0,0,5.878.264,30.3,30.3,0,0,0,5.811-.964c.865-.264,1.694-.491,2.455-.8.374-.147.742-.27,1.086-.423l.975-.448c.614-.27,1.166-.614,1.645-.853.239-.135.466-.245.668-.368l.534-.344.755-.472A1.262,1.262,0,0,1-559.437,260.219Z" transform="translate(607.617 -156.045)" fill="#263238"/>
          <path id="Trazado_156752" data-name="Trazado 156752" d="M-562.706,248.915a6.326,6.326,0,0,1-.712.706c-.234.221-.528.491-.89.773s-.755.614-1.227.951-.988.706-1.577,1.055-1.228.712-1.884,1.074a28.527,28.527,0,0,1-9.468,2.964c-.761.08-1.485.171-2.166.19s-1.313.043-1.89.031-1.1-.049-1.558-.08a10.025,10.025,0,0,1-1.172-.129,6.748,6.748,0,0,1-.988-.172,5.331,5.331,0,0,1,1,.049c.319,0,.712.068,1.166.074a13.085,13.085,0,0,0,1.552,0c.577-.056,1.227,0,1.877-.068s1.387-.129,2.142-.22a29.758,29.758,0,0,0,9.369-2.927c.669-.356,1.313-.681,1.884-1.043s1.1-.687,1.584-1.013a13.933,13.933,0,0,0,1.227-.908c.344-.295.675-.516.92-.724A6.026,6.026,0,0,1-562.706,248.915Z" transform="translate(607.137 -153.393)" fill="#263238"/>
          <path id="Trazado_156753" data-name="Trazado 156753" d="M-603.417,191.084a4.05,4.05,0,0,1,.153.816c.08.614.178,1.338.3,2.24.257,1.951.613,4.528.975,7.363s.779,5.424,1.062,7.363c.129.9.233,1.644.319,2.24a5.018,5.018,0,0,1,.08.822,3.867,3.867,0,0,1-.2-.8c-.111-.521-.252-1.282-.423-2.221-.331-1.877-.755-4.479-1.153-7.363s-.7-5.522-.884-7.4c-.092-.951-.159-1.718-.2-2.252A4.844,4.844,0,0,1-603.417,191.084Z" transform="translate(611.169 -139.825)" fill="#263238"/>
          <path id="Trazado_156754" data-name="Trazado 156754" d="M-546.834,184.591a1.129,1.129,0,0,1,0,.312,6.173,6.173,0,0,1-.049.89c-.05.773-.135,1.9-.252,3.277-.233,2.761-.614,6.571-1.11,10.774s-1.031,7.976-1.448,10.738c-.209,1.368-.387,2.454-.521,3.239-.068.35-.123.644-.166.878a1.472,1.472,0,0,1-.073.307,1.125,1.125,0,0,1,0-.313c0-.24.061-.534.1-.89.1-.816.246-1.914.423-3.251.362-2.749.853-6.547,1.356-10.744s.908-8.007,1.227-10.762c.148-1.338.264-2.455.356-3.258.043-.356.08-.651.1-.89A1.125,1.125,0,0,1-546.834,184.591Z" transform="translate(598.745 -138.302)" fill="#263238"/>
          <path id="Trazado_156755" data-name="Trazado 156755" d="M-557.337,210.4l-17.554,10.578-4.534-1.276-20.812-4.013-4.3,13.652,16.376,1.546,7.222,3.461,3.491-1.509,15.229-10.461Z" transform="translate(611.431 -144.358)" fill="#7453d8"/>
          <path id="Trazado_156756" data-name="Trazado 156756" d="M-573.715,237.543a15.556,15.556,0,0,1,.822-1.963c.54-1.227,1.283-2.853,2.074-4.688s1.491-3.515,1.988-4.73a15.8,15.8,0,0,1,.865-1.946,2.067,2.067,0,0,1-.141.559c-.11.35-.289.853-.509,1.473-.449,1.227-1.111,2.927-1.909,4.768s-1.571,3.485-2.159,4.663c-.295.614-.546,1.055-.724,1.381A2.191,2.191,0,0,1-573.715,237.543Z" transform="translate(604.2 -147.598)" fill="#263238"/>
          <path id="Trazado_156757" data-name="Trazado 156757" d="M-574.356,227.207a8.815,8.815,0,0,1,.717-2.282,9.187,9.187,0,0,1,1.019-2.16,8.874,8.874,0,0,1-.718,2.277A9.481,9.481,0,0,1-574.356,227.207Z" transform="translate(604.35 -147.258)" fill="#263238"/>
          <path id="Trazado_156758" data-name="Trazado 156758" d="M-568.969,220.09a4.96,4.96,0,0,1,2.116-2.915c1.59-.817,14.769-7.67,14.769-7.67l1.564,1.607-16.026,9.658Z" transform="translate(603.086 -144.147)" fill="#e0e0e0"/>
          <path id="Trazado_156759" data-name="Trazado 156759" d="M-596.554,217.25l2.669-1.338s7.559-.816,11.928,0,6.657,3.258,6.516,5.6Z" transform="translate(609.558 -145.565)" fill="#e0e0e0"/>
          <path id="Trazado_156760" data-name="Trazado 156760" d="M-562.857,225.116a5.768,5.768,0,0,0-3.025,3.019c-1.049,2.326-1.743,3.492-3.025,4.3s-1.975,1.393-3.485.693-3.964-2.982-5.123-3.166c-.687-.11-.927.958-.927.958s-3.019-2.013-4.068-1.645-.116,1.179.614,1.995a11.608,11.608,0,0,1,1.159,1.626c.227-.092-2.1-2.282-3.534-1.841a.841.841,0,0,0-.685.972.836.836,0,0,0,.028.114l1.748,1.289s-.926,1.662-.116,2.012,6.633,4.418,7.909,4.418,7.093,1.049,9.534.466,5.166-1.418,5.166-1.418,9.6-3.117,12.5-6.835l-8.719-5.35s-5.81,7.559-6.135,6.749a7.976,7.976,0,0,1-.35-4.3C-563.089,227.442-561.85,224.552-562.857,225.116Z" transform="translate(606.84 -147.793)" fill="#9d6054"/>
          <path id="Trazado_156761" data-name="Trazado 156761" d="M-568.912,238.279a3.52,3.52,0,0,1-1.35-.393,22.815,22.815,0,0,1-2.878-1.761,12.347,12.347,0,0,1-2.62-2.16,2.452,2.452,0,0,1-.681-1.227,11.85,11.85,0,0,0,.847,1.086,15.81,15.81,0,0,0,2.626,2.037c1.117.718,2.043,1.448,2.8,1.841S-568.894,238.23-568.912,238.279Z" transform="translate(604.839 -149.598)" fill="#724a44"/>
          <path id="Trazado_156762" data-name="Trazado 156762" d="M-571.549,241.358a5.658,5.658,0,0,1-1.227-.724c-.736-.485-1.73-1.191-2.8-2.013s-1.994-1.613-2.651-2.2a6.155,6.155,0,0,1-1.006-1.019,7.076,7.076,0,0,1,1.154.841l2.7,2.129,2.736,2.08A7.082,7.082,0,0,1-571.549,241.358Z" transform="translate(605.494 -150.222)" fill="#724a44"/>
          <path id="Trazado_156763" data-name="Trazado 156763" d="M-577.236,240.717c-.073.062-1.117-1.227-2.651-2.515s-2.945-2.154-2.9-2.233a10.235,10.235,0,0,1,3.105,1.994A10.443,10.443,0,0,1-577.236,240.717Z" transform="translate(606.327 -150.356)" fill="#724a44"/>
          <path id="Trazado_156764" data-name="Trazado 156764" d="M-574.336,196.938a3.777,3.777,0,0,1-.11-.411,1.757,1.757,0,0,0-.614-.883,1.614,1.614,0,0,0-2.253.363,1.617,1.617,0,0,0-.305.931,1.614,1.614,0,0,0,1.037,1.491,1.651,1.651,0,0,0,1.528-.2,1.76,1.76,0,0,0,.614-.884,3.1,3.1,0,0,1,.11-.4.894.894,0,0,1,0,.436,1.7,1.7,0,0,1-.614,1.031,1.841,1.841,0,0,1-1.761.3,1.878,1.878,0,0,1-1.144-2.4,1.879,1.879,0,0,1,1.144-1.145,1.841,1.841,0,0,1,1.761.3,1.716,1.716,0,0,1,.614,1.031C-574.263,196.778-574.318,196.938-574.336,196.938Z" transform="translate(605.195 -140.758)" fill="#263238"/>
          <path id="Trazado_156765" data-name="Trazado 156765" d="M-573.529,212.235s-.038-.154-.117-.411a1.767,1.767,0,0,0-.613-.878,1.6,1.6,0,0,0-2.242.324,1.6,1.6,0,0,0,.323,2.241,1.593,1.593,0,0,0,.39.215,1.633,1.633,0,0,0,1.529-.2,1.765,1.765,0,0,0,.613-.877c.08-.258.086-.411.117-.411a.842.842,0,0,1,0,.435,1.736,1.736,0,0,1-.614,1.031,1.842,1.842,0,0,1-1.761.3,1.872,1.872,0,0,1-1.151-2.383,1.873,1.873,0,0,1,1.151-1.151,1.84,1.84,0,0,1,1.761.295,1.762,1.762,0,0,1,.614,1.031A.865.865,0,0,1-573.529,212.235Z" transform="translate(605.008 -144.348)" fill="#263238"/>
          <path id="Trazado_156766" data-name="Trazado 156766" d="M-572.029,248.478a3.8,3.8,0,0,1-.117-.4,1.713,1.713,0,0,0-.613-.884,1.639,1.639,0,0,0-1.522-.2,1.6,1.6,0,0,0-.935,2.053,1.6,1.6,0,0,0,.935.935,1.637,1.637,0,0,0,1.522-.2,1.738,1.738,0,0,0,.613-.883c.087-.252.093-.411.117-.411s.055.159,0,.442a1.731,1.731,0,0,1-.614,1.031,1.841,1.841,0,0,1-1.761.3,1.878,1.878,0,0,1-1.144-2.4,1.877,1.877,0,0,1,1.144-1.144,1.839,1.839,0,0,1,1.761.3,1.711,1.711,0,0,1,.614,1.03C-571.974,248.325-572.01,248.485-572.029,248.478Z" transform="translate(604.655 -152.852)" fill="#263238"/>
          <path id="Trazado_156767" data-name="Trazado 156767" d="M-572.374,262.754s-.037-.159-.116-.411a1.782,1.782,0,0,0-.614-.883,1.649,1.649,0,0,0-1.528-.2,1.6,1.6,0,0,0-.935,2.054,1.594,1.594,0,0,0,.935.935,1.651,1.651,0,0,0,1.528-.2,1.763,1.763,0,0,0,.614-.884c.08-.251.086-.411.116-.4a.824.824,0,0,1,0,.436,1.741,1.741,0,0,1-.614,1.031,1.84,1.84,0,0,1-1.76.3,1.878,1.878,0,0,1-1.145-2.4,1.879,1.879,0,0,1,1.145-1.144,1.84,1.84,0,0,1,1.76.3,1.757,1.757,0,0,1,.614,1.031A.862.862,0,0,1-572.374,262.754Z" transform="translate(604.736 -156.2)" fill="#263238"/>
          <path id="Trazado_156768" data-name="Trazado 156768" d="M-591.528,132.325a8.737,8.737,0,0,1,4.191-5.3,11.042,11.042,0,0,1,7.436-.9,23.4,23.4,0,0,1,7.019,2.9,11.431,11.431,0,0,1,3.35,2.614c1.62,2.037,1.841,4.817,2,7.412.122,2.1.233,4.295-.657,6.216a6.486,6.486,0,0,1-4.35,3.522" transform="translate(608.379 -124.519)" fill="#263238"/>
          <path id="Trazado_156769" data-name="Trazado 156769" d="M-564.1,142.453a13.936,13.936,0,0,0,3.344-10.327,4.921,4.921,0,0,0-1.417-3.368c-.491-.411-1.1-.657-1.6-1.055-.909-.724-1.356-1.9-2.215-2.681a3.535,3.535,0,0,0-4.992.259,3.533,3.533,0,0,0-.77,1.385c-.454,1.577.227,3.234.889,4.737l3.069,6.958a9.156,9.156,0,0,0,1.417,2.455,3.105,3.105,0,0,0,2.5,1.147" transform="translate(603.775 -124.113)" fill="#263238"/>
          <path id="Trazado_156770" data-name="Trazado 156770" d="M-591.121,131.715a11.959,11.959,0,0,0-1.055,14.9,100.512,100.512,0,0,1,5.351-16.677" transform="translate(609.028 -125.48)" fill="#263238"/>
          <path id="Trazado_156771" data-name="Trazado 156771" d="M-593.13,139.713c.27-4.135,3.025-9.2,7.148-8.761l9.535,2.454a7.08,7.08,0,0,1,5.307,6.516v.086l-.613,23.346-8.872,10.014h0L-586.713,164V160.4c0,.012-5.289-.914-6.363-7.811C-593.609,149.156-593.425,144.309-593.13,139.713Z" transform="translate(608.822 -125.711)" fill="#9d6054"/>
          <path id="Trazado_156772" data-name="Trazado 156772" d="M-581.9,139.583a7.149,7.149,0,0,1-2,.411,7.306,7.306,0,0,1-2.043,0c0-.049.914-.049,2.024-.166S-581.909,139.534-581.9,139.583Z" transform="translate(607.068 -127.74)" fill="#724a44"/>
          <path id="Trazado_156773" data-name="Trazado 156773" d="M-583.441,139.265a4.819,4.819,0,0,1-2.515.159,8.424,8.424,0,0,1,1.227-.073A8.337,8.337,0,0,1-583.441,139.265Z" transform="translate(607.072 -127.667)" fill="#724a44"/>
          <path id="Trazado_156774" data-name="Trazado 156774" d="M-579.21,156.889c-.049,0-.11-.276-.386-.454s-.552-.135-.564-.178.055-.067.184-.086a.7.7,0,0,1,.472.122.753.753,0,0,1,.3.393C-579.173,156.8-579.192,156.889-579.21,156.889Z" transform="translate(605.712 -131.633)" fill="#724a44"/>
          <path id="Trazado_156775" data-name="Trazado 156775" d="M-589.708,149.162a.884.884,0,0,0,.847.9.847.847,0,0,0,.913-.775v-.022a.877.877,0,0,0-.847-.889.84.84,0,0,0-.912.762Z" transform="translate(607.952 -129.803)" fill="#263238"/>
          <path id="Trazado_156776" data-name="Trazado 156776" d="M-591.46,145.947c.111.117.779-.38,1.73-.374s1.65.479,1.755.368-.062-.263-.362-.484a2.452,2.452,0,0,0-1.405-.436,2.347,2.347,0,0,0-1.381.442C-591.411,145.684-591.516,145.892-591.46,145.947Z" transform="translate(608.366 -129.018)" fill="#263238"/>
          <path id="Trazado_156777" data-name="Trazado 156777" d="M-578.116,149.162a.884.884,0,0,0,.847.9.853.853,0,0,0,.914-.788v-.01a.877.877,0,0,0-.847-.889.834.834,0,0,0-.911.749C-578.115,149.135-578.115,149.148-578.116,149.162Z" transform="translate(605.232 -129.803)" fill="#263238"/>
          <path id="Trazado_156778" data-name="Trazado 156778" d="M-579.243,146.2c.111.116.786-.374,1.737-.374s1.645.484,1.749.368-.055-.258-.362-.484a2.457,2.457,0,0,0-1.405-.436,2.369,2.369,0,0,0-1.375.442C-579.193,145.946-579.292,146.155-579.243,146.2Z" transform="translate(605.499 -129.078)" fill="#263238"/>
          <path id="Trazado_156779" data-name="Trazado 156779" d="M-584.506,153.272a6.066,6.066,0,0,0-1.546-.282c-.239,0-.472-.073-.509-.24a1.222,1.222,0,0,1,.159-.717c.233-.614.472-1.228.724-1.841a31.58,31.58,0,0,0,1.626-4.836,32.165,32.165,0,0,0-2.012,4.694c-.24.651-.472,1.271-.687,1.841a1.386,1.386,0,0,0-.129.957.614.614,0,0,0,.4.356,1.77,1.77,0,0,0,.411.055A6.047,6.047,0,0,0-584.506,153.272Z" transform="translate(607.296 -129.097)" fill="#263238"/>
          <path id="Trazado_156780" data-name="Trazado 156780" d="M-575.516,166.193s-2.24,4.736-9.142,4.074v-1.62A17.337,17.337,0,0,0-575.516,166.193Z" transform="translate(606.767 -133.985)" fill="#724a44"/>
          <path id="Trazado_156781" data-name="Trazado 156781" d="M-583.275,158.521a1.707,1.707,0,0,1,1.54-.614,1.562,1.562,0,0,1,1.08.614.981.981,0,0,1,.067,1.129,1.134,1.134,0,0,1-1.227.313,3.679,3.679,0,0,1-1.227-.724,1.064,1.064,0,0,1-.27-.282.326.326,0,0,1,0-.356" transform="translate(606.463 -132.038)" fill="#724a44"/>
          <path id="Trazado_156782" data-name="Trazado 156782" d="M-581.043,156.565c-.154,0-.16,1.024-1.043,1.754s-1.982.614-1.995.761.246.2.712.215a2.554,2.554,0,0,0,1.663-.577,2.233,2.233,0,0,0,.81-1.466C-580.854,156.816-580.97,156.559-581.043,156.565Z" transform="translate(606.632 -131.726)" fill="#263238"/>
          <path id="Trazado_156783" data-name="Trazado 156783" d="M-579.543,142.626c.092.258,1.043.142,2.16.276s2.018.442,2.166.209c.067-.111-.087-.35-.455-.614a3.755,3.755,0,0,0-3.295-.374C-579.372,142.3-579.543,142.5-579.543,142.626Z" transform="translate(605.567 -128.286)" fill="#263238"/>
          <path id="Trazado_156784" data-name="Trazado 156784" d="M-591,142.335c.166.214.822,0,1.614,0s1.453.147,1.607-.08c.067-.111-.037-.325-.325-.528a2.314,2.314,0,0,0-2.6.073C-590.98,142.009-591.072,142.23-591,142.335Z" transform="translate(608.26 -128.16)" fill="#263238"/>
          <path id="Trazado_156785" data-name="Trazado 156785" d="M-590.621,132.6a3.019,3.019,0,0,1,2.675-1.711,5.82,5.82,0,0,1,3.185.926c4.1,2.375,6.412,7.087,10.467,9.541a16.473,16.473,0,0,1,2.951,1.871,2.926,2.926,0,0,1,.927,3.148A9.751,9.751,0,0,0-569,143.99a3.25,3.25,0,0,0-.116-2.687c-.35-.614-.97-1.074-1.141-1.755a7.6,7.6,0,0,1,.061-1.841,3.942,3.942,0,0,0-.614-1.755,17.878,17.878,0,0,0-6.589-6.939,11.744,11.744,0,0,0-6.05-1.565,8.934,8.934,0,0,0-5.761,2.289c-.9.847-1.841,1.718-1.387,2.865" transform="translate(608.189 -124.895)" fill="#263238"/>
          <path id="Trazado_156786" data-name="Trazado 156786" d="M-570.5,146.562s.08-.093.215-.282a3.011,3.011,0,0,0,.442-.9,5.121,5.121,0,0,0-.38-3.613,21.3,21.3,0,0,0-1.227-2.276,26.24,26.24,0,0,1-1.264-2.694,19.275,19.275,0,0,0-1.447-2.921,11.354,11.354,0,0,0-2.283-2.626,12.088,12.088,0,0,0-6.05-2.785,8.914,8.914,0,0,0-5.368.724,5.81,5.81,0,0,0-2.583,2.577,5.178,5.178,0,0,0-.344.944,1.666,1.666,0,0,1-.093.344.543.543,0,0,1,0-.086,2.557,2.557,0,0,1,.044-.264,4.461,4.461,0,0,1,.331-.963,5.849,5.849,0,0,1,2.589-2.657,8.942,8.942,0,0,1,5.449-.773,12.2,12.2,0,0,1,6.136,2.811,11.435,11.435,0,0,1,2.313,2.669,18.75,18.75,0,0,1,1.448,2.951,26.659,26.659,0,0,0,1.227,2.681c.442.817.877,1.565,1.184,2.3a5.1,5.1,0,0,1,.331,3.681,2.914,2.914,0,0,1-.478.9A2.447,2.447,0,0,1-570.5,146.562Z" transform="translate(608.229 -125.067)" fill="#455a64"/>
          <path id="Trazado_156787" data-name="Trazado 156787" d="M-562.932,142.8a.758.758,0,0,1,0-.2v-.564c0-.484.037-1.19,0-2.062a17.248,17.248,0,0,0-.338-3.031,8.02,8.02,0,0,0-1.473-3.381,18.766,18.766,0,0,0-2.644-2.632c-.877-.755-1.688-1.4-2.393-1.908s-1.307-.89-1.724-1.135l-.491-.282a.865.865,0,0,1-.166-.1.6.6,0,0,1,.184.073c.116.055.288.141.5.258a16.929,16.929,0,0,1,1.761,1.091c.718.5,1.546,1.136,2.423,1.884a18.408,18.408,0,0,1,2.681,2.65,8.088,8.088,0,0,1,1.491,3.448,16.2,16.2,0,0,1,.3,3.068,17.63,17.63,0,0,1-.067,2.074,4.562,4.562,0,0,1-.049.558A.888.888,0,0,1-562.932,142.8Z" transform="translate(603.835 -124.908)" fill="#455a64"/>
          <path id="Trazado_156788" data-name="Trazado 156788" d="M-564.155,125.709a2.912,2.912,0,0,1,.19.779,9.247,9.247,0,0,1,.093,1.945,9.008,9.008,0,0,1-.325,1.914,2.85,2.85,0,0,1-.282.755,20.475,20.475,0,0,0,.435-2.681A19.821,19.821,0,0,0-564.155,125.709Z" transform="translate(602.033 -124.487)" fill="#455a64"/>
          <path id="Trazado_156789" data-name="Trazado 156789" d="M-558.706,132.379a1.362,1.362,0,0,1-.233.576,3.606,3.606,0,0,1-1,1.111,3.69,3.69,0,0,1-1.362.614,1.461,1.461,0,0,1-.614.055,4.4,4.4,0,0,1,.614-.171,4.3,4.3,0,0,0,2.295-1.682A5.771,5.771,0,0,1-558.706,132.379Z" transform="translate(601.431 -126.052)" fill="#455a64"/>
          <path id="Trazado_156790" data-name="Trazado 156790" d="M-558.11,138.411a2.9,2.9,0,0,1-1.375.246,2.838,2.838,0,0,1-1.356-.325c0-.055.614.129,1.362.159S-558.122,138.356-558.11,138.411Z" transform="translate(601.179 -127.446)" fill="#455a64"/>
          <path id="Trazado_156791" data-name="Trazado 156791" d="M-567.545,148.863c-.16-.087-.08-.54-.061-1.283a3.5,3.5,0,0,0-.142-1.227,1.852,1.852,0,0,0-.129-.276.864.864,0,0,0-.08-.122l-.111-.16a5.785,5.785,0,0,0-.57-.662,1.671,1.671,0,0,0-.614-.417h-.061l-.24.049-.257.061a4.493,4.493,0,0,0-.982.368c-.165.086-.325.178-.5.282l-.123.086-.214.122a4.146,4.146,0,0,1-.436.209,4.473,4.473,0,0,1-1.94.325,3.257,3.257,0,0,1-1.166-.289l-.147-.08-.117-.068a2.046,2.046,0,0,1-.233-.147,4.043,4.043,0,0,1-.429-.344,5.588,5.588,0,0,1-1.185-1.613c-.276-.546-.484-1.08-.687-1.564a18.209,18.209,0,0,0-2.964-4.866,19.919,19.919,0,0,0-3.455-3.2,10.913,10.913,0,0,0-2.718-1.558c-.687-.258-1.135-.325-1.166-.51s.411-.448,1.313-.472a7.656,7.656,0,0,1,3.5,1,16.232,16.232,0,0,1,4.258,3.166,17.249,17.249,0,0,1,3.577,5.473c.215.521.4.994.614,1.393a3.6,3.6,0,0,0,.613.932,1.767,1.767,0,0,0,.166.148.451.451,0,0,0,.086.055h.043a.766.766,0,0,0,.282.086,2.251,2.251,0,0,0,.908-.1l.2-.08.092-.043.172-.092a6.912,6.912,0,0,1,.724-.338,6.531,6.531,0,0,1,1.5-.4l.356-.043h.368a2,2,0,0,1,1.091.264,3.453,3.453,0,0,1,1.1,1.018,6.268,6.268,0,0,1,.614,1.013c.037.086.073.154.11.258a1.724,1.724,0,0,1,.1.3,2.434,2.434,0,0,1,.1.564,3.682,3.682,0,0,1-.289,1.682C-567,148.648-567.4,148.937-567.545,148.863Z" transform="translate(607.614 -125.847)" fill="#263238"/>
          <path id="Trazado_156792" data-name="Trazado 156792" d="M-565.53,149.059c.067-.2,3.682-1.5,3.682,2.326.049,3.718-3.682,2.988-3.682,2.877Z" transform="translate(602.279 -129.879)" fill="#9d6054"/>
          <path id="Trazado_156793" data-name="Trazado 156793" d="M-564.04,153.216a1.115,1.115,0,0,0,.171.092.656.656,0,0,0,.485,0,1.6,1.6,0,0,0,.73-1.442,2.258,2.258,0,0,0-.191-.927.761.761,0,0,0-.49-.491.325.325,0,0,0-.38.184c-.049.1,0,.178-.049.184s-.08-.061-.05-.214a.387.387,0,0,1,.142-.233.477.477,0,0,1,.362-.1.909.909,0,0,1,.681.564,2.264,2.264,0,0,1,.233,1.037,1.679,1.679,0,0,1-.932,1.613.7.7,0,0,1-.614-.092C-564.034,153.308-564.052,153.222-564.04,153.216Z" transform="translate(601.93 -130.249)" fill="#724a44"/>
          <path id="Trazado_156794" data-name="Trazado 156794" d="M-568.362,144.925a2.018,2.018,0,0,0-.154-.251,1.443,1.443,0,0,0-.669-.491,2.676,2.676,0,0,0-1.313-.116,6.083,6.083,0,0,0-1.669.614,4.406,4.406,0,0,1-2.11.533,3.4,3.4,0,0,1-2.2-1.172,6.917,6.917,0,0,1-1.313-2.455c-.313-.908-.614-1.841-.964-2.791a14.32,14.32,0,0,0-2.926-4.829,8.223,8.223,0,0,0-3.927-2.32,7.043,7.043,0,0,0-1.761-.227,6.391,6.391,0,0,0-1.331.159c-.718.178-1.08.38-1.092.356l.067-.037.2-.092a4.238,4.238,0,0,1,.8-.289,5.618,5.618,0,0,1,1.349-.19,6.847,6.847,0,0,1,1.786.2,8.261,8.261,0,0,1,4.019,2.325,14.372,14.372,0,0,1,2.97,4.909c.374.938.657,1.9.957,2.8a6.92,6.92,0,0,0,1.277,2.387,3.271,3.271,0,0,0,2.093,1.135,4.333,4.333,0,0,0,2.055-.5,6.082,6.082,0,0,1,1.7-.582,2.651,2.651,0,0,1,1.349.147,1.385,1.385,0,0,1,.669.534.75.75,0,0,1,.1.2C-568.362,144.925-568.356,144.925-568.362,144.925Z" transform="translate(607.971 -125.805)" fill="#455a64"/>
          <path id="Trazado_156795" data-name="Trazado 156795" d="M-569.728,142.846a1.359,1.359,0,0,1-.221-.122c-.141-.092-.362-.215-.613-.4a12.742,12.742,0,0,1-2-1.841,36.875,36.875,0,0,1-2.455-3.185,29.278,29.278,0,0,0-3.068-3.816,11.5,11.5,0,0,0-1.982-1.564,9.577,9.577,0,0,0-2.135-.97,10.536,10.536,0,0,0-3.933-.484,10.376,10.376,0,0,0-2.638.515c-.3.092-.527.2-.687.258a1.392,1.392,0,0,1-.239.086.882.882,0,0,1,.227-.116,5.718,5.718,0,0,1,.681-.289,9.463,9.463,0,0,1,2.644-.571,10.428,10.428,0,0,1,3.995.455,9.325,9.325,0,0,1,2.172.975,11.588,11.588,0,0,1,2.013,1.584,28.492,28.492,0,0,1,3.068,3.847,38.688,38.688,0,0,0,2.411,3.2,13.592,13.592,0,0,0,1.958,1.841c.251.2.466.325.613.423A1.4,1.4,0,0,1-569.728,142.846Z" transform="translate(607.95 -125.567)" fill="#455a64"/>
          <path id="Trazado_156796" data-name="Trazado 156796" d="M-563.692,154.973a.731.731,0,0,1,.853.582.73.73,0,0,1-.582.853.73.73,0,0,1-.853-.582.731.731,0,0,1,.409-.8" transform="translate(601.988 -131.35)" fill="#fff"/>
          <path id="Trazado_156797" data-name="Trazado 156797" d="M-563.867,155.019a1.044,1.044,0,0,0-.331.5.611.611,0,0,0,.141.582.7.7,0,0,0,.693.2.711.711,0,0,0,.454-.565.645.645,0,0,0-.22-.558.985.985,0,0,0-.565-.215.329.329,0,0,1,.178-.043.781.781,0,0,1,.461.166.749.749,0,0,1,.3.668.8.8,0,0,1-.849.744.8.8,0,0,1-.569-.3.748.748,0,0,1-.142-.718.775.775,0,0,1,.282-.4C-563.935,155.019-563.867,155.013-563.867,155.019Z" transform="translate(602.003 -131.341)" fill="#263238"/>
        </g>
        <g id="freepik--Plant--inject-35" transform="translate(234.412 137.794)">
          <path id="Trazado_156798" data-name="Trazado 156798" d="M-285.012,342.05a6.855,6.855,0,0,1,3.564-4.546c1.828-.783,4.1-.354,6.045.348s3.856,1.655,5.921,1.786,4.4-.853,5.019-2.83c.578-1.865-.541-3.837-1.941-5.187a12.239,12.239,0,0,0-17.306.326,12.238,12.238,0,0,0-2.751,4.488" transform="translate(339.07 -283.137)" fill="#263238"/>
          <path id="Trazado_156799" data-name="Trazado 156799" d="M-306.7,349.86c-3.029-2.879-2.879-7.892-1.369-11.785s4.814-6.9,8.5-8.869a26.906,26.906,0,0,1,23.453-.758,11.122,11.122,0,0,0-9,5.286c-1.66,2.762-2.034,6.108-3.4,9.018A14.2,14.2,0,0,1-306.7,349.86" transform="translate(344.385 -282.65)" fill="#455a64"/>
          <path id="Trazado_156800" data-name="Trazado 156800" d="M-309.269,319.239c-3.359-3.962-3.806-10.323-3.309-15.492s1.692-10.368.877-15.5c-.485-3.036-1.66-5.94-2.058-8.987s.161-6.5,2.525-8.471c2.718-2.264,7-1.729,9.82.4s4.466,5.46,5.66,8.787c2.631,7.308,3.594,15.418,1.437,22.875s-7.227,14.13-14.659,16.388" transform="translate(345.502 -269.325)" fill="#455a64"/>
          <path id="Trazado_156801" data-name="Trazado 156801" d="M-309.965,365.881a2.1,2.1,0,0,1,0-.461v-1.306c.044-1.138.149-2.78.4-4.8a63.991,63.991,0,0,1,1.287-7.028,32.065,32.065,0,0,1,3.209-8.141,33.86,33.86,0,0,1,5.243-7.009,33.236,33.236,0,0,1,5.5-4.565c.84-.579,1.655-1.02,2.351-1.424s1.343-.684,1.865-.933l1.213-.5a1.786,1.786,0,0,1,.41-.118,3.961,3.961,0,0,1-.4.211l-1.182.56c-.5.262-1.12.585-1.822.971a23.6,23.6,0,0,0-2.307,1.455,34.47,34.47,0,0,0-10.573,11.544c-3.11,5.4-3.931,11.064-4.546,15.044-.28,2.009-.423,3.645-.5,4.777-.031.541-.057.977-.081,1.306A3.285,3.285,0,0,1-309.965,365.881Z" transform="translate(344.587 -283.464)" fill="#263238"/>
          <path id="Trazado_156802" data-name="Trazado 156802" d="M-349.525,314.152c-6.219,3.731-6.188,7.152-5.15,10.374s4.845,5.454,8,4.248a9.8,9.8,0,0,0,4.186-3.794,17.669,17.669,0,0,1,3.694-4.353c1.549-1.126,3.794-1.549,5.349-.442" transform="translate(355.196 -279.842)" fill="#263238"/>
          <path id="Trazado_156803" data-name="Trazado 156803" d="M-353.857,316.9c1.623-2.245,5.635-2.892,8.167-1.773s4.384,3.34,6.045,5.554,3.277,4.559,5.6,6.1,5.517,2.1,7.805.547a6.711,6.711,0,0,0,2.656-4.6,15.281,15.281,0,0,0-.367-5.41c-.547-2.606-1.443-5.324-3.526-6.978-2.32-1.866-5.548-1.934-8.508-1.835a32.016,32.016,0,0,0-10.044,1.542c-3.2,1.176-6.45,3.731-7.805,6.841" transform="translate(354.882 -278.512)" fill="#455a64"/>
          <path id="Trazado_156804" data-name="Trazado 156804" d="M-321.605,356.16a3.217,3.217,0,0,1-.043-.535c0-.379-.031-.9-.057-1.542-.043-1.369-.1-3.3-.174-5.665s-.175-5.243-.348-8.4-.41-6.63-.889-10.244a33.053,33.053,0,0,0-1.033-5.2,26.575,26.575,0,0,0-1.9-4.546,24.66,24.66,0,0,0-4.994-6.648,19.491,19.491,0,0,0-4.64-3.172,14.4,14.4,0,0,0-1.412-.622,3.192,3.192,0,0,1-.5-.217,4.05,4.05,0,0,1,.517.155,11.008,11.008,0,0,1,1.443.559,18.423,18.423,0,0,1,4.739,3.11,24.451,24.451,0,0,1,5.106,6.679,26.7,26.7,0,0,1,1.94,4.6,32.253,32.253,0,0,1,1.045,5.249c.485,3.633.709,7.109.871,10.275s.23,6.014.28,8.408.062,4.354.068,5.672v1.542A3.271,3.271,0,0,1-321.605,356.16Z" transform="translate(351.065 -278.719)" fill="#263238"/>
          <path id="Trazado_156805" data-name="Trazado 156805" d="M-314.128,353.175a17.193,17.193,0,0,1-.69-2.662,28.038,28.038,0,0,1-.292-7.495,50.1,50.1,0,0,1,2.376-10.9c1.244-3.993,3-8.265,4.484-12.855A56.436,56.436,0,0,0-305.6,306a95.435,95.435,0,0,0,.205-11.1c-.106-3.159-.273-5.715-.373-7.463-.05-.864-.087-1.542-.119-2.034v-.529a.784.784,0,0,1,0-.18.544.544,0,0,1,0,.18l.056.523c.038.491.1,1.169.175,2.034.143,1.767.342,4.322.472,7.463A90.4,90.4,0,0,1-305.272,306a59.207,59.207,0,0,1-.871,6.524,58.065,58.065,0,0,1-1.785,6.841c-1.48,4.608-3.221,8.875-4.5,12.855a50.827,50.827,0,0,0-2.419,10.8,29.111,29.111,0,0,0,.187,7.463c.155.871.292,1.543.41,2l.125.516A.791.791,0,0,1-314.128,353.175Z" transform="translate(345.821 -272.929)" fill="#263238"/>
          <path id="Trazado_156806" data-name="Trazado 156806" d="M-302.818,376.12h-29.156l-.665-5.616h29.822Z" transform="translate(349.904 -293.063)" fill="#263238"/>
          <path id="Trazado_156807" data-name="Trazado 156807" d="M-327.675,377l3.644,16.836h15.841L-304.782,377Z" transform="translate(348.74 -294.588)" fill="#263238"/>
          <path id="Trazado_156808" data-name="Trazado 156808" d="M-302.447,377.778c0,.086-6.406.143-14.3.118s-14.3-.112-14.3-.2,6.406-.143,14.3-.124S-302.447,377.685-302.447,377.778Z" transform="translate(349.533 -294.721)" fill="#455a64"/>
          <path id="Trazado_156809" data-name="Trazado 156809" d="M-306.135,387.973a12.792,12.792,0,0,0-2.575-1.462,9.189,9.189,0,0,0-3.11-.621,10.975,10.975,0,0,0-3.832.7c-1.331.448-2.569.97-3.781,1.244a9.077,9.077,0,0,1-3.271.1,6.746,6.746,0,0,1-2.1-.678,3.774,3.774,0,0,1-.5-.323c-.112-.081-.161-.131-.155-.143a7.561,7.561,0,0,0,2.792.914,9.206,9.206,0,0,0,3.172-.155c1.163-.292,2.407-.82,3.732-1.244a10.939,10.939,0,0,1,3.943-.7,8.991,8.991,0,0,1,3.2.7,8.245,8.245,0,0,1,1.866,1.12,5.257,5.257,0,0,1,.454.392C-306.179,387.911-306.129,387.96-306.135,387.973Z" transform="translate(348.221 -296.607)" fill="#455a64"/>
          <path id="Trazado_156810" data-name="Trazado 156810" d="M-306.232,389.443a14.18,14.18,0,0,0-2.487-1.437,8.444,8.444,0,0,0-3.01-.621,10.826,10.826,0,0,0-3.7.665c-1.287.429-2.488.927-3.645,1.244a9.375,9.375,0,0,1-3.147.348,5.311,5.311,0,0,1-2.059-.56,3.811,3.811,0,0,1-.491-.317c-.1-.081-.155-.125-.149-.137s.249.137.7.342a5.774,5.774,0,0,0,2.021.442,9.686,9.686,0,0,0,3.048-.4c1.126-.324,2.32-.821,3.62-1.245a10.739,10.739,0,0,1,3.819-.659,8.264,8.264,0,0,1,3.11.7,7.918,7.918,0,0,1,1.816,1.114,3.932,3.932,0,0,1,.435.385C-306.265,389.392-306.224,389.439-306.232,389.443Z" transform="translate(348.093 -296.958)" fill="#fff"/>
          <path id="Trazado_156811" data-name="Trazado 156811" d="M-305.943,386.436a14.373,14.373,0,0,0-2.644-1.536,9.743,9.743,0,0,0-3.2-.765,10.317,10.317,0,0,0-3.949.7,36.482,36.482,0,0,1-3.919,1.281,10.039,10.039,0,0,1-3.377,0,7.494,7.494,0,0,1-2.151-.7,3.9,3.9,0,0,1-.523-.329c-.112-.087-.168-.137-.161-.143s.261.143.74.361a8.389,8.389,0,0,0,2.151.579,10.151,10.151,0,0,0,3.284-.062,39.8,39.8,0,0,0,3.868-1.294,10.339,10.339,0,0,1,4.073-.69,9.763,9.763,0,0,1,5.224,2.015,5.5,5.5,0,0,1,.46.4A2,2,0,0,1-305.943,386.436Z" transform="translate(348.314 -296.19)" fill="#fff"/>
        </g>
      </g>
    </g>
  </g>
</svg>
