<svg xmlns="http://www.w3.org/2000/svg" xmlns:xlink="http://www.w3.org/1999/xlink" width="426.667" height="368.819" viewBox="0 0 426.667 368.819">
  <defs>
    <linearGradient id="linear-gradient" x1="0.5" x2="0.5" y2="1" gradientUnits="objectBoundingBox">
      <stop offset="0" stop-color="#93eac2"/>
      <stop offset="1" stop-color="#20cb7d"/>
    </linearGradient>
    <linearGradient id="linear-gradient-2" x1="0.5" x2="0.5" y2="1" gradientUnits="objectBoundingBox">
      <stop offset="0" stop-color="#5c22c3"/>
      <stop offset="1" stop-color="#91b3fa"/>
    </linearGradient>
    <linearGradient id="linear-gradient-3" x1="0.5" x2="0.5" y2="1" gradientUnits="objectBoundingBox">
      <stop offset="0" stop-color="#29398a"/>
      <stop offset="1" stop-color="#cec2f2"/>
    </linearGradient>
    <clipPath id="clip-path">
      <circle id="Elipse_5876" data-name="Elipse 5876" cx="29.226" cy="29.226" r="29.226" fill="#7453d8"/>
    </clipPath>
    <linearGradient id="linear-gradient-5" x1="0.5" x2="0.5" y2="1" gradientUnits="objectBoundingBox">
      <stop offset="0" stop-color="#7e89be"/>
      <stop offset="1" stop-color="#29398a"/>
    </linearGradient>
    <linearGradient id="linear-gradient-13" x1="0.5" x2="0.5" y2="1" gradientUnits="objectBoundingBox">
      <stop offset="0" stop-color="#ba68c8"/>
      <stop offset="0.19" stop-color="#9139af"/>
      <stop offset="0.31" stop-color="#7b1fa2"/>
      <stop offset="0.925" stop-color="#4b157f"/>
      <stop offset="1" stop-color="#45147b"/>
    </linearGradient>
    <linearGradient id="linear-gradient-14" x1="-18.022" y1="0.5" x2="-17.022" y2="0.5" gradientUnits="objectBoundingBox">
      <stop offset="0" stop-color="#ff928e"/>
      <stop offset="1" stop-color="#feb3b1"/>
    </linearGradient>
    <linearGradient id="linear-gradient-15" x1="-29.38" y1="0.5" x2="-28.38" y2="0.5" xlink:href="#linear-gradient-14"/>
    <linearGradient id="linear-gradient-16" x1="2.092" y1="-0.86" x2="0.722" y2="0.284" xlink:href="#linear-gradient-14"/>
    <linearGradient id="linear-gradient-17" x1="-0.219" y1="0.706" x2="1.8" y2="-1.072" xlink:href="#linear-gradient-14"/>
    <linearGradient id="linear-gradient-18" x1="-4.127" y1="0.5" x2="-3.127" y2="0.5" xlink:href="#linear-gradient-14"/>
    <linearGradient id="linear-gradient-19" x1="-9.515" y1="0.5" x2="-8.515" y2="0.5" xlink:href="#linear-gradient-14"/>
    <linearGradient id="linear-gradient-20" x1="0.221" y1="-0.334" x2="0.64" y2="1.131" xlink:href="#linear-gradient-14"/>
    <linearGradient id="linear-gradient-21" x1="1.201" y1="-0.664" x2="0.147" y2="1.023" xlink:href="#linear-gradient-14"/>
    <linearGradient id="linear-gradient-22" x1="-30.812" y1="-16.737" x2="-30.607" y2="-15.558" gradientUnits="objectBoundingBox">
      <stop offset="0" stop-color="#09005d"/>
      <stop offset="1" stop-color="#1a0f91"/>
    </linearGradient>
    <linearGradient id="linear-gradient-23" x1="2.778" y1="-4.742" x2="-0.66" y2="3.434" xlink:href="#linear-gradient-14"/>
  </defs>
  <g id="Grupo_146975" data-name="Grupo 146975" transform="translate(-938.333 -8208)">
    <g id="Grupo_130729" data-name="Grupo 130729" transform="translate(-55.789 7529.296)" opacity="0.64">
      <g id="Grupo_79815" data-name="Grupo 79815" transform="translate(994.122 678.704)">
        <g id="Grupo_79776" data-name="Grupo 79776" transform="translate(0 0)">
          <g id="Grupo_79644" data-name="Grupo 79644" transform="translate(0 0)">
            <path id="Trazado_145968" data-name="Trazado 145968" d="M80.036,0A80.036,80.036,0,1,1,0,80.036,80.036,80.036,0,0,1,80.036,0Z" transform="translate(239.295 197.417)" fill="#7453d8" opacity="0.444" style="mix-blend-mode: multiply;isolation: isolate"/>
            <path id="Trazado_145969" data-name="Trazado 145969" d="M54.689,0A54.689,54.689,0,1,1,0,54.689,54.689,54.689,0,0,1,54.689,0Z" transform="translate(44.716 20.3)" opacity="0.9" fill="url(#linear-gradient)" style="mix-blend-mode: multiply;isolation: isolate"/>
            <rect id="Rectángulo_34812" data-name="Rectángulo 34812" width="426.667" height="368.82" fill="none"/>
            <path id="Trazado_145971" data-name="Trazado 145971" d="M34.57,0A34.57,34.57,0,1,1,0,34.57,34.57,34.57,0,0,1,34.57,0Z" transform="translate(59.405 269.883)" fill="#e4b879" opacity="0.8" style="mix-blend-mode: multiply;isolation: isolate"/>
            <g id="Grupo_78276" data-name="Grupo 78276" transform="translate(269.339 235.682)">
              <g id="Grupo_53306" data-name="Grupo 53306" transform="translate(0)">
                <path id="Trazado_99200" data-name="Trazado 99200" d="M416.388,51.263a1.088,1.088,0,1,1-1.087-1.039A1.064,1.064,0,0,1,416.388,51.263Z" transform="translate(-414.214 -50.224)" fill="#fff"/>
                <path id="Trazado_99201" data-name="Trazado 99201" d="M424.834,51.263a1.088,1.088,0,1,1-1.086-1.039A1.064,1.064,0,0,1,424.834,51.263Z" transform="translate(-412.879 -50.224)" fill="#fff"/>
                <path id="Trazado_99202" data-name="Trazado 99202" d="M433.28,51.263a1.088,1.088,0,1,1-1.086-1.039A1.064,1.064,0,0,1,433.28,51.263Z" transform="translate(-411.544 -50.224)" fill="#fff"/>
                <path id="Trazado_99203" data-name="Trazado 99203" d="M441.727,51.263a1.088,1.088,0,1,1-1.087-1.039A1.064,1.064,0,0,1,441.727,51.263Z" transform="translate(-410.21 -50.224)" fill="#fff"/>
                <path id="Trazado_99204" data-name="Trazado 99204" d="M450.173,51.263a1.088,1.088,0,1,1-1.086-1.039A1.064,1.064,0,0,1,450.173,51.263Z" transform="translate(-408.875 -50.224)" fill="#fff"/>
                <path id="Trazado_99205" data-name="Trazado 99205" d="M458.619,51.263a1.088,1.088,0,1,1-1.086-1.039A1.063,1.063,0,0,1,458.619,51.263Z" transform="translate(-407.54 -50.224)" fill="#fff"/>
                <path id="Trazado_99206" data-name="Trazado 99206" d="M467.066,51.263a1.088,1.088,0,1,1-1.087-1.039A1.065,1.065,0,0,1,467.066,51.263Z" transform="translate(-406.205 -50.224)" fill="#fff"/>
                <path id="Trazado_99207" data-name="Trazado 99207" d="M475.512,51.263a1.088,1.088,0,1,1-1.086-1.039A1.064,1.064,0,0,1,475.512,51.263Z" transform="translate(-404.87 -50.224)" fill="#fff"/>
                <path id="Trazado_99208" data-name="Trazado 99208" d="M483.958,51.263a1.088,1.088,0,1,1-1.086-1.039A1.064,1.064,0,0,1,483.958,51.263Z" transform="translate(-403.536 -50.224)" fill="#fff"/>
                <path id="Trazado_99209" data-name="Trazado 99209" d="M492.4,51.263a1.088,1.088,0,1,1-1.087-1.039A1.064,1.064,0,0,1,492.4,51.263Z" transform="translate(-402.201 -50.224)" fill="#fff"/>
                <path id="Trazado_99210" data-name="Trazado 99210" d="M500.851,51.263a1.088,1.088,0,1,1-1.087-1.039A1.064,1.064,0,0,1,500.851,51.263Z" transform="translate(-400.866 -50.224)" fill="#fff"/>
              </g>
              <g id="Grupo_53307" data-name="Grupo 53307" transform="translate(0 8.315)">
                <path id="Trazado_99211" data-name="Trazado 99211" d="M416.388,58.771a1.088,1.088,0,1,1-1.087-1.039A1.064,1.064,0,0,1,416.388,58.771Z" transform="translate(-414.214 -57.732)" fill="#fff"/>
                <path id="Trazado_99212" data-name="Trazado 99212" d="M424.834,58.771a1.088,1.088,0,1,1-1.086-1.039A1.063,1.063,0,0,1,424.834,58.771Z" transform="translate(-412.879 -57.732)" fill="#fff"/>
                <path id="Trazado_99213" data-name="Trazado 99213" d="M433.28,58.771a1.088,1.088,0,1,1-1.086-1.039A1.064,1.064,0,0,1,433.28,58.771Z" transform="translate(-411.544 -57.732)" fill="#fff"/>
                <path id="Trazado_99214" data-name="Trazado 99214" d="M441.727,58.771a1.088,1.088,0,1,1-1.087-1.039A1.064,1.064,0,0,1,441.727,58.771Z" transform="translate(-410.21 -57.732)" fill="#fff"/>
                <path id="Trazado_99215" data-name="Trazado 99215" d="M450.173,58.771a1.088,1.088,0,1,1-1.086-1.039A1.064,1.064,0,0,1,450.173,58.771Z" transform="translate(-408.875 -57.732)" fill="#fff"/>
                <path id="Trazado_99216" data-name="Trazado 99216" d="M458.619,58.771a1.088,1.088,0,1,1-1.086-1.039A1.063,1.063,0,0,1,458.619,58.771Z" transform="translate(-407.54 -57.732)" fill="#fff"/>
                <path id="Trazado_99217" data-name="Trazado 99217" d="M467.066,58.771a1.088,1.088,0,1,1-1.087-1.039A1.065,1.065,0,0,1,467.066,58.771Z" transform="translate(-406.205 -57.732)" fill="#fff"/>
                <path id="Trazado_99218" data-name="Trazado 99218" d="M475.512,58.771a1.088,1.088,0,1,1-1.086-1.039A1.064,1.064,0,0,1,475.512,58.771Z" transform="translate(-404.87 -57.732)" fill="#fff"/>
                <path id="Trazado_99219" data-name="Trazado 99219" d="M483.958,58.771a1.088,1.088,0,1,1-1.086-1.039A1.064,1.064,0,0,1,483.958,58.771Z" transform="translate(-403.536 -57.732)" fill="#fff"/>
                <path id="Trazado_99220" data-name="Trazado 99220" d="M492.4,58.771a1.088,1.088,0,1,1-1.087-1.039A1.064,1.064,0,0,1,492.4,58.771Z" transform="translate(-402.201 -57.732)" fill="#fff"/>
                <path id="Trazado_99221" data-name="Trazado 99221" d="M500.851,58.771a1.088,1.088,0,1,1-1.087-1.039A1.064,1.064,0,0,1,500.851,58.771Z" transform="translate(-400.866 -57.732)" fill="#fff"/>
              </g>
              <g id="Grupo_53308" data-name="Grupo 53308" transform="translate(0 16.629)">
                <ellipse id="Elipse_3955" data-name="Elipse 3955" cx="1.087" cy="1.039" rx="1.087" ry="1.039" fill="#fff"/>
                <path id="Trazado_99222" data-name="Trazado 99222" d="M424.834,66.279a1.088,1.088,0,1,1-1.086-1.039A1.064,1.064,0,0,1,424.834,66.279Z" transform="translate(-412.879 -65.24)" fill="#fff"/>
                <ellipse id="Elipse_3956" data-name="Elipse 3956" cx="1.087" cy="1.039" rx="1.087" ry="1.039" transform="translate(19.562)" fill="#fff"/>
                <path id="Trazado_99223" data-name="Trazado 99223" d="M441.727,66.279a1.088,1.088,0,1,1-1.087-1.039A1.065,1.065,0,0,1,441.727,66.279Z" transform="translate(-410.209 -65.24)" fill="#fff"/>
                <path id="Trazado_99224" data-name="Trazado 99224" d="M450.173,66.279a1.088,1.088,0,1,1-1.086-1.039A1.064,1.064,0,0,1,450.173,66.279Z" transform="translate(-408.875 -65.24)" fill="#fff"/>
                <ellipse id="Elipse_3957" data-name="Elipse 3957" cx="1.087" cy="1.039" rx="1.087" ry="1.039" transform="translate(48.906)" fill="#fff"/>
                <path id="Trazado_99225" data-name="Trazado 99225" d="M467.066,66.279a1.088,1.088,0,1,1-1.087-1.039A1.065,1.065,0,0,1,467.066,66.279Z" transform="translate(-406.205 -65.24)" fill="#fff"/>
                <ellipse id="Elipse_3958" data-name="Elipse 3958" cx="1.087" cy="1.039" rx="1.087" ry="1.039" transform="translate(68.468)" fill="#fff"/>
                <ellipse id="Elipse_3959" data-name="Elipse 3959" cx="1.087" cy="1.039" rx="1.087" ry="1.039" transform="translate(78.249)" fill="#fff"/>
                <path id="Trazado_99226" data-name="Trazado 99226" d="M492.4,66.279a1.088,1.088,0,1,1-1.087-1.039A1.065,1.065,0,0,1,492.4,66.279Z" transform="translate(-402.201 -65.24)" fill="#fff"/>
                <path id="Trazado_99227" data-name="Trazado 99227" d="M500.851,66.279a1.088,1.088,0,1,1-1.087-1.039A1.065,1.065,0,0,1,500.851,66.279Z" transform="translate(-400.866 -65.24)" fill="#fff"/>
              </g>
              <g id="Grupo_53309" data-name="Grupo 53309" transform="translate(0 24.943)">
                <ellipse id="Elipse_3960" data-name="Elipse 3960" cx="1.087" cy="1.039" rx="1.087" ry="1.039" transform="translate(0 0)" fill="#fff"/>
                <path id="Trazado_99228" data-name="Trazado 99228" d="M424.834,73.787a1.088,1.088,0,1,1-1.086-1.04A1.063,1.063,0,0,1,424.834,73.787Z" transform="translate(-412.879 -72.747)" fill="#fff"/>
                <ellipse id="Elipse_3961" data-name="Elipse 3961" cx="1.087" cy="1.039" rx="1.087" ry="1.039" transform="translate(19.562 0)" fill="#fff"/>
                <path id="Trazado_99229" data-name="Trazado 99229" d="M441.727,73.787a1.088,1.088,0,1,1-1.087-1.04A1.064,1.064,0,0,1,441.727,73.787Z" transform="translate(-410.209 -72.747)" fill="#fff"/>
                <path id="Trazado_99230" data-name="Trazado 99230" d="M450.173,73.787a1.088,1.088,0,1,1-1.086-1.04A1.063,1.063,0,0,1,450.173,73.787Z" transform="translate(-408.875 -72.747)" fill="#fff"/>
                <ellipse id="Elipse_3962" data-name="Elipse 3962" cx="1.087" cy="1.039" rx="1.087" ry="1.039" transform="translate(48.906 0)" fill="#fff"/>
                <path id="Trazado_99231" data-name="Trazado 99231" d="M467.066,73.787a1.088,1.088,0,1,1-1.087-1.04A1.064,1.064,0,0,1,467.066,73.787Z" transform="translate(-406.205 -72.747)" fill="#fff"/>
                <ellipse id="Elipse_3963" data-name="Elipse 3963" cx="1.087" cy="1.039" rx="1.087" ry="1.039" transform="translate(68.468 0)" fill="#fff"/>
                <ellipse id="Elipse_3964" data-name="Elipse 3964" cx="1.087" cy="1.039" rx="1.087" ry="1.039" transform="translate(78.249 0)" fill="#fff"/>
                <path id="Trazado_99232" data-name="Trazado 99232" d="M492.4,73.787a1.088,1.088,0,1,1-1.087-1.04A1.064,1.064,0,0,1,492.4,73.787Z" transform="translate(-402.201 -72.747)" fill="#fff"/>
                <path id="Trazado_99233" data-name="Trazado 99233" d="M500.851,73.787a1.088,1.088,0,1,1-1.087-1.04A1.064,1.064,0,0,1,500.851,73.787Z" transform="translate(-400.866 -72.747)" fill="#fff"/>
              </g>
              <g id="Grupo_53310" data-name="Grupo 53310" transform="translate(0 33.258)">
                <path id="Trazado_99234" data-name="Trazado 99234" d="M416.388,81.295a1.088,1.088,0,1,1-1.087-1.04A1.064,1.064,0,0,1,416.388,81.295Z" transform="translate(-414.214 -80.255)" fill="#fff"/>
                <path id="Trazado_99235" data-name="Trazado 99235" d="M424.834,81.295a1.088,1.088,0,1,1-1.086-1.04A1.063,1.063,0,0,1,424.834,81.295Z" transform="translate(-412.879 -80.255)" fill="#fff"/>
                <path id="Trazado_99236" data-name="Trazado 99236" d="M433.28,81.295a1.088,1.088,0,1,1-1.086-1.04A1.063,1.063,0,0,1,433.28,81.295Z" transform="translate(-411.544 -80.255)" fill="#fff"/>
                <path id="Trazado_99237" data-name="Trazado 99237" d="M441.727,81.295a1.088,1.088,0,1,1-1.087-1.04A1.064,1.064,0,0,1,441.727,81.295Z" transform="translate(-410.21 -80.255)" fill="#fff"/>
                <path id="Trazado_99238" data-name="Trazado 99238" d="M450.173,81.295a1.088,1.088,0,1,1-1.086-1.04A1.063,1.063,0,0,1,450.173,81.295Z" transform="translate(-408.875 -80.255)" fill="#fff"/>
                <path id="Trazado_99239" data-name="Trazado 99239" d="M458.619,81.295a1.088,1.088,0,1,1-1.086-1.04A1.063,1.063,0,0,1,458.619,81.295Z" transform="translate(-407.54 -80.255)" fill="#fff"/>
                <path id="Trazado_99240" data-name="Trazado 99240" d="M467.066,81.295a1.088,1.088,0,1,1-1.087-1.04A1.064,1.064,0,0,1,467.066,81.295Z" transform="translate(-406.205 -80.255)" fill="#fff"/>
                <path id="Trazado_99241" data-name="Trazado 99241" d="M475.512,81.295a1.088,1.088,0,1,1-1.086-1.04A1.063,1.063,0,0,1,475.512,81.295Z" transform="translate(-404.87 -80.255)" fill="#fff"/>
                <path id="Trazado_99242" data-name="Trazado 99242" d="M483.958,81.295a1.088,1.088,0,1,1-1.086-1.04A1.063,1.063,0,0,1,483.958,81.295Z" transform="translate(-403.536 -80.255)" fill="#fff"/>
                <path id="Trazado_99243" data-name="Trazado 99243" d="M492.4,81.295a1.088,1.088,0,1,1-1.087-1.04A1.064,1.064,0,0,1,492.4,81.295Z" transform="translate(-402.201 -80.255)" fill="#fff"/>
                <path id="Trazado_99244" data-name="Trazado 99244" d="M500.851,81.295a1.088,1.088,0,1,1-1.087-1.04A1.064,1.064,0,0,1,500.851,81.295Z" transform="translate(-400.866 -80.255)" fill="#fff"/>
              </g>
              <g id="Grupo_53311" data-name="Grupo 53311" transform="translate(0 41.573)">
                <ellipse id="Elipse_3965" data-name="Elipse 3965" cx="1.087" cy="1.039" rx="1.087" ry="1.039" transform="translate(0 0)" fill="#fff"/>
                <path id="Trazado_99245" data-name="Trazado 99245" d="M424.834,88.8a1.088,1.088,0,1,1-1.086-1.04A1.063,1.063,0,0,1,424.834,88.8Z" transform="translate(-412.879 -87.763)" fill="#fff"/>
                <ellipse id="Elipse_3966" data-name="Elipse 3966" cx="1.087" cy="1.039" rx="1.087" ry="1.039" transform="translate(19.562 0)" fill="#fff"/>
                <path id="Trazado_99246" data-name="Trazado 99246" d="M441.727,88.8a1.088,1.088,0,1,1-1.087-1.04A1.064,1.064,0,0,1,441.727,88.8Z" transform="translate(-410.209 -87.763)" fill="#fff"/>
                <path id="Trazado_99247" data-name="Trazado 99247" d="M450.173,88.8a1.088,1.088,0,1,1-1.086-1.04A1.063,1.063,0,0,1,450.173,88.8Z" transform="translate(-408.875 -87.763)" fill="#fff"/>
                <ellipse id="Elipse_3967" data-name="Elipse 3967" cx="1.087" cy="1.039" rx="1.087" ry="1.039" transform="translate(48.906 0)" fill="#fff"/>
                <path id="Trazado_99248" data-name="Trazado 99248" d="M467.066,88.8a1.088,1.088,0,1,1-1.087-1.04A1.064,1.064,0,0,1,467.066,88.8Z" transform="translate(-406.205 -87.763)" fill="#fff"/>
                <ellipse id="Elipse_3968" data-name="Elipse 3968" cx="1.087" cy="1.039" rx="1.087" ry="1.039" transform="translate(68.468 0)" fill="#fff"/>
                <ellipse id="Elipse_3969" data-name="Elipse 3969" cx="1.087" cy="1.039" rx="1.087" ry="1.039" transform="translate(78.249 0)" fill="#fff"/>
                <path id="Trazado_99249" data-name="Trazado 99249" d="M492.4,88.8a1.088,1.088,0,1,1-1.087-1.04A1.064,1.064,0,0,1,492.4,88.8Z" transform="translate(-402.201 -87.763)" fill="#fff"/>
                <path id="Trazado_99250" data-name="Trazado 99250" d="M500.851,88.8a1.088,1.088,0,1,1-1.087-1.04A1.064,1.064,0,0,1,500.851,88.8Z" transform="translate(-400.866 -87.763)" fill="#fff"/>
              </g>
              <g id="Grupo_53312" data-name="Grupo 53312" transform="translate(0 49.887)">
                <ellipse id="Elipse_3970" data-name="Elipse 3970" cx="1.087" cy="1.039" rx="1.087" ry="1.039" fill="#fff"/>
                <path id="Trazado_99251" data-name="Trazado 99251" d="M424.834,96.31a1.088,1.088,0,1,1-1.086-1.039A1.064,1.064,0,0,1,424.834,96.31Z" transform="translate(-412.879 -95.271)" fill="#fff"/>
                <ellipse id="Elipse_3971" data-name="Elipse 3971" cx="1.087" cy="1.039" rx="1.087" ry="1.039" transform="translate(19.562)" fill="#fff"/>
                <path id="Trazado_99252" data-name="Trazado 99252" d="M441.727,96.31a1.088,1.088,0,1,1-1.087-1.039A1.064,1.064,0,0,1,441.727,96.31Z" transform="translate(-410.209 -95.271)" fill="#fff"/>
                <path id="Trazado_99253" data-name="Trazado 99253" d="M450.173,96.31a1.088,1.088,0,1,1-1.086-1.039A1.064,1.064,0,0,1,450.173,96.31Z" transform="translate(-408.875 -95.271)" fill="#fff"/>
                <ellipse id="Elipse_3972" data-name="Elipse 3972" cx="1.087" cy="1.039" rx="1.087" ry="1.039" transform="translate(48.906)" fill="#fff"/>
                <path id="Trazado_99254" data-name="Trazado 99254" d="M467.066,96.31a1.088,1.088,0,1,1-1.087-1.039A1.065,1.065,0,0,1,467.066,96.31Z" transform="translate(-406.205 -95.271)" fill="#fff"/>
                <ellipse id="Elipse_3973" data-name="Elipse 3973" cx="1.087" cy="1.039" rx="1.087" ry="1.039" transform="translate(68.468)" fill="#fff"/>
                <ellipse id="Elipse_3974" data-name="Elipse 3974" cx="1.087" cy="1.039" rx="1.087" ry="1.039" transform="translate(78.249)" fill="#fff"/>
                <path id="Trazado_99255" data-name="Trazado 99255" d="M492.4,96.31a1.088,1.088,0,1,1-1.087-1.039A1.065,1.065,0,0,1,492.4,96.31Z" transform="translate(-402.201 -95.271)" fill="#fff"/>
                <path id="Trazado_99256" data-name="Trazado 99256" d="M500.851,96.31a1.088,1.088,0,1,1-1.087-1.039A1.064,1.064,0,0,1,500.851,96.31Z" transform="translate(-400.866 -95.271)" fill="#fff"/>
              </g>
              <g id="Grupo_53313" data-name="Grupo 53313" transform="translate(0 58.202)">
                <path id="Trazado_99257" data-name="Trazado 99257" d="M416.388,103.818a1.088,1.088,0,1,1-1.087-1.039A1.064,1.064,0,0,1,416.388,103.818Z" transform="translate(-414.214 -102.779)" fill="#fff"/>
                <path id="Trazado_99258" data-name="Trazado 99258" d="M424.834,103.818a1.088,1.088,0,1,1-1.086-1.039A1.064,1.064,0,0,1,424.834,103.818Z" transform="translate(-412.879 -102.779)" fill="#fff"/>
                <path id="Trazado_99259" data-name="Trazado 99259" d="M433.28,103.818a1.088,1.088,0,1,1-1.086-1.039A1.064,1.064,0,0,1,433.28,103.818Z" transform="translate(-411.544 -102.779)" fill="#fff"/>
                <path id="Trazado_99260" data-name="Trazado 99260" d="M441.727,103.818a1.088,1.088,0,1,1-1.087-1.039A1.064,1.064,0,0,1,441.727,103.818Z" transform="translate(-410.21 -102.779)" fill="#fff"/>
                <path id="Trazado_99261" data-name="Trazado 99261" d="M450.173,103.818a1.088,1.088,0,1,1-1.086-1.039A1.064,1.064,0,0,1,450.173,103.818Z" transform="translate(-408.875 -102.779)" fill="#fff"/>
                <path id="Trazado_99262" data-name="Trazado 99262" d="M458.619,103.818a1.088,1.088,0,1,1-1.086-1.039A1.064,1.064,0,0,1,458.619,103.818Z" transform="translate(-407.54 -102.779)" fill="#fff"/>
                <path id="Trazado_99263" data-name="Trazado 99263" d="M467.066,103.818a1.088,1.088,0,1,1-1.087-1.039A1.065,1.065,0,0,1,467.066,103.818Z" transform="translate(-406.205 -102.779)" fill="#fff"/>
                <path id="Trazado_99264" data-name="Trazado 99264" d="M475.512,103.818a1.088,1.088,0,1,1-1.086-1.039A1.064,1.064,0,0,1,475.512,103.818Z" transform="translate(-404.87 -102.779)" fill="#fff"/>
                <path id="Trazado_99265" data-name="Trazado 99265" d="M483.958,103.818a1.088,1.088,0,1,1-1.086-1.039A1.064,1.064,0,0,1,483.958,103.818Z" transform="translate(-403.536 -102.779)" fill="#fff"/>
                <path id="Trazado_99266" data-name="Trazado 99266" d="M492.4,103.818a1.088,1.088,0,1,1-1.087-1.039A1.065,1.065,0,0,1,492.4,103.818Z" transform="translate(-402.201 -102.779)" fill="#fff"/>
                <path id="Trazado_99267" data-name="Trazado 99267" d="M500.851,103.818a1.088,1.088,0,1,1-1.087-1.039A1.064,1.064,0,0,1,500.851,103.818Z" transform="translate(-400.866 -102.779)" fill="#fff"/>
              </g>
              <g id="Grupo_53314" data-name="Grupo 53314" transform="translate(0 66.517)">
                <ellipse id="Elipse_3975" data-name="Elipse 3975" cx="1.087" cy="1.039" rx="1.087" ry="1.039" fill="#fff"/>
                <path id="Trazado_99268" data-name="Trazado 99268" d="M424.834,111.326a1.088,1.088,0,1,1-1.086-1.039A1.064,1.064,0,0,1,424.834,111.326Z" transform="translate(-412.879 -110.287)" fill="#fff"/>
                <ellipse id="Elipse_3976" data-name="Elipse 3976" cx="1.087" cy="1.039" rx="1.087" ry="1.039" transform="translate(19.562)" fill="#fff"/>
                <path id="Trazado_99269" data-name="Trazado 99269" d="M441.727,111.326a1.088,1.088,0,1,1-1.087-1.039A1.065,1.065,0,0,1,441.727,111.326Z" transform="translate(-410.209 -110.287)" fill="#fff"/>
                <path id="Trazado_99270" data-name="Trazado 99270" d="M450.173,111.326a1.088,1.088,0,1,1-1.086-1.039A1.064,1.064,0,0,1,450.173,111.326Z" transform="translate(-408.875 -110.287)" fill="#fff"/>
                <ellipse id="Elipse_3977" data-name="Elipse 3977" cx="1.087" cy="1.039" rx="1.087" ry="1.039" transform="translate(48.906)" fill="#fff"/>
                <path id="Trazado_99271" data-name="Trazado 99271" d="M467.066,111.326a1.088,1.088,0,1,1-1.087-1.039A1.065,1.065,0,0,1,467.066,111.326Z" transform="translate(-406.205 -110.287)" fill="#fff"/>
                <ellipse id="Elipse_3978" data-name="Elipse 3978" cx="1.087" cy="1.039" rx="1.087" ry="1.039" transform="translate(68.468)" fill="#fff"/>
                <ellipse id="Elipse_3979" data-name="Elipse 3979" cx="1.087" cy="1.039" rx="1.087" ry="1.039" transform="translate(78.249)" fill="#fff"/>
                <path id="Trazado_99272" data-name="Trazado 99272" d="M492.4,111.326a1.088,1.088,0,1,1-1.087-1.039A1.065,1.065,0,0,1,492.4,111.326Z" transform="translate(-402.201 -110.287)" fill="#fff"/>
                <path id="Trazado_99273" data-name="Trazado 99273" d="M500.851,111.326a1.088,1.088,0,1,1-1.087-1.039A1.065,1.065,0,0,1,500.851,111.326Z" transform="translate(-400.866 -110.287)" fill="#fff"/>
              </g>
              <g id="Grupo_53315" data-name="Grupo 53315" transform="translate(0 74.831)">
                <path id="Trazado_99274" data-name="Trazado 99274" d="M416.388,118.834a1.088,1.088,0,1,1-1.087-1.04A1.065,1.065,0,0,1,416.388,118.834Z" transform="translate(-414.214 -117.794)" fill="#fff"/>
                <path id="Trazado_99275" data-name="Trazado 99275" d="M424.834,118.834a1.088,1.088,0,1,1-1.086-1.04A1.064,1.064,0,0,1,424.834,118.834Z" transform="translate(-412.879 -117.794)" fill="#fff"/>
                <path id="Trazado_99276" data-name="Trazado 99276" d="M433.28,118.834a1.088,1.088,0,1,1-1.086-1.04A1.064,1.064,0,0,1,433.28,118.834Z" transform="translate(-411.544 -117.794)" fill="#fff"/>
                <path id="Trazado_99277" data-name="Trazado 99277" d="M441.727,118.834a1.088,1.088,0,1,1-1.087-1.04A1.065,1.065,0,0,1,441.727,118.834Z" transform="translate(-410.21 -117.794)" fill="#fff"/>
                <path id="Trazado_99278" data-name="Trazado 99278" d="M450.173,118.834a1.088,1.088,0,1,1-1.086-1.04A1.064,1.064,0,0,1,450.173,118.834Z" transform="translate(-408.875 -117.794)" fill="#fff"/>
                <path id="Trazado_99279" data-name="Trazado 99279" d="M458.619,118.834a1.088,1.088,0,1,1-1.086-1.04A1.064,1.064,0,0,1,458.619,118.834Z" transform="translate(-407.54 -117.794)" fill="#fff"/>
                <path id="Trazado_99280" data-name="Trazado 99280" d="M467.066,118.834a1.088,1.088,0,1,1-1.087-1.04A1.065,1.065,0,0,1,467.066,118.834Z" transform="translate(-406.205 -117.794)" fill="#fff"/>
                <path id="Trazado_99281" data-name="Trazado 99281" d="M475.512,118.834a1.088,1.088,0,1,1-1.086-1.04A1.064,1.064,0,0,1,475.512,118.834Z" transform="translate(-404.87 -117.794)" fill="#fff"/>
                <path id="Trazado_99282" data-name="Trazado 99282" d="M483.958,118.834a1.088,1.088,0,1,1-1.086-1.04A1.064,1.064,0,0,1,483.958,118.834Z" transform="translate(-403.536 -117.794)" fill="#fff"/>
                <path id="Trazado_99283" data-name="Trazado 99283" d="M492.4,118.834a1.088,1.088,0,1,1-1.087-1.04A1.065,1.065,0,0,1,492.4,118.834Z" transform="translate(-402.201 -117.794)" fill="#fff"/>
                <path id="Trazado_99284" data-name="Trazado 99284" d="M500.851,118.834a1.088,1.088,0,1,1-1.087-1.04A1.065,1.065,0,0,1,500.851,118.834Z" transform="translate(-400.866 -117.794)" fill="#fff"/>
              </g>
              <g id="Grupo_53316" data-name="Grupo 53316" transform="translate(0 83.145)">
                <ellipse id="Elipse_3980" data-name="Elipse 3980" cx="1.087" cy="1.039" rx="1.087" ry="1.039" transform="translate(0 0)" fill="#fff"/>
                <path id="Trazado_99285" data-name="Trazado 99285" d="M424.834,126.342a1.088,1.088,0,1,1-1.086-1.04A1.063,1.063,0,0,1,424.834,126.342Z" transform="translate(-412.879 -125.302)" fill="#fff"/>
                <ellipse id="Elipse_3981" data-name="Elipse 3981" cx="1.087" cy="1.039" rx="1.087" ry="1.039" transform="translate(19.562 0)" fill="#fff"/>
                <path id="Trazado_99286" data-name="Trazado 99286" d="M441.727,126.342a1.088,1.088,0,1,1-1.087-1.04A1.064,1.064,0,0,1,441.727,126.342Z" transform="translate(-410.209 -125.302)" fill="#fff"/>
                <path id="Trazado_99287" data-name="Trazado 99287" d="M450.173,126.342a1.088,1.088,0,1,1-1.086-1.04A1.063,1.063,0,0,1,450.173,126.342Z" transform="translate(-408.875 -125.302)" fill="#fff"/>
                <ellipse id="Elipse_3982" data-name="Elipse 3982" cx="1.087" cy="1.039" rx="1.087" ry="1.039" transform="translate(48.906 0)" fill="#fff"/>
                <path id="Trazado_99288" data-name="Trazado 99288" d="M467.066,126.342a1.088,1.088,0,1,1-1.087-1.04A1.064,1.064,0,0,1,467.066,126.342Z" transform="translate(-406.205 -125.302)" fill="#fff"/>
                <ellipse id="Elipse_3983" data-name="Elipse 3983" cx="1.087" cy="1.039" rx="1.087" ry="1.039" transform="translate(68.468 0)" fill="#fff"/>
                <ellipse id="Elipse_3984" data-name="Elipse 3984" cx="1.087" cy="1.039" rx="1.087" ry="1.039" transform="translate(78.249 0)" fill="#fff"/>
                <path id="Trazado_99289" data-name="Trazado 99289" d="M492.4,126.342a1.088,1.088,0,1,1-1.087-1.04A1.064,1.064,0,0,1,492.4,126.342Z" transform="translate(-402.201 -125.302)" fill="#fff"/>
                <path id="Trazado_99290" data-name="Trazado 99290" d="M500.851,126.342a1.088,1.088,0,1,1-1.087-1.04A1.064,1.064,0,0,1,500.851,126.342Z" transform="translate(-400.866 -125.302)" fill="#fff"/>
              </g>
              <g id="Grupo_53317" data-name="Grupo 53317" transform="translate(0 91.461)">
                <ellipse id="Elipse_3985" data-name="Elipse 3985" cx="1.087" cy="1.039" rx="1.087" ry="1.039" transform="translate(0 0)" fill="#fff"/>
                <path id="Trazado_99291" data-name="Trazado 99291" d="M424.834,133.85a1.088,1.088,0,1,1-1.086-1.04A1.063,1.063,0,0,1,424.834,133.85Z" transform="translate(-412.879 -132.81)" fill="#fff"/>
                <ellipse id="Elipse_3986" data-name="Elipse 3986" cx="1.087" cy="1.039" rx="1.087" ry="1.039" transform="translate(19.562 0)" fill="#fff"/>
                <path id="Trazado_99292" data-name="Trazado 99292" d="M441.727,133.85a1.088,1.088,0,1,1-1.087-1.04A1.064,1.064,0,0,1,441.727,133.85Z" transform="translate(-410.209 -132.81)" fill="#fff"/>
                <path id="Trazado_99293" data-name="Trazado 99293" d="M450.173,133.85a1.088,1.088,0,1,1-1.086-1.04A1.063,1.063,0,0,1,450.173,133.85Z" transform="translate(-408.875 -132.81)" fill="#fff"/>
                <ellipse id="Elipse_3987" data-name="Elipse 3987" cx="1.087" cy="1.039" rx="1.087" ry="1.039" transform="translate(48.906 0)" fill="#fff"/>
                <path id="Trazado_99294" data-name="Trazado 99294" d="M467.066,133.85a1.088,1.088,0,1,1-1.087-1.04A1.064,1.064,0,0,1,467.066,133.85Z" transform="translate(-406.205 -132.81)" fill="#fff"/>
                <ellipse id="Elipse_3988" data-name="Elipse 3988" cx="1.087" cy="1.039" rx="1.087" ry="1.039" transform="translate(68.468 0)" fill="#fff"/>
                <ellipse id="Elipse_3989" data-name="Elipse 3989" cx="1.087" cy="1.039" rx="1.087" ry="1.039" transform="translate(78.249 0)" fill="#fff"/>
                <path id="Trazado_99295" data-name="Trazado 99295" d="M492.4,133.85a1.088,1.088,0,1,1-1.087-1.04A1.064,1.064,0,0,1,492.4,133.85Z" transform="translate(-402.201 -132.81)" fill="#fff"/>
                <path id="Trazado_99296" data-name="Trazado 99296" d="M500.851,133.85a1.088,1.088,0,1,1-1.087-1.04A1.064,1.064,0,0,1,500.851,133.85Z" transform="translate(-400.866 -132.81)" fill="#fff"/>
              </g>
            </g>
          </g>
        </g>
      </g>
    </g>
    <g id="Grupo_145952" data-name="Grupo 145952" transform="translate(2620.687 7470.926)">
      <path id="Trazado_252402" data-name="Trazado 252402" d="M-1321.936,1059.175a97.6,97.6,0,0,1-14.934,12.574c-48.718,34.956-106.364,24.766-118.615,22.278-18.091-3.674-53.062-10.777-78.345-40.51-38.251-44.982-32.3-115.851-2.625-162.633,5.427-8.557,34.095-56.051,92.362-63.668,35.263-4.609,76.367,4.687,106.135,29.626C-1275.475,909.192-1279.924,1014.946-1321.936,1059.175Z" transform="translate(-54.15 -38.14)" fill="#f6f6f6"/>
      <g id="Grupo_145931" data-name="Grupo 145931" transform="translate(-1603.266 783.778)">
        <path id="Trazado_252403" data-name="Trazado 252403" d="M-1443.507,785.723a1.494,1.494,0,0,1,2.32-1.643c11.782,8.787,40.764,35.817,40.336,88.859-.536,66.549,15.86,88.946,34.541,101.621,0,0-24.155-4.214-41.624-26.846C-1450.824,892.147-1435.575,810.206-1443.507,785.723Z" transform="translate(1443.583 -783.778)" fill="url(#linear-gradient-2)"/>
        <path id="Trazado_252404" data-name="Trazado 252404" d="M-1336.9,998.046c2.162,7.156,4.183,14.351,5.937,21.609q2.688,10.872,4.705,21.884c1.313,7.342,2.489,14.707,3.35,22.112.894,7.4,1.47,14.83,2.021,22.293.593,7.455,1.148,14.968,2.473,22.448a75.835,75.835,0,0,0,7.064,21.693c.879,1.695,1.792,3.38,2.8,4.994.974,1.634,2.021,3.225,3.1,4.8a81.42,81.42,0,0,0,7.132,8.934,81.443,81.443,0,0,0,17.732,14.308,1.445,1.445,0,0,0,1.983-.494,1.445,1.445,0,0,0-.457-1.96l0,0c-1.554-.995-3.094-2.007-4.584-3.083-.754-.527-1.482-1.086-2.221-1.63-.717-.572-1.457-1.117-2.156-1.711a76.152,76.152,0,0,1-7.972-7.56,83.511,83.511,0,0,1-12.511-18.033,72.765,72.765,0,0,1-4.2-10.125,82.531,82.531,0,0,1-2.685-10.676c-1.343-7.253-1.953-14.685-2.6-22.135s-1.367-14.934-2.384-22.376q-.748-5.583-1.7-11.135c-.305-1.852-.646-3.7-.984-5.544q-.533-2.764-1.1-5.521-2.3-11.02-5.28-21.873c-2.021-7.221-4.233-14.386-6.718-21.453a.388.388,0,0,0-.494-.237A.389.389,0,0,0-1336.9,998.046Z" transform="translate(1347.408 -976.519)" fill="#bdd0fb"/>
      </g>
      <g id="Grupo_145933" data-name="Grupo 145933" transform="translate(-1620.686 859.285)">
        <g id="Grupo_145932" data-name="Grupo 145932" transform="translate(0 0)">
          <path id="Trazado_252405" data-name="Trazado 252405" d="M-1547.565,1711.123a3.755,3.755,0,0,1-5.711,2.5c-12.436-7.866-45.587-33.288-51.589-83.732-5.068-42.6-11.865-65.215-15.661-75.268a2.355,2.355,0,0,1,3.483-2.807C-1595.987,1565.426-1530.8,1615.949-1547.565,1711.123Z" transform="translate(1620.686 -1551.428)" fill="url(#linear-gradient-3)"/>
          <path id="Trazado_252406" data-name="Trazado 252406" d="M-1338.829,2118.078a1.042,1.042,0,0,1-.159.124,1.041,1.041,0,0,1-1.437-.32c-.35-.55-35.076-55.694-44.8-114.605a1.042,1.042,0,0,1,.858-1.2,1.042,1.042,0,0,1,1.2.858c9.651,58.482,44.154,113.281,44.5,113.827A1.041,1.041,0,0,1-1338.829,2118.078Z" transform="translate(1408.397 -1957.74)" fill="url(#linear-gradient-3)"/>
        </g>
      </g>
      <g id="Grupo_145944" data-name="Grupo 145944" transform="translate(-1565.742 788.267)">
        <g id="Grupo_145935" data-name="Grupo 145935" transform="translate(0 0)">
          <g id="Grupo_145934" data-name="Grupo 145934">
            <path id="Trazado_252407" data-name="Trazado 252407" d="M-1050.138,830.428a13.041,13.041,0,0,0-11.9,12.966c-.117,41.275-.31,183.644,2.38,234.035a10.127,10.127,0,0,0,10.008,9.59c26.44.285,102.494.808,145.671-1.954A17.052,17.052,0,0,0-888,1068.03c-.053-43.32-.745-165.15-6.679-220.837a13.916,13.916,0,0,0-12.764-12.4C-936.278,832.544-1012.855,827.186-1050.138,830.428Z" transform="translate(1062.093 -829.412)" fill="#29398a"/>
            <path id="Trazado_252408" data-name="Trazado 252408" d="M-961.8,967.532c-.519,35.307-2,152.76.583,196.109a12.047,12.047,0,0,0,11.376,11.55c25.022.872,89.186,2.559,125.748-1.464a13.541,13.541,0,0,0,11.791-13.341c.915-36.031,3.385-145.424.877-188.289A13.331,13.331,0,0,0-823.6,959.362c-27.093-1.826-96.664-6.036-127.755-3.447A11.63,11.63,0,0,0-961.8,967.532Z" transform="translate(972.474 -942.733)" fill="#dee4f0"/>
            <path id="Trazado_252409" data-name="Trazado 252409" d="M-339.081,883.626a1.831,1.831,0,0,0,1.775,1.793c4.815.146,18.378.562,24.44.78a1.832,1.832,0,0,0,1.856-2.22,1.869,1.869,0,0,0-1.707-1.642c-4.1-.285-16.473-1.054-24.648-.582A1.894,1.894,0,0,0-339.081,883.626Z" transform="translate(410.207 -876.471)" fill="#7453d8"/>
          </g>
        </g>
        <g id="Grupo_145938" data-name="Grupo 145938" transform="translate(18.683 38.201)">
          <circle id="Elipse_5874" data-name="Elipse 5874" cx="32.817" cy="32.817" r="32.817" fill="#fda929" opacity="0.8"/>
          <g id="Grupo_145937" data-name="Grupo 145937" transform="translate(3.591 3.591)">
            <g id="Grupo_145936" data-name="Grupo 145936" clip-path="url(#clip-path)">
              <circle id="Elipse_5875" data-name="Elipse 5875" cx="12.808" cy="12.808" r="12.808" transform="translate(13.646 30.783) rotate(-74.872)" fill="#7453d8"/>
              <path id="Trazado_252410" data-name="Trazado 252410" d="M-765.312,1674.4h40.8c2.5,0,4-3.233,2.653-5.7-3.466-6.347-10.718-15.671-23.277-15.25-12.1.405-19.279,8.828-22.885,14.868C-769.547,1670.878-767.985,1674.4-765.312,1674.4Z" transform="translate(775.211 -1614.173)" fill="#7453d8"/>
            </g>
          </g>
        </g>
        <rect id="Rectángulo_44159" data-name="Rectángulo 44159" width="45.67" height="16.461" rx="8.23" transform="translate(57.892 199.846)" fill="#7453d8"/>
        <g id="Grupo_145943" data-name="Grupo 145943" transform="translate(19.816 130.188)">
          <g id="Grupo_145939" data-name="Grupo 145939" transform="translate(0.809)" opacity="0.8">
            <rect id="Rectángulo_44160" data-name="Rectángulo 44160" width="94.749" height="9.063" rx="4.532" transform="translate(17.648 0.991)" fill="url(#linear-gradient-5)"/>
            <circle id="Elipse_5877" data-name="Elipse 5877" cx="5.495" cy="5.495" r="5.495" fill="url(#linear-gradient-5)"/>
          </g>
          <g id="Grupo_145940" data-name="Grupo 145940" transform="translate(0 16.198)" opacity="0.8">
            <path id="Rectángulo_44161" data-name="Rectángulo 44161" d="M4.532,0H90.217a4.532,4.532,0,0,1,4.532,4.532v0a4.532,4.532,0,0,1-4.532,4.532H4.532A4.532,4.532,0,0,1,0,4.532v0A4.532,4.532,0,0,1,4.532,0Z" transform="translate(18.457 1.8)" fill="url(#linear-gradient-5)"/>
            <circle id="Elipse_5878" data-name="Elipse 5878" cx="5.495" cy="5.495" r="5.495" transform="translate(0 10.847) rotate(-80.783)" fill="url(#linear-gradient-5)"/>
          </g>
          <g id="Grupo_145941" data-name="Grupo 145941" transform="translate(0.809 34.015)" opacity="0.8">
            <rect id="Rectángulo_44162" data-name="Rectángulo 44162" width="94.749" height="9.063" rx="4.532" transform="translate(17.648 0.991)" fill="url(#linear-gradient-5)"/>
            <circle id="Elipse_5879" data-name="Elipse 5879" cx="5.495" cy="5.495" r="5.495" fill="url(#linear-gradient-5)"/>
          </g>
          <g id="Grupo_145942" data-name="Grupo 145942" transform="translate(0.809 51.022)">
            <rect id="Rectángulo_44163" data-name="Rectángulo 44163" width="94.749" height="9.063" rx="4.532" transform="translate(17.648 0.991)" opacity="0.8" fill="url(#linear-gradient-5)"/>
            <circle id="Elipse_5880" data-name="Elipse 5880" cx="5.495" cy="5.495" r="5.495" opacity="0.8" fill="url(#linear-gradient-5)"/>
          </g>
        </g>
        <rect id="Rectángulo_44164" data-name="Rectángulo 44164" width="74.592" height="9.063" rx="4.532" transform="translate(20.841 113.464)" fill="#fda929"/>
      </g>
      <g id="Grupo_145946" data-name="Grupo 145946" transform="translate(-1475.211 794.966)">
        <g id="Grupo_145945" data-name="Grupo 145945" transform="translate(0 0)">
          <path id="Trazado_252411" data-name="Trazado 252411" d="M-54.582,921.972a8.286,8.286,0,0,0-4.719-6.944l-35.165-16.7a8.3,8.3,0,0,0-7.118,0l-35.165,16.7a8.286,8.286,0,0,0-4.719,6.944c-3.3,50.986,29.393,69.563,40.11,74.256a8.306,8.306,0,0,0,6.665,0C-83.976,991.536-51.284,972.958-54.582,921.972Z" transform="translate(141.7 -897.526)" fill="url(#linear-gradient-13)"/>
          <path id="Trazado_252412" data-name="Trazado 252412" d="M189.6,931.876a.5.5,0,0,1-.215-.953l8.309-3.946a.5.5,0,0,1,.43.9l-8.309,3.946A.5.5,0,0,1,189.6,931.876Z" transform="translate(-156.557 -924.036)" fill="#91b3fa"/>
          <path id="Trazado_252413" data-name="Trazado 252413" d="M-117.081,1009.5a.5.5,0,0,1-.5-.484c-.111-3.316-.053-6.774.173-10.276a5.921,5.921,0,0,1,3.372-4.958l23.656-11.235a.5.5,0,0,1,.667.237.5.5,0,0,1-.237.667l-23.656,11.235a4.919,4.919,0,0,0-2.8,4.118c-.224,3.47-.282,6.894-.172,10.177a.5.5,0,0,1-.483.517Z" transform="translate(120.002 -974.144)" fill="#91b3fa"/>
          <path id="Trazado_252414" data-name="Trazado 252414" d="M15.784,1005.17a2.071,2.071,0,0,0-1.179-1.765l-32.873-15.613a2.068,2.068,0,0,0-1.774,0l-32.873,15.613a2.071,2.071,0,0,0-1.179,1.765c-.972,19.019,3.421,34.889,13.067,47.188a58.317,58.317,0,0,0,21,16.747,2.073,2.073,0,0,0,1.75,0,58.318,58.318,0,0,0,21-16.747C12.363,1040.059,16.756,1024.19,15.784,1005.17Z" transform="translate(62.83 -978.733)" fill="#fff"/>
        </g>
        <path id="Trazado_252415" data-name="Trazado 252415" d="M64.258,1126.645h0a5.7,5.7,0,0,1,7.914,1.95l7.641,12.953a1.831,1.831,0,0,0,3.265-.22l17.192-40.884a2.029,2.029,0,0,1,3.9.782c.113,12.376-2.6,35.972-21.895,56.133,0,0-11-3.972-20.233-23.024A5.981,5.981,0,0,1,64.258,1126.645Z" transform="translate(-41.458 -1079.361)" fill="#fda929"/>
      </g>
      <g id="Grupo_145951" data-name="Grupo 145951" transform="translate(-1437.713 875.916)">
        <path id="Trazado_252416" data-name="Trazado 252416" d="M614.59,3456.986s.629,3.564.938,7.092a2.431,2.431,0,0,1-2.325,2.634c-4.7.2-14.747.576-18.353.415a.791.791,0,0,1-.7-1.083h0a1.77,1.77,0,0,1,.906-.954l16.6-7.629Z" transform="translate(-559.222 -3286.184)" fill="#12263f"/>
        <path id="Trazado_252417" data-name="Trazado 252417" d="M758.19,3429.662l-.506,4.263s-2.908,1.354-4.894-.171L754,3429Z" transform="translate(-702.307 -3260.954)" fill="url(#linear-gradient-14)"/>
        <path id="Trazado_252418" data-name="Trazado 252418" d="M761.014,2620.894c.219,1.113,1.173,55.552-4.646,79.948a.828.828,0,0,0,.486.963,14.418,14.418,0,0,0,4.739.963,1.427,1.427,0,0,0,1.415-1.024c1.663-5.66,9.634-34.02,10.674-61.111,1.162-30.271,0-1.031,0-1.031L773,2620.892Z" transform="translate(-705.51 -2532.329)" fill="#29398a"/>
        <path id="Trazado_252419" data-name="Trazado 252419" d="M935.526,3475.889a25.646,25.646,0,0,1,1.972,6.58,1.483,1.483,0,0,1-1.3,1.776c-1.551.153-3.939.349-5.852.335a1.478,1.478,0,0,1-1.464-1.649,12.47,12.47,0,0,1,2.911-6.84Z" transform="translate(-861.063 -3303.227)" fill="#12263f"/>
        <path id="Trazado_252420" data-name="Trazado 252420" d="M962.788,3417.848l-1.182,6.446a4.167,4.167,0,0,1-3.48.239l.564-6.936Z" transform="translate(-887.445 -3250.67)" fill="url(#linear-gradient-15)"/>
        <path id="Trazado_252421" data-name="Trazado 252421" d="M822.44,2610.28c4.759,28.723-1.032,70.99-2.986,79.263a1.29,1.29,0,0,1-1.042.979,8.661,8.661,0,0,1-3.722-.149,1.182,1.182,0,0,1-.85-1.089c-.262-6.688.21-47.748-4.225-63.975a3.686,3.686,0,0,0-1.422-2.033l-8.607-6.119-.66-9.891Z" transform="translate(-743.904 -2520.044)" fill="#29398a"/>
        <g id="Grupo_145947" data-name="Grupo 145947" transform="translate(6.08 13.723)">
          <path id="Trazado_252422" data-name="Trazado 252422" d="M540.935,2063.223c14.263-.236,30,3.745,30,3.745,4.251,24.807.743,53.419.743,53.419-11.042,2.9-23.5-1.771-23.5-1.771-1.835-10.369-10.4-39.549-10.4-39.549a46.978,46.978,0,0,1-17.437-5.534,30.58,30.58,0,0,0,6.044-12.643A47.846,47.846,0,0,0,540.935,2063.223Z" transform="translate(-498.806 -2041.134)" fill="#20cb7d"/>
          <path id="Trazado_252423" data-name="Trazado 252423" d="M301.354,1861.106a2.729,2.729,0,0,1,3.174-.892c2.1,8.866,13.1,16.054,24.41,19.568a30.582,30.582,0,0,1-6.044,12.643C304.131,1881.875,301.354,1861.106,301.354,1861.106Z" transform="translate(-301.354 -1860.025)" fill="#20cb7d"/>
        </g>
        <g id="Grupo_145948" data-name="Grupo 145948" transform="translate(0 0)">
          <path id="Trazado_252424" data-name="Trazado 252424" d="M245.957,1735.742c-.147.466,1.551,1.176,2.551-.73.035-.914.591-4.827.045-5.571a72.888,72.888,0,0,0-8.544-8.932,1.341,1.341,0,0,0-.168,1.863l2.734,2.849a13.24,13.24,0,0,0-1.6,3.156,3.832,3.832,0,0,0,.382,2.82c.48.865,1.135,1.989,1.754,2.868A3.784,3.784,0,0,0,245.957,1735.742Z" transform="translate(-239.536 -1720.508)" fill="url(#linear-gradient-16)"/>
          <path id="Trazado_252425" data-name="Trazado 252425" d="M277.534,1787.2l2.492,2.113.782,2.1-2.222,2.465a28.663,28.663,0,0,0-1.3-5.076C276.729,1787.9,277.017,1787.467,277.534,1787.2Z" transform="translate(-273.3 -1780.643)" fill="url(#linear-gradient-17)"/>
        </g>
        <path id="Trazado_252426" data-name="Trazado 252426" d="M979.045,2136.479l5.471-13.811s13.322,9.052,15.513,20.528a31.534,31.534,0,0,0-11.581,3.1C987.462,2140.882,979.045,2136.479,979.045,2136.479Z" transform="translate(-906.306 -2083.112)" fill="#20cb7d"/>
        <path id="Trazado_252427" data-name="Trazado 252427" d="M842.54,2337.65s14.957,8.453,20,1.235a5.673,5.673,0,0,0,1.04-4.408,31.529,31.529,0,0,1,11.581-3.1,15.84,15.84,0,0,1-1.722,10.859c-8.84,16.171-32.883-.894-32.883-.894Z" transform="translate(-781.444 -2271.288)" fill="url(#linear-gradient-18)"/>
        <g id="Grupo_145949" data-name="Grupo 145949" transform="translate(25.528 43.411)">
          <path id="Trazado_252428" data-name="Trazado 252428" d="M536.435,2220.883l-8.163-28.508a.831.831,0,0,0-.7-.6c-1.479-.173-5.765-.657-10.713-1.076-5.96-.5-12.882-.913-17.018-.565a.834.834,0,0,0-.682,1.2c2.352,4.759,12.027,24.115,16.872,30.456a.837.837,0,0,0,.673.33l18.94-.176A.834.834,0,0,0,536.435,2220.883Z" transform="translate(-499.068 -2187.238)" fill="#bdd0fb"/>
          <path id="Trazado_252429" data-name="Trazado 252429" d="M612.5,2162.846l-5.918-.986a.425.425,0,0,0-.473.552l.586,1.775a.425.425,0,0,0,.347.288l5.7.761a.425.425,0,0,0,.47-.518l-.363-1.55A.425.425,0,0,0,612.5,2162.846Z" transform="translate(-595.564 -2161.854)" fill="#7d97f4"/>
          <path id="Trazado_252430" data-name="Trazado 252430" d="M591.634,2184.113l-.488-2.54a.587.587,0,0,0-.517-.473l-11.954-1.213a.587.587,0,0,0-.63.721l.76,3.165a.587.587,0,0,0,.541.449l11.681.588A.587.587,0,0,0,591.634,2184.113Z" transform="translate(-570.262 -2178.11)" fill="#7d97f4"/>
          <path id="Trazado_252431" data-name="Trazado 252431" d="M766.432,2344.794s1.137-4.676.678-6.335-1.347-3.792-4.31-3.318a43.333,43.333,0,0,0-6.457,1.722,1.7,1.7,0,0,0,2.428,1.463l-1.4,1.08s.2,1.73,2.1.806l-1.3,1.433a1.513,1.513,0,0,0,2.216.51C761.794,2341.244,762.464,2345.357,766.432,2344.794Z" transform="translate(-731.038 -2318.036)" fill="url(#linear-gradient-19)"/>
        </g>
        <path id="Trazado_252432" data-name="Trazado 252432" d="M791.868,1966.876,796.406,1980a.473.473,0,0,1-.216.569,10.668,10.668,0,0,1-11.065-.744,2.227,2.227,0,0,1-1.025-1.59l-1.47-11.359Z" transform="translate(-729.212 -1942.643)" fill="url(#linear-gradient-20)"/>
        <g id="Grupo_145950" data-name="Grupo 145950" transform="translate(48.381 5.259)">
          <path id="Trazado_252433" data-name="Trazado 252433" d="M735.809,1843.319s-4.983,9.381-4.345,13.17,6.815,3.517,12.208.44l3.769-10.129Z" transform="translate(-731.408 -1836.498)" fill="url(#linear-gradient-21)"/>
          <path id="Trazado_252434" data-name="Trazado 252434" d="M760.39,1789.433a.387.387,0,0,1-.169-.566,10.091,10.091,0,0,0,1.386-2.944s.9-.574-2.28-1.334-7.912-1.94-8.908-4.643c-.971-2.636,1.58-9.264,5.648-3.983a.387.387,0,0,0,.613,0c.667-.868,2.42-2.67,4.855-1.578a3.656,3.656,0,0,1,2.5,3.533.384.384,0,0,0,.455.394,4.459,4.459,0,0,1,5.206,2.427c1.063,2.336.372,3.658-.257,4.3a.386.386,0,0,0,.165.64,2.32,2.32,0,0,1,1.637,2.647c-.135,2.452-2.877,2.236-3.657,2.124a.387.387,0,0,0-.343.121c-.669.74-3.685,3.885-6.948,4.264a.39.39,0,0,1-.409-.515l1.412-4.105a.389.389,0,0,0-.21-.482Z" transform="translate(-748.364 -1773.977)" fill="url(#linear-gradient-22)"/>
          <path id="Trazado_252435" data-name="Trazado 252435" d="M837.831,1925.985s3.548-2.434,3.807-.384-3.2,2.969-4.906,2.205Z" transform="translate(-826.372 -1909.947)" fill="url(#linear-gradient-23)"/>
        </g>
      </g>
    </g>
  </g>
</svg>
