<?xml version="1.0" encoding="utf-8"?>
<!-- Generator: Adobe Illustrator 26.1.0, SVG Export Plug-In . SVG Version: 6.00 Build 0)  -->
<svg version="1.1" id="Capa_1" xmlns="http://www.w3.org/2000/svg" xmlns:xlink="http://www.w3.org/1999/xlink" x="0px" y="0px"
	 viewBox="0 0 354.7 337.2" style="enable-background:new 0 0 354.7 337.2;" xml:space="preserve">
<style type="text/css">
	.st0{opacity:0.64;}
	.st1{opacity:0.444;fill:#7453D8;enable-background:new    ;}
	.st2{opacity:0.9;fill:url(#Trazado_145969_00000133525588941516871270000010829417487194434216_);enable-background:new    ;}
	.st3{opacity:0.8;fill:#E4B879;enable-background:new    ;}
	.st4{fill:#FFFFFF;}
	.st5{fill:#F6F6F6;}
	.st6{fill:url(#Trazado_252403_00000049211229264622630220000003318742315555514516_);}
	.st7{fill:#BDD0FB;}
	.st8{fill:url(#Trazado_252405_00000020382444139625101300000008493985259605255332_);}
	.st9{fill:url(#Trazado_252406_00000173138164536460867210000003400376562334976173_);}
	.st10{fill:#29398A;}
	.st11{fill:#DEE4F0;}
	.st12{fill:#7453D8;}
	.st13{opacity:0.8;fill:#FDA929;enable-background:new    ;}
	.st14{clip-path:url(#SVGID_00000152247173373424089260000013503592105271463821_);}
	.st15{opacity:0.8;}
	.st16{fill:url(#Rectángulo_44160_00000019674992959680353060000006924300103454227379_);}
	.st17{fill:url(#Elipse_5877_00000070087173144435593830000013852274587985859722_);}
	.st18{fill:url(#Rectángulo_44161_00000159454491507001514400000000819837938183294136_);}
	.st19{fill:url(#Elipse_5878_00000114041260483832006680000007665941554270963387_);}
	.st20{fill:url(#Rectángulo_44162_00000149377657475739955060000002436542628803491485_);}
	.st21{fill:url(#Elipse_5879_00000183943143339751341750000000974168735029386385_);}
	.st22{opacity:0.8;fill:url(#Rectángulo_44163_00000178890802645610369030000010351188942339596928_);enable-background:new    ;}
	.st23{opacity:0.8;fill:url(#Elipse_5880_00000130642959930366664330000007176412339801875125_);enable-background:new    ;}
	.st24{fill:#FDA929;}
	.st25{fill:url(#Trazado_252411_00000027589786763190479870000004564039055583060136_);}
	.st26{fill:#91B3FA;}
	.st27{fill:#12263F;}
	.st28{fill:url(#Trazado_252417_00000034806314856508844300000014305894948398674609_);}
	.st29{fill:url(#Trazado_252420_00000056407723570458360980000017416010555319548580_);}
	.st30{fill:#20CB7D;}
	.st31{fill:url(#Trazado_252424_00000111884639456606630900000009166762281158761374_);}
	.st32{fill:url(#Trazado_252425_00000160911501450921382970000005088338316055380898_);}
	.st33{fill:url(#Trazado_252427_00000044898072943081889220000000910196608784988596_);}
	.st34{fill:#7D97F4;}
	.st35{fill:url(#Trazado_252431_00000104688494096802300270000006969909490898657962_);}
	.st36{fill:url(#Trazado_252432_00000153689069751282149450000012891276237900916151_);}
	.st37{fill:url(#Trazado_252433_00000153670198808259444650000014001864597026866064_);}
	.st38{fill:url(#Trazado_252434_00000120556138642517481630000016235642404628813709_);}
	.st39{fill:url(#Trazado_252435_00000042697146387937411500000002661890345907170218_);}
</style>
<g id="Grupo_146975" transform="translate(-938.333 -8208)">
	<g id="Grupo_130729" transform="translate(-55.789 7529.296)" class="st0">
		<g id="Grupo_79815" transform="translate(994.122 678.704)">
			<g id="Grupo_79776" transform="translate(0 0)">
				<g id="Grupo_79644" transform="translate(0 0)">
					<path id="Trazado_145968" class="st1" d="M274.6,177.1c44.2,0,80,35.8,80,80s-35.8,80-80,80s-80-35.8-80-80
						S230.4,177.1,274.6,177.1C274.6,177.1,274.6,177.1,274.6,177.1z"/>
					
						<linearGradient id="Trazado_145969_00000169525466109690832540000007283890207476620218_" gradientUnits="userSpaceOnUse" x1="-135.3749" y1="558.7712" x2="-135.3749" y2="557.7712" gradientTransform="matrix(109.378 0 0 -109.378 14861.7227 61117.2695)">
						<stop  offset="0" style="stop-color:#93EAC2"/>
						<stop  offset="1" style="stop-color:#20CB7D"/>
					</linearGradient>
					
						<path id="Trazado_145969" style="opacity:0.9;fill:url(#Trazado_145969_00000169525466109690832540000007283890207476620218_);enable-background:new    ;" d="
						M54.7,0c30.2,0,54.7,24.5,54.7,54.7s-24.5,54.7-54.7,54.7S0,84.9,0,54.7c0,0,0,0,0,0C0,24.5,24.5,0,54.7,0z"/>
					<path id="Trazado_145971" class="st3" d="M49.3,249.6c19.1,0,34.6,15.5,34.6,34.6c0,19.1-15.5,34.6-34.6,34.6
						s-34.6-15.5-34.6-34.6C14.7,265.1,30.2,249.6,49.3,249.6C49.3,249.6,49.3,249.6,49.3,249.6z"/>
					<g id="Grupo_78276" transform="translate(269.339 235.682)">
						<g id="Grupo_53306" transform="translate(0)">
							<path id="Trazado_99200" class="st4" d="M-42.5-19.3c0,0.6-0.4,1.1-1,1.1s-1.1-0.4-1.1-1c0-0.6,0.4-1.1,1-1.1c0,0,0,0,0,0
								C-43-20.3-42.6-19.8-42.5-19.3z"/>
							<path id="Trazado_99201" class="st4" d="M-32.8-19.3c0,0.6-0.4,1.1-1,1.1s-1.1-0.4-1.1-1s0.4-1.1,1-1.1c0,0,0,0,0,0
								C-33.3-20.3-32.8-19.8-32.8-19.3z"/>
							<path id="Trazado_99202" class="st4" d="M-23-19.3c0,0.6-0.4,1.1-1,1.1s-1.1-0.4-1.1-1s0.4-1.1,1-1.1c0,0,0,0,0,0
								C-23.5-20.3-23-19.8-23-19.3z"/>
							<path id="Trazado_99203" class="st4" d="M-13.2-19.3c0,0.6-0.4,1.1-1,1.1s-1.1-0.4-1.1-1c0-0.6,0.4-1.1,1-1.1c0,0,0,0,0,0
								C-13.7-20.3-13.2-19.8-13.2-19.3z"/>
							<path id="Trazado_99204" class="st4" d="M-3.4-19.3c0,0.6-0.4,1.1-1,1.1s-1.1-0.4-1.1-1s0.4-1.1,1-1.1c0,0,0,0,0,0
								C-3.9-20.3-3.4-19.8-3.4-19.3z"/>
							<path id="Trazado_99205" class="st4" d="M6.4-19.3c0,0.6-0.4,1.1-1,1.1s-1.1-0.4-1.1-1s0.4-1.1,1-1.1c0,0,0,0,0,0
								C5.9-20.3,6.3-19.8,6.4-19.3z"/>
							<path id="Trazado_99206" class="st4" d="M16.1-19.3c0,0.6-0.4,1.1-1,1.1s-1.1-0.4-1.1-1c0-0.6,0.4-1.1,1-1.1c0,0,0,0,0,0
								C15.6-20.3,16.1-19.8,16.1-19.3z"/>
							<path id="Trazado_99207" class="st4" d="M25.9-19.3c0,0.6-0.4,1.1-1,1.1s-1.1-0.4-1.1-1s0.4-1.1,1-1.1c0,0,0,0,0,0
								C25.4-20.3,25.9-19.8,25.9-19.3z"/>
							<path id="Trazado_99208" class="st4" d="M35.7-19.3c0,0.6-0.4,1.1-1,1.1s-1.1-0.4-1.1-1s0.4-1.1,1-1.1c0,0,0,0,0,0
								C35.2-20.3,35.7-19.8,35.7-19.3z"/>
							<path id="Trazado_99209" class="st4" d="M45.5-19.3c0,0.6-0.4,1.1-1,1.1s-1.1-0.4-1.1-1c0-0.6,0.4-1.1,1-1.1c0,0,0,0,0,0
								C45-20.3,45.5-19.8,45.5-19.3z"/>
							<path id="Trazado_99210" class="st4" d="M55.3-19.3c0,0.6-0.4,1.1-1,1.1s-1.1-0.4-1.1-1c0-0.6,0.4-1.1,1-1.1c0,0,0,0,0,0
								C54.8-20.3,55.3-19.8,55.3-19.3z"/>
						</g>
						<g id="Grupo_53307" transform="translate(0 8.315)">
							<path id="Trazado_99211" class="st4" d="M-42.5-19.3c0,0.6-0.4,1.1-1,1.1s-1.1-0.4-1.1-1c0-0.6,0.4-1.1,1-1.1c0,0,0,0,0,0
								C-43-20.3-42.6-19.8-42.5-19.3z"/>
							<path id="Trazado_99212" class="st4" d="M-32.8-19.3c0,0.6-0.4,1.1-1,1.1s-1.1-0.4-1.1-1s0.4-1.1,1-1.1c0,0,0,0,0,0
								C-33.3-20.3-32.8-19.8-32.8-19.3z"/>
							<path id="Trazado_99213" class="st4" d="M-23-19.3c0,0.6-0.4,1.1-1,1.1s-1.1-0.4-1.1-1s0.4-1.1,1-1.1c0,0,0,0,0,0
								C-23.5-20.3-23-19.8-23-19.3z"/>
							<path id="Trazado_99214" class="st4" d="M-13.2-19.3c0,0.6-0.4,1.1-1,1.1s-1.1-0.4-1.1-1c0-0.6,0.4-1.1,1-1.1c0,0,0,0,0,0
								C-13.7-20.3-13.2-19.8-13.2-19.3z"/>
							<path id="Trazado_99215" class="st4" d="M-3.4-19.3c0,0.6-0.4,1.1-1,1.1s-1.1-0.4-1.1-1s0.4-1.1,1-1.1c0,0,0,0,0,0
								C-3.9-20.3-3.4-19.8-3.4-19.3z"/>
							<path id="Trazado_99216" class="st4" d="M6.4-19.3c0,0.6-0.4,1.1-1,1.1s-1.1-0.4-1.1-1s0.4-1.1,1-1.1c0,0,0,0,0,0
								C5.9-20.3,6.3-19.8,6.4-19.3z"/>
							<path id="Trazado_99217" class="st4" d="M16.1-19.3c0,0.6-0.4,1.1-1,1.1s-1.1-0.4-1.1-1c0-0.6,0.4-1.1,1-1.1c0,0,0,0,0,0
								C15.6-20.3,16.1-19.8,16.1-19.3z"/>
							<path id="Trazado_99218" class="st4" d="M25.9-19.3c0,0.6-0.4,1.1-1,1.1s-1.1-0.4-1.1-1s0.4-1.1,1-1.1c0,0,0,0,0,0
								C25.4-20.3,25.9-19.8,25.9-19.3z"/>
							<path id="Trazado_99219" class="st4" d="M35.7-19.3c0,0.6-0.4,1.1-1,1.1s-1.1-0.4-1.1-1s0.4-1.1,1-1.1c0,0,0,0,0,0
								C35.2-20.3,35.7-19.8,35.7-19.3z"/>
							<path id="Trazado_99220" class="st4" d="M45.5-19.3c0,0.6-0.4,1.1-1,1.1s-1.1-0.4-1.1-1c0-0.6,0.4-1.1,1-1.1c0,0,0,0,0,0
								C45-20.3,45.5-19.8,45.5-19.3z"/>
							<path id="Trazado_99221" class="st4" d="M55.3-19.3c0,0.6-0.4,1.1-1,1.1s-1.1-0.4-1.1-1c0-0.6,0.4-1.1,1-1.1c0,0,0,0,0,0
								C54.8-20.3,55.3-19.8,55.3-19.3z"/>
						</g>
						<g id="Grupo_53308" transform="translate(0 16.629)">
							<ellipse id="Elipse_3955" class="st4" cx="-43.6" cy="-19.3" rx="1.1" ry="1"/>
							<path id="Trazado_99222" class="st4" d="M-32.8-19.3c0,0.6-0.4,1.1-1,1.1s-1.1-0.4-1.1-1c0-0.6,0.4-1.1,1-1.1c0,0,0,0,0,0
								C-33.3-20.3-32.8-19.8-32.8-19.3z"/>
							<ellipse id="Elipse_3956" class="st4" cx="-24.1" cy="-19.3" rx="1.1" ry="1"/>
							<path id="Trazado_99223" class="st4" d="M-13.2-19.3c0,0.6-0.4,1.1-1,1.1s-1.1-0.4-1.1-1c0-0.6,0.4-1.1,1-1.1c0,0,0,0,0,0
								C-13.7-20.3-13.2-19.8-13.2-19.3z"/>
							<path id="Trazado_99224" class="st4" d="M-3.4-19.3c0,0.6-0.4,1.1-1,1.1s-1.1-0.4-1.1-1c0-0.6,0.4-1.1,1-1.1c0,0,0,0,0,0
								C-3.9-20.3-3.4-19.8-3.4-19.3z"/>
							<ellipse id="Elipse_3957" class="st4" cx="5.3" cy="-19.3" rx="1.1" ry="1"/>
							<path id="Trazado_99225" class="st4" d="M16.1-19.3c0,0.6-0.4,1.1-1,1.1s-1.1-0.4-1.1-1c0-0.6,0.4-1.1,1-1.1c0,0,0,0,0,0
								C15.6-20.3,16.1-19.8,16.1-19.3z"/>
							<ellipse id="Elipse_3958" class="st4" cx="24.8" cy="-19.3" rx="1.1" ry="1"/>
							<ellipse id="Elipse_3959" class="st4" cx="34.6" cy="-19.3" rx="1.1" ry="1"/>
							<path id="Trazado_99226" class="st4" d="M45.5-19.3c0,0.6-0.4,1.1-1,1.1s-1.1-0.4-1.1-1c0-0.6,0.4-1.1,1-1.1c0,0,0,0,0,0
								C45-20.3,45.5-19.8,45.5-19.3z"/>
							<path id="Trazado_99227" class="st4" d="M55.3-19.3c0,0.6-0.4,1.1-1,1.1s-1.1-0.4-1.1-1c0-0.6,0.4-1.1,1-1.1c0,0,0,0,0,0
								C54.8-20.3,55.3-19.8,55.3-19.3z"/>
						</g>
						<g id="Grupo_53309" transform="translate(0 24.943)">
							<ellipse id="Elipse_3960" class="st4" cx="-43.6" cy="-19.3" rx="1.1" ry="1"/>
							<path id="Trazado_99228" class="st4" d="M-32.8-19.3c0,0.6-0.4,1.1-1,1.1c-0.6,0-1.1-0.4-1.1-1c0-0.6,0.4-1.1,1-1.1
								c0,0,0,0,0,0C-33.3-20.3-32.8-19.8-32.8-19.3C-32.8-19.3-32.8-19.3-32.8-19.3z"/>
							<ellipse id="Elipse_3961" class="st4" cx="-24.1" cy="-19.3" rx="1.1" ry="1"/>
							<path id="Trazado_99229" class="st4" d="M-13.2-19.3c0,0.6-0.4,1.1-1,1.1c-0.6,0-1.1-0.4-1.1-1c0-0.6,0.4-1.1,1-1.1
								c0,0,0,0,0,0C-13.7-20.3-13.2-19.8-13.2-19.3z"/>
							<path id="Trazado_99230" class="st4" d="M-3.4-19.3c0,0.6-0.4,1.1-1,1.1c-0.6,0-1.1-0.4-1.1-1c0-0.6,0.4-1.1,1-1.1
								c0,0,0,0,0,0C-3.9-20.3-3.4-19.8-3.4-19.3C-3.4-19.3-3.4-19.3-3.4-19.3z"/>
							<ellipse id="Elipse_3962" class="st4" cx="5.3" cy="-19.3" rx="1.1" ry="1"/>
							<path id="Trazado_99231" class="st4" d="M16.1-19.3c0,0.6-0.4,1.1-1,1.1c-0.6,0-1.1-0.4-1.1-1c0-0.6,0.4-1.1,1-1.1
								c0,0,0,0,0,0C15.6-20.3,16.1-19.8,16.1-19.3z"/>
							<ellipse id="Elipse_3963" class="st4" cx="24.8" cy="-19.3" rx="1.1" ry="1"/>
							<ellipse id="Elipse_3964" class="st4" cx="34.6" cy="-19.3" rx="1.1" ry="1"/>
							<path id="Trazado_99232" class="st4" d="M45.5-19.3c0,0.6-0.4,1.1-1,1.1c-0.6,0-1.1-0.4-1.1-1c0-0.6,0.4-1.1,1-1.1
								c0,0,0,0,0,0C45-20.3,45.5-19.8,45.5-19.3z"/>
							<path id="Trazado_99233" class="st4" d="M55.3-19.3c0,0.6-0.4,1.1-1,1.1c-0.6,0-1.1-0.4-1.1-1c0-0.6,0.4-1.1,1-1.1
								c0,0,0,0,0,0C54.8-20.3,55.3-19.8,55.3-19.3z"/>
						</g>
						<g id="Grupo_53310" transform="translate(0 33.258)">
							<path id="Trazado_99234" class="st4" d="M-42.5-19.3c0,0.6-0.4,1.1-1,1.1c-0.6,0-1.1-0.4-1.1-1c0-0.6,0.4-1.1,1-1.1
								c0,0,0,0,0,0C-43-20.3-42.6-19.8-42.5-19.3z"/>
							<path id="Trazado_99235" class="st4" d="M-32.8-19.3c0,0.6-0.4,1.1-1,1.1c-0.6,0-1.1-0.4-1.1-1c0-0.6,0.4-1.1,1-1.1
								c0,0,0,0,0,0C-33.3-20.3-32.8-19.8-32.8-19.3C-32.8-19.3-32.8-19.3-32.8-19.3z"/>
							<path id="Trazado_99236" class="st4" d="M-23-19.3c0,0.6-0.4,1.1-1,1.1c-0.6,0-1.1-0.4-1.1-1c0-0.6,0.4-1.1,1-1.1
								c0,0,0,0,0,0C-23.5-20.3-23-19.8-23-19.3C-23-19.3-23-19.3-23-19.3z"/>
							<path id="Trazado_99237" class="st4" d="M-13.2-19.3c0,0.6-0.4,1.1-1,1.1c-0.6,0-1.1-0.4-1.1-1c0-0.6,0.4-1.1,1-1.1
								c0,0,0,0,0,0C-13.7-20.3-13.2-19.8-13.2-19.3z"/>
							<path id="Trazado_99238" class="st4" d="M-3.4-19.3c0,0.6-0.4,1.1-1,1.1c-0.6,0-1.1-0.4-1.1-1c0-0.6,0.4-1.1,1-1.1
								c0,0,0,0,0,0C-3.9-20.3-3.4-19.8-3.4-19.3C-3.4-19.3-3.4-19.3-3.4-19.3z"/>
							<path id="Trazado_99239" class="st4" d="M6.4-19.3c0,0.6-0.4,1.1-1,1.1c-0.6,0-1.1-0.4-1.1-1c0-0.6,0.4-1.1,1-1.1
								c0,0,0,0,0,0C5.9-20.3,6.4-19.8,6.4-19.3C6.4-19.3,6.4-19.3,6.4-19.3z"/>
							<path id="Trazado_99240" class="st4" d="M16.1-19.3c0,0.6-0.4,1.1-1,1.1c-0.6,0-1.1-0.4-1.1-1c0-0.6,0.4-1.1,1-1.1
								c0,0,0,0,0,0C15.6-20.3,16.1-19.8,16.1-19.3z"/>
							<path id="Trazado_99241" class="st4" d="M25.9-19.3c0,0.6-0.4,1.1-1,1.1c-0.6,0-1.1-0.4-1.1-1c0-0.6,0.4-1.1,1-1.1
								c0,0,0,0,0,0C25.4-20.3,25.9-19.8,25.9-19.3C25.9-19.3,25.9-19.3,25.9-19.3z"/>
							<path id="Trazado_99242" class="st4" d="M35.7-19.3c0,0.6-0.4,1.1-1,1.1c-0.6,0-1.1-0.4-1.1-1c0-0.6,0.4-1.1,1-1.1
								c0,0,0,0,0,0C35.2-20.3,35.7-19.8,35.7-19.3C35.7-19.3,35.7-19.3,35.7-19.3z"/>
							<path id="Trazado_99243" class="st4" d="M45.5-19.3c0,0.6-0.4,1.1-1,1.1c-0.6,0-1.1-0.4-1.1-1c0-0.6,0.4-1.1,1-1.1
								c0,0,0,0,0,0C45-20.3,45.5-19.8,45.5-19.3z"/>
							<path id="Trazado_99244" class="st4" d="M55.3-19.3c0,0.6-0.4,1.1-1,1.1c-0.6,0-1.1-0.4-1.1-1c0-0.6,0.4-1.1,1-1.1
								c0,0,0,0,0,0C54.8-20.3,55.3-19.8,55.3-19.3z"/>
						</g>
						<g id="Grupo_53311" transform="translate(0 41.573)">
							<ellipse id="Elipse_3965" class="st4" cx="-43.6" cy="-19.3" rx="1.1" ry="1"/>
							<path id="Trazado_99245" class="st4" d="M-32.8-19.3c0,0.6-0.4,1.1-1,1.1c-0.6,0-1.1-0.4-1.1-1c0-0.6,0.4-1.1,1-1.1
								c0,0,0,0,0,0C-33.3-20.3-32.8-19.9-32.8-19.3C-32.8-19.3-32.8-19.3-32.8-19.3z"/>
							<ellipse id="Elipse_3966" class="st4" cx="-24.1" cy="-19.3" rx="1.1" ry="1"/>
							<path id="Trazado_99246" class="st4" d="M-13.2-19.3c0,0.6-0.4,1.1-1,1.1c-0.6,0-1.1-0.4-1.1-1c0-0.6,0.4-1.1,1-1.1
								c0,0,0,0,0,0C-13.7-20.3-13.2-19.9-13.2-19.3z"/>
							<path id="Trazado_99247" class="st4" d="M-3.4-19.3c0,0.6-0.4,1.1-1,1.1c-0.6,0-1.1-0.4-1.1-1c0-0.6,0.4-1.1,1-1.1
								c0,0,0,0,0,0C-3.9-20.3-3.4-19.9-3.4-19.3C-3.4-19.3-3.4-19.3-3.4-19.3z"/>
							<ellipse id="Elipse_3967" class="st4" cx="5.3" cy="-19.3" rx="1.1" ry="1"/>
							<path id="Trazado_99248" class="st4" d="M16.1-19.3c0,0.6-0.4,1.1-1,1.1c-0.6,0-1.1-0.4-1.1-1c0-0.6,0.4-1.1,1-1.1
								c0,0,0,0,0,0C15.6-20.3,16.1-19.9,16.1-19.3z"/>
							<ellipse id="Elipse_3968" class="st4" cx="24.8" cy="-19.3" rx="1.1" ry="1"/>
							<ellipse id="Elipse_3969" class="st4" cx="34.6" cy="-19.3" rx="1.1" ry="1"/>
							<path id="Trazado_99249" class="st4" d="M45.5-19.3c0,0.6-0.4,1.1-1,1.1c-0.6,0-1.1-0.4-1.1-1c0-0.6,0.4-1.1,1-1.1
								c0,0,0,0,0,0C45-20.3,45.5-19.9,45.5-19.3z"/>
							<path id="Trazado_99250" class="st4" d="M55.3-19.3c0,0.6-0.4,1.1-1,1.1c-0.6,0-1.1-0.4-1.1-1c0-0.6,0.4-1.1,1-1.1
								c0,0,0,0,0,0C54.8-20.3,55.3-19.9,55.3-19.3z"/>
						</g>
						<g id="Grupo_53312" transform="translate(0 49.887)">
							<ellipse id="Elipse_3970" class="st4" cx="-43.6" cy="-19.3" rx="1.1" ry="1"/>
							<path id="Trazado_99251" class="st4" d="M-32.8-19.3c0,0.6-0.4,1.1-1,1.1s-1.1-0.4-1.1-1c0-0.6,0.4-1.1,1-1.1c0,0,0,0,0,0
								C-33.3-20.3-32.8-19.8-32.8-19.3z"/>
							<ellipse id="Elipse_3971" class="st4" cx="-24.1" cy="-19.3" rx="1.1" ry="1"/>
							<path id="Trazado_99252" class="st4" d="M-13.2-19.3c0,0.6-0.4,1.1-1,1.1s-1.1-0.4-1.1-1c0-0.6,0.4-1.1,1-1.1c0,0,0,0,0,0
								C-13.7-20.3-13.2-19.8-13.2-19.3z"/>
							<path id="Trazado_99253" class="st4" d="M-3.4-19.3c0,0.6-0.4,1.1-1,1.1s-1.1-0.4-1.1-1c0-0.6,0.4-1.1,1-1.1c0,0,0,0,0,0
								C-3.9-20.3-3.4-19.8-3.4-19.3z"/>
							<ellipse id="Elipse_3972" class="st4" cx="5.3" cy="-19.3" rx="1.1" ry="1"/>
							<path id="Trazado_99254" class="st4" d="M16.1-19.3c0,0.6-0.4,1.1-1,1.1s-1.1-0.4-1.1-1c0-0.6,0.4-1.1,1-1.1c0,0,0,0,0,0
								C15.6-20.3,16.1-19.8,16.1-19.3z"/>
							<ellipse id="Elipse_3973" class="st4" cx="24.8" cy="-19.3" rx="1.1" ry="1"/>
							<ellipse id="Elipse_3974" class="st4" cx="34.6" cy="-19.3" rx="1.1" ry="1"/>
							<path id="Trazado_99255" class="st4" d="M45.5-19.3c0,0.6-0.4,1.1-1,1.1s-1.1-0.4-1.1-1c0-0.6,0.4-1.1,1-1.1c0,0,0,0,0,0
								C45-20.3,45.5-19.8,45.5-19.3z"/>
							<path id="Trazado_99256" class="st4" d="M55.3-19.3c0,0.6-0.4,1.1-1,1.1s-1.1-0.4-1.1-1c0-0.6,0.4-1.1,1-1.1c0,0,0,0,0,0
								C54.8-20.3,55.3-19.8,55.3-19.3z"/>
						</g>
						<g id="Grupo_53313" transform="translate(0 58.202)">
							<path id="Trazado_99257" class="st4" d="M-42.5-19.3c0,0.6-0.4,1.1-1,1.1s-1.1-0.4-1.1-1c0-0.6,0.4-1.1,1-1.1c0,0,0,0,0,0
								C-43-20.3-42.6-19.8-42.5-19.3z"/>
							<path id="Trazado_99258" class="st4" d="M-32.8-19.3c0,0.6-0.4,1.1-1,1.1s-1.1-0.4-1.1-1c0-0.6,0.4-1.1,1-1.1c0,0,0,0,0,0
								C-33.3-20.3-32.8-19.8-32.8-19.3z"/>
							<path id="Trazado_99259" class="st4" d="M-23-19.3c0,0.6-0.4,1.1-1,1.1s-1.1-0.4-1.1-1c0-0.6,0.4-1.1,1-1.1c0,0,0,0,0,0
								C-23.5-20.3-23-19.8-23-19.3z"/>
							<path id="Trazado_99260" class="st4" d="M-13.2-19.3c0,0.6-0.4,1.1-1,1.1s-1.1-0.4-1.1-1c0-0.6,0.4-1.1,1-1.1c0,0,0,0,0,0
								C-13.7-20.3-13.2-19.8-13.2-19.3z"/>
							<path id="Trazado_99261" class="st4" d="M-3.4-19.3c0,0.6-0.4,1.1-1,1.1s-1.1-0.4-1.1-1c0-0.6,0.4-1.1,1-1.1c0,0,0,0,0,0
								C-3.9-20.3-3.4-19.8-3.4-19.3z"/>
							<path id="Trazado_99262" class="st4" d="M6.4-19.3c0,0.6-0.4,1.1-1,1.1s-1.1-0.4-1.1-1c0-0.6,0.4-1.1,1-1.1c0,0,0,0,0,0
								C5.9-20.3,6.3-19.8,6.4-19.3z"/>
							<path id="Trazado_99263" class="st4" d="M16.1-19.3c0,0.6-0.4,1.1-1,1.1s-1.1-0.4-1.1-1c0-0.6,0.4-1.1,1-1.1c0,0,0,0,0,0
								C15.6-20.3,16.1-19.8,16.1-19.3z"/>
							<path id="Trazado_99264" class="st4" d="M25.9-19.3c0,0.6-0.4,1.1-1,1.1s-1.1-0.4-1.1-1c0-0.6,0.4-1.1,1-1.1c0,0,0,0,0,0
								C25.4-20.3,25.9-19.8,25.9-19.3z"/>
							<path id="Trazado_99265" class="st4" d="M35.7-19.3c0,0.6-0.4,1.1-1,1.1s-1.1-0.4-1.1-1c0-0.6,0.4-1.1,1-1.1c0,0,0,0,0,0
								C35.2-20.3,35.7-19.8,35.7-19.3z"/>
							<path id="Trazado_99266" class="st4" d="M45.5-19.3c0,0.6-0.4,1.1-1,1.1s-1.1-0.4-1.1-1c0-0.6,0.4-1.1,1-1.1c0,0,0,0,0,0
								C45-20.3,45.5-19.8,45.5-19.3z"/>
							<path id="Trazado_99267" class="st4" d="M55.3-19.3c0,0.6-0.4,1.1-1,1.1s-1.1-0.4-1.1-1c0-0.6,0.4-1.1,1-1.1c0,0,0,0,0,0
								C54.8-20.3,55.3-19.8,55.3-19.3z"/>
						</g>
						<g id="Grupo_53314" transform="translate(0 66.517)">
							<ellipse id="Elipse_3975" class="st4" cx="-43.6" cy="-19.3" rx="1.1" ry="1"/>
							<path id="Trazado_99268" class="st4" d="M-32.8-19.3c0,0.6-0.4,1.1-1,1.1s-1.1-0.4-1.1-1c0-0.6,0.4-1.1,1-1.1c0,0,0,0,0,0
								C-33.3-20.3-32.8-19.8-32.8-19.3z"/>
							<ellipse id="Elipse_3976" class="st4" cx="-24.1" cy="-19.3" rx="1.1" ry="1"/>
							<path id="Trazado_99269" class="st4" d="M-13.2-19.3c0,0.6-0.4,1.1-1,1.1s-1.1-0.4-1.1-1c0-0.6,0.4-1.1,1-1.1c0,0,0,0,0,0
								C-13.7-20.3-13.2-19.8-13.2-19.3z"/>
							<path id="Trazado_99270" class="st4" d="M-3.4-19.3c0,0.6-0.4,1.1-1,1.1s-1.1-0.4-1.1-1c0-0.6,0.4-1.1,1-1.1c0,0,0,0,0,0
								C-3.9-20.3-3.4-19.8-3.4-19.3z"/>
							<ellipse id="Elipse_3977" class="st4" cx="5.3" cy="-19.3" rx="1.1" ry="1"/>
							<path id="Trazado_99271" class="st4" d="M16.1-19.3c0,0.6-0.4,1.1-1,1.1s-1.1-0.4-1.1-1c0-0.6,0.4-1.1,1-1.1c0,0,0,0,0,0
								C15.6-20.3,16.1-19.8,16.1-19.3z"/>
							<ellipse id="Elipse_3978" class="st4" cx="24.8" cy="-19.3" rx="1.1" ry="1"/>
							<ellipse id="Elipse_3979" class="st4" cx="34.6" cy="-19.3" rx="1.1" ry="1"/>
							<path id="Trazado_99272" class="st4" d="M45.5-19.3c0,0.6-0.4,1.1-1,1.1s-1.1-0.4-1.1-1c0-0.6,0.4-1.1,1-1.1c0,0,0,0,0,0
								C45-20.3,45.5-19.8,45.5-19.3z"/>
							<path id="Trazado_99273" class="st4" d="M55.3-19.3c0,0.6-0.4,1.1-1,1.1s-1.1-0.4-1.1-1c0-0.6,0.4-1.1,1-1.1c0,0,0,0,0,0
								C54.8-20.3,55.3-19.8,55.3-19.3z"/>
						</g>
						<g id="Grupo_53315" transform="translate(0 74.831)">
							<path id="Trazado_99274" class="st4" d="M-42.5-19.3c0,0.6-0.4,1.1-1,1.1c-0.6,0-1.1-0.4-1.1-1c0-0.6,0.4-1.1,1-1.1
								c0,0,0,0,0,0C-43-20.3-42.6-19.8-42.5-19.3z"/>
							<path id="Trazado_99275" class="st4" d="M-32.8-19.3c0,0.6-0.4,1.1-1,1.1c-0.6,0-1.1-0.4-1.1-1c0-0.6,0.4-1.1,1-1.1
								c0,0,0,0,0,0C-33.3-20.3-32.8-19.8-32.8-19.3z"/>
							<path id="Trazado_99276" class="st4" d="M-23-19.3c0,0.6-0.4,1.1-1,1.1c-0.6,0-1.1-0.4-1.1-1c0-0.6,0.4-1.1,1-1.1
								c0,0,0,0,0,0C-23.5-20.3-23-19.8-23-19.3z"/>
							<path id="Trazado_99277" class="st4" d="M-13.2-19.3c0,0.6-0.4,1.1-1,1.1c-0.6,0-1.1-0.4-1.1-1c0-0.6,0.4-1.1,1-1.1
								c0,0,0,0,0,0C-13.7-20.3-13.2-19.8-13.2-19.3z"/>
							<path id="Trazado_99278" class="st4" d="M-3.4-19.3c0,0.6-0.4,1.1-1,1.1c-0.6,0-1.1-0.4-1.1-1c0-0.6,0.4-1.1,1-1.1
								c0,0,0,0,0,0C-3.9-20.3-3.4-19.8-3.4-19.3z"/>
							<path id="Trazado_99279" class="st4" d="M6.4-19.3c0,0.6-0.4,1.1-1,1.1c-0.6,0-1.1-0.4-1.1-1c0-0.6,0.4-1.1,1-1.1
								c0,0,0,0,0,0C5.9-20.3,6.3-19.8,6.4-19.3z"/>
							<path id="Trazado_99280" class="st4" d="M16.1-19.3c0,0.6-0.4,1.1-1,1.1c-0.6,0-1.1-0.4-1.1-1c0-0.6,0.4-1.1,1-1.1
								c0,0,0,0,0,0C15.6-20.3,16.1-19.8,16.1-19.3z"/>
							<path id="Trazado_99281" class="st4" d="M25.9-19.3c0,0.6-0.4,1.1-1,1.1c-0.6,0-1.1-0.4-1.1-1c0-0.6,0.4-1.1,1-1.1
								c0,0,0,0,0,0C25.4-20.3,25.9-19.8,25.9-19.3z"/>
							<path id="Trazado_99282" class="st4" d="M35.7-19.3c0,0.6-0.4,1.1-1,1.1c-0.6,0-1.1-0.4-1.1-1c0-0.6,0.4-1.1,1-1.1
								c0,0,0,0,0,0C35.2-20.3,35.7-19.8,35.7-19.3z"/>
							<path id="Trazado_99283" class="st4" d="M45.5-19.3c0,0.6-0.4,1.1-1,1.1c-0.6,0-1.1-0.4-1.1-1c0-0.6,0.4-1.1,1-1.1
								c0,0,0,0,0,0C45-20.3,45.5-19.8,45.5-19.3z"/>
							<path id="Trazado_99284" class="st4" d="M55.3-19.3c0,0.6-0.4,1.1-1,1.1c-0.6,0-1.1-0.4-1.1-1c0-0.6,0.4-1.1,1-1.1
								c0,0,0,0,0,0C54.8-20.3,55.3-19.8,55.3-19.3z"/>
						</g>
						<g id="Grupo_53316" transform="translate(0 83.145)">
							<ellipse id="Elipse_3980" class="st4" cx="-43.6" cy="-19.3" rx="1.1" ry="1"/>
							<path id="Trazado_99285" class="st4" d="M-32.8-19.3c0,0.6-0.4,1.1-1,1.1c-0.6,0-1.1-0.4-1.1-1c0-0.6,0.4-1.1,1-1.1
								c0,0,0,0,0,0C-33.3-20.3-32.8-19.8-32.8-19.3C-32.8-19.3-32.8-19.3-32.8-19.3z"/>
							<ellipse id="Elipse_3981" class="st4" cx="-24.1" cy="-19.3" rx="1.1" ry="1"/>
							<path id="Trazado_99286" class="st4" d="M-13.2-19.3c0,0.6-0.4,1.1-1,1.1c-0.6,0-1.1-0.4-1.1-1c0-0.6,0.4-1.1,1-1.1
								c0,0,0,0,0,0C-13.7-20.3-13.2-19.8-13.2-19.3z"/>
							<path id="Trazado_99287" class="st4" d="M-3.4-19.3c0,0.6-0.4,1.1-1,1.1c-0.6,0-1.1-0.4-1.1-1c0-0.6,0.4-1.1,1-1.1
								c0,0,0,0,0,0C-3.9-20.3-3.4-19.8-3.4-19.3C-3.4-19.3-3.4-19.3-3.4-19.3z"/>
							<ellipse id="Elipse_3982" class="st4" cx="5.3" cy="-19.3" rx="1.1" ry="1"/>
							<path id="Trazado_99288" class="st4" d="M16.1-19.3c0,0.6-0.4,1.1-1,1.1c-0.6,0-1.1-0.4-1.1-1c0-0.6,0.4-1.1,1-1.1
								c0,0,0,0,0,0C15.6-20.3,16.1-19.8,16.1-19.3z"/>
							<ellipse id="Elipse_3983" class="st4" cx="24.8" cy="-19.3" rx="1.1" ry="1"/>
							<ellipse id="Elipse_3984" class="st4" cx="34.6" cy="-19.3" rx="1.1" ry="1"/>
							<path id="Trazado_99289" class="st4" d="M45.5-19.3c0,0.6-0.4,1.1-1,1.1c-0.6,0-1.1-0.4-1.1-1c0-0.6,0.4-1.1,1-1.1
								c0,0,0,0,0,0C45-20.3,45.5-19.8,45.5-19.3z"/>
							<path id="Trazado_99290" class="st4" d="M55.3-19.3c0,0.6-0.4,1.1-1,1.1c-0.6,0-1.1-0.4-1.1-1c0-0.6,0.4-1.1,1-1.1
								c0,0,0,0,0,0C54.8-20.3,55.3-19.8,55.3-19.3z"/>
						</g>
						<g id="Grupo_53317" transform="translate(0 91.461)">
							<ellipse id="Elipse_3985" class="st4" cx="-43.6" cy="-19.3" rx="1.1" ry="1"/>
							<path id="Trazado_99291" class="st4" d="M-32.8-19.3c0,0.6-0.4,1.1-1,1.1c-0.6,0-1.1-0.4-1.1-1c0-0.6,0.4-1.1,1-1.1
								c0,0,0,0,0,0C-33.3-20.3-32.8-19.8-32.8-19.3C-32.8-19.3-32.8-19.3-32.8-19.3z"/>
							<ellipse id="Elipse_3986" class="st4" cx="-24.1" cy="-19.3" rx="1.1" ry="1"/>
							<path id="Trazado_99292" class="st4" d="M-13.2-19.3c0,0.6-0.4,1.1-1,1.1c-0.6,0-1.1-0.4-1.1-1c0-0.6,0.4-1.1,1-1.1
								c0,0,0,0,0,0C-13.7-20.3-13.2-19.8-13.2-19.3z"/>
							<path id="Trazado_99293" class="st4" d="M-3.4-19.3c0,0.6-0.4,1.1-1,1.1c-0.6,0-1.1-0.4-1.1-1c0-0.6,0.4-1.1,1-1.1
								c0,0,0,0,0,0C-3.9-20.3-3.4-19.8-3.4-19.3C-3.4-19.3-3.4-19.3-3.4-19.3z"/>
							<ellipse id="Elipse_3987" class="st4" cx="5.3" cy="-19.3" rx="1.1" ry="1"/>
							<path id="Trazado_99294" class="st4" d="M16.1-19.3c0,0.6-0.4,1.1-1,1.1c-0.6,0-1.1-0.4-1.1-1c0-0.6,0.4-1.1,1-1.1
								c0,0,0,0,0,0C15.6-20.3,16.1-19.8,16.1-19.3z"/>
							<ellipse id="Elipse_3988" class="st4" cx="24.8" cy="-19.3" rx="1.1" ry="1"/>
							<ellipse id="Elipse_3989" class="st4" cx="34.6" cy="-19.3" rx="1.1" ry="1"/>
							<path id="Trazado_99295" class="st4" d="M45.5-19.3c0,0.6-0.4,1.1-1,1.1c-0.6,0-1.1-0.4-1.1-1c0-0.6,0.4-1.1,1-1.1
								c0,0,0,0,0,0C45-20.3,45.5-19.8,45.5-19.3z"/>
							<path id="Trazado_99296" class="st4" d="M55.3-19.3c0,0.6-0.4,1.1-1,1.1c-0.6,0-1.1-0.4-1.1-1c0-0.6,0.4-1.1,1-1.1
								c0,0,0,0,0,0C54.8-20.3,55.3-19.8,55.3-19.3z"/>
						</g>
					</g>
				</g>
			</g>
		</g>
	</g>
	<g id="Grupo_145952" transform="translate(2620.687 7470.926)">
		<path id="Trazado_252402" class="st5" d="M-1420.8,1000.7c-4.5,4.7-9.5,8.9-14.9,12.6c-48.7,35-106.4,24.8-118.6,22.3
			c-18.1-3.7-53.1-10.8-78.3-40.5c-38.3-45-32.3-115.9-2.6-162.6c5.4-8.6,34.1-56.1,92.4-63.7c35.3-4.6,76.4,4.7,106.1,29.6
			C-1374.3,850.8-1378.8,956.5-1420.8,1000.7z"/>
		<g id="Grupo_145931" transform="translate(-1603.266 783.778)">
			
				<linearGradient id="Trazado_252403_00000051383014776314930860000015916292346300929175_" gradientUnits="userSpaceOnUse" x1="-214.1133" y1="512.8903" x2="-214.1133" y2="511.8903" gradientTransform="matrix(77.2655 0 0 -190.7772 16537.4961 97827.4609)">
				<stop  offset="0" style="stop-color:#5C22C3"/>
				<stop  offset="1" style="stop-color:#91B3FA"/>
			</linearGradient>
			<path id="Trazado_252403" style="fill:url(#Trazado_252403_00000051383014776314930860000015916292346300929175_);" d="
				M-44.6-18.4c-0.2-0.8,0.2-1.6,1-1.9c0.5-0.1,1-0.1,1.3,0.2C-30.5-11.2-1.6,15.8-2,68.9c-0.5,66.5,15.9,88.9,34.5,101.6
				c0,0-24.2-4.2-41.6-26.8C-52,88.1-36.7,6.1-44.6-18.4z"/>
			<path id="Trazado_252404" class="st7" d="M-34.2,1.2c2.2,7.2,4.2,14.4,5.9,21.6c1.8,7.2,3.4,14.5,4.7,21.9
				c1.3,7.3,2.5,14.7,3.3,22.1c0.9,7.4,1.5,14.8,2,22.3c0.6,7.5,1.1,15,2.5,22.4c1.2,7.5,3.6,14.9,7.1,21.7c0.9,1.7,1.8,3.4,2.8,5
				c1,1.6,2,3.2,3.1,4.8c2.2,3.1,4.5,6.1,7.1,8.9c5.2,5.6,11.2,10.4,17.7,14.3c0.7,0.4,1.6,0.2,2-0.5c0,0,0,0,0,0
				c0.4-0.7,0.2-1.5-0.5-2l0,0c-1.6-1-3.1-2-4.6-3.1c-0.8-0.5-1.5-1.1-2.2-1.6c-0.7-0.6-1.5-1.1-2.2-1.7c-2.8-2.3-5.5-4.9-8-7.6
				c-4.9-5.4-9.2-11.5-12.5-18c-1.7-3.3-3.1-6.6-4.2-10.1c-1.1-3.5-2-7.1-2.7-10.7c-1.3-7.3-2-14.7-2.6-22.1s-1.4-14.9-2.4-22.4
				c-0.5-3.7-1.1-7.4-1.7-11.1c-0.3-1.9-0.6-3.7-1-5.5c-0.4-1.8-0.7-3.7-1.1-5.5c-1.5-7.3-3.3-14.6-5.3-21.9
				c-2-7.2-4.2-14.4-6.7-21.5c-0.1-0.2-0.3-0.3-0.5-0.2C-34.2,0.8-34.3,1-34.2,1.2z"/>
		</g>
		<g id="Grupo_145933" transform="translate(-1620.686 859.285)">
			<g id="Grupo_145932" transform="translate(0 0)">
				
					<linearGradient id="Trazado_252405_00000130644485842246099830000003256915437091415186_" gradientUnits="userSpaceOnUse" x1="-196.6709" y1="437.1931" x2="-196.6709" y2="436.1931" gradientTransform="matrix(75.8387 0 0 -162.7722 14908.4834 71142.5938)">
					<stop  offset="0" style="stop-color:#29398A"/>
					<stop  offset="1" style="stop-color:#CEC2F2"/>
				</linearGradient>
				<path id="Trazado_252405" style="fill:url(#Trazado_252405_00000130644485842246099830000003256915437091415186_);" d="
					M28.4,139.4c-0.4,2-2.3,3.4-4.4,3c-0.5-0.1-0.9-0.3-1.3-0.5c-12.4-7.9-45.6-33.3-51.6-83.7C-34,15.6-40.8-7.1-44.6-17.1
					c-0.5-1.2,0.2-2.6,1.4-3c0.7-0.3,1.5-0.2,2.1,0.2C-20-6.3,45.2,44.2,28.4,139.4z"/>
				
					<linearGradient id="Trazado_252406_00000078034147378356332000000008476417681861949359_" gradientUnits="userSpaceOnUse" x1="-195.9155" y1="436.6751" x2="-195.9155" y2="435.6751" gradientTransform="matrix(46.7358 0 0 -116.3019 9158.083 50810.1602)">
					<stop  offset="0" style="stop-color:#29398A"/>
					<stop  offset="1" style="stop-color:#CEC2F2"/>
				</linearGradient>
				<path id="Trazado_252406" style="fill:url(#Trazado_252406_00000078034147378356332000000008476417681861949359_);" d="
					M24.9,140c0,0-0.1,0.1-0.2,0.1c-0.5,0.3-1.1,0.2-1.4-0.3l0,0c-0.3-0.6-35.1-55.7-44.8-114.6c-0.1-0.6,0.3-1.1,0.9-1.2
					c0,0,0,0,0,0c0.6-0.1,1.1,0.3,1.2,0.9c0,0,0,0,0,0C-9.8,83.4,24.7,138.2,25,138.7C25.3,139.1,25.2,139.7,24.9,140z"/>
			</g>
		</g>
		<g id="Grupo_145944" transform="translate(-1565.742 788.267)">
			<g id="Grupo_145935" transform="translate(0 0)">
				<g id="Grupo_145934">
					<path id="Trazado_252407" class="st10" d="M-32.8-19.3c-6.7,0.6-11.9,6.2-11.9,13c-0.1,41.3-0.3,183.6,2.4,234
						c0.3,5.3,4.7,9.5,10,9.6c26.4,0.3,102.5,0.8,145.7-2c9-0.6,16-8,16-17c-0.1-43.3-0.7-165.2-6.7-220.8
						c-0.7-6.7-6.1-11.9-12.8-12.4C81.1-17.2,4.5-22.5-32.8-19.3z"/>
					<path id="Trazado_252408" class="st11" d="M-34,4.5c-0.5,35.3-2,152.8,0.6,196.1c0.2,6.2,5.2,11.2,11.4,11.6
						c25,0.9,89.2,2.6,125.7-1.5c6.7-0.9,11.7-6.6,11.8-13.3c0.9-36,3.4-145.4,0.9-188.3c-0.3-6.7-5.5-12.2-12.2-12.7
						C77.1-5.5,7.5-9.7-23.6-7.1C-29.5-6.5-34.1-1.5-34,4.5z"/>
					<path id="Trazado_252409" class="st12" d="M26.4-13.1c0,1,0.8,1.8,1.8,1.8c4.8,0.1,18.4,0.6,24.4,0.8c1,0,1.9-0.8,1.9-1.8
						c0-0.2,0-0.3,0-0.5c-0.1-0.9-0.8-1.6-1.7-1.6c-4.1-0.3-16.5-1.1-24.6-0.6C27.2-14.9,26.4-14.1,26.4-13.1z"/>
				</g>
			</g>
			<g id="Grupo_145938" transform="translate(18.683 38.201)">
				<circle id="Elipse_5874" class="st13" cx="-11.9" cy="12.5" r="32.8"/>
				<g id="Grupo_145937" transform="translate(3.591 3.591)">
					<g>
						<defs>
							<circle id="SVGID_1_" cx="-15.5" cy="8.9" r="29.2"/>
						</defs>
						<clipPath id="SVGID_00000141452581530321727660000007477216363274102162_">
							<use xlink:href="#SVGID_1_"  style="overflow:visible;"/>
						</clipPath>
						<g id="Grupo_145936" style="clip-path:url(#SVGID_00000141452581530321727660000007477216363274102162_);">
							<circle id="Elipse_5875" class="st12" cx="-15.4" cy="1.5" r="12.8"/>
							<path id="Trazado_252410" class="st12" d="M-34.8,39.9H6c2.5,0,4-3.2,2.7-5.7C5.2,27.9-2.1,18.6-14.6,19
								c-12.1,0.4-19.3,8.8-22.9,14.9C-39.1,36.4-37.5,39.9-34.8,39.9z"/>
						</g>
					</g>
				</g>
			</g>
			<path id="Rectángulo_44159" class="st12" d="M21.4,179.5h29.2c4.5,0,8.2,3.7,8.2,8.2v0c0,4.5-3.7,8.2-8.2,8.2H21.4
				c-4.5,0-8.2-3.7-8.2-8.2v0C13.2,183.2,16.9,179.5,21.4,179.5z"/>
			<g id="Grupo_145943" transform="translate(19.816 130.188)">
				<g id="Grupo_145939" transform="translate(0.809)" class="st15">
					
						<linearGradient id="Rectángulo_44160_00000145779028766373989670000012393514377891933630_" gradientUnits="userSpaceOnUse" x1="-272.4821" y1="356.0378" x2="-272.4821" y2="355.0378" gradientTransform="matrix(94.749 0 0 -9.063 25837.7109 3207.4619)">
						<stop  offset="0" style="stop-color:#7E89BE"/>
						<stop  offset="1" style="stop-color:#29398A"/>
					</linearGradient>
					<path id="Rectángulo_44160" style="fill:url(#Rectángulo_44160_00000145779028766373989670000012393514377891933630_);" d="
						M-22.5-19.3h85.7c2.5,0,4.5,2,4.5,4.5l0,0c0,2.5-2,4.5-4.5,4.5h-85.7c-2.5,0-4.5-2-4.5-4.5l0,0C-27.1-17.3-25-19.3-22.5-19.3z"
						/>
					
						<linearGradient id="Elipse_5877_00000002368250763449317990000002334554921842807729_" gradientUnits="userSpaceOnUse" x1="-265.0818" y1="360.12" x2="-265.0818" y2="359.12" gradientTransform="matrix(10.99 0 0 -10.99 2874.0281 3937.4192)">
						<stop  offset="0" style="stop-color:#7E89BE"/>
						<stop  offset="1" style="stop-color:#29398A"/>
					</linearGradient>
					
						<circle id="Elipse_5877" style="fill:url(#Elipse_5877_00000002368250763449317990000002334554921842807729_);" cx="-39.2" cy="-14.8" r="5.5"/>
				</g>
				<g id="Grupo_145940" transform="translate(0 16.198)" class="st15">
					
						<linearGradient id="Rectángulo_44161_00000040565123354070284520000003792082230080805283_" gradientUnits="userSpaceOnUse" x1="-271.6731" y1="339.8424" x2="-271.6731" y2="338.8424" gradientTransform="matrix(94.749 0 0 -9.064 25761.8672 3061.8318)">
						<stop  offset="0" style="stop-color:#7E89BE"/>
						<stop  offset="1" style="stop-color:#29398A"/>
					</linearGradient>
					<path id="Rectángulo_44161" style="fill:url(#Rectángulo_44161_00000040565123354070284520000003792082230080805283_);" d="
						M-21.7-18.5H64c2.5,0,4.5,2,4.5,4.5l0,0c0,2.5-2,4.5-4.5,4.5h-85.7c-2.5,0-4.5-2-4.5-4.5c0,0,0,0,0,0l0,0
						C-26.3-16.5-24.2-18.5-21.7-18.5C-21.7-18.5-21.7-18.5-21.7-18.5z"/>
					
						<linearGradient id="Elipse_5878_00000031205844672218648260000011732487147201760914_" gradientUnits="userSpaceOnUse" x1="-290.2546" y1="351.7829" x2="-290.2546" y2="350.7829" gradientTransform="matrix(1.7603 -10.8481 -10.8481 -1.7603 4283.2817 -2544.3411)">
						<stop  offset="0" style="stop-color:#7E89BE"/>
						<stop  offset="1" style="stop-color:#29398A"/>
					</linearGradient>
					
						<circle id="Elipse_5878" style="fill:url(#Elipse_5878_00000031205844672218648260000011732487147201760914_);" cx="-38.4" cy="-14" r="5.5"/>
				</g>
				<g id="Grupo_145941" transform="translate(0.809 34.015)" class="st15">
					
						<linearGradient id="Rectángulo_44162_00000002376011290662500140000005468920361116451005_" gradientUnits="userSpaceOnUse" x1="-272.4821" y1="322.0228" x2="-272.4821" y2="321.0228" gradientTransform="matrix(94.749 0 0 -9.063 25837.7109 2899.1841)">
						<stop  offset="0" style="stop-color:#7E89BE"/>
						<stop  offset="1" style="stop-color:#29398A"/>
					</linearGradient>
					<path id="Rectángulo_44162" style="fill:url(#Rectángulo_44162_00000002376011290662500140000005468920361116451005_);" d="
						M-22.5-19.3h85.7c2.5,0,4.5,2,4.5,4.5l0,0c0,2.5-2,4.5-4.5,4.5h-85.7c-2.5,0-4.5-2-4.5-4.5l0,0C-27.1-17.3-25-19.3-22.5-19.3z"
						/>
					
						<linearGradient id="Elipse_5879_00000072959977007292342130000008868476413002649276_" gradientUnits="userSpaceOnUse" x1="-265.0818" y1="326.105" x2="-265.0818" y2="325.105" gradientTransform="matrix(10.99 0 0 -10.99 2874.0281 3563.5945)">
						<stop  offset="0" style="stop-color:#7E89BE"/>
						<stop  offset="1" style="stop-color:#29398A"/>
					</linearGradient>
					
						<circle id="Elipse_5879" style="fill:url(#Elipse_5879_00000072959977007292342130000008868476413002649276_);" cx="-39.2" cy="-14.8" r="5.5"/>
				</g>
				<g id="Grupo_145942" transform="translate(0.809 51.022)">
					
						<linearGradient id="Rectángulo_44163_00000134212465654974287140000001307578874074654642_" gradientUnits="userSpaceOnUse" x1="-272.4821" y1="305.0158" x2="-272.4821" y2="304.0158" gradientTransform="matrix(94.749 0 0 -9.063 25837.7109 2745.0496)">
						<stop  offset="0" style="stop-color:#7E89BE"/>
						<stop  offset="1" style="stop-color:#29398A"/>
					</linearGradient>
					
						<path id="Rectángulo_44163" style="opacity:0.8;fill:url(#Rectángulo_44163_00000134212465654974287140000001307578874074654642_);enable-background:new    ;" d="
						M-22.5-19.3h85.7c2.5,0,4.5,2,4.5,4.5l0,0c0,2.5-2,4.5-4.5,4.5h-85.7c-2.5,0-4.5-2-4.5-4.5l0,0C-27.1-17.3-25-19.3-22.5-19.3z"
						/>
					
						<linearGradient id="Elipse_5880_00000110457659596278391550000012642767938479335572_" gradientUnits="userSpaceOnUse" x1="-265.0818" y1="309.098" x2="-265.0818" y2="308.098" gradientTransform="matrix(10.99 0 0 -10.99 2874.0281 3376.6875)">
						<stop  offset="0" style="stop-color:#7E89BE"/>
						<stop  offset="1" style="stop-color:#29398A"/>
					</linearGradient>
					
						<circle id="Elipse_5880" style="opacity:0.8;fill:url(#Elipse_5880_00000110457659596278391550000012642767938479335572_);enable-background:new    ;" cx="-39.2" cy="-14.8" r="5.5"/>
				</g>
			</g>
			<path id="Rectángulo_44164" class="st24" d="M-19.3,93.2h65.5c2.5,0,4.5,2,4.5,4.5l0,0c0,2.5-2,4.5-4.5,4.5h-65.5
				c-2.5,0-4.5-2-4.5-4.5l0,0C-23.9,95.2-21.8,93.2-19.3,93.2z"/>
		</g>
		<g id="Grupo_145946" transform="translate(-1475.211 794.966)">
			<g id="Grupo_145945" transform="translate(0 0)">
				
					<linearGradient id="Trazado_252411_00000015315558299236987410000012278202305399867823_" gradientUnits="userSpaceOnUse" x1="-342.3057" y1="500.6856" x2="-342.3057" y2="499.6856" gradientTransform="matrix(87.3514 0 0 -99.3996 29899.8438 49747.6484)">
					<stop  offset="0" style="stop-color:#BA68C8"/>
					<stop  offset="0.19" style="stop-color:#9139AF"/>
					<stop  offset="0.31" style="stop-color:#7B1FA2"/>
					<stop  offset="0.925" style="stop-color:#4B157F"/>
					<stop  offset="1" style="stop-color:#45147B"/>
				</linearGradient>
				<path id="Trazado_252411" style="fill:url(#Trazado_252411_00000015315558299236987410000012278202305399867823_);" d="
					M42.4,4.1c-0.2-3-2-5.7-4.7-6.9L2.5-19.5c-2.3-1.1-4.9-1.1-7.1,0L-39.8-2.8c-2.7,1.3-4.5,3.9-4.7,6.9
					c-3.3,51,29.4,69.6,40.1,74.3c2.1,0.9,4.5,0.9,6.7,0C13,73.7,45.7,55.1,42.4,4.1z"/>
				<path id="Trazado_252412" class="st26" d="M-11.7-12.5c-0.3,0-0.5-0.2-0.5-0.5c0-0.2,0.1-0.4,0.3-0.5l8.3-3.9
					c0.3-0.1,0.5,0,0.6,0.3c0.1,0.2,0,0.5-0.2,0.6l-8.3,3.9C-11.5-12.5-11.6-12.5-11.7-12.5z"/>
				<path id="Trazado_252413" class="st26" d="M-41.8,15.1c-0.3,0-0.5-0.2-0.5-0.5c-0.1-3.3-0.1-6.8,0.2-10.3c0.1-2.1,1.4-4,3.4-5
					l23.7-11.2c0.2-0.1,0.5,0,0.7,0.2c0,0,0,0,0,0c0.1,0.2,0,0.5-0.2,0.7c0,0,0,0,0,0L-38.3,0.2C-39.9,1-41,2.6-41.1,4.4
					c-0.2,3.5-0.3,6.9-0.2,10.2C-41.3,14.8-41.5,15-41.8,15.1C-41.8,15.1-41.8,15.1-41.8,15.1L-41.8,15.1z"/>
				<path id="Trazado_252414" class="st4" d="M33.9,6.1c0-0.8-0.5-1.4-1.2-1.8L-0.2-11.2c-0.6-0.3-1.2-0.3-1.8,0L-34.8,4.4
					c-0.7,0.3-1.1,1-1.2,1.8c-1,19,3.4,34.9,13.1,47.2c5.6,7.1,12.8,12.9,21,16.7c0.6,0.3,1.2,0.3,1.8,0c8.2-3.9,15.4-9.6,21-16.7
					C30.5,41,34.9,25.2,33.9,6.1z"/>
			</g>
			<path id="Trazado_252415" class="st24" d="M-21.9,27L-21.9,27c2.7-1.7,6.2-0.8,7.8,1.8c0,0,0,0.1,0.1,0.1l7.6,13
				c0.5,0.9,1.6,1.2,2.5,0.6c0.3-0.2,0.6-0.5,0.8-0.9L14.1,0.8c0.4-1,1.6-1.5,2.7-1.1C17.5,0,18,0.7,18,1.6
				c0.1,12.4-2.6,36-21.9,56.1c0,0-11-4-20.2-23C-25.5,31.9-24.5,28.6-21.9,27z"/>
		</g>
		<g id="Grupo_145951" transform="translate(-1437.713 875.916)">
			<path id="Trazado_252416" class="st27" d="M10.7,150.5c0,0,0.6,3.6,0.9,7.1c0.1,1.3-0.9,2.5-2.2,2.6c0,0-0.1,0-0.1,0
				c-4.7,0.2-14.7,0.6-18.4,0.4c-0.4,0-0.8-0.4-0.8-0.8c0-0.1,0-0.2,0.1-0.3l0,0c0.2-0.4,0.5-0.8,0.9-1L7.7,151L10.7,150.5z"/>
			
				<linearGradient id="Trazado_252417_00000135682224139469617930000000546790403517606330_" gradientUnits="userSpaceOnUse" x1="-382.3418" y1="382.8477" x2="-381.3418" y2="382.8477" gradientTransform="matrix(5.4 0 0 -5.479 1973.0808 2248.1094)">
				<stop  offset="0" style="stop-color:#FF928E"/>
				<stop  offset="1" style="stop-color:#FEB3B1"/>
			</linearGradient>
			<path id="Trazado_252417" style="fill:url(#Trazado_252417_00000135682224139469617930000000546790403517606330_);" d="
				M11.2,148.4l-0.5,4.3c0,0-2.9,1.4-4.9-0.2l1.2-4.8L11.2,148.4z"/>
			<path id="Trazado_252418" class="st10" d="M10.8,68.3c0.2,1.1,1.2,55.6-4.6,79.9c-0.1,0.4,0.1,0.8,0.5,1c1.5,0.6,3.1,0.9,4.7,1
				c0.6,0,1.2-0.4,1.4-1c1.7-5.7,9.6-34,10.7-61.1c1.2-30.3,0-1,0-1l-0.7-18.7L10.8,68.3z"/>
			<path id="Trazado_252419" class="st27" d="M29.7,152.4c0.9,2.1,1.6,4.3,2,6.6c0.2,0.8-0.3,1.6-1.2,1.8c0,0-0.1,0-0.1,0
				c-1.6,0.2-3.9,0.3-5.9,0.3c-0.8,0-1.5-0.7-1.5-1.5c0-0.1,0-0.1,0-0.2c0.3-2.5,1.3-4.9,2.9-6.8L29.7,152.4z"/>
			
				<linearGradient id="Trazado_252420_00000119802914817953434530000008489492376090708617_" gradientUnits="userSpaceOnUse" x1="-391.0029" y1="392.0853" x2="-390.0029" y2="392.0853" gradientTransform="matrix(4.662 0 0 -7.208 1711.8464 2976.3853)">
				<stop  offset="0" style="stop-color:#FF928E"/>
				<stop  offset="1" style="stop-color:#FEB3B1"/>
			</linearGradient>
			<path id="Trazado_252420" style="fill:url(#Trazado_252420_00000119802914817953434530000008489492376090708617_);" d="
				M30.6,146.9l-1.2,6.4c-1.1,0.6-2.3,0.7-3.5,0.2l0.6-6.9L30.6,146.9z"/>
			<path id="Trazado_252421" class="st10" d="M33.8,69.9c4.8,28.7-1,71-3,79.3c-0.1,0.5-0.5,0.9-1,1c-1.2,0.2-2.5,0.2-3.7-0.1
				c-0.5-0.1-0.8-0.6-0.8-1.1c-0.3-6.7,0.2-47.7-4.2-64c-0.2-0.8-0.7-1.5-1.4-2L11,76.8l-0.7-9.9L33.8,69.9z"/>
			<g id="Grupo_145947" transform="translate(6.08 13.723)">
				<path id="Trazado_252422" class="st30" d="M-2.6,1.8c14.3-0.2,30,3.7,30,3.7C31.7,30.3,28.2,59,28.2,59
					c-11,2.9-23.5-1.8-23.5-1.8C2.8,46.8-5.7,17.6-5.7,17.6c-6.1-0.7-12-2.6-17.4-5.5c3-3.7,5-8,6-12.6C-12.4,1-7.5,1.8-2.6,1.8z"/>
				<path id="Trazado_252423" class="st30" d="M-44.7-19.2c0.7-1,2-1.3,3.2-0.9c2.1,8.9,13.1,16.1,24.4,19.6c-1,4.6-3.1,9-6,12.6
					C-41.9,1.6-44.7-19.2-44.7-19.2z"/>
			</g>
			<g id="Grupo_145948" transform="translate(0 0)">
				
					<linearGradient id="Trazado_252424_00000136371157090039483930000013222787663826251434_" gradientUnits="userSpaceOnUse" x1="-369.3207" y1="409.3287" x2="-370.6907" y2="408.1848" gradientTransform="matrix(9.2508 0 0 -15.7574 3391.1497 6416.1108)">
					<stop  offset="0" style="stop-color:#FF928E"/>
					<stop  offset="1" style="stop-color:#FEB3B1"/>
				</linearGradient>
				<path id="Trazado_252424" style="fill:url(#Trazado_252424_00000136371157090039483930000013222787663826251434_);" d="
					M-38.3-5.1c-0.1,0.5,1.6,1.2,2.6-0.7c0-0.9,0.6-4.8,0-5.6c-2.6-3.2-5.4-6.2-8.5-8.9c-0.6,0.5-0.6,1.3-0.2,1.9l2.7,2.8
					c-0.7,1-1.2,2-1.6,3.2c-0.2,1-0.1,2,0.4,2.8c0.5,0.9,1.1,2,1.8,2.9C-40.5-5.8-39.5-5.2-38.3-5.1z"/>
				
					<linearGradient id="Trazado_252425_00000181077274795323609250000014245858284758480272_" gradientUnits="userSpaceOnUse" x1="-357.382" y1="389.3967" x2="-355.363" y2="391.1747" gradientTransform="matrix(3.8248 0 0 -6.678 1325.5693 2592.418)">
					<stop  offset="0" style="stop-color:#FF928E"/>
					<stop  offset="1" style="stop-color:#FEB3B1"/>
				</linearGradient>
				<path id="Trazado_252425" style="fill:url(#Trazado_252425_00000181077274795323609250000014245858284758480272_);" d="
					M-40.5-13.7l2.5,2.1l0.8,2.1l-2.2,2.5c-0.3-1.7-0.7-3.4-1.3-5.1C-41.3-13-41-13.5-40.5-13.7z"/>
			</g>
			<path id="Trazado_252426" class="st30" d="M28,33.1l5.5-13.8c0,0,13.3,9.1,15.5,20.5c-4,0.3-8,1.3-11.6,3.1
				C36.4,37.5,28,33.1,28,33.1z"/>
			
				<linearGradient id="Trazado_252427_00000045618504517612398690000003670677050362307226_" gradientUnits="userSpaceOnUse" x1="-382.8488" y1="409.5184" x2="-381.8488" y2="409.5184" gradientTransform="matrix(34.9119 0 0 -17.821 13236.3027 7346.7451)">
				<stop  offset="0" style="stop-color:#FF928E"/>
				<stop  offset="1" style="stop-color:#FEB3B1"/>
			</linearGradient>
			<path id="Trazado_252427" style="fill:url(#Trazado_252427_00000045618504517612398690000003670677050362307226_);" d="
				M16.4,46.1c0,0,15,8.5,20,1.2c0.9-1.3,1.3-2.9,1-4.4C41,41.1,45,40.1,49,39.8c0.7,3.7,0.1,7.6-1.7,10.9
				c-8.8,16.2-32.9-0.9-32.9-0.9L16.4,46.1z"/>
			<g id="Grupo_145949" transform="translate(25.528 43.411)">
				<path id="Trazado_252428" class="st7" d="M-7.3,13.3l-8.2-28.5c-0.1-0.3-0.4-0.6-0.7-0.6c-1.5-0.2-5.8-0.7-10.7-1.1
					c-6-0.5-12.9-0.9-17-0.6c-0.5,0-0.8,0.4-0.8,0.9c0,0.1,0,0.2,0.1,0.3c2.4,4.8,12,24.1,16.9,30.5c0.2,0.2,0.4,0.3,0.7,0.3
					l18.9-0.2c0.5,0,0.8-0.4,0.8-0.8C-7.3,13.5-7.3,13.4-7.3,13.3z"/>
				<path id="Trazado_252429" class="st34" d="M-27.8-19.3l-5.9-1c-0.2,0-0.5,0.1-0.5,0.4c0,0.1,0,0.1,0,0.2l0.6,1.8
					c0.1,0.2,0.2,0.3,0.3,0.3l5.7,0.8c0.2,0,0.4-0.1,0.5-0.4c0-0.1,0-0.1,0-0.2l-0.4-1.6C-27.5-19.2-27.6-19.3-27.8-19.3z"/>
				<path id="Trazado_252430" class="st34" d="M-23.3-14.3l-0.5-2.5c0-0.3-0.3-0.4-0.5-0.5l-12-1.2c-0.3,0-0.6,0.2-0.6,0.5
					c0,0.1,0,0.1,0,0.2l0.8,3.2c0.1,0.3,0.3,0.4,0.5,0.4l11.7,0.6c0.3,0,0.6-0.2,0.6-0.6C-23.3-14.2-23.3-14.3-23.3-14.3z"/>
				
					<linearGradient id="Trazado_252431_00000075152109872163733010000014166318093949904560_" gradientUnits="userSpaceOnUse" x1="-407.9411" y1="356.3576" x2="-406.9411" y2="356.3576" gradientTransform="matrix(10.8761 0 0 -9.7732 4313.9102 3484.377)">
					<stop  offset="0" style="stop-color:#FF928E"/>
					<stop  offset="1" style="stop-color:#FEB3B1"/>
				</linearGradient>
				<path id="Trazado_252431" style="fill:url(#Trazado_252431_00000075152109872163733010000014166318093949904560_);" d="
					M-9.3,6.5c0,0,1.1-4.7,0.7-6.3S-10-3.7-13-3.2c-2.2,0.4-4.4,1-6.5,1.7c0,0.9,0.8,1.7,1.8,1.6c0.2,0,0.5-0.1,0.7-0.2l-1.4,1.1
					c0,0,0.2,1.7,2.1,0.8l-1.3,1.4c0.4,0.7,1.3,1,2,0.6c0.1,0,0.1-0.1,0.2-0.1C-14,2.9-13.3,7-9.3,6.5z"/>
			</g>
			
				<linearGradient id="Trazado_252432_00000001637279391807504630000011401085785904304020_" gradientUnits="userSpaceOnUse" x1="-374.4704" y1="408.0273" x2="-374.0514" y2="406.5623" gradientTransform="matrix(13.8025 0 0 -14.8958 5180.3779 6076.8301)">
				<stop  offset="0" style="stop-color:#FF928E"/>
				<stop  offset="1" style="stop-color:#FEB3B1"/>
			</linearGradient>
			<path id="Trazado_252432" style="fill:url(#Trazado_252432_00000001637279391807504630000011401085785904304020_);" d="M17.9,3.9
				l4.5,13.1c0.1,0.2,0,0.5-0.2,0.6c-3.5,1.8-7.8,1.6-11.1-0.7c-0.6-0.4-0.9-0.9-1-1.6L8.7,3.9H17.9z"/>
			<g id="Grupo_145950" transform="translate(48.381 5.259)">
				
					<linearGradient id="Trazado_252433_00000180333230022477132720000015690682461853030067_" gradientUnits="userSpaceOnUse" x1="-422.7991" y1="404.047" x2="-423.8531" y2="402.36" gradientTransform="matrix(16.0334 0 0 -15.9651 6753.4648 6426.5659)">
					<stop  offset="0" style="stop-color:#FF928E"/>
					<stop  offset="1" style="stop-color:#FEB3B1"/>
				</linearGradient>
				<path id="Trazado_252433" style="fill:url(#Trazado_252433_00000180333230022477132720000015690682461853030067_);" d="
					M-40.3-13.5c0,0-5,9.4-4.3,13.2s6.8,3.5,12.2,0.4l3.8-10.1L-40.3-13.5z"/>
				
					<linearGradient id="Trazado_252434_00000099625805342347822400000008181417639942790066_" gradientUnits="userSpaceOnUse" x1="-428.6906" y1="428.0017" x2="-428.4856" y2="426.8227" gradientTransform="matrix(21.0667 0 0 -20.8604 8918.2988 8459.1084)">
					<stop  offset="0" style="stop-color:#09005D"/>
					<stop  offset="1" style="stop-color:#1A0F91"/>
				</linearGradient>
				<path id="Trazado_252434" style="fill:url(#Trazado_252434_00000099625805342347822400000008181417639942790066_);" d="
					M-32.7-4.8c-0.2-0.1-0.3-0.3-0.2-0.5c0,0,0,0,0-0.1c0.6-0.9,1.1-1.9,1.4-2.9c0,0,0.9-0.6-2.3-1.3s-7.9-1.9-8.9-4.6
					c-1-2.6,1.6-9.3,5.6-4c0.1,0.2,0.4,0.2,0.5,0.1c0,0,0,0,0.1-0.1c0.7-0.9,2.4-2.7,4.9-1.6C-30-19.4-29-18-29-16.4
					c0,0.2,0.2,0.4,0.4,0.4c0,0,0.1,0,0.1,0c2.1-0.6,4.3,0.5,5.2,2.4c1.1,2.3,0.4,3.7-0.3,4.3c-0.1,0.2-0.1,0.4,0,0.5
					c0,0,0.1,0.1,0.2,0.1c1.1,0.3,1.9,1.5,1.6,2.6c-0.1,2.5-2.9,2.2-3.7,2.1c-0.1,0-0.3,0-0.3,0.1c-0.7,0.7-3.7,3.9-6.9,4.3
					c-0.2,0-0.4-0.1-0.4-0.3c0-0.1,0-0.1,0-0.2l1.4-4.1c0.1-0.2,0-0.4-0.2-0.5L-32.7-4.8z"/>
				
					<linearGradient id="Trazado_252435_00000028286378303355641670000011913910146872524192_" gradientUnits="userSpaceOnUse" x1="-408.2597" y1="357.2677" x2="-411.6977" y2="349.0917" gradientTransform="matrix(4.9197 0 0 -3.2931 1987.8427 1155.4323)">
					<stop  offset="0" style="stop-color:#FF928E"/>
					<stop  offset="1" style="stop-color:#FEB3B1"/>
				</linearGradient>
				<path id="Trazado_252435" style="fill:url(#Trazado_252435_00000028286378303355641670000011913910146872524192_);" d="
					M-33.3-4.3c0,0,3.5-2.4,3.8-0.4s-3.2,3-4.9,2.2L-33.3-4.3z"/>
			</g>
		</g>
	</g>
</g>
</svg>
