<svg xmlns="http://www.w3.org/2000/svg" width="328.695" height="149.148" viewBox="0 0 328.695 149.148">
  <g id="Grupo_130801" data-name="Grupo 130801" transform="translate(328.695 1.5) rotate(90)" opacity="0.6">
    <g id="Grupo_130082" data-name="Grupo 130082" transform="translate(0 0)">
      <g id="Grupo_130709" data-name="Grupo 130709" transform="translate(0 0)">
        <g id="Grupo_130708" data-name="Grupo 130708" transform="translate(146.148 0) rotate(90)" opacity="0.7">
          <path id="Trazado_247495" data-name="Trazado 247495" d="M0,13.173H82.584l29.362,16.658,37.29-.3L171.735,0H293.4" transform="translate(0.498 72.068)" fill="none" stroke="#fefefe" stroke-miterlimit="10" stroke-width="3"/>
          <path id="Trazado_247496" data-name="Trazado 247496" d="M179.723,14.764H67.228L42.229,0H0" transform="translate(0 11.178)" fill="none" stroke="#fefefe" stroke-miterlimit="10" stroke-width="3"/>
          <path id="Trazado_247497" data-name="Trazado 247497" d="M328.7,15.5H268.637l-15.562,13.45H196.64l-16.419-14.19H67.727L42.728,0H0" transform="translate(0 27.621)" fill="none" stroke="#fefefe" stroke-miterlimit="10" stroke-width="3"/>
          <line id="Línea_338" data-name="Línea 338" x2="133.611" transform="translate(0.498 75.355)" fill="none" stroke="#fefefe" stroke-miterlimit="10" stroke-width="3"/>
          <path id="Trazado_247501" data-name="Trazado 247501" d="M0,16.3H76.225L104.468,0H144.74" transform="translate(0.498 129.848)" fill="none" stroke="#fefefe" stroke-miterlimit="10" stroke-width="3"/>
          <path id="Trazado_247502" data-name="Trazado 247502" d="M0,0H205.617l18.8,22.953H293.4" transform="translate(0.498 118.371)" fill="none" stroke="#fefefe" stroke-miterlimit="10" stroke-width="3"/>
          <line id="Línea_341" data-name="Línea 341" x2="72.966" transform="translate(0.498 130.291)" fill="none" stroke="#fefefe" stroke-miterlimit="10" stroke-width="3"/>
          <line id="Línea_347" data-name="Línea 347" x2="119.994" transform="translate(0.498 60.305)" fill="none" stroke="#fefefe" stroke-miterlimit="10" stroke-width="3"/>
          <path id="Trazado_247510" data-name="Trazado 247510" d="M0,0H72.966L92.227,10.964H207.265" fill="none" stroke="#fefefe" stroke-miterlimit="10" stroke-width="3"/>
        </g>
      </g>
    </g>
  </g>
</svg>
