<svg xmlns="http://www.w3.org/2000/svg" width="242.472" height="275.447" viewBox="0 0 242.472 275.447">
  <g id="Grupo_130761" data-name="Grupo 130761" transform="translate(240.972 275.447) rotate(180)" opacity="0.3">
    <g id="Grupo_130082" data-name="Grupo 130082" transform="translate(0 0)">
      <g id="Grupo_130709" data-name="Grupo 130709">
        <g id="Grupo_130708" data-name="Grupo 130708" transform="translate(239.472 0) rotate(90)" opacity="0.7">
          <path id="Trazado_247495" data-name="Trazado 247495" d="M0,15.688H69.205L93.811,35.525l31.249-.361L143.914,0H245.865" transform="translate(0.418 151.251)" fill="none" stroke="rgba(147,234,194,0.36)" stroke-miterlimit="10" stroke-width="3"/>
          <path id="Trazado_247496" data-name="Trazado 247496" d="M150.608,17.582H56.337L35.388,0H0" transform="translate(0.418 78.74)" fill="none" stroke="rgba(147,234,194,0.36)" stroke-miterlimit="10" stroke-width="3"/>
          <path id="Trazado_247497" data-name="Trazado 247497" d="M275.447,18.463H225.117L212.076,34.481H164.784l-13.759-16.9H56.755L35.806,0H0" transform="translate(0 98.321)" fill="none" stroke="rgba(147,234,194,0.36)" stroke-miterlimit="10" stroke-width="3"/>
          <line id="Línea_338" data-name="Línea 338" x2="111.966" transform="translate(0.418 155.166)" fill="none" stroke="rgba(147,234,194,0.36)" stroke-miterlimit="10" stroke-width="3"/>
          <path id="Trazado_247498" data-name="Trazado 247498" d="M186,0H91.725L70.776,17.582H0" transform="translate(0.418 17.582)" fill="none" stroke="rgba(147,234,194,0.36)" stroke-miterlimit="10" stroke-width="3"/>
          <path id="Trazado_247499" data-name="Trazado 247499" d="M207.139,0H91.725L70.776,17.582H0" fill="none" stroke="rgba(147,234,194,0.36)" stroke-miterlimit="10" stroke-width="3"/>
          <path id="Trazado_247501" data-name="Trazado 247501" d="M0,19.412H63.877L87.544,0h33.748" transform="translate(0.418 220.06)" fill="none" stroke="rgba(147,234,194,0.36)" stroke-miterlimit="10" stroke-width="3"/>
          <path id="Trazado_247502" data-name="Trazado 247502" d="M0,0H172.307l15.758,27.334h57.8" transform="translate(0.418 206.393)" fill="none" stroke="rgba(147,234,194,0.36)" stroke-miterlimit="10" stroke-width="3"/>
          <line id="Línea_341" data-name="Línea 341" x2="61.146" transform="translate(0.418 220.588)" fill="none" stroke="rgba(147,234,194,0.36)" stroke-miterlimit="10" stroke-width="3"/>
          <line id="Línea_346" data-name="Línea 346" x2="33.216" transform="translate(106.743 56.964)" fill="none" stroke="rgba(147,234,194,0.36)" stroke-miterlimit="10" stroke-width="3"/>
          <line id="Línea_347" data-name="Línea 347" x2="100.555" transform="translate(0.418 137.244)" fill="none" stroke="rgba(147,234,194,0.36)" stroke-miterlimit="10" stroke-width="3"/>
          <path id="Trazado_247509" data-name="Trazado 247509" d="M0,10.518H89.766L98.33,0H231.036" transform="translate(0 39.144)" fill="none" stroke="rgba(147,234,194,0.36)" stroke-miterlimit="10" stroke-width="3"/>
          <path id="Trazado_247510" data-name="Trazado 247510" d="M0,0H61.146l16.14,13.056h96.4" transform="translate(0.418 65.428)" fill="none" stroke="rgba(147,234,194,0.36)" stroke-miterlimit="10" stroke-width="3"/>
        </g>
      </g>
    </g>
  </g>
</svg>
