<svg id="Grupo_145459" data-name="Grupo 145459" xmlns="http://www.w3.org/2000/svg" width="146.627" height="146.627" viewBox="0 0 146.627 146.627">
  <g id="Grupo_80127" data-name="Grupo 80127" transform="translate(3.149 3.149)">
    <path id="Trazado_113538" data-name="Trazado 113538" d="M3736.236-1294.474a69.724,69.724,0,0,1-27.311-5.514,69.926,69.926,0,0,1-22.3-15.037,69.95,69.95,0,0,1-15.037-22.3,69.744,69.744,0,0,1-5.514-27.311,69.746,69.746,0,0,1,5.514-27.311,69.955,69.955,0,0,1,15.037-22.3,69.932,69.932,0,0,1,22.3-15.037,69.726,69.726,0,0,1,27.311-5.514,69.726,69.726,0,0,1,27.312,5.514,69.929,69.929,0,0,1,22.3,15.037,69.921,69.921,0,0,1,15.036,22.3,69.715,69.715,0,0,1,5.514,27.311,69.713,69.713,0,0,1-5.514,27.311,69.917,69.917,0,0,1-15.036,22.3,69.923,69.923,0,0,1-22.3,15.037A69.723,69.723,0,0,1,3736.236-1294.474Zm0-139.774a69.688,69.688,0,0,0-69.609,69.609,69.688,69.688,0,0,0,69.609,69.61,69.688,69.688,0,0,0,69.61-69.61A69.688,69.688,0,0,0,3736.236-1434.248Z" transform="translate(-3666.072 1434.803)" fill="#fff"/>
  </g>
  <path id="Trazado_113539" data-name="Trazado 113539" d="M3817.59-1437.437h0a4.161,4.161,0,0,0,3.908,4.157,64.862,64.862,0,0,1,42.13,18.952,64.865,64.865,0,0,1,18.953,42.13,4.161,4.161,0,0,0,4.157,3.908h0a4.168,4.168,0,0,0,4.158-4.424,73.165,73.165,0,0,0-21.377-47.506,73.164,73.164,0,0,0-47.5-21.377A4.169,4.169,0,0,0,3817.59-1437.437Z" transform="translate(-3744.276 1441.604)" fill="#20cb7d"/>
  <path id="Trazado_113540" data-name="Trazado 113540" d="M3663.438-1283.287a4.169,4.169,0,0,0-4.158,4.424,73.157,73.157,0,0,0,21.376,47.5,73.16,73.16,0,0,0,47.5,21.377,4.169,4.169,0,0,0,4.424-4.159h0a4.161,4.161,0,0,0-3.907-4.157,64.863,64.863,0,0,1-42.131-18.953,64.855,64.855,0,0,1-18.952-42.13,4.162,4.162,0,0,0-4.157-3.908Z" transform="translate(-3659.272 1356.6)" fill="#7453d8"/>
</svg>
