<?xml version="1.0" encoding="utf-8"?>
<!-- Generator: Adobe Illustrator 26.1.0, SVG Export Plug-In . SVG Version: 6.00 Build 0)  -->
<svg version="1.1" id="Capa_1" xmlns="http://www.w3.org/2000/svg" xmlns:xlink="http://www.w3.org/1999/xlink" x="0px" y="0px"
	 viewBox="0 0 354.7 263.3" style="enable-background:new 0 0 354.7 263.3;" xml:space="preserve">
<style type="text/css">
	.st0{opacity:0.67;}
	.st1{opacity:0.6;}
	.st2{opacity:0.444;fill:#20CB7D;enable-background:new    ;}
	.st3{opacity:0.6;fill:#FDA929;enable-background:new    ;}
	.st4{opacity:0.444;fill:#7453D8;enable-background:new    ;}
	.st5{fill:#FFFFFF;}
	.st6{fill:url(#Trazado_252343_00000167398000060377954700000011740246488808454551_);}
	.st7{fill:url(#Trazado_252344_00000107568613886900803360000007258432493922635176_);}
	.st8{fill:#7D97F4;}
	.st9{fill:url(#Trazado_252346_00000122696438843960152480000017345684416586908596_);}
	.st10{fill:url(#Trazado_252347_00000008836645898946486270000014598853304228638139_);}
	.st11{fill:url(#Trazado_252348_00000031179409993318158270000015671069131415654588_);}
	.st12{fill:#F0F0F0;}
	.st13{opacity:0.3;}
	.st14{fill:#91B3FA;}
	.st15{fill:#7453D8;}
	.st16{fill:#BDD0FB;}
	.st17{fill:#20CB7D;}
	.st18{fill:#12263F;}
	.st19{fill:#B0C0D2;}
	.st20{opacity:0.32;fill:#FFFFFF;enable-background:new    ;}
	.st21{fill:#DEE4F0;}
	.st22{fill:url(#Trazado_252370_00000119076638309446560860000001706057771899178128_);}
	.st23{fill:url(#Trazado_252372_00000119801410321164133880000000594865304957041061_);}
	.st24{fill:url(#Trazado_252373_00000073687859986259463740000015234219899784428951_);}
	.st25{fill:url(#Trazado_252374_00000124128678706826276730000001169625579951855517_);}
	.st26{fill:url(#Trazado_252376_00000060006199528302855440000018367792636487863171_);}
	.st27{fill:url(#Trazado_252377_00000153696634591095874660000005402135121392800665_);}
	.st28{fill:url(#Trazado_252378_00000049194763552212726820000016772763084749948852_);}
	.st29{fill:#FDA929;}
	.st30{fill:url(#Trazado_252381_00000074423596394683156420000008772949418651410604_);}
	.st31{fill:url(#Rectángulo_44156_00000075859431833783734150000000614247620532512656_);}
	.st32{fill:url(#Rectángulo_44157_00000154412015213906179390000013441670758558942904_);}
	.st33{fill:url(#Rectángulo_44158_00000117673141147822226380000001637154694433675452_);}
	.st34{fill:url(#Trazado_252382_00000031912462139692652580000016991478024277894286_);}
	.st35{fill:url(#Trazado_252383_00000105428102419305188000000001133398987822307980_);}
	.st36{fill:url(#Trazado_252384_00000021087535120395464770000012730717779149611701_);}
	.st37{fill:url(#Trazado_252385_00000034785390460430869250000008482268178270448027_);}
	.st38{fill:url(#Trazado_252387_00000168114866060125608900000013530379778932113323_);}
	.st39{fill:url(#Trazado_252388_00000162321246262862421330000007237750695729123491_);}
	.st40{fill:url(#Trazado_252389_00000170977380994093308990000005793863126276556934_);}
	.st41{fill:url(#Trazado_252390_00000045599145184170601200000001945534090887265664_);}
	.st42{fill:url(#Trazado_252391_00000107559363921305292810000001041527780458199434_);}
	.st43{fill:url(#Trazado_252392_00000154427783981159575450000002460821004854146457_);}
	.st44{fill:url(#Trazado_252393_00000034785312914472171760000004006080393106504358_);}
	.st45{fill:url(#Trazado_252394_00000115498079317310711320000004433734062069659573_);}
	.st46{fill:url(#Trazado_252395_00000072241886063255539820000018426058015290866562_);}
	.st47{fill:url(#Trazado_252396_00000146485757399888102830000003893025919244406926_);}
	.st48{fill:url(#Trazado_252397_00000085223929192938146790000012302673781104054422_);}
	.st49{fill:url(#Trazado_252398_00000178176292674287905270000004284341846525105037_);}
	.st50{fill:url(#Trazado_252399_00000165927339051523972720000015716015828184163507_);}
	.st51{fill:url(#Trazado_252400_00000137811621081955211180000015492360599782941886_);}
	.st52{fill:url(#Trazado_252401_00000049192030266652379570000000239261551976648343_);}
</style>
<g id="Grupo_146973" transform="translate(-938.333 -7100)">
	<g id="Grupo_130729" transform="translate(-55.789 6421.296)" class="st0">
		<g id="Grupo_79815" transform="translate(994.122 678.704)" class="st1">
			<g id="Grupo_79776" transform="translate(0 0)">
				<g id="Grupo_79644" transform="translate(0 0)">
					<path id="Trazado_145968" class="st2" d="M274.6,103.2c44.2,0,80,35.8,80,80s-35.8,80-80,80s-80-35.8-80-80
						S230.4,103.2,274.6,103.2C274.6,103.2,274.6,103.2,274.6,103.2z"/>
					<path id="Trazado_145969" class="st3" d="M54.7,0c30.2,0,54.7,24.5,54.7,54.7s-24.5,54.7-54.7,54.7S0,84.9,0,54.7c0,0,0,0,0,0
						C0,24.5,24.5,0,54.7,0z"/>
					<path id="Trazado_145971" class="st4" d="M49.3,175.7c19.1,0,34.6,15.5,34.6,34.6s-15.5,34.6-34.6,34.6s-34.6-15.5-34.6-34.6
						S30.2,175.7,49.3,175.7C49.3,175.7,49.3,175.7,49.3,175.7z"/>
					<g id="Grupo_78276" transform="translate(269.339 161.78)">
						<g id="Grupo_53306" transform="translate(0)">
							<path id="Trazado_99200" class="st5" d="M-42.5-19.3c0,0.6-0.4,1.1-1,1.1s-1.1-0.4-1.1-1c0-0.6,0.4-1.1,1-1.1c0,0,0,0,0,0
								C-43-20.3-42.6-19.8-42.5-19.3z"/>
							<path id="Trazado_99201" class="st5" d="M-32.8-19.3c0,0.6-0.4,1.1-1,1.1s-1.1-0.4-1.1-1s0.4-1.1,1-1.1c0,0,0,0,0,0
								C-33.3-20.3-32.8-19.8-32.8-19.3z"/>
							<path id="Trazado_99202" class="st5" d="M-23-19.3c0,0.6-0.4,1.1-1,1.1s-1.1-0.4-1.1-1s0.4-1.1,1-1.1c0,0,0,0,0,0
								C-23.5-20.3-23-19.8-23-19.3z"/>
							<path id="Trazado_99203" class="st5" d="M-13.2-19.3c0,0.6-0.4,1.1-1,1.1s-1.1-0.4-1.1-1c0-0.6,0.4-1.1,1-1.1c0,0,0,0,0,0
								C-13.7-20.3-13.2-19.8-13.2-19.3z"/>
							<path id="Trazado_99204" class="st5" d="M-3.4-19.3c0,0.6-0.4,1.1-1,1.1s-1.1-0.4-1.1-1s0.4-1.1,1-1.1c0,0,0,0,0,0
								C-3.9-20.3-3.4-19.8-3.4-19.3z"/>
							<path id="Trazado_99205" class="st5" d="M6.4-19.3c0,0.6-0.4,1.1-1,1.1s-1.1-0.4-1.1-1s0.4-1.1,1-1.1c0,0,0,0,0,0
								C5.9-20.3,6.3-19.8,6.4-19.3z"/>
							<path id="Trazado_99206" class="st5" d="M16.1-19.3c0,0.6-0.4,1.1-1,1.1s-1.1-0.4-1.1-1c0-0.6,0.4-1.1,1-1.1c0,0,0,0,0,0
								C15.6-20.3,16.1-19.8,16.1-19.3z"/>
							<path id="Trazado_99207" class="st5" d="M25.9-19.3c0,0.6-0.4,1.1-1,1.1s-1.1-0.4-1.1-1s0.4-1.1,1-1.1c0,0,0,0,0,0
								C25.4-20.3,25.9-19.8,25.9-19.3z"/>
							<path id="Trazado_99208" class="st5" d="M35.7-19.3c0,0.6-0.4,1.1-1,1.1s-1.1-0.4-1.1-1s0.4-1.1,1-1.1c0,0,0,0,0,0
								C35.2-20.3,35.7-19.8,35.7-19.3z"/>
							<path id="Trazado_99209" class="st5" d="M45.5-19.3c0,0.6-0.4,1.1-1,1.1s-1.1-0.4-1.1-1c0-0.6,0.4-1.1,1-1.1c0,0,0,0,0,0
								C45-20.3,45.5-19.8,45.5-19.3z"/>
							<path id="Trazado_99210" class="st5" d="M55.3-19.3c0,0.6-0.4,1.1-1,1.1s-1.1-0.4-1.1-1c0-0.6,0.4-1.1,1-1.1c0,0,0,0,0,0
								C54.8-20.3,55.3-19.8,55.3-19.3z"/>
						</g>
						<g id="Grupo_53307" transform="translate(0 8.315)">
							<path id="Trazado_99211" class="st5" d="M-42.5-19.3c0,0.6-0.4,1.1-1,1.1s-1.1-0.4-1.1-1c0-0.6,0.4-1.1,1-1.1c0,0,0,0,0,0
								C-43-20.3-42.6-19.8-42.5-19.3z"/>
							<path id="Trazado_99212" class="st5" d="M-32.8-19.3c0,0.6-0.4,1.1-1,1.1s-1.1-0.4-1.1-1s0.4-1.1,1-1.1c0,0,0,0,0,0
								C-33.3-20.3-32.8-19.8-32.8-19.3z"/>
							<path id="Trazado_99213" class="st5" d="M-23-19.3c0,0.6-0.4,1.1-1,1.1s-1.1-0.4-1.1-1s0.4-1.1,1-1.1c0,0,0,0,0,0
								C-23.5-20.3-23-19.8-23-19.3z"/>
							<path id="Trazado_99214" class="st5" d="M-13.2-19.3c0,0.6-0.4,1.1-1,1.1s-1.1-0.4-1.1-1c0-0.6,0.4-1.1,1-1.1c0,0,0,0,0,0
								C-13.7-20.3-13.2-19.8-13.2-19.3z"/>
							<path id="Trazado_99215" class="st5" d="M-3.4-19.3c0,0.6-0.4,1.1-1,1.1s-1.1-0.4-1.1-1s0.4-1.1,1-1.1c0,0,0,0,0,0
								C-3.9-20.3-3.4-19.8-3.4-19.3z"/>
							<path id="Trazado_99216" class="st5" d="M6.4-19.3c0,0.6-0.4,1.1-1,1.1s-1.1-0.4-1.1-1s0.4-1.1,1-1.1c0,0,0,0,0,0
								C5.9-20.3,6.3-19.8,6.4-19.3z"/>
							<path id="Trazado_99217" class="st5" d="M16.1-19.3c0,0.6-0.4,1.1-1,1.1s-1.1-0.4-1.1-1c0-0.6,0.4-1.1,1-1.1c0,0,0,0,0,0
								C15.6-20.3,16.1-19.8,16.1-19.3z"/>
							<path id="Trazado_99218" class="st5" d="M25.9-19.3c0,0.6-0.4,1.1-1,1.1s-1.1-0.4-1.1-1s0.4-1.1,1-1.1c0,0,0,0,0,0
								C25.4-20.3,25.9-19.8,25.9-19.3z"/>
							<path id="Trazado_99219" class="st5" d="M35.7-19.3c0,0.6-0.4,1.1-1,1.1s-1.1-0.4-1.1-1s0.4-1.1,1-1.1c0,0,0,0,0,0
								C35.2-20.3,35.7-19.8,35.7-19.3z"/>
							<path id="Trazado_99220" class="st5" d="M45.5-19.3c0,0.6-0.4,1.1-1,1.1s-1.1-0.4-1.1-1c0-0.6,0.4-1.1,1-1.1c0,0,0,0,0,0
								C45-20.3,45.5-19.8,45.5-19.3z"/>
							<path id="Trazado_99221" class="st5" d="M55.3-19.3c0,0.6-0.4,1.1-1,1.1s-1.1-0.4-1.1-1c0-0.6,0.4-1.1,1-1.1c0,0,0,0,0,0
								C54.8-20.3,55.3-19.8,55.3-19.3z"/>
						</g>
						<g id="Grupo_53308" transform="translate(0 16.629)">
							<ellipse id="Elipse_3955" class="st5" cx="-43.6" cy="-19.3" rx="1.1" ry="1"/>
							<path id="Trazado_99222" class="st5" d="M-32.8-19.3c0,0.6-0.4,1.1-1,1.1s-1.1-0.4-1.1-1c0-0.6,0.4-1.1,1-1.1c0,0,0,0,0,0
								C-33.3-20.3-32.8-19.8-32.8-19.3z"/>
							<ellipse id="Elipse_3956" class="st5" cx="-24.1" cy="-19.3" rx="1.1" ry="1"/>
							<path id="Trazado_99223" class="st5" d="M-13.2-19.3c0,0.6-0.4,1.1-1,1.1s-1.1-0.4-1.1-1c0-0.6,0.4-1.1,1-1.1c0,0,0,0,0,0
								C-13.7-20.3-13.2-19.8-13.2-19.3z"/>
							<path id="Trazado_99224" class="st5" d="M-3.4-19.3c0,0.6-0.4,1.1-1,1.1s-1.1-0.4-1.1-1c0-0.6,0.4-1.1,1-1.1c0,0,0,0,0,0
								C-3.9-20.3-3.4-19.8-3.4-19.3z"/>
							<ellipse id="Elipse_3957" class="st5" cx="5.3" cy="-19.3" rx="1.1" ry="1"/>
							<path id="Trazado_99225" class="st5" d="M16.1-19.3c0,0.6-0.4,1.1-1,1.1s-1.1-0.4-1.1-1c0-0.6,0.4-1.1,1-1.1c0,0,0,0,0,0
								C15.6-20.3,16.1-19.8,16.1-19.3z"/>
							<ellipse id="Elipse_3958" class="st5" cx="24.8" cy="-19.3" rx="1.1" ry="1"/>
							<ellipse id="Elipse_3959" class="st5" cx="34.6" cy="-19.3" rx="1.1" ry="1"/>
							<path id="Trazado_99226" class="st5" d="M45.5-19.3c0,0.6-0.4,1.1-1,1.1s-1.1-0.4-1.1-1c0-0.6,0.4-1.1,1-1.1c0,0,0,0,0,0
								C45-20.3,45.5-19.8,45.5-19.3z"/>
							<path id="Trazado_99227" class="st5" d="M55.3-19.3c0,0.6-0.4,1.1-1,1.1s-1.1-0.4-1.1-1c0-0.6,0.4-1.1,1-1.1c0,0,0,0,0,0
								C54.8-20.3,55.3-19.8,55.3-19.3z"/>
						</g>
						<g id="Grupo_53309" transform="translate(0 24.943)">
							<ellipse id="Elipse_3960" class="st5" cx="-43.6" cy="-19.3" rx="1.1" ry="1"/>
							<path id="Trazado_99228" class="st5" d="M-32.8-19.3c0,0.6-0.4,1.1-1,1.1c-0.6,0-1.1-0.4-1.1-1c0-0.6,0.4-1.1,1-1.1
								c0,0,0,0,0,0C-33.3-20.3-32.8-19.8-32.8-19.3C-32.8-19.3-32.8-19.3-32.8-19.3z"/>
							<ellipse id="Elipse_3961" class="st5" cx="-24.1" cy="-19.3" rx="1.1" ry="1"/>
							<path id="Trazado_99229" class="st5" d="M-13.2-19.3c0,0.6-0.4,1.1-1,1.1c-0.6,0-1.1-0.4-1.1-1c0-0.6,0.4-1.1,1-1.1
								c0,0,0,0,0,0C-13.7-20.3-13.2-19.8-13.2-19.3z"/>
							<path id="Trazado_99230" class="st5" d="M-3.4-19.3c0,0.6-0.4,1.1-1,1.1c-0.6,0-1.1-0.4-1.1-1c0-0.6,0.4-1.1,1-1.1
								c0,0,0,0,0,0C-3.9-20.3-3.4-19.8-3.4-19.3C-3.4-19.3-3.4-19.3-3.4-19.3z"/>
							<ellipse id="Elipse_3962" class="st5" cx="5.3" cy="-19.3" rx="1.1" ry="1"/>
							<path id="Trazado_99231" class="st5" d="M16.1-19.3c0,0.6-0.4,1.1-1,1.1c-0.6,0-1.1-0.4-1.1-1c0-0.6,0.4-1.1,1-1.1
								c0,0,0,0,0,0C15.6-20.3,16.1-19.8,16.1-19.3z"/>
							<ellipse id="Elipse_3963" class="st5" cx="24.8" cy="-19.3" rx="1.1" ry="1"/>
							<ellipse id="Elipse_3964" class="st5" cx="34.6" cy="-19.3" rx="1.1" ry="1"/>
							<path id="Trazado_99232" class="st5" d="M45.5-19.3c0,0.6-0.4,1.1-1,1.1c-0.6,0-1.1-0.4-1.1-1c0-0.6,0.4-1.1,1-1.1
								c0,0,0,0,0,0C45-20.3,45.5-19.8,45.5-19.3z"/>
							<path id="Trazado_99233" class="st5" d="M55.3-19.3c0,0.6-0.4,1.1-1,1.1c-0.6,0-1.1-0.4-1.1-1c0-0.6,0.4-1.1,1-1.1
								c0,0,0,0,0,0C54.8-20.3,55.3-19.8,55.3-19.3z"/>
						</g>
						<g id="Grupo_53310" transform="translate(0 33.258)">
							<path id="Trazado_99234" class="st5" d="M-42.5-19.3c0,0.6-0.4,1.1-1,1.1c-0.6,0-1.1-0.4-1.1-1c0-0.6,0.4-1.1,1-1.1
								c0,0,0,0,0,0C-43-20.3-42.6-19.8-42.5-19.3z"/>
							<path id="Trazado_99235" class="st5" d="M-32.8-19.3c0,0.6-0.4,1.1-1,1.1c-0.6,0-1.1-0.4-1.1-1c0-0.6,0.4-1.1,1-1.1
								c0,0,0,0,0,0C-33.3-20.3-32.8-19.8-32.8-19.3C-32.8-19.3-32.8-19.3-32.8-19.3z"/>
							<path id="Trazado_99236" class="st5" d="M-23-19.3c0,0.6-0.4,1.1-1,1.1c-0.6,0-1.1-0.4-1.1-1c0-0.6,0.4-1.1,1-1.1
								c0,0,0,0,0,0C-23.5-20.3-23-19.8-23-19.3C-23-19.3-23-19.3-23-19.3z"/>
							<path id="Trazado_99237" class="st5" d="M-13.2-19.3c0,0.6-0.4,1.1-1,1.1c-0.6,0-1.1-0.4-1.1-1c0-0.6,0.4-1.1,1-1.1
								c0,0,0,0,0,0C-13.7-20.3-13.2-19.8-13.2-19.3z"/>
							<path id="Trazado_99238" class="st5" d="M-3.4-19.3c0,0.6-0.4,1.1-1,1.1c-0.6,0-1.1-0.4-1.1-1c0-0.6,0.4-1.1,1-1.1
								c0,0,0,0,0,0C-3.9-20.3-3.4-19.8-3.4-19.3C-3.4-19.3-3.4-19.3-3.4-19.3z"/>
							<path id="Trazado_99239" class="st5" d="M6.4-19.3c0,0.6-0.4,1.1-1,1.1c-0.6,0-1.1-0.4-1.1-1c0-0.6,0.4-1.1,1-1.1
								c0,0,0,0,0,0C5.9-20.3,6.4-19.8,6.4-19.3C6.4-19.3,6.4-19.3,6.4-19.3z"/>
							<path id="Trazado_99240" class="st5" d="M16.1-19.3c0,0.6-0.4,1.1-1,1.1c-0.6,0-1.1-0.4-1.1-1c0-0.6,0.4-1.1,1-1.1
								c0,0,0,0,0,0C15.6-20.3,16.1-19.8,16.1-19.3z"/>
							<path id="Trazado_99241" class="st5" d="M25.9-19.3c0,0.6-0.4,1.1-1,1.1c-0.6,0-1.1-0.4-1.1-1c0-0.6,0.4-1.1,1-1.1
								c0,0,0,0,0,0C25.4-20.3,25.9-19.8,25.9-19.3C25.9-19.3,25.9-19.3,25.9-19.3z"/>
							<path id="Trazado_99242" class="st5" d="M35.7-19.3c0,0.6-0.4,1.1-1,1.1c-0.6,0-1.1-0.4-1.1-1c0-0.6,0.4-1.1,1-1.1
								c0,0,0,0,0,0C35.2-20.3,35.7-19.8,35.7-19.3C35.7-19.3,35.7-19.3,35.7-19.3z"/>
							<path id="Trazado_99243" class="st5" d="M45.5-19.3c0,0.6-0.4,1.1-1,1.1c-0.6,0-1.1-0.4-1.1-1c0-0.6,0.4-1.1,1-1.1
								c0,0,0,0,0,0C45-20.3,45.5-19.8,45.5-19.3z"/>
							<path id="Trazado_99244" class="st5" d="M55.3-19.3c0,0.6-0.4,1.1-1,1.1c-0.6,0-1.1-0.4-1.1-1c0-0.6,0.4-1.1,1-1.1
								c0,0,0,0,0,0C54.8-20.3,55.3-19.8,55.3-19.3z"/>
						</g>
						<g id="Grupo_53311" transform="translate(0 41.573)">
							<ellipse id="Elipse_3965" class="st5" cx="-43.6" cy="-19.3" rx="1.1" ry="1"/>
							<path id="Trazado_99245" class="st5" d="M-32.8-19.3c0,0.6-0.4,1.1-1,1.1c-0.6,0-1.1-0.4-1.1-1c0-0.6,0.4-1.1,1-1.1
								c0,0,0,0,0,0C-33.3-20.3-32.8-19.9-32.8-19.3C-32.8-19.3-32.8-19.3-32.8-19.3z"/>
							<ellipse id="Elipse_3966" class="st5" cx="-24.1" cy="-19.3" rx="1.1" ry="1"/>
							<path id="Trazado_99246" class="st5" d="M-13.2-19.3c0,0.6-0.4,1.1-1,1.1c-0.6,0-1.1-0.4-1.1-1c0-0.6,0.4-1.1,1-1.1
								c0,0,0,0,0,0C-13.7-20.3-13.2-19.9-13.2-19.3z"/>
							<path id="Trazado_99247" class="st5" d="M-3.4-19.3c0,0.6-0.4,1.1-1,1.1c-0.6,0-1.1-0.4-1.1-1c0-0.6,0.4-1.1,1-1.1
								c0,0,0,0,0,0C-3.9-20.3-3.4-19.9-3.4-19.3C-3.4-19.3-3.4-19.3-3.4-19.3z"/>
							<ellipse id="Elipse_3967" class="st5" cx="5.3" cy="-19.3" rx="1.1" ry="1"/>
							<path id="Trazado_99248" class="st5" d="M16.1-19.3c0,0.6-0.4,1.1-1,1.1c-0.6,0-1.1-0.4-1.1-1c0-0.6,0.4-1.1,1-1.1
								c0,0,0,0,0,0C15.6-20.3,16.1-19.9,16.1-19.3z"/>
							<ellipse id="Elipse_3968" class="st5" cx="24.8" cy="-19.3" rx="1.1" ry="1"/>
							<ellipse id="Elipse_3969" class="st5" cx="34.6" cy="-19.3" rx="1.1" ry="1"/>
							<path id="Trazado_99249" class="st5" d="M45.5-19.3c0,0.6-0.4,1.1-1,1.1c-0.6,0-1.1-0.4-1.1-1c0-0.6,0.4-1.1,1-1.1
								c0,0,0,0,0,0C45-20.3,45.5-19.9,45.5-19.3z"/>
							<path id="Trazado_99250" class="st5" d="M55.3-19.3c0,0.6-0.4,1.1-1,1.1c-0.6,0-1.1-0.4-1.1-1c0-0.6,0.4-1.1,1-1.1
								c0,0,0,0,0,0C54.8-20.3,55.3-19.9,55.3-19.3z"/>
						</g>
						<g id="Grupo_53312" transform="translate(0 49.887)">
							<ellipse id="Elipse_3970" class="st5" cx="-43.6" cy="-19.3" rx="1.1" ry="1"/>
							<path id="Trazado_99251" class="st5" d="M-32.8-19.3c0,0.6-0.4,1.1-1,1.1s-1.1-0.4-1.1-1c0-0.6,0.4-1.1,1-1.1c0,0,0,0,0,0
								C-33.3-20.3-32.8-19.8-32.8-19.3z"/>
							<ellipse id="Elipse_3971" class="st5" cx="-24.1" cy="-19.3" rx="1.1" ry="1"/>
							<path id="Trazado_99252" class="st5" d="M-13.2-19.3c0,0.6-0.4,1.1-1,1.1s-1.1-0.4-1.1-1c0-0.6,0.4-1.1,1-1.1c0,0,0,0,0,0
								C-13.7-20.3-13.2-19.8-13.2-19.3z"/>
							<path id="Trazado_99253" class="st5" d="M-3.4-19.3c0,0.6-0.4,1.1-1,1.1s-1.1-0.4-1.1-1c0-0.6,0.4-1.1,1-1.1c0,0,0,0,0,0
								C-3.9-20.3-3.4-19.8-3.4-19.3z"/>
							<ellipse id="Elipse_3972" class="st5" cx="5.3" cy="-19.3" rx="1.1" ry="1"/>
							<path id="Trazado_99254" class="st5" d="M16.1-19.3c0,0.6-0.4,1.1-1,1.1s-1.1-0.4-1.1-1c0-0.6,0.4-1.1,1-1.1c0,0,0,0,0,0
								C15.6-20.3,16.1-19.8,16.1-19.3z"/>
							<ellipse id="Elipse_3973" class="st5" cx="24.8" cy="-19.3" rx="1.1" ry="1"/>
							<ellipse id="Elipse_3974" class="st5" cx="34.6" cy="-19.3" rx="1.1" ry="1"/>
							<path id="Trazado_99255" class="st5" d="M45.5-19.3c0,0.6-0.4,1.1-1,1.1s-1.1-0.4-1.1-1c0-0.6,0.4-1.1,1-1.1c0,0,0,0,0,0
								C45-20.3,45.5-19.8,45.5-19.3z"/>
							<path id="Trazado_99256" class="st5" d="M55.3-19.3c0,0.6-0.4,1.1-1,1.1s-1.1-0.4-1.1-1c0-0.6,0.4-1.1,1-1.1c0,0,0,0,0,0
								C54.8-20.3,55.3-19.8,55.3-19.3z"/>
						</g>
						<g id="Grupo_53313" transform="translate(0 58.202)">
							<path id="Trazado_99257" class="st5" d="M-42.5-19.3c0,0.6-0.4,1.1-1,1.1s-1.1-0.4-1.1-1c0-0.6,0.4-1.1,1-1.1c0,0,0,0,0,0
								C-43-20.3-42.6-19.8-42.5-19.3z"/>
							<path id="Trazado_99258" class="st5" d="M-32.8-19.3c0,0.6-0.4,1.1-1,1.1s-1.1-0.4-1.1-1c0-0.6,0.4-1.1,1-1.1c0,0,0,0,0,0
								C-33.3-20.3-32.8-19.8-32.8-19.3z"/>
							<path id="Trazado_99259" class="st5" d="M-23-19.3c0,0.6-0.4,1.1-1,1.1s-1.1-0.4-1.1-1c0-0.6,0.4-1.1,1-1.1c0,0,0,0,0,0
								C-23.5-20.3-23-19.8-23-19.3z"/>
							<path id="Trazado_99260" class="st5" d="M-13.2-19.3c0,0.6-0.4,1.1-1,1.1s-1.1-0.4-1.1-1c0-0.6,0.4-1.1,1-1.1c0,0,0,0,0,0
								C-13.7-20.3-13.2-19.8-13.2-19.3z"/>
							<path id="Trazado_99261" class="st5" d="M-3.4-19.3c0,0.6-0.4,1.1-1,1.1s-1.1-0.4-1.1-1c0-0.6,0.4-1.1,1-1.1c0,0,0,0,0,0
								C-3.9-20.3-3.4-19.8-3.4-19.3z"/>
							<path id="Trazado_99262" class="st5" d="M6.4-19.3c0,0.6-0.4,1.1-1,1.1s-1.1-0.4-1.1-1c0-0.6,0.4-1.1,1-1.1c0,0,0,0,0,0
								C5.9-20.3,6.3-19.8,6.4-19.3z"/>
							<path id="Trazado_99263" class="st5" d="M16.1-19.3c0,0.6-0.4,1.1-1,1.1s-1.1-0.4-1.1-1c0-0.6,0.4-1.1,1-1.1c0,0,0,0,0,0
								C15.6-20.3,16.1-19.8,16.1-19.3z"/>
							<path id="Trazado_99264" class="st5" d="M25.9-19.3c0,0.6-0.4,1.1-1,1.1s-1.1-0.4-1.1-1c0-0.6,0.4-1.1,1-1.1c0,0,0,0,0,0
								C25.4-20.3,25.9-19.8,25.9-19.3z"/>
							<path id="Trazado_99265" class="st5" d="M35.7-19.3c0,0.6-0.4,1.1-1,1.1s-1.1-0.4-1.1-1c0-0.6,0.4-1.1,1-1.1c0,0,0,0,0,0
								C35.2-20.3,35.7-19.8,35.7-19.3z"/>
							<path id="Trazado_99266" class="st5" d="M45.5-19.3c0,0.6-0.4,1.1-1,1.1s-1.1-0.4-1.1-1c0-0.6,0.4-1.1,1-1.1c0,0,0,0,0,0
								C45-20.3,45.5-19.8,45.5-19.3z"/>
							<path id="Trazado_99267" class="st5" d="M55.3-19.3c0,0.6-0.4,1.1-1,1.1s-1.1-0.4-1.1-1c0-0.6,0.4-1.1,1-1.1c0,0,0,0,0,0
								C54.8-20.3,55.3-19.8,55.3-19.3z"/>
						</g>
						<g id="Grupo_53314" transform="translate(0 66.517)">
							<ellipse id="Elipse_3975" class="st5" cx="-43.6" cy="-19.3" rx="1.1" ry="1"/>
							<path id="Trazado_99268" class="st5" d="M-32.8-19.3c0,0.6-0.4,1.1-1,1.1s-1.1-0.4-1.1-1c0-0.6,0.4-1.1,1-1.1c0,0,0,0,0,0
								C-33.3-20.3-32.8-19.8-32.8-19.3z"/>
							<ellipse id="Elipse_3976" class="st5" cx="-24.1" cy="-19.3" rx="1.1" ry="1"/>
							<path id="Trazado_99269" class="st5" d="M-13.2-19.3c0,0.6-0.4,1.1-1,1.1s-1.1-0.4-1.1-1c0-0.6,0.4-1.1,1-1.1c0,0,0,0,0,0
								C-13.7-20.3-13.2-19.8-13.2-19.3z"/>
							<path id="Trazado_99270" class="st5" d="M-3.4-19.3c0,0.6-0.4,1.1-1,1.1s-1.1-0.4-1.1-1c0-0.6,0.4-1.1,1-1.1c0,0,0,0,0,0
								C-3.9-20.3-3.4-19.8-3.4-19.3z"/>
							<ellipse id="Elipse_3977" class="st5" cx="5.3" cy="-19.3" rx="1.1" ry="1"/>
							<path id="Trazado_99271" class="st5" d="M16.1-19.3c0,0.6-0.4,1.1-1,1.1s-1.1-0.4-1.1-1c0-0.6,0.4-1.1,1-1.1c0,0,0,0,0,0
								C15.6-20.3,16.1-19.8,16.1-19.3z"/>
							<ellipse id="Elipse_3978" class="st5" cx="24.8" cy="-19.3" rx="1.1" ry="1"/>
							<ellipse id="Elipse_3979" class="st5" cx="34.6" cy="-19.3" rx="1.1" ry="1"/>
							<path id="Trazado_99272" class="st5" d="M45.5-19.3c0,0.6-0.4,1.1-1,1.1s-1.1-0.4-1.1-1c0-0.6,0.4-1.1,1-1.1c0,0,0,0,0,0
								C45-20.3,45.5-19.8,45.5-19.3z"/>
							<path id="Trazado_99273" class="st5" d="M55.3-19.3c0,0.6-0.4,1.1-1,1.1s-1.1-0.4-1.1-1c0-0.6,0.4-1.1,1-1.1c0,0,0,0,0,0
								C54.8-20.3,55.3-19.8,55.3-19.3z"/>
						</g>
						<g id="Grupo_53315" transform="translate(0 74.831)">
							<path id="Trazado_99274" class="st5" d="M-42.5-19.3c0,0.6-0.4,1.1-1,1.1c-0.6,0-1.1-0.4-1.1-1c0-0.6,0.4-1.1,1-1.1
								c0,0,0,0,0,0C-43-20.3-42.6-19.8-42.5-19.3z"/>
							<path id="Trazado_99275" class="st5" d="M-32.8-19.3c0,0.6-0.4,1.1-1,1.1c-0.6,0-1.1-0.4-1.1-1c0-0.6,0.4-1.1,1-1.1
								c0,0,0,0,0,0C-33.3-20.3-32.8-19.8-32.8-19.3z"/>
							<path id="Trazado_99276" class="st5" d="M-23-19.3c0,0.6-0.4,1.1-1,1.1c-0.6,0-1.1-0.4-1.1-1c0-0.6,0.4-1.1,1-1.1
								c0,0,0,0,0,0C-23.5-20.3-23-19.8-23-19.3z"/>
							<path id="Trazado_99277" class="st5" d="M-13.2-19.3c0,0.6-0.4,1.1-1,1.1c-0.6,0-1.1-0.4-1.1-1c0-0.6,0.4-1.1,1-1.1
								c0,0,0,0,0,0C-13.7-20.3-13.2-19.8-13.2-19.3z"/>
							<path id="Trazado_99278" class="st5" d="M-3.4-19.3c0,0.6-0.4,1.1-1,1.1c-0.6,0-1.1-0.4-1.1-1c0-0.6,0.4-1.1,1-1.1
								c0,0,0,0,0,0C-3.9-20.3-3.4-19.8-3.4-19.3z"/>
							<path id="Trazado_99279" class="st5" d="M6.4-19.3c0,0.6-0.4,1.1-1,1.1c-0.6,0-1.1-0.4-1.1-1c0-0.6,0.4-1.1,1-1.1
								c0,0,0,0,0,0C5.9-20.3,6.3-19.8,6.4-19.3z"/>
							<path id="Trazado_99280" class="st5" d="M16.1-19.3c0,0.6-0.4,1.1-1,1.1c-0.6,0-1.1-0.4-1.1-1c0-0.6,0.4-1.1,1-1.1
								c0,0,0,0,0,0C15.6-20.3,16.1-19.8,16.1-19.3z"/>
							<path id="Trazado_99281" class="st5" d="M25.9-19.3c0,0.6-0.4,1.1-1,1.1c-0.6,0-1.1-0.4-1.1-1c0-0.6,0.4-1.1,1-1.1
								c0,0,0,0,0,0C25.4-20.3,25.9-19.8,25.9-19.3z"/>
							<path id="Trazado_99282" class="st5" d="M35.7-19.3c0,0.6-0.4,1.1-1,1.1c-0.6,0-1.1-0.4-1.1-1c0-0.6,0.4-1.1,1-1.1
								c0,0,0,0,0,0C35.2-20.3,35.7-19.8,35.7-19.3z"/>
							<path id="Trazado_99283" class="st5" d="M45.5-19.3c0,0.6-0.4,1.1-1,1.1c-0.6,0-1.1-0.4-1.1-1c0-0.6,0.4-1.1,1-1.1
								c0,0,0,0,0,0C45-20.3,45.5-19.8,45.5-19.3z"/>
							<path id="Trazado_99284" class="st5" d="M55.3-19.3c0,0.6-0.4,1.1-1,1.1c-0.6,0-1.1-0.4-1.1-1c0-0.6,0.4-1.1,1-1.1
								c0,0,0,0,0,0C54.8-20.3,55.3-19.8,55.3-19.3z"/>
						</g>
						<g id="Grupo_53316" transform="translate(0 83.145)">
							<ellipse id="Elipse_3980" class="st5" cx="-43.6" cy="-19.3" rx="1.1" ry="1"/>
							<path id="Trazado_99285" class="st5" d="M-32.8-19.3c0,0.6-0.4,1.1-1,1.1c-0.6,0-1.1-0.4-1.1-1c0-0.6,0.4-1.1,1-1.1
								c0,0,0,0,0,0C-33.3-20.3-32.8-19.8-32.8-19.3C-32.8-19.3-32.8-19.3-32.8-19.3z"/>
							<ellipse id="Elipse_3981" class="st5" cx="-24.1" cy="-19.3" rx="1.1" ry="1"/>
							<path id="Trazado_99286" class="st5" d="M-13.2-19.3c0,0.6-0.4,1.1-1,1.1c-0.6,0-1.1-0.4-1.1-1c0-0.6,0.4-1.1,1-1.1
								c0,0,0,0,0,0C-13.7-20.3-13.2-19.8-13.2-19.3z"/>
							<path id="Trazado_99287" class="st5" d="M-3.4-19.3c0,0.6-0.4,1.1-1,1.1c-0.6,0-1.1-0.4-1.1-1c0-0.6,0.4-1.1,1-1.1
								c0,0,0,0,0,0C-3.9-20.3-3.4-19.8-3.4-19.3C-3.4-19.3-3.4-19.3-3.4-19.3z"/>
							<ellipse id="Elipse_3982" class="st5" cx="5.3" cy="-19.3" rx="1.1" ry="1"/>
							<path id="Trazado_99288" class="st5" d="M16.1-19.3c0,0.6-0.4,1.1-1,1.1c-0.6,0-1.1-0.4-1.1-1c0-0.6,0.4-1.1,1-1.1
								c0,0,0,0,0,0C15.6-20.3,16.1-19.8,16.1-19.3z"/>
							<ellipse id="Elipse_3983" class="st5" cx="24.8" cy="-19.3" rx="1.1" ry="1"/>
							<ellipse id="Elipse_3984" class="st5" cx="34.6" cy="-19.3" rx="1.1" ry="1"/>
							<path id="Trazado_99289" class="st5" d="M45.5-19.3c0,0.6-0.4,1.1-1,1.1c-0.6,0-1.1-0.4-1.1-1c0-0.6,0.4-1.1,1-1.1
								c0,0,0,0,0,0C45-20.3,45.5-19.8,45.5-19.3z"/>
							<path id="Trazado_99290" class="st5" d="M55.3-19.3c0,0.6-0.4,1.1-1,1.1c-0.6,0-1.1-0.4-1.1-1c0-0.6,0.4-1.1,1-1.1
								c0,0,0,0,0,0C54.8-20.3,55.3-19.8,55.3-19.3z"/>
						</g>
						<g id="Grupo_53317" transform="translate(0 91.461)">
							<ellipse id="Elipse_3985" class="st5" cx="-43.6" cy="-19.3" rx="1.1" ry="1"/>
							<path id="Trazado_99291" class="st5" d="M-32.8-19.3c0,0.6-0.4,1.1-1,1.1c-0.6,0-1.1-0.4-1.1-1c0-0.6,0.4-1.1,1-1.1
								c0,0,0,0,0,0C-33.3-20.3-32.8-19.8-32.8-19.3C-32.8-19.3-32.8-19.3-32.8-19.3z"/>
							<ellipse id="Elipse_3986" class="st5" cx="-24.1" cy="-19.3" rx="1.1" ry="1"/>
							<path id="Trazado_99292" class="st5" d="M-13.2-19.3c0,0.6-0.4,1.1-1,1.1c-0.6,0-1.1-0.4-1.1-1c0-0.6,0.4-1.1,1-1.1
								c0,0,0,0,0,0C-13.7-20.3-13.2-19.8-13.2-19.3z"/>
							<path id="Trazado_99293" class="st5" d="M-3.4-19.3c0,0.6-0.4,1.1-1,1.1c-0.6,0-1.1-0.4-1.1-1c0-0.6,0.4-1.1,1-1.1
								c0,0,0,0,0,0C-3.9-20.3-3.4-19.8-3.4-19.3C-3.4-19.3-3.4-19.3-3.4-19.3z"/>
							<ellipse id="Elipse_3987" class="st5" cx="5.3" cy="-19.3" rx="1.1" ry="1"/>
							<path id="Trazado_99294" class="st5" d="M16.1-19.3c0,0.6-0.4,1.1-1,1.1c-0.6,0-1.1-0.4-1.1-1c0-0.6,0.4-1.1,1-1.1
								c0,0,0,0,0,0C15.6-20.3,16.1-19.8,16.1-19.3z"/>
							<ellipse id="Elipse_3988" class="st5" cx="24.8" cy="-19.3" rx="1.1" ry="1"/>
							<ellipse id="Elipse_3989" class="st5" cx="34.6" cy="-19.3" rx="1.1" ry="1"/>
							<path id="Trazado_99295" class="st5" d="M45.5-19.3c0,0.6-0.4,1.1-1,1.1c-0.6,0-1.1-0.4-1.1-1c0-0.6,0.4-1.1,1-1.1
								c0,0,0,0,0,0C45-20.3,45.5-19.8,45.5-19.3z"/>
							<path id="Trazado_99296" class="st5" d="M55.3-19.3c0,0.6-0.4,1.1-1,1.1c-0.6,0-1.1-0.4-1.1-1c0-0.6,0.4-1.1,1-1.1
								c0,0,0,0,0,0C54.8-20.3,55.3-19.8,55.3-19.3z"/>
						</g>
					</g>
				</g>
			</g>
		</g>
	</g>
	<g id="Grupo_145930" transform="translate(808.057 7065.619)">
		
			<linearGradient id="Trazado_252343_00000022523144195806370220000003990499764873316003_" gradientUnits="userSpaceOnUse" x1="-4.9207" y1="555.6735" x2="-5.7997" y2="556.7916" gradientTransform="matrix(230.3213 0 0 -224.9789 1571.1077 125375.5234)">
			<stop  offset="0" style="stop-color:#DAE3FE"/>
			<stop  offset="1" style="stop-color:#E9EFFD"/>
		</linearGradient>
		<path id="Trazado_252343" style="fill:url(#Trazado_252343_00000022523144195806370220000003990499764873316003_);" d="
			M383.5,260.4c-3.9,3.9-8.2,7.4-12.7,10.4c-41.6,29-90.7,20.5-101.2,18.5c-15.4-3-45.3-8.9-66.8-33.6
			c-32.6-37.3-27.6-96.1-2.2-134.9c4.6-7.1,29.1-46.5,78.8-52.8c30.1-3.8,65.1,3.9,90.5,24.6C423.1,136,419.3,223.7,383.5,260.4z"/>
		<g id="Grupo_145899" transform="translate(250.601 88.477)">
			
				<linearGradient id="Trazado_252344_00000114041949108471637130000004916924915802625162_" gradientUnits="userSpaceOnUse" x1="-255.4544" y1="468.3902" x2="-255.4544" y2="467.3902" gradientTransform="matrix(84.6672 0 0 -204.3237 21626.2305 95682.9141)">
				<stop  offset="0" style="stop-color:#29398A"/>
				<stop  offset="1" style="stop-color:#CEC2F2"/>
			</linearGradient>
			<path id="Trazado_252344" style="fill:url(#Trazado_252344_00000114041949108471637130000004916924915802625162_);" d="
				M15.5,183.7c-13.5,2.7-30.7-12.1-36.3-28.2c-5.7-16.6,4.8-23.5,4.8-46.5C-16,83-29.5,79-38.4,43.8c-2-7.9-13.6-53.9,0.9-62.5
				c13.5-7.9,51.2,15,57.7,44.3c4.7,20.9-9.9,29.6-4.4,53.9c4.8,21.3,17.7,21.7,22.6,42.2C44.3,146.7,33.3,180.2,15.5,183.7z"/>
			<path id="Trazado_252345" class="st8" d="M14.5,190c3.7-28.1-3.3-71.5-9.8-103C-2.4,53-10.4,25.2-10.5,24.9l-1.1,0.3
				c0.1,0.3,8.1,28,15.2,62c6.5,31.4,13.5,74.6,9.8,102.6L14.5,190z"/>
		</g>
		<g id="Grupo_145900" transform="translate(222.943 134.688)">
			
				<linearGradient id="Trazado_252346_00000044173308823071994370000009929272797506818970_" gradientUnits="userSpaceOnUse" x1="-227.8148" y1="421.766" x2="-227.8148" y2="420.766" gradientTransform="matrix(86.1266 0 0 -152.4308 19619.2617 64269.8398)">
				<stop  offset="0" style="stop-color:#7E89BE"/>
				<stop  offset="1" style="stop-color:#29398A"/>
			</linearGradient>
			<path id="Trazado_252346" style="fill:url(#Trazado_252346_00000044173308823071994370000009929272797506818970_);" d="
				M17.9,130.5c19.1-7.2,29.2-38.6,20.2-50.3c-6-7.9-16.9-1.7-25.5-10.2C1.5,59.2,12.7,42.7,5.9,18.7c-5.8-20.4-23.1-41.2-35-38.8
				C-41.6-17.6-49.5,11.1-41.4,30c5.3,12.3,13.4,13.9,14.3,24.8c1.1,12.7-12,16.8-13.5,28.8C-43.5,105.2-7.4,140,17.9,130.5z"/>
			
				<linearGradient id="Trazado_252347_00000083054384274099542440000003298943233633814435_" gradientUnits="userSpaceOnUse" x1="-245.442" y1="402.7997" x2="-246.62" y2="401.8106" gradientTransform="matrix(19.4063 0 0 -112.1664 4348.0601 47267.8945)">
				<stop  offset="0" style="stop-color:#233575"/>
				<stop  offset="1" style="stop-color:#29398A"/>
			</linearGradient>
			<path id="Trazado_252347" style="fill:url(#Trazado_252347_00000083054384274099542440000003298943233633814435_);" d="
				M7.2,137.6c0.4,0,0.8-0.2,0.8-0.6c0-0.1,0-0.2,0-0.3C-9.9,84.6-9.9,26.8-9.9,26.2c0-0.4-0.3-0.7-0.7-0.8s-0.7,0.3-0.8,0.7
				c0,0,0,0,0,0.1c0,0.6,0,58.7,18,110.9C6.6,137.4,6.9,137.5,7.2,137.6z"/>
			
				<linearGradient id="Trazado_252348_00000084521760262517691660000009593464537909246601_" gradientUnits="userSpaceOnUse" x1="-220.9553" y1="418.2428" x2="-219.9553" y2="418.2428" gradientTransform="matrix(10.9164 0 0 -53.3316 2371.4739 22317.582)">
				<stop  offset="0" style="stop-color:#DAE3FE"/>
				<stop  offset="1" style="stop-color:#E9EFFD"/>
			</linearGradient>
			<path id="Trazado_252348" style="fill:url(#Trazado_252348_00000084521760262517691660000009593464537909246601_);" d="
				M-30.4,38.7c0.2,0,0.4-0.1,0.4-0.3c0-0.1,0-0.2,0-0.2C-36.4,27.6-43,12-38.2-1.9c1.5-4.8,4.5-9,8.5-12.1c0.2-0.1,0.2-0.3,0.1-0.5
				c-0.1-0.2-0.3-0.2-0.5-0.1c-0.2,0.2-5.8,4-8.7,12.5c-2.7,7.8-3.4,21.2,8.2,40.6C-30.6,38.6-30.5,38.7-30.4,38.7z"/>
			<path id="Trazado_252349" class="st12" d="M20,126.4c0.1,0,0.2,0,0.3-0.1c13.6-15.5,19.1-28,16.4-37.3
				C34.3,80.7,26,78.2,25.9,78.2c-0.2-0.1-0.4,0.1-0.4,0.2c-0.1,0.2,0.1,0.4,0.2,0.4c0.1,0,8,2.4,10.3,10.3
				c2.6,9.1-2.9,21.4-16.3,36.7c-0.1,0.1-0.1,0.4,0,0.5C19.9,126.4,19.9,126.4,20,126.4L20,126.4z"/>
		</g>
		<g id="Grupo_145911" transform="translate(314.703 97.228)">
			<g id="Grupo_145905" transform="translate(0 0)">
				<g id="Grupo_145901" transform="translate(15.494)" class="st13">
					<path id="Trazado_252350" class="st14" d="M22.7,24.5c-0.6,0-1-0.5-1-1.1c0,0,0,0,0,0c0-1.1,0-2.3,0-3.4c0-0.6,0.4-1.1,1-1.1h0
						c0.6,0,1.1,0.4,1.1,1c0,0,0,0,0,0c0.1,1.2,0.1,2.4,0,3.6c0,0.5-0.4,1-1,1C22.8,24.5,22.7,24.5,22.7,24.5z M21.1,14.5
						c-0.2-1.1-0.5-2.2-0.8-3.3c-0.2-0.6,0.2-1.1,0.7-1.3c0.6-0.2,1.1,0.2,1.3,0.7l0,0c0.3,1.1,0.6,2.3,0.8,3.5
						c0.1,0.6-0.3,1.1-0.8,1.2c0,0-0.1,0-0.1,0C21.6,15.4,21.2,15,21.1,14.5z M18.5,6c-0.4-1-0.9-2.1-1.5-3.1
						c-0.3-0.5-0.1-1.2,0.5-1.4c0.5-0.3,1.1-0.1,1.4,0.4C19.4,2.9,20,4,20.4,5.1c0.2,0.5,0,1.2-0.5,1.4C19.4,6.8,18.8,6.5,18.5,6
						C18.5,6,18.5,6,18.5,6L18.5,6z M14.1-1.8c-0.7-0.9-1.4-1.8-2.1-2.7c-0.4-0.4-0.4-1.1,0.1-1.5c0.4-0.4,1.1-0.4,1.5,0.1
						c0,0,0,0,0,0C14.3-4.9,15.1-4,15.8-3c0.3,0.5,0.2,1.1-0.3,1.5C15-1.3,14.4-1.4,14.1-1.8L14.1-1.8z M8-8.4
						c-0.9-0.7-1.7-1.5-2.7-2.1c-0.5-0.3-0.6-1-0.2-1.5s1-0.6,1.5-0.2c1,0.7,1.9,1.5,2.8,2.2c0.4,0.4,0.5,1,0.1,1.5
						C9.1-8,8.5-8,8-8.4L8-8.4L8-8.4z M0.7-13.5c-1-0.5-2-1-3.1-1.5c-0.5-0.2-0.7-0.9-0.5-1.4c0.2-0.5,0.8-0.7,1.3-0.5
						c1.1,0.5,2.2,1,3.2,1.6c0.5,0.3,0.7,0.9,0.4,1.4C1.8-13.4,1.2-13.2,0.7-13.5L0.7-13.5L0.7-13.5z M-38.4-13.9
						c-0.3-0.5-0.1-1.1,0.4-1.4c0,0,0,0,0,0c1.1-0.6,2.1-1.1,3.2-1.6c0.5-0.2,1.2,0,1.4,0.6c0.2,0.5,0,1.2-0.6,1.4
						c-1,0.4-2.1,0.9-3.1,1.5C-37.5-13.2-38.1-13.4-38.4-13.9C-38.4-13.9-38.4-13.9-38.4-13.9L-38.4-13.9z M-7.6-16.8
						c-1.1-0.3-2.2-0.6-3.3-0.8c-0.6-0.1-1-0.6-0.9-1.2s0.6-1,1.2-0.9c0,0,0,0,0.1,0c1.2,0.2,2.3,0.5,3.5,0.8
						c0.6,0.2,0.9,0.7,0.7,1.3C-6.5-17-7.1-16.6-7.6-16.8L-7.6-16.8L-7.6-16.8z M-30-17.5c-0.2-0.6,0.2-1.1,0.7-1.3
						c1.1-0.3,2.3-0.6,3.5-0.8c0.6-0.1,1.1,0.3,1.2,0.9c0.1,0.5-0.3,1.1-0.8,1.2c-1.1,0.2-2.2,0.5-3.3,0.8
						C-29.2-16.6-29.8-17-30-17.5L-30-17.5z M-16.4-18.2c-1.1,0-2.3,0-3.4,0c-0.6,0-1.1-0.4-1.1-1c0-0.6,0.4-1,1-1.1h0
						c1.2-0.1,2.4-0.1,3.6,0c0.6,0,1,0.5,1,1.1c0,0.5-0.4,1-1,1C-16.4-18.2-16.4-18.2-16.4-18.2L-16.4-18.2z"/>
					<path id="Trazado_252351" class="st14" d="M-43.6-9.3c0.2,0,0.4-0.1,0.6-0.2c0.4-0.3,0.9-0.7,1.3-1c0.5-0.3,0.6-1,0.2-1.5
						c-0.3-0.5-1-0.6-1.5-0.2c-0.5,0.3-0.9,0.7-1.4,1c-0.5,0.4-0.5,1-0.2,1.5C-44.3-9.5-43.9-9.3-43.6-9.3L-43.6-9.3z"/>
				</g>
				<g id="Grupo_145902" transform="translate(0 35.372)" class="st13">
					<path id="Trazado_252352" class="st14" d="M-43.4-16.5c0.5,0,0.9-0.4,1-0.9c0.1-0.5,0.1-1.1,0.2-1.6c0.1-0.6-0.3-1.1-0.9-1.2
						c-0.6-0.1-1.1,0.3-1.2,0.9l0,0c-0.1,0.6-0.1,1.1-0.2,1.7c-0.1,0.6,0.4,1.1,0.9,1.1C-43.6-16.5-43.5-16.5-43.4-16.5L-43.4-16.5z
						"/>
					<path id="Trazado_252353" class="st14" d="M-2.2,28.4c-0.6,0.1-1.1-0.4-1.1-1s0.4-1.1,1-1.1c0.1,0,0.1,0,0.2,0
						c1.1,0,2.2-0.1,3.4-0.2c0.6-0.1,1.1,0.4,1.1,1c0.1,0.6-0.4,1.1-0.9,1.1l0,0c-0.5,0-1,0.1-1.5,0.1C-0.8,28.4-1.5,28.4-2.2,28.4z
						 M5.8,26.5c-0.1-0.6,0.2-1.1,0.8-1.3c1.1-0.3,2.2-0.6,3.2-0.9c0.6-0.2,1.1,0.1,1.3,0.7c0.2,0.6-0.1,1.1-0.7,1.3l0,0
						c-1.1,0.4-2.3,0.7-3.4,1c-0.1,0-0.1,0-0.2,0C6.3,27.3,5.9,27,5.8,26.5L5.8,26.5z M-7.9,28.1c-1.2-0.1-2.3-0.3-3.5-0.6
						c-0.6-0.1-0.9-0.7-0.8-1.3c0.1-0.5,0.7-0.9,1.2-0.8c1.1,0.2,2.2,0.4,3.3,0.6c0.6,0.1,1,0.6,0.9,1.2c-0.1,0.5-0.5,0.9-1,0.9
						C-7.8,28.1-7.8,28.1-7.9,28.1L-7.9,28.1z M14.3,23.7c-0.3-0.5,0-1.2,0.5-1.4c0,0,0,0,0,0c1-0.5,2-1,2.9-1.6
						c0.5-0.3,1.1-0.1,1.4,0.4c0.3,0.5,0.1,1.1-0.4,1.4l0,0c-1,0.6-2.1,1.2-3.1,1.7C15.2,24.4,14.6,24.2,14.3,23.7
						C14.3,23.7,14.3,23.7,14.3,23.7L14.3,23.7z M-16.9,26c-1.1-0.4-2.2-0.8-3.3-1.3c-0.5-0.2-0.8-0.9-0.5-1.4s0.9-0.8,1.4-0.5l0,0
						c1,0.5,2.1,0.9,3.1,1.3c0.5,0.2,0.8,0.8,0.6,1.4C-15.8,25.9-16.4,26.1-16.9,26z M-25.2,21.9c-1-0.6-2-1.3-2.9-2
						c-0.5-0.4-0.5-1-0.2-1.5c0.3-0.4,1-0.5,1.4-0.2c0.9,0.7,1.8,1.3,2.8,1.9c0.5,0.3,0.6,1,0.3,1.5C-24.1,22.1-24.7,22.2-25.2,21.9
						L-25.2,21.9L-25.2,21.9z M-32.4,16.1c-0.8-0.8-1.6-1.7-2.4-2.6c-0.4-0.4-0.3-1.1,0.1-1.5s1.1-0.3,1.5,0.1
						c0.7,0.8,1.5,1.7,2.3,2.5c0.4,0.4,0.4,1.1,0,1.5C-31.3,16.5-32,16.6-32.4,16.1C-32.4,16.1-32.4,16.1-32.4,16.1L-32.4,16.1z
						 M-38.2,8.9c-0.6-1-1.2-2-1.8-3.1c-0.3-0.5,0-1.2,0.5-1.4c0.5-0.2,1.1-0.1,1.4,0.4c0.5,1,1.1,2,1.7,2.9
						c0.3,0.5,0.1,1.1-0.4,1.4C-37.3,9.5-37.9,9.4-38.2,8.9L-38.2,8.9z M-42.3,0.6c-0.4-1.1-0.7-2.2-1-3.4c-0.1-0.6,0.2-1.1,0.7-1.3
						c0.6-0.1,1.1,0.2,1.3,0.7l0,0c0.3,1.1,0.6,2.2,1,3.2c0.2,0.5-0.1,1.1-0.6,1.3C-41.5,1.4-42.1,1.1-42.3,0.6L-42.3,0.6L-42.3,0.6
						z M-44.4-8.4c-0.1-0.9-0.2-1.7-0.2-2.6c0-0.3,0-0.6,0-0.9c0-0.6,0.4-1.1,1-1.1c0,0,0,0,0,0c0.6,0,1.1,0.4,1.1,1c0,0,0,0,0,0
						c0,0.3,0,0.6,0,0.9c0.1,0.8,0.1,1.6,0.2,2.5c0.1,0.6-0.3,1.1-0.9,1.2c0,0,0,0,0,0l-0.1,0C-43.9-7.5-44.4-7.9-44.4-8.4
						L-44.4-8.4z"/>
					<path id="Trazado_252354" class="st14" d="M23,19.4c0.2,0,0.4-0.1,0.6-0.2c0.4-0.4,0.9-0.7,1.3-1.1c0.4-0.4,0.5-1,0.1-1.5
						s-1-0.5-1.5-0.1c-0.4,0.4-0.8,0.7-1.3,1.1c-0.5,0.4-0.5,1-0.2,1.5C22.3,19.3,22.6,19.4,23,19.4L23,19.4z"/>
				</g>
				<g id="Grupo_145904" transform="translate(10.258 10.019)">
					<path id="Trazado_252355" class="st15" d="M14.7,26.8c0.1-0.2,0.1-0.4,0-0.6l-3.5-4.9c1.1-2.6,1.7-5.4,1.9-8.2l5.3-2.8
						c0.2-0.1,0.3-0.3,0.3-0.5l-1.2-7.1c0-0.2-0.2-0.4-0.4-0.4l-5.9-1c-1.1-2.6-2.6-5-4.5-7.2l1.7-5.7c0.1-0.2,0-0.4-0.2-0.5
						l-5.8-4.2c-0.2-0.1-0.4-0.1-0.6,0L-3-12.9c-2.6-1.1-5.4-1.7-8.2-1.9l-2.8-5.3c-0.1-0.2-0.3-0.3-0.5-0.3l-7.1,1.2
						c-0.2,0-0.4,0.2-0.4,0.4l-1,5.9c-2.6,1.1-5,2.6-7.2,4.5l-5.7-1.7c-0.2-0.1-0.4,0-0.5,0.2L-40.7-4c-0.1,0.2-0.1,0.4,0,0.6
						l3.5,4.9C-38.4,4-39,6.8-39.2,9.7l-5.3,2.8c-0.2,0.1-0.3,0.3-0.3,0.5l1.2,7.1c0,0.2,0.2,0.4,0.4,0.4l5.9,1
						c1.1,2.6,2.6,5,4.5,7.2l-1.7,5.7c-0.1,0.2,0,0.4,0.2,0.5l5.8,4.2c0.2,0.1,0.4,0.1,0.6,0l4.9-3.5c2.6,1.1,5.4,1.7,8.2,1.9
						l2.8,5.3c0.1,0.2,0.3,0.3,0.5,0.3l7.1-1.2c0.2,0,0.4-0.2,0.4-0.4l1-5.9c2.6-1.1,5-2.6,7.2-4.5l5.7,1.7c0.2,0.1,0.4,0,0.5-0.2
						L14.7,26.8z"/>
					<g id="Grupo_145903" transform="translate(24.481 24.481)">
						<path id="Trazado_252356" class="st16" d="M-38.1-5.9c-4-0.3-6.9-3.8-6.6-7.8c0.3-4,3.8-6.9,7.8-6.6s6.9,3.8,6.6,7.8
							c-0.3,3.6-3.2,6.4-6.7,6.6C-37.4-5.9-37.7-5.9-38.1-5.9z M-41.1-17.3c-2.3,2-2.6,5.5-0.6,7.8s5.5,2.6,7.8,0.6
							c2.3-2,2.6-5.5,0.6-7.8c-0.9-1.1-2.3-1.8-3.8-1.9c-0.3,0-0.5,0-0.8,0C-39-18.5-40.2-18.1-41.1-17.3z"/>
					</g>
					<path id="Trazado_252357" class="st16" d="M-12,29c0.6,0,1.2-0.1,1.8-0.2l0,0c0.2,0,0.4-0.1,0.6-0.1c0.9-0.2,1.8-0.4,2.7-0.8
						l0,0l0.1,0l0.2-0.1c0.2-0.1,0.3-0.2,0.3-0.4c0,0,0-0.1,0-0.1C-6.4,27-6.7,26.9-6.9,27c-6.6,2.6-14.1,0.8-18.8-4.4
						c-2.1-2.4-3.6-5.3-4.1-8.5c-0.1-0.6-0.2-1.1-0.2-1.7C-30.6,3-23.5-5-14.2-5.6C-5.5-6.1,2.1,0,3.5,8.5c0.1,0.6,0.2,1.1,0.2,1.7
						c0.2,2.5-0.2,4.9-1.1,7.3c-0.1,0.2,0,0.5,0.2,0.6s0.5,0,0.6-0.2c0,0,0,0,0,0C7,8.7,2.5-1.6-6.7-5.2c-9.1-3.6-19.4,0.9-23,10
						c-0.9,2.4-1.3,5-1.2,7.6c0,0.6,0.1,1.2,0.2,1.8C-29.2,23.2-21.1,29.6-12,29L-12,29z"/>
				</g>
			</g>
			<g id="Grupo_145910" transform="translate(69.49 35.456)">
				<g id="Grupo_145906" transform="translate(17.178)" class="st13">
					<path id="Trazado_252358" class="st14" d="M-10.8,14.5c0.3,0,0.5-0.2,0.6-0.5c0.1-0.5,0.2-1.1,0.3-1.6c0.1-0.4-0.2-0.7-0.5-0.7
						c-0.4-0.1-0.7,0.2-0.7,0.5l0,0c-0.1,0.5-0.2,1-0.3,1.6c-0.1,0.4,0.1,0.7,0.5,0.8C-10.9,14.5-10.8,14.5-10.8,14.5z"/>
					<path id="Trazado_252359" class="st14" d="M-10.2,9.5c-0.4,0-0.6-0.3-0.6-0.7c0-0.9,0-1.8,0-2.7c0-0.2,0-0.4,0-0.6
						c0-0.4,0.2-0.7,0.6-0.7c0.4,0,0.7,0.2,0.7,0.6c0,0.2,0,0.4,0,0.6c0.1,1,0.1,1.9,0,2.9C-9.5,9.2-9.8,9.5-10.2,9.5
						C-10.1,9.5-10.1,9.5-10.2,9.5z M-11.4,2.3c-0.2-1.1-0.5-2.1-0.9-3.2c-0.1-0.3,0.1-0.7,0.4-0.8c0.3-0.1,0.7,0.1,0.8,0.4
						c0.4,1.1,0.7,2.2,0.9,3.3c0.1,0.4-0.1,0.7-0.5,0.8c0,0-0.1,0-0.1,0C-11,2.8-11.3,2.6-11.4,2.3L-11.4,2.3z M-13.5-4
						c-0.5-1-1-1.9-1.6-2.9c-0.2-0.3-0.1-0.7,0.2-0.9c0.3-0.2,0.7-0.1,0.9,0.2c0.6,1,1.2,2,1.7,3c0.2,0.3,0,0.7-0.3,0.9c0,0,0,0,0,0
						c-0.1,0-0.2,0.1-0.2,0.1C-13.1-3.6-13.4-3.7-13.5-4L-13.5-4z M-17.1-9.5c-0.7-0.8-1.5-1.6-2.3-2.4c-0.3-0.2-0.3-0.7,0-0.9
						s0.7-0.3,0.9,0c0.8,0.8,1.6,1.6,2.4,2.5c0.2,0.3,0.2,0.7-0.1,0.9C-16.4-9.2-16.9-9.2-17.1-9.5L-17.1-9.5z M-21.9-14
						c-0.9-0.6-1.8-1.2-2.8-1.8c-0.3-0.2-0.4-0.6-0.3-0.9c0.2-0.3,0.6-0.4,0.9-0.3c1,0.6,2,1.2,2.9,1.8c0.3,0.2,0.4,0.6,0.1,0.9
						S-21.6-13.7-21.9-14L-21.9-14L-21.9-14z M-27.7-17.1c-1-0.4-2.1-0.7-3.1-1c-0.3-0.1-0.5-0.5-0.5-0.8c0.1-0.3,0.4-0.5,0.8-0.5
						c1.1,0.3,2.2,0.6,3.3,1.1c0.3,0.1,0.5,0.5,0.4,0.8c-0.1,0.2-0.3,0.4-0.6,0.4C-27.5-17.1-27.6-17.1-27.7-17.1L-27.7-17.1z
						 M-34.1-18.8c-1.1-0.1-2.2-0.2-3.3-0.2c-0.4,0-0.6-0.3-0.6-0.7c0-0.4,0.3-0.6,0.7-0.6l0,0c1.2,0,2.3,0.1,3.5,0.2
						c0.4,0,0.6,0.4,0.6,0.7c0,0.3-0.3,0.5-0.6,0.6C-34-18.8-34-18.8-34.1-18.8L-34.1-18.8z M-44.7-18.7c-0.1-0.3,0.1-0.7,0.5-0.8
						c1-0.2,2-0.4,3-0.6c0.2,0,0.3,0,0.5-0.1c0.4,0,0.7,0.2,0.7,0.6c0,0.4-0.2,0.7-0.6,0.7l0,0c-0.1,0-0.3,0-0.4,0.1
						c-0.9,0.1-1.9,0.3-2.8,0.5C-44.3-18.1-44.6-18.4-44.7-18.7L-44.7-18.7z"/>
				</g>
				<g id="Grupo_145907" transform="translate(0 41.261)" class="st13">
					<path id="Trazado_252360" class="st14" d="M-19-5.4c-1.1,0.1-2.3,0-3.4,0c-0.4,0-0.6-0.3-0.6-0.7s0.3-0.6,0.7-0.6
						c1.1,0.1,2.2,0.1,3.2,0c0.4,0,0.7,0.3,0.7,0.6C-18.3-5.8-18.6-5.5-19-5.4L-19-5.4z M-16.4-6.3c-0.1-0.4,0.2-0.7,0.5-0.8
						c1.1-0.2,2.1-0.4,3.2-0.7c0.3-0.1,0.7,0.1,0.8,0.4c0.1,0.3-0.1,0.7-0.4,0.8c-1.1,0.3-2.2,0.6-3.3,0.8c0,0,0,0-0.1,0
						C-16-5.8-16.3-6-16.4-6.3L-16.4-6.3z M-25.8-5.9c-1.1-0.2-2.2-0.5-3.3-0.9c-0.3-0.1-0.5-0.5-0.4-0.8c0.1-0.3,0.5-0.5,0.8-0.4
						c1,0.3,2.1,0.6,3.1,0.8c0.4,0.1,0.6,0.4,0.5,0.7C-25-6.1-25.4-5.9-25.8-5.9C-25.7-5.9-25.8-5.9-25.8-5.9L-25.8-5.9z M-10-8.1
						c-0.1-0.3,0-0.7,0.3-0.9c1-0.4,2-0.9,2.9-1.5c0.3-0.2,0.7-0.1,0.9,0.2c0.2,0.3,0.1,0.7-0.2,0.9c-1,0.6-2,1.1-3,1.6
						C-9.4-7.6-9.8-7.8-10-8.1C-9.9-8.1-9.9-8.1-10-8.1L-10-8.1z M-32.2-8c-1-0.5-2-1-3-1.6c-0.3-0.2-0.4-0.6-0.1-0.9
						c0.2-0.3,0.5-0.3,0.8-0.2c0.9,0.6,1.9,1.1,2.9,1.5c0.3,0.2,0.5,0.5,0.3,0.9C-31.5-8-31.9-7.9-32.2-8L-32.2-8z M-38-11.6
						c-0.9-0.7-1.7-1.5-2.5-2.3c-0.2-0.3-0.2-0.7,0-0.9c0.3-0.2,0.7-0.2,0.9,0c0.8,0.8,1.6,1.5,2.4,2.2c0.3,0.2,0.3,0.6,0.1,0.9
						C-37.3-11.4-37.7-11.4-38-11.6L-38-11.6z M-42.7-16.5c-0.7-0.9-1.3-1.8-1.9-2.8c-0.2-0.3-0.1-0.7,0.2-0.9
						c0.3-0.2,0.7-0.1,0.9,0.2c0,0,0,0,0,0c0.5,0.9,1.2,1.8,1.8,2.7c0.2,0.3,0.2,0.7-0.1,0.9c0,0,0,0,0,0c-0.1,0.1-0.2,0.1-0.4,0.1
						C-42.4-16.2-42.6-16.3-42.7-16.5L-42.7-16.5z"/>
					<path id="Trazado_252361" class="st14" d="M-3.6-11.1c0.1,0,0.3-0.1,0.4-0.1c0.4-0.3,0.9-0.7,1.3-1.1c0.3-0.2,0.3-0.6,0.1-0.9
						c-0.2-0.3-0.6-0.3-0.9-0.1c-0.4,0.3-0.8,0.7-1.2,1c-0.3,0.2-0.3,0.6-0.1,0.9C-4-11.2-3.8-11.1-3.6-11.1L-3.6-11.1z"/>
				</g>
				<g id="Grupo_145909" transform="translate(3.095 6.652)">
					<path id="Trazado_252362" class="st17" d="M-4.9,11.2c0.1-0.1,0.1-0.3,0-0.4l-2.3-3.3C-6.5,5.8-6.1,4-6,2.1l3.5-1.9
						C-2.3,0.1-2.3,0-2.3-0.2l-0.8-4.7c0-0.1-0.1-0.2-0.3-0.3l-3.9-0.7c-0.7-1.8-1.7-3.4-3-4.8l1.1-3.8c0-0.1,0-0.3-0.1-0.4
						l-3.9-2.8c-0.1-0.1-0.3-0.1-0.4,0l-3.3,2.3c-1.8-0.7-3.6-1.2-5.5-1.3l-1.9-3.5c-0.1-0.1-0.2-0.2-0.3-0.2l-4.7,0.8
						c-0.1,0-0.2,0.1-0.3,0.3l-0.7,3.9c-1.8,0.7-3.4,1.7-4.8,3l-3.8-1.1c-0.1,0-0.3,0-0.4,0.1l-2.8,3.9c-0.1,0.1-0.1,0.3,0,0.4
						l2.3,3.3C-40.5-4-40.9-2.2-41-0.3l-3.5,1.9c-0.1,0.1-0.2,0.2-0.2,0.3l0.8,4.7c0,0.1,0.1,0.2,0.3,0.3l3.9,0.7
						c0.7,1.8,1.7,3.4,3,4.8l-1.1,3.8c0,0.1,0,0.3,0.1,0.4l3.9,2.8c0.1,0.1,0.3,0.1,0.4,0l3.3-2.3c1.8,0.7,3.6,1.2,5.5,1.3l1.9,3.5
						c0.1,0.1,0.2,0.2,0.3,0.2l4.7-0.8c0.1,0,0.2-0.1,0.3-0.3l0.7-3.9c1.8-0.7,3.4-1.7,4.8-3l3.8,1.1c0.1,0,0.3,0,0.4-0.1L-4.9,11.2
						z"/>
					<g id="Grupo_145908" transform="translate(16.295 16.295)">
						<path id="Trazado_252363" class="st16" d="M-40.2-10.5c-2.7-0.2-4.7-2.6-4.5-5.3c0.2-2.7,2.6-4.7,5.3-4.5s4.7,2.6,4.5,5.3
							c-0.2,2.4-2.1,4.3-4.6,4.5C-39.7-10.5-40-10.5-40.2-10.5z M-43.4-15.7c-0.2,2,1.3,3.7,3.3,3.9l0,0c2,0.2,3.7-1.3,3.9-3.3
							c0.2-2-1.3-3.7-3.3-3.9c-0.2,0-0.4,0-0.5,0C-41.8-18.9-43.3-17.5-43.4-15.7L-43.4-15.7z"/>
					</g>
					<path id="Trazado_252364" class="st16" d="M-22.8,13.1c0.4,0,0.8-0.1,1.2-0.1c0.8-0.1,1.6-0.4,2.4-0.7l0.1,0
						c0.3-0.1,0.4-0.4,0.4-0.6c0-0.1,0-0.1,0-0.2c-0.1-0.3-0.5-0.5-0.8-0.4c-0.7,0.3-1.5,0.5-2.2,0.6l0,0l-0.1,0
						c-1.8,0.3-3.6,0.1-5.3-0.5c-0.9-0.3-1.8-0.8-2.6-1.4l0,0l-0.1,0c-2.4-1.7-4-4.2-4.4-7.1c-0.1-0.4-0.1-0.7-0.1-1.1
						c-0.4-6,4.2-11.2,10.3-11.6c6-0.4,11.2,4.2,11.6,10.3c0.1,1.6-0.2,3.2-0.7,4.7c0,0.1-0.1,0.2,0,0.3c0,0.4,0.3,0.6,0.7,0.6
						c0.3,0,0.5-0.2,0.6-0.4c2.5-6.3-0.6-13.4-6.9-15.9C-25.4-13-32.5-9.9-35-3.6c-0.7,1.7-0.9,3.4-0.8,5.2c0,0.4,0.1,0.8,0.1,1.3
						C-34.6,9-29.1,13.5-22.8,13.1z"/>
				</g>
			</g>
		</g>
		<g id="Grupo_145914" transform="translate(239.691 168.626)">
			<path id="Trazado_252365" class="st18" d="M-35.1,98.4c0,1.9,1.6,3.5,3.5,3.5h188.8c1.9,0,3.5-1.6,3.5-3.5l1.6-108.5
				c-0.4-3.2-3.2-5.6-6.4-5.4l-184.5-4.8c-4.9-0.1-8.9,3.7-9,8.6c0,0.1,0,0.3,0,0.4L-35.1,98.4z"/>
			<path id="Trazado_252366" class="st19" d="M-31.6,95c0,1.8,1.5,3.3,3.3,3.3h181c1.8,0,3.3-1.5,3.3-3.3l1.5-98.5
				c-0.2-5.9-5.4-8.1-8.5-7.9l-176.9-4.7c-3.4-0.1-6.3,2.6-6.3,6c0,0.1,0,0.2,0,0.3L-31.6,95z"/>
			<path id="Trazado_252367" class="st20" d="M-31.6,95c0,1.8,1.5,3.3,3.3,3.3h178.9c1.8,0,3.3-1.5,3.3-3.3l1.5-98.5
				c-0.1-4.5-3.7-8-8.2-7.9c-0.1,0-0.2,0-0.2,0L-28-16.2c-1.7,0-3.3,0.6-4.5,1.8c-1.2,1.2-1.8,2.8-1.8,4.5L-31.6,95z"/>
			<g id="Grupo_145912" transform="translate(135.036 9.247)">
				<path id="Trazado_252368" class="st14" d="M19,25.4L19,25.4c-0.2,0-0.5-0.1-0.5-0.4l0.1-6.2c0-0.2,0.3-0.4,0.5-0.4h0
					c0.2,0,0.4,0.1,0.5,0.4l-0.1,6.2C19.5,25.3,19.3,25.5,19,25.4z"/>
				<path id="Trazado_252369" class="st14" d="M19.3,10.3L19.3,10.3c-0.2,0-0.5-0.1-0.5-0.4l0.4-23.6c0-1.3-0.6-2.6-1.6-3.3
					c-1.6-1-3.5-1.5-5.3-1.4l-56.5-1.2c-0.2,0-0.4-0.1-0.5-0.3s0.1-0.4,0.3-0.5c0.1,0,0.1,0,0.2,0l56.5,1.2c2.1-0.1,4.2,0.5,6,1.6
					c1.2,0.9,2,2.3,1.9,3.9L19.8,10C19.8,10.2,19.5,10.4,19.3,10.3z"/>
			</g>
			<path id="Rectángulo_44105" class="st18" d="M163.6,110.9H-39.9c-2.6,0-4.8-2.1-4.8-4.8l0,0c0-2.6,2.1-4.8,4.8-4.8h203.5
				c2.6,0,4.8,2.1,4.8,4.8l0,0C168.3,108.7,166.2,110.9,163.6,110.9z"/>
			<g id="Grupo_145913" transform="translate(23.438 9.101)">
				<path id="Rectángulo_44106" class="st21" d="M-44.1-11.1l0-3.3c0-0.3,0.2-0.5,0.5-0.5l48.3,0.3c0.3,0,0.5,0.2,0.5,0.5l0,3.3
					c0,0.3-0.2,0.5-0.5,0.5l-48.3-0.3C-43.9-10.6-44.1-10.8-44.1-11.1z"/>
				<path id="Rectángulo_44107" class="st21" d="M18.8-10.6l0-3.3c0-0.3,0.2-0.5,0.5-0.5l16.3,0.1c0.3,0,0.5,0.2,0.5,0.5l0,3.3
					c0,0.3-0.2,0.5-0.5,0.5l-16.3-0.1C19-10.1,18.8-10.3,18.8-10.6z"/>
				<path id="Rectángulo_44108" class="st21" d="M41.8-14.3l29.8,0.2c1.2,0,2.2,1,2.2,2.2l0,0c0,1.2-1,2.2-2.2,2.2L41.8-9.9
					c-1.2,0-2.2-1-2.2-2.2l0,0C39.7-13.3,40.6-14.3,41.8-14.3z"/>
				<path id="Rectángulo_44109" class="st21" d="M-42-7.3l8.9,0.1c1.2,0,2.2,1,2.2,2.2l0,0c0,1.2-1,2.2-2.2,2.2L-42-3
					c-1.2,0-2.2-1-2.2-2.2l0,0C-44.2-6.3-43.2-7.3-42-7.3z"/>
				<path id="Rectángulo_44110" class="st21" d="M-30.6-3.4l0-3.3c0-0.3,0.2-0.5,0.5-0.5L4.8-7c0.3,0,0.5,0.2,0.5,0.5l0,3.3
					c0,0.3-0.2,0.5-0.5,0.5l-34.8-0.2C-30.4-2.9-30.6-3.1-30.6-3.4z"/>
				<path id="Rectángulo_44111" class="st21" d="M21.1-6.8l13,0.1c1.2,0,2.2,1,2.2,2.2l0,0c0,1.2-1,2.2-2.2,2.2L21-2.4
					c-1.2,0-2.2-1-2.2-2.2l0,0C18.9-5.8,19.9-6.8,21.1-6.8z"/>
				<path id="Rectángulo_44112" class="st21" d="M53.9-6.5l45.7,0.3c1.2,0,2.2,1,2.2,2.2l0,0c0,1.2-1,2.2-2.2,2.2L53.8-2.2
					c-1.2,0-2.2-1-2.2-2.2l0,0C51.7-5.6,52.7-6.5,53.9-6.5z"/>
				<path id="Rectángulo_44113" class="st21" d="M-44.3,3.7l0-2.4c0-0.5,0.5-1,1-1L-32,0.4c0.5,0,1,0.5,1,1l0,2.4c0,0.5-0.5,1-1,1
					l-11.2-0.1C-43.8,4.7-44.3,4.2-44.3,3.7z"/>
				<path id="Rectángulo_44114" class="st21" d="M-30.7,4.2l0-3.3c0-0.3,0.2-0.5,0.5-0.5L4.7,0.7c0.3,0,0.5,0.2,0.5,0.5l0,3.3
					C5.2,4.8,5,5,4.7,5l-34.8-0.2C-30.4,4.8-30.7,4.5-30.7,4.2z"/>
				<path id="Rectángulo_44115" class="st21" d="M18.8,4.7l0-3.3c0-0.3,0.2-0.5,0.5-0.5L35.6,1c0.3,0,0.5,0.2,0.5,0.5l0,3.3
					c0,0.3-0.2,0.5-0.5,0.5L19.3,5.2C19,5.2,18.8,5,18.8,4.7z"/>
				<path id="Rectángulo_44116" class="st21" d="M59.9,1.1l60.9,0.4c1.2,0,2.2,1,2.2,2.2l0,0c0,1.2-1,2.2-2.2,2.2L59.9,5.5
					c-1.2,0-2.2-1-2.2-2.2l0,0C57.8,2.1,58.7,1.1,59.9,1.1z"/>
				<path id="Rectángulo_44117" class="st21" d="M-44.2,11.3l0-2.4c0-0.5,0.5-1,1-1L-32,8c0.5,0,1,0.5,1,1l0,2.4c0,0.5-0.5,1-1,1
					l-11.2-0.1C-43.8,12.3-44.2,11.9-44.2,11.3z"/>
				<path id="Rectángulo_44118" class="st21" d="M-30.5,11.9l0-3.3c0-0.3,0.2-0.5,0.5-0.5L4.8,8.3c0.3,0,0.5,0.2,0.5,0.5l0,3.3
					c0,0.3-0.2,0.5-0.5,0.5L-30,12.4C-30.3,12.4-30.5,12.2-30.5,11.9z"/>
				<path id="Rectángulo_44119" class="st21" d="M21.1,8.5l13,0.1c1.2,0,2.2,1,2.2,2.2l0,0c0,1.2-1,2.2-2.2,2.2l-13-0.1
					c-1.2,0-2.2-1-2.2-2.2l0,0C18.9,9.5,19.9,8.5,21.1,8.5z"/>
				<path id="Rectángulo_44120" class="st21" d="M60.2,8.8l60.9,0.4c1.2,0,2.2,1,2.2,2.2l0,0c0,1.2-1,2.2-2.2,2.2l-60.9-0.4
					c-1.2,0-2.2-1-2.2-2.2l0,0C58,9.8,59,8.8,60.2,8.8z"/>
				<path id="Rectángulo_44121" class="st21" d="M-44.3,19.3l0-2.4c0-0.5,0.5-1,1-1l11.2,0.1c0.5,0,1,0.5,1,1l0,2.4
					c0,0.5-0.5,1-1,1l-11.2-0.1C-43.9,20.2-44.3,19.8-44.3,19.3z"/>
				<path id="Rectángulo_44122" class="st21" d="M-30.7,19.8l0-3.3c0-0.3,0.2-0.5,0.5-0.5l34.8,0.2c0.3,0,0.5,0.2,0.5,0.5l0,3.3
					c0,0.3-0.2,0.5-0.5,0.5l-34.8-0.2C-30.4,20.4-30.7,20.1-30.7,19.8z"/>
				<path id="Rectángulo_44123" class="st21" d="M18.8,20.3l0-3.3c0-0.3,0.2-0.5,0.5-0.5l16.3,0.1c0.3,0,0.5,0.2,0.5,0.5l0,3.3
					c0,0.3-0.2,0.5-0.5,0.5l-16.3-0.1C19,20.8,18.8,20.6,18.8,20.3z"/>
				<path id="Rectángulo_44124" class="st21" d="M60,16.7l60.9,0.4c1.2,0,2.2,1,2.2,2.2l0,0c0,1.2-1,2.2-2.2,2.2L60,21.1
					c-1.2,0-2.2-1-2.2-2.2l0,0C57.9,17.7,58.8,16.7,60,16.7z"/>
				<path id="Rectángulo_44125" class="st21" d="M-44.3,26.9l0-2.4c0-0.5,0.5-1,1-1l11.2,0.1c0.5,0,1,0.5,1,1l0,2.4
					c0,0.5-0.5,1-1,1l-11.2-0.1C-43.8,27.9-44.3,27.4-44.3,26.9z"/>
				<path id="Rectángulo_44126" class="st21" d="M-30.5,27.5l0-3.3c0-0.3,0.2-0.5,0.5-0.5l34.8,0.2c0.3,0,0.5,0.2,0.5,0.5l0,3.3
					c0,0.3-0.2,0.5-0.5,0.5L-30,28C-30.3,28-30.5,27.8-30.5,27.5z"/>
				<path id="Rectángulo_44127" class="st21" d="M21.1,24.1l13,0.1c1.2,0,2.2,1,2.2,2.2l0,0c0,1.2-1,2.2-2.2,2.2l-13-0.1
					c-1.2,0-2.2-1-2.2-2.2l0,0C18.9,25.1,19.9,24.1,21.1,24.1z"/>
				<path id="Rectángulo_44128" class="st21" d="M41.6,24.3l35.6,0.2c1.2,0,2.2,1,2.2,2.2l0,0c0,1.2-1,2.2-2.2,2.2l-35.6-0.2
					c-1.2,0-2.2-1-2.2-2.2l0,0C39.4,25.2,40.4,24.2,41.6,24.3z"/>
				<path id="Rectángulo_44129" class="st21" d="M-44.3,35l0-3.3c0-0.3,0.2-0.5,0.5-0.5l48.5,0.3c0.3,0,0.5,0.2,0.5,0.5l0,3.3
					c0,0.3-0.2,0.5-0.5,0.5l-48.5-0.3C-44.1,35.5-44.3,35.3-44.3,35z"/>
				<path id="Rectángulo_44130" class="st21" d="M18.8,35.6l0-3.3c0-0.3,0.2-0.5,0.5-0.5l16.3,0.1c0.3,0,0.5,0.2,0.5,0.5l0,3.3
					c0,0.3-0.2,0.5-0.5,0.5l-16.3-0.1C19,36.1,18.8,35.9,18.8,35.6z"/>
				<path id="Rectángulo_44131" class="st21" d="M50.5,31.9L96,32.3c1.2,0,2.2,1,2.2,2.2l0,0c0,1.2-1,2.2-2.2,2.2l-45.5-0.3
					c-1.2,0-2.2-1-2.2-2.2l0,0C48.3,32.9,49.3,31.9,50.5,31.9z"/>
				<path id="Rectángulo_44132" class="st21" d="M-44.2,42.2l0-2.4c0-0.5,0.5-1,1-1l10.7,0.1c0.5,0,1,0.5,1,1l0,2.4
					c0,0.5-0.5,1-1,1l-10.7-0.1C-43.8,43.2-44.2,42.7-44.2,42.2z"/>
				<path id="Rectángulo_44133" class="st21" d="M-30.5,42.8l0-3.3c0-0.3,0.2-0.5,0.5-0.5l34.8,0.2c0.3,0,0.5,0.2,0.5,0.5l0,3.3
					c0,0.3-0.2,0.5-0.5,0.5l-34.8-0.2C-30.2,43.3-30.5,43.1-30.5,42.8z"/>
				<path id="Rectángulo_44134" class="st21" d="M21.1,39.4l13,0.1c1.2,0,2.2,1,2.2,2.2l0,0c0,1.2-1,2.2-2.2,2.2l-13-0.1
					c-1.2,0-2.2-1-2.2-2.2l0,0C18.9,40.3,19.9,39.4,21.1,39.4z"/>
				<path id="Rectángulo_44135" class="st21" d="M58.1,39.7l63.1,0.4c1.2,0,2.2,1,2.2,2.2l0,0c0,1.2-1,2.2-2.2,2.2L58.1,44
					c-1.2,0-2.2-1-2.2-2.2l0,0C55.9,40.6,56.9,39.6,58.1,39.7z"/>
				<path id="Rectángulo_44136" class="st21" d="M-42.5,61.7l8.9,0.1c1.2,0,2.2,1,2.2,2.2l0,0c0,1.2-1,2.2-2.2,2.2l-8.9-0.1
					c-1.2,0-2.2-1-2.2-2.2c0,0,0,0,0,0l0,0C-44.7,62.6-43.7,61.7-42.5,61.7C-42.5,61.7-42.5,61.7-42.5,61.7z"/>
				<path id="Rectángulo_44137" class="st21" d="M-31,65.6l0-3.3c0-0.3,0.2-0.5,0.5-0.5L4.4,62c0.3,0,0.5,0.2,0.5,0.5l0,3.3
					c0,0.3-0.2,0.5-0.5,0.5l-34.8-0.2C-30.7,66.1-31,65.9-31,65.6z"/>
				<path id="Rectángulo_44138" class="st21" d="M20.6,62.2l13,0.1c1.2,0,2.2,1,2.2,2.2l0,0c0,1.2-1,2.2-2.2,2.2l-13-0.1
					c-1.2,0-2.2-1-2.2-2.2l0,0C18.4,63.2,19.4,62.2,20.6,62.2z"/>
				<path id="Rectángulo_44139" class="st21" d="M41.1,62.4l35.6,0.2c1.2,0,2.2,1,2.2,2.2l0,0c0,1.2-1,2.2-2.2,2.2l-35.6-0.2
					c-1.2,0-2.2-1-2.2-2.2l0,0C38.9,63.3,39.9,62.3,41.1,62.4z"/>
				<path id="Rectángulo_44140" class="st21" d="M-44.7,73.1l0-3.3c0-0.3,0.2-0.5,0.5-0.5l48.5,0.3c0.3,0,0.5,0.2,0.5,0.5l0,3.3
					c0,0.3-0.2,0.5-0.5,0.5l-48.5-0.3C-44.5,73.6-44.7,73.4-44.7,73.1z"/>
				<path id="Rectángulo_44141" class="st21" d="M18.3,73.7l0-3.3c0-0.3,0.2-0.5,0.5-0.5L35.2,70c0.3,0,0.5,0.2,0.5,0.5l0,3.3
					c0,0.3-0.2,0.5-0.5,0.5l-16.3-0.1C18.6,74.2,18.3,74,18.3,73.7z"/>
				<path id="Rectángulo_44142" class="st21" d="M50,70.1l45.5,0.3c1.2,0,2.2,1,2.2,2.2l0,0c0,1.2-1,2.2-2.2,2.2L50,74.4
					c-1.2,0-2.2-1-2.2-2.2l0,0C47.9,71,48.8,70,50,70.1z"/>
				<path id="Rectángulo_44143" class="st21" d="M-44.7,80.3l0-2.4c0-0.5,0.5-1,1-1L-33,77c0.5,0,1,0.5,1,1l0,2.4c0,0.5-0.5,1-1,1
					l-10.7-0.1C-44.3,81.3-44.7,80.8-44.7,80.3z"/>
				<path id="Rectángulo_44144" class="st21" d="M-30.9,80.9l0-3.3c0-0.3,0.2-0.5,0.5-0.5l34.8,0.2c0.3,0,0.5,0.2,0.5,0.5l0,3.3
					c0,0.3-0.2,0.5-0.5,0.5l-34.8-0.2C-30.7,81.4-30.9,81.2-30.9,80.9z"/>
				<path id="Rectángulo_44145" class="st21" d="M20.6,77.5l13,0.1c1.2,0,2.2,1,2.2,2.2l0,0c0,1.2-1,2.2-2.2,2.2l-13-0.1
					c-1.2,0-2.2-1-2.2-2.2l0,0C18.5,78.5,19.4,77.5,20.6,77.5z"/>
				<path id="Rectángulo_44146" class="st21" d="M57.6,77.8l63.1,0.4c1.2,0,2.2,1,2.2,2.2l0,0c0,1.2-1,2.2-2.2,2.2l-63.1-0.4
					c-1.2,0-2.2-1-2.2-2.2l0,0C55.4,78.7,56.4,77.7,57.6,77.8z"/>
				<path id="Rectángulo_44147" class="st21" d="M-42.2,46.6l8.3,0.1c1.2,0,2.2,1,2.2,2.2l0,0c0,1.2-1,2.2-2.2,2.2l-8.3-0.1
					c-1.2,0-2.2-1-2.2-2.2l0,0C-44.4,47.6-43.5,46.6-42.2,46.6z"/>
				<path id="Rectángulo_44148" class="st21" d="M-30.8,50.5l0-3.3c0-0.3,0.2-0.5,0.5-0.5L4.6,47c0.3,0,0.5,0.2,0.5,0.5l0,3.3
					c0,0.3-0.2,0.5-0.5,0.5l-34.8-0.2C-30.6,51.1-30.8,50.8-30.8,50.5z"/>
				<path id="Rectángulo_44149" class="st21" d="M18.6,51l0-3.3c0-0.3,0.2-0.5,0.5-0.5l16.3,0.1c0.3,0,0.5,0.2,0.5,0.5l0,3.3
					c0,0.3-0.2,0.5-0.5,0.5l-16.3-0.1C18.8,51.5,18.6,51.3,18.6,51z"/>
				<path id="Rectángulo_44150" class="st21" d="M57.5,47.4l63.1,0.4c1.2,0,2.2,1,2.2,2.2l0,0c0,1.2-1,2.2-2.2,2.2l-63.1-0.4
					c-1.2,0-2.2-1-2.2-2.2l0,0C55.3,48.4,56.3,47.4,57.5,47.4z"/>
				<path id="Rectángulo_44151" class="st21" d="M-42.2,54.3l8.3,0.1c1.2,0,2.2,1,2.2,2.2l0,0c0,1.2-1,2.2-2.2,2.2l-8.3-0.1
					c-1.2,0-2.2-1-2.2-2.2l0,0C-44.4,55.2-43.4,54.3-42.2,54.3z"/>
				<path id="Rectángulo_44152" class="st21" d="M-30.7,58.2l0-3.3c0-0.3,0.2-0.5,0.5-0.5l34.8,0.2c0.3,0,0.5,0.2,0.5,0.5l0,3.3
					C5.2,58.7,5,59,4.7,59l-34.8-0.2C-30.4,58.7-30.7,58.5-30.7,58.2z"/>
				<path id="Rectángulo_44153" class="st21" d="M20.9,54.8l13,0.1c1.2,0,2.2,1,2.2,2.2l0,0c0,1.2-1,2.2-2.2,2.2l-13-0.1
					c-1.2,0-2.2-1-2.2-2.2l0,0C18.7,55.8,19.7,54.8,20.9,54.8z"/>
				<path id="Rectángulo_44154" class="st21" d="M57.8,55.1l63.1,0.4c1.2,0,2.2,1,2.2,2.2l0,0c0,1.2-1,2.2-2.2,2.2l-63.1-0.4
					c-1.2,0-2.2-1-2.2-2.2l0,0C55.6,56,56.6,55.1,57.8,55.1z"/>
				<path id="Rectángulo_44155" class="st21" d="M10.8,86.2l0.7-105.9c0-0.3,0.3-0.6,0.6-0.6l0.4,0c0.3,0,0.6,0.3,0.6,0.6
					L12.4,86.3c0,0.3-0.3,0.6-0.6,0.6l-0.4,0C11.1,86.8,10.8,86.6,10.8,86.2z"/>
			</g>
		</g>
		<g id="Grupo_145920" transform="translate(399.474 216.908)">
			<g id="Grupo_145918">
				<g id="Grupo_145915" transform="translate(20.333 17.806)">
					
						<linearGradient id="Trazado_252370_00000109008976030676029780000016761030211811943100_" gradientUnits="userSpaceOnUse" x1="-412.8065" y1="319.4519" x2="-412.8065" y2="318.4519" gradientTransform="matrix(7.1095 0 0 -63.3449 2893.7053 20215.3613)">
						<stop  offset="0" style="stop-color:#29398A"/>
						<stop  offset="1" style="stop-color:#CEC2F2"/>
					</linearGradient>
					<path id="Trazado_252370" style="fill:url(#Trazado_252370_00000109008976030676029780000016761030211811943100_);" d="
						M-44.6,43c0,0,13.3-30.8,3.2-63.2c-0.1-0.1-0.2-0.2-0.3-0.1c-0.1,0-0.1,0.1-0.1,0.2C-44.3-0.5-45,20.7-44.6,43z"/>
					<path id="Trazado_252371" class="st5" d="M-44.5,42.4C-44.6,42.4-44.6,42.4-44.5,42.4c-0.1,0-0.2-0.1-0.2-0.2
						c2.4-8.4,3.3-22.6,3.6-33.1C-40.8-2.2-41-11.7-41-11.8c0-0.1,0.1-0.2,0.2-0.2h0l0,0c0.1,0,0.2,0.1,0.2,0.2
						c0,0.1,0.2,9.6-0.2,21c-0.3,10.5-1.2,24.8-3.6,33.2C-44.4,42.3-44.5,42.4-44.5,42.4z"/>
				</g>
				<g id="Grupo_145916" transform="translate(9.614)">
					
						<linearGradient id="Trazado_252372_00000083788634108858407020000008991594840724127617_" gradientUnits="userSpaceOnUse" x1="-405.7929" y1="337.9156" x2="-405.7929" y2="336.9156" gradientTransform="matrix(9.962 0 0 -76.1352 4002.7888 25706.9805)">
						<stop  offset="0" style="stop-color:#29398A"/>
						<stop  offset="1" style="stop-color:#CEC2F2"/>
					</linearGradient>
					<path id="Trazado_252372" style="fill:url(#Trazado_252372_00000083788634108858407020000008991594840724127617_);" d="
						M-36.9,55.8c0,0,8.2-37.8-7.3-76c0-0.1-0.2-0.2-0.3-0.1c-0.1,0-0.2,0.1-0.2,0.2C-43.9,3.6-41.1,29.1-36.9,55.8z"/>
					
						<linearGradient id="Trazado_252373_00000022537686261960653920000011421717880447047321_" gradientUnits="userSpaceOnUse" x1="-399.4807" y1="337.381" x2="-399.4807" y2="336.381" gradientTransform="matrix(5.9174 0 0 -65.4016 2324.4033 22054.8926)">
						<stop  offset="0" style="stop-color:#29398A"/>
						<stop  offset="1" style="stop-color:#CEC2F2"/>
					</linearGradient>
					<path id="Trazado_252373" style="fill:url(#Trazado_252373_00000022537686261960653920000011421717880447047321_);" d="M-37,55
						L-37,55c-0.1,0-0.2-0.1-0.2-0.2c0,0,0,0,0,0c1.8-19.5-5.2-64.6-5.3-65c0-0.1,0-0.2,0.1-0.2c0.1,0,0.2,0,0.2,0.1
						c0.1,0.5,7.1,45.6,5.3,65.1C-36.9,55-36.9,55-37,55z"/>
				</g>
				<g id="Grupo_145917" transform="translate(0 23.685)">
					
						<linearGradient id="Trazado_252374_00000149356885637973843500000003964911856197890197_" gradientUnits="userSpaceOnUse" x1="-399.8107" y1="313.5321" x2="-399.8107" y2="312.5321" gradientTransform="matrix(16.4189 0 0 -62.6909 6527.9648 19635.3027)">
						<stop  offset="0" style="stop-color:#29398A"/>
						<stop  offset="1" style="stop-color:#CEC2F2"/>
					</linearGradient>
					<path id="Trazado_252374" style="fill:url(#Trazado_252374_00000149356885637973843500000003964911856197890197_);" d="
						M-28.6,42.4c0,0,3.9-32.9-15.6-62.6c-0.1-0.2-0.5-0.1-0.4,0.1C-41.3-0.3-35.6,20.6-28.6,42.4z"/>
					<path id="Trazado_252375" class="st5" d="M-28.8,41.7c-0.1,0-0.2-0.1-0.2-0.2c-0.2-8.7-3.5-22.8-6.3-33.2
						c-3-11.2-6-20.5-6.1-20.5c0-0.1,0-0.2,0.1-0.2s0.2,0,0.2,0.1c0,0.1,3.1,9.4,6.1,20.6c2.8,10.3,6.2,24.5,6.3,33.2
						C-28.6,41.7-28.7,41.7-28.8,41.7L-28.8,41.7z"/>
				</g>
			</g>
			<g id="Grupo_145919" transform="translate(5.831 68.222)">
				
					<linearGradient id="Trazado_252376_00000075132471561832718710000000904188770364920747_" gradientUnits="userSpaceOnUse" x1="-407.084" y1="259.9647" x2="-407.084" y2="258.9647" gradientTransform="matrix(22.1103 0 0 -19.097 8967.0879 4944.2573)">
					<stop  offset="0" style="stop-color:#BA68C8"/>
					<stop  offset="0.19" style="stop-color:#9139AF"/>
					<stop  offset="0.31" style="stop-color:#7B1FA2"/>
					<stop  offset="1" style="stop-color:#45147B"/>
				</linearGradient>
				<path id="Trazado_252376" style="fill:url(#Trazado_252376_00000075132471561832718710000000904188770364920747_);" d="
					M-42.6-20.3h18.1c1,0,1.8,0.8,1.8,1.8c0,0.1,0,0.3,0,0.4c-1.1,5.3-2.9,10.5-5.4,15.3c-0.5,1-1.5,1.6-2.6,1.6h-5.9
					c-1.1,0-2.1-0.6-2.6-1.5c-2.6-4.7-4.5-9.7-5.5-15c-0.2-1.2,0.5-2.3,1.7-2.5C-42.8-20.3-42.7-20.3-42.6-20.3z"/>
			</g>
		</g>
		<g id="Grupo_145929" transform="translate(266.907 139.558)">
			<g id="Grupo_145921" transform="translate(13.426 43.644)">
				
					<linearGradient id="Trazado_252377_00000075124264265424847570000013291895803426293921_" gradientUnits="userSpaceOnUse" x1="-283.0477" y1="369.0296" x2="-283.0767" y2="365.4316" gradientTransform="matrix(29.311 0 0 -15.28 8268.8887 5479.9419)">
					<stop  offset="0" style="stop-color:#FF928E"/>
					<stop  offset="1" style="stop-color:#FDA929"/>
				</linearGradient>
				<path id="Trazado_252377" style="fill:url(#Trazado_252377_00000075124264265424847570000013291895803426293921_);" d="M-28,2.1
					c-13.5,0.4-16.7,3.6-16.7,3.6l7.6,9.4c0,0,13.1-1.7,21.7-10.1c-1.7-1.5-3.2-3.3-4.4-5.2C-22.3,1.2-25.1,2-28,2.1z"/>
				
					<linearGradient id="Trazado_252378_00000156574565672130201740000001684208642471686568_" gradientUnits="userSpaceOnUse" x1="-314.9747" y1="364.5732" x2="-313.9017" y2="364.5732" gradientTransform="matrix(12.2727 0 0 -25.2911 3407.6538 9212.7988)">
					<stop  offset="0" style="stop-color:#FEBBBA"/>
					<stop  offset="1" style="stop-color:#FF928E"/>
				</linearGradient>
				<path id="Trazado_252378" style="fill:url(#Trazado_252378_00000156574565672130201740000001684208642471686568_);" d="M-9.3-20
					c0-0.2-0.2-0.4-0.5-0.3c-0.2,0-0.3,0.1-0.3,0.3l-1.3,3.8c-0.3,0.7-0.3,1.5,0,2.3l0.8,2.1c0.3,1,0.1,2.1-0.4,3
					c-2.2,3.5-5.2,6.5-8.8,8.6c1.2,1.9,2.7,3.7,4.4,5.2C-12,1.7-9.6-2.5-8.6-7.1C-7.9-7.4-7.4-8.2-7.6-9L-9.3-20z"/>
			</g>
			<g id="Grupo_145926" transform="translate(34.369 0)">
				<circle id="Elipse_5872" class="st29" cx="-6.5" cy="18" r="38.3"/>
				<circle id="Elipse_5873" class="st5" cx="-6.2" cy="18.1" r="34.4"/>
				<g id="Grupo_145924" transform="translate(16.603 14.84)">
					<path id="Trazado_252379" class="st14" d="M-37.2-18.1l-4.3-2.1c-0.4-0.2-0.9-0.1-1.2,0.2l-0.5,0.4l-0.8,0.7l-0.5,0.4
						c-0.3,0.3-0.4,0.7-0.3,1.2l1.6,4.5c0.2,0.7,0.8,1.2,1.5,1.3l2.9,0.6L-19.8,10l1.1-1l0.8-0.7l1-0.9l-18.8-20.9l-0.3-3
						C-36.1-17.1-36.5-17.8-37.2-18.1z"/>
					<path id="Trazado_252380" class="st8" d="M-37.5-17.8l-3.9-1.9c-0.4-0.2-0.8-0.1-1.1,0.1l-0.4,0.4l-0.7,0.6l-0.4,0.4
						c-0.3,0.3-0.4,0.7-0.2,1.1l1.5,4.1c0.2,0.6,0.7,1.1,1.4,1.2l2.6,0.6l17,18.8l1-0.9l0.7-0.6l1.1-1l-17-18.8l-0.3-2.6
						C-36.5-17-36.9-17.6-37.5-17.8z"/>
					<g id="Grupo_145923" transform="translate(18.366 21.185)">
						
							<linearGradient id="Trazado_252381_00000154384195162176680060000000858893689260085177_" gradientUnits="userSpaceOnUse" x1="-338.3098" y1="372.8076" x2="-338.3098" y2="370.7456" gradientTransform="matrix(23.7406 0 0 -25.282 8000.6597 9403.6963)">
							<stop  offset="0" style="stop-color:#4F52FF"/>
							<stop  offset="1" style="stop-color:#4042E2"/>
						</linearGradient>
						<path id="Trazado_252381" style="fill:url(#Trazado_252381_00000154384195162176680060000000858893689260085177_);" d="
							M-22.7-6.7l-13.4-11.9l-6.8,6.1l10.3,14.2c1,1.3,2.3,2.4,3.8,3l4.1,1.8c0.7,0.3,1.5,0.2,2.1-0.3l2.8-2.5
							c0.5-0.5,0.7-1.2,0.6-1.9l-0.7-3.4C-20.3-3.6-21.3-5.3-22.7-6.7z"/>
						
							<linearGradient id="Rectángulo_44156_00000094606727948272757180000015125944676798475189_" gradientUnits="userSpaceOnUse" x1="-351.2412" y1="231.0134" x2="-351.1102" y2="244.5564" gradientTransform="matrix(8.4256 -7.5865 -1.5748 -1.749 3352.9854 -2191.4797)">
							<stop  offset="0" style="stop-color:#4F52FF"/>
							<stop  offset="1" style="stop-color:#4042E2"/>
						</linearGradient>
						<path id="Rectángulo_44156" style="fill:url(#Rectángulo_44156_00000094606727948272757180000015125944676798475189_);" d="
							M-43.8-13.5l6.7-6c0.5-0.4,1.2-0.4,1.7,0.1l0,0c0.4,0.5,0.4,1.2-0.1,1.7l-6.7,6c-0.5,0.4-1.2,0.4-1.7-0.1l0,0
							C-44.4-12.3-44.3-13.1-43.8-13.5z"/>
						<g id="Grupo_145922" transform="translate(4.487 4.437)">
							
								<linearGradient id="Rectángulo_44157_00000009548213466867545970000013827257954825695884_" gradientUnits="userSpaceOnUse" x1="-385.1483" y1="369.1006" x2="-391.7823" y2="367.3256" gradientTransform="matrix(1.4303 -1.2878 -14.0242 -15.5755 5661.856 5177.3872)">
								<stop  offset="0" style="stop-color:#4F52FF"/>
								<stop  offset="1" style="stop-color:#4042E2"/>
							</linearGradient>
							
								<path id="Rectángulo_44157" style="fill:url(#Rectángulo_44157_00000009548213466867545970000013827257954825695884_);" d="
								M-44-16.7L-44-16.7c0.4-0.4,1-0.3,1.4,0.1l12.7,14.1c0.4,0.4,0.3,1-0.1,1.4l0,0c-0.4,0.4-1,0.3-1.4-0.1l-12.7-14.1
								C-44.4-15.7-44.4-16.3-44-16.7C-44-16.7-44-16.7-44-16.7z"/>
							
								<linearGradient id="Rectángulo_44158_00000007418356462750900670000011987355126744805803_" gradientUnits="userSpaceOnUse" x1="-385.8111" y1="368.9219" x2="-392.4441" y2="367.1479" gradientTransform="matrix(1.4303 -1.2878 -14.0242 -15.5755 5665.1919 5174.3843)">
								<stop  offset="0" style="stop-color:#4F52FF"/>
								<stop  offset="1" style="stop-color:#4042E2"/>
							</linearGradient>
							
								<path id="Rectángulo_44158" style="fill:url(#Rectángulo_44158_00000007418356462750900670000011987355126744805803_);" d="
								M-40.7-19.7L-40.7-19.7c0.4-0.4,1-0.3,1.4,0.1l12.7,14.1c0.4,0.4,0.3,1-0.1,1.4l0,0c-0.4,0.4-1,0.3-1.4-0.1l-12.7-14.1
								C-41.1-18.7-41.1-19.3-40.7-19.7C-40.7-19.7-40.7-19.7-40.7-19.7z"/>
						</g>
					</g>
				</g>
				<g id="Grupo_145925" transform="translate(12.561 12.898)">
					
						<linearGradient id="Trazado_252382_00000092444149476286294500000009643541200819181696_" gradientUnits="userSpaceOnUse" x1="-296.129" y1="424.9064" x2="-295.365" y2="425.9214" gradientTransform="matrix(32.9966 0 0 -31.1534 10431.3428 12380.4189)">
						<stop  offset="0" style="stop-color:#233575"/>
						<stop  offset="1" style="stop-color:#29398A"/>
					</linearGradient>
					<path id="Trazado_252382" style="fill:url(#Trazado_252382_00000092444149476286294500000009643541200819181696_);" d="
						M-42.3,15.8l-0.9,0.8c-1.5,1.4-2,3.5-1,4.5l1.2,1.2c1,1,3,0.7,4.6-0.7l0.9-0.8c0.1-0.1,0.1-0.1,0.2-0.2l25.7-26.1l-2.5-2.7
						l-27.8,23.8C-42.1,15.7-42.2,15.7-42.3,15.8z M-41,17c1.2-1.1,2.6-1.4,3.3-0.7c0.6,0.7,0.2,2.1-0.9,3.2s-2.6,1.4-3.3,0.7
						S-42.2,18-41,17L-41,17z"/>
					
						<linearGradient id="Trazado_252383_00000008833357805554770510000001160484985778190218_" gradientUnits="userSpaceOnUse" x1="-290.8863" y1="333.9301" x2="-290.2173" y2="332.3161" gradientTransform="matrix(17.9302 0 0 -17.9176 5633.541 6999.5098)">
						<stop  offset="0" style="stop-color:#233575"/>
						<stop  offset="1" style="stop-color:#29398A"/>
					</linearGradient>
					<path id="Trazado_252383" style="fill:url(#Trazado_252383_00000008833357805554770510000001160484985778190218_);" d="
						M-6.4-18.1l-5.2,4.9c-0.4,0.3-0.6,0.8-0.5,1.4l0.2,2.6c0.1,0.7,0.6,1.3,1.4,1.5l2.6,0.4c0.5,0.1,1-0.1,1.4-0.4l5.2-4.9
						c0.5-0.5,1.3-0.5,1.8,0.1c0.2,0.2,0.3,0.5,0.3,0.8c0.1,2.7-1,5.3-3,7.2c-3.7,3.3-9.4,2.9-12.7-0.8c-3.1-3.6-2.9-9,0.4-12.3
						c2-1.9,4.7-2.8,7.4-2.5c0.7,0.1,1.2,0.7,1.1,1.4C-6-18.6-6.1-18.3-6.4-18.1z"/>
					
						<linearGradient id="Trazado_252384_00000099651693877382980910000015392371108089574050_" gradientUnits="userSpaceOnUse" x1="-313.4409" y1="393.5923" x2="-314.2319" y2="392.0793" gradientTransform="matrix(17.9304 0 0 -17.9176 5634.042 7000.04)">
						<stop  offset="0" style="stop-color:#233575"/>
						<stop  offset="1" style="stop-color:#29398A"/>
					</linearGradient>
					<path id="Trazado_252384" style="fill:url(#Trazado_252384_00000099651693877382980910000015392371108089574050_);" d="
						M-5.9-17.6l-5.2,4.9c-0.4,0.3-0.6,0.8-0.5,1.4l0.2,2.6c0.1,0.7,0.6,1.3,1.4,1.5l2.6,0.4c0.5,0.1,1-0.1,1.4-0.4l5.2-4.9
						c0.5-0.5,1.3-0.5,1.8,0.1c0.2,0.2,0.3,0.5,0.3,0.8c0.1,2.7-1,5.3-3,7.2c-3.7,3.3-9.4,2.9-12.7-0.8c-3.1-3.6-2.9-9,0.4-12.3
						c2-1.9,4.7-2.8,7.4-2.5c0.7,0.1,1.2,0.7,1.1,1.4C-5.5-18.1-5.7-17.8-5.9-17.6z"/>
					
						<linearGradient id="Trazado_252385_00000056416694376358652900000004514726212229561780_" gradientUnits="userSpaceOnUse" x1="-314.5901" y1="402.0393" x2="-315.0241" y2="401.1613" gradientTransform="matrix(32.9966 0 0 -31.1544 10431.7109 12381.2207)">
						<stop  offset="0" style="stop-color:#233575"/>
						<stop  offset="1" style="stop-color:#29398A"/>
					</linearGradient>
					<path id="Trazado_252385" style="fill:url(#Trazado_252385_00000056416694376358652900000004514726212229561780_);" d="
						M-41.9,16.2l-0.9,0.8c-1.5,1.4-2,3.5-1,4.5l1.2,1.2c1,1,3,0.7,4.6-0.7l0.9-0.8c0.1-0.1,0.1-0.1,0.2-0.2l25.7-26.1l-2.5-2.7
						L-41.7,16C-41.8,16.1-41.8,16.1-41.9,16.2z M-40.7,17.4c1.2-1.1,2.6-1.4,3.3-0.7c0.6,0.7,0.2,2.1-0.9,3.2s-2.6,1.4-3.3,0.7
						S-41.8,18.4-40.7,17.4L-40.7,17.4z"/>
				</g>
			</g>
			<g id="Grupo_145928" transform="translate(0 39.183)">
				<path id="Trazado_252386" class="st29" d="M-9.5,11.9C-14.8,7.4-24,6.1-29.3,5.7c-2.3-0.2-4.4,1.4-5,3.6
					c-1.6,6.6-5.6,23.5-6.5,26.5c-0.8,2.4-1,4.9-1.5,6.4c-0.3,1,0.2,2.1,1.2,2.6c3.9,1.4,7.9,2.5,12,3.3c0.7,0.1,3.1-0.4,3-1.2
					c-0.2-0.7-0.2-1.4,0-2.1L-15,23.5c8.5,7.5,15.2,7.5,20,5.1c-1.1-2.5-2-5.1-2.6-7.7C-5.2,20.5-9.5,11.9-9.5,11.9z"/>
				
					<linearGradient id="Trazado_252387_00000086678953877072917800000002791435035608803977_" gradientUnits="userSpaceOnUse" x1="-278.7448" y1="341.8975" x2="-281.0738" y2="338.9905" gradientTransform="matrix(12.212 0 0 -12.168 3248.5559 4384.2979)">
					<stop  offset="0" style="stop-color:#FEBBBA"/>
					<stop  offset="1" style="stop-color:#FF928E"/>
				</linearGradient>
				<path id="Trazado_252387" style="fill:url(#Trazado_252387_00000086678953877072917800000002791435035608803977_);" d="
					M14.7,18.1l-1.6-1.6c-4,3.5-7.6,4.6-10.7,4.4C3,23.6,3.9,26.2,5,28.7C11.4,25.5,14.7,18.1,14.7,18.1z"/>
				
					<linearGradient id="Trazado_252388_00000044891913587722956160000014970034625280514715_" gradientUnits="userSpaceOnUse" x1="-269.253" y1="324.0972" x2="-271.12" y2="317.4872" gradientTransform="matrix(15.2244 0 0 -5.349 4082.2295 1794.0288)">
					<stop  offset="0" style="stop-color:#FEBBBA"/>
					<stop  offset="1" style="stop-color:#FF928E"/>
				</linearGradient>
				<path id="Trazado_252388" style="fill:url(#Trazado_252388_00000044891913587722956160000014970034625280514715_);" d="
					M13.7,18.3l7.6-0.6l6.6-4.7c-1.1-0.5-6.6,1.4-6.6,1.4s-6-0.2-7.7,0c-1.3,0.1-0.9,2-0.8,2.7c0,0.1,0.1,0.2,0.1,0.2L13.7,18.3z"/>
				
					<linearGradient id="Trazado_252389_00000088121030335245276100000011347400242430761407_" gradientUnits="userSpaceOnUse" x1="-262.3647" y1="361.0897" x2="-263.6227" y2="357.6227" gradientTransform="matrix(9.661 0 0 -12.3211 2522.6379 4421.4746)">
					<stop  offset="0" style="stop-color:#FEBBBA"/>
					<stop  offset="1" style="stop-color:#FF928E"/>
				</linearGradient>
				<path id="Trazado_252389" style="fill:url(#Trazado_252389_00000088121030335245276100000011347400242430761407_);" d="
					M-23.2-4.4l-2.9,10.2c0,0,5,2.7,8.6,2l1-9L-23.2-4.4z"/>
				<g id="Grupo_145927" transform="translate(13.54)">
					
						<linearGradient id="Trazado_252390_00000028288981491269073060000018272355322867383699_" gradientUnits="userSpaceOnUse" x1="-149.1874" y1="457.6488" x2="-150.2204" y2="456.8988" gradientTransform="matrix(14.6067 0 0 -15.3724 4058.5215 5569.7778)">
						<stop  offset="0" style="stop-color:#FEBBBA"/>
						<stop  offset="1" style="stop-color:#FF928E"/>
					</linearGradient>
					<path id="Trazado_252390" style="fill:url(#Trazado_252390_00000028288981491269073060000018272355322867383699_);" d="
						M-30.1-13.6c0,0,3.5,5.6,4.1,8.7s1.6,5.1-1.9,6.2c-3.3,1.1-7-0.1-9-3.1c0,0-3.3-4.4-3-6.5S-30.1-13.6-30.1-13.6z"/>
					
						<linearGradient id="Trazado_252391_00000055668996104685163650000004773726258715628964_" gradientUnits="userSpaceOnUse" x1="-201.6956" y1="275.4707" x2="-200.8976" y2="274.5577" gradientTransform="matrix(17.5992 0 0 -19.81 4912.2695 7246.4224)">
						<stop  offset="0" style="stop-color:#233575"/>
						<stop  offset="1" style="stop-color:#29398A"/>
					</linearGradient>
					<path id="Trazado_252391" style="fill:url(#Trazado_252391_00000055668996104685163650000004773726258715628964_);" d="
						M-36-4.1l0.2-0.1c0.2-0.1,0.3-0.5,0.2-0.7c0,0,0,0,0,0c-0.7-0.9-2-3-0.8-3.8c1.6-0.9,8-3.3,9-5.8c0.9-2.3-0.2-4.8-2.5-5.7
						c0,0,0,0-0.1,0c-0.1,0-0.3,0-0.3,0.2l-0.1,0.3c0,0.1-0.2,0.2-0.3,0.2c-0.1,0-0.1-0.1-0.1-0.1c-0.1-0.1-0.2-0.2-0.3-0.1
						c-0.1,0-0.1,0.1-0.1,0.1c-0.3,0.8-1.3,2.1-4.4,3.1c-4.4,1.5-7.1,3.8-6.7,6.9c0,0.1-0.1,0.3-0.2,0.3c0,0-0.1,0-0.1,0
						c-0.4-0.2-0.9-0.2-1.5,0.5c-1.1,1.2-0.2,3.8,2.9,5.6c0.1,0.1,0.2,0.2,0.1,0.3c0,0,0,0,0,0.1c-0.4,0.4-1.1,1.3,1,2
						c1.3,0.5,2.7,0.6,4.1,0.3c0.1,0,0.2-0.2,0.2-0.3c0,0,0,0,0,0l-1-2.6c0-0.1,0-0.3,0.1-0.3c0,0,0,0,0.1,0L-36-4.1z"/>
					
						<linearGradient id="Trazado_252392_00000092434073011150021490000000703952792863644824_" gradientUnits="userSpaceOnUse" x1="341.6805" y1="695.4016" x2="337.4335" y2="692.7697" gradientTransform="matrix(3.5506 0 0 -4.3848 887.2612 1409.0913)">
						<stop  offset="0" style="stop-color:#FEBBBA"/>
						<stop  offset="1" style="stop-color:#FF928E"/>
					</linearGradient>
					<path id="Trazado_252392" style="fill:url(#Trazado_252392_00000092434073011150021490000000703952792863644824_);" d="
						M-35.8-3.6c0,0-1.6-3.7-3.1-2.4s1.5,4.2,2.9,4.1L-35.8-3.6z"/>
				</g>
				
					<linearGradient id="Trazado_252393_00000134956574228650236780000008324394309013597317_" gradientUnits="userSpaceOnUse" x1="-266.9625" y1="348.9109" x2="-269.7975" y2="342.4149" gradientTransform="matrix(16.8987 0 0 -8.0225 4500.75 2905.4404)">
					<stop  offset="0" style="stop-color:#233575"/>
					<stop  offset="1" style="stop-color:#29398A"/>
				</linearGradient>
				<path id="Trazado_252393" style="fill:url(#Trazado_252393_00000134956574228650236780000008324394309013597317_);" d="
					M-25.7,110.2c0,0-0.5,2.8-0.7,5.6c-0.1,1.1,0.7,2,1.7,2.1c0,0,0.1,0,0.1,0c3.7,0.2,11.6,0.5,14.5,0.3c0.3,0,0.6-0.3,0.6-0.7
					c0-0.1,0-0.1,0-0.2c-0.1-0.3-0.4-0.6-0.7-0.8l-13.1-6L-25.7,110.2z"/>
				
					<linearGradient id="Trazado_252394_00000057855742043380101270000017830289662017968001_" gradientUnits="userSpaceOnUse" x1="-251.7355" y1="321.3742" x2="-250.7355" y2="321.3742" gradientTransform="matrix(4.257 0 0 -4.3156 1045.5291 1497.0927)">
					<stop  offset="0" style="stop-color:#FEBBBA"/>
					<stop  offset="1" style="stop-color:#FF928E"/>
				</linearGradient>
				<path id="Trazado_252394" style="fill:url(#Trazado_252394_00000057855742043380101270000017830289662017968001_);" d="
					M-26.1,108.5l0.4,3.4c0,0,2.3,1.1,3.9-0.1l-0.9-3.7L-26.1,108.5z"/>
				
					<linearGradient id="Trazado_252395_00000128477618328737627260000015398312395661858447_" gradientUnits="userSpaceOnUse" x1="-264.7192" y1="375.4658" x2="-267.6162" y2="374.6098" gradientTransform="matrix(14.0721 0 0 -64.5326 3718.3718 24277.1406)">
					<stop  offset="0" style="stop-color:#233575"/>
					<stop  offset="1" style="stop-color:#29398A"/>
				</linearGradient>
				<path id="Trazado_252395" style="fill:url(#Trazado_252395_00000128477618328737627260000015398312395661858447_);" d="
					M-25.8,45.4c-0.2,0.9-0.9,43.8,3.7,63c0.1,0.3-0.1,0.6-0.4,0.8c-1.2,0.5-2.5,0.7-3.7,0.8c-0.5,0-1-0.3-1.1-0.8
					c-1.3-4.5-7.6-26.8-8.4-48.2c-0.9-23.9,0-0.8,0-0.8l0.5-14.7L-25.8,45.4z"/>
				
					<linearGradient id="Trazado_252396_00000007423820695787789500000014205241763613108638_" gradientUnits="userSpaceOnUse" x1="-256.7944" y1="345.3659" x2="-263.8114" y2="337.7589" gradientTransform="matrix(6.8283 0 0 -6.8514 1732.1681 2462.6685)">
					<stop  offset="0" style="stop-color:#233575"/>
					<stop  offset="1" style="stop-color:#29398A"/>
				</linearGradient>
				<path id="Trazado_252396" style="fill:url(#Trazado_252396_00000007423820695787789500000014205241763613108638_);" d="
					M-40.7,111.6c-0.7,1.7-1.3,3.4-1.6,5.2c-0.1,0.6,0.3,1.3,0.9,1.4c0,0,0.1,0,0.1,0c1.2,0.1,3.1,0.3,4.6,0.3
					c0.6,0,1.2-0.5,1.2-1.2c0,0,0-0.1,0-0.1c-0.2-2-1-3.9-2.3-5.4L-40.7,111.6z"/>
				
					<linearGradient id="Trazado_252397_00000127756380688931842010000014056965465154339233_" gradientUnits="userSpaceOnUse" x1="-248.3131" y1="335.1855" x2="-247.3131" y2="335.1855" gradientTransform="matrix(3.675 0 0 -5.681 871.1113 2014.1429)">
					<stop  offset="0" style="stop-color:#FEBBBA"/>
					<stop  offset="1" style="stop-color:#FF928E"/>
				</linearGradient>
				<path id="Trazado_252397" style="fill:url(#Trazado_252397_00000127756380688931842010000014056965465154339233_);" d="
					M-41.4,107.3l0.9,5.1c0.8,0.5,1.8,0.5,2.7,0.2l-0.4-5.5L-41.4,107.3z"/>
				
					<linearGradient id="Trazado_252398_00000170277792228087883400000014279597494892745888_" gradientUnits="userSpaceOnUse" x1="-267.0156" y1="375.6923" x2="-269.1296" y2="374.8773" gradientTransform="matrix(19.2895 0 0 -67.8203 5136.0078 25521.1641)">
					<stop  offset="0" style="stop-color:#233575"/>
					<stop  offset="1" style="stop-color:#29398A"/>
				</linearGradient>
				<path id="Trazado_252398" style="fill:url(#Trazado_252398_00000170277792228087883400000014279597494892745888_);" d="
					M-42.3,42.2c-5,15.2-0.8,60.4,0.7,66.9c0.1,0.4,0.4,0.7,0.8,0.8c1,0.2,2,0.1,2.9-0.1c0.4-0.1,0.7-0.5,0.7-0.9
					c0.2-5.3-0.2-37.6,3.3-50.4c0.2-0.6,0.6-1.2,1.1-1.6l6.8-4.8l0.5-7.8L-42.3,42.2z"/>
				
					<linearGradient id="Trazado_252399_00000129901734399863738880000008504364523517922485_" gradientUnits="userSpaceOnUse" x1="-269.3061" y1="366.5175" x2="-269.4381" y2="364.8335" gradientTransform="matrix(26.1777 0 0 -19.49 7021.2222 7171.2046)">
					<stop  offset="0" style="stop-color:#233575"/>
					<stop  offset="1" style="stop-color:#29398A"/>
				</linearGradient>
				<path id="Trazado_252399" style="fill:url(#Trazado_252399_00000129901734399863738880000008504364523517922485_);" d="
					M-42.4,42.2l1.5-6.4c4,1.1,8.2,1.8,12.4,2.1c4.8-3.2,9-7.3,12.2-12l0.1,0.6c0,0.1,0,0.3-0.1,0.4l-9.5,18.5L-42.4,42.2z"/>
				
					<linearGradient id="Trazado_252400_00000087412298404694046760000002184763419214771844_" gradientUnits="userSpaceOnUse" x1="-269.3779" y1="368.5877" x2="-269.5399" y2="366.8187" gradientTransform="matrix(26.806 0 0 -23.356 7195.7178 8619.7773)">
					<stop  offset="0" style="stop-color:#233575"/>
					<stop  offset="1" style="stop-color:#29398A"/>
				</linearGradient>
				<path id="Trazado_252400" style="fill:url(#Trazado_252400_00000087412298404694046760000002184763419214771844_);" d="
					M-12.8,9.7l-26.8,21.6c0.3-1.5,0.6-2.9,1.1-4.4l22.1-19C-14.7,8.2-13,8.6-12.8,9.7z"/>
				
					<linearGradient id="Trazado_252401_00000098203327057121083370000007431271253519247503_" gradientUnits="userSpaceOnUse" x1="-246.5174" y1="371.61" x2="-248.0884" y2="370.002" gradientTransform="matrix(3.54 0 0 -32.7653 843.6467 12186.8369)">
					<stop  offset="0" style="stop-color:#233575"/>
					<stop  offset="1" style="stop-color:#29398A"/>
				</linearGradient>
				<path id="Trazado_252401" style="fill:url(#Trazado_252401_00000098203327057121083370000007431271253519247503_);" d="M-32,6.3
					l0.7,32.1h2.8l-0.9-32.7C-31.1,5.5-31.7,5.9-32,6.3z"/>
			</g>
		</g>
	</g>
</g>
</svg>
