<svg xmlns="http://www.w3.org/2000/svg" width="365.624" height="322.502" viewBox="0 0 365.624 322.502">
  <g id="Grupo_146992" data-name="Grupo 146992" transform="translate(-938.376 -6987)">
    <path id="Trazado_145969" data-name="Trazado 145969" d="M40.716,0A40.716,40.716,0,1,1,0,40.716,40.716,40.716,0,0,1,40.716,0Z" transform="translate(1222.569 6987)" fill="rgba(32,203,125,0.56)" opacity="0.6" style="mix-blend-mode: multiply;isolation: isolate"/>
    <path id="Trazado_253834" data-name="Trazado 253834" d="M0,0H317.65V219.564H0Z" transform="translate(977.108 7068.431)" fill="none"/>
    <path id="Trazado_145971" data-name="Trazado 145971" d="M25.737,0A25.737,25.737,0,1,1,0,25.737,25.737,25.737,0,0,1,25.737,0Z" transform="translate(1252.526 7214.33)" fill="#fda929" opacity="0.444" style="mix-blend-mode: multiply;isolation: isolate"/>
    <path id="Trazado_145968" data-name="Trazado 145968" d="M59.586,0A59.586,59.586,0,1,1,0,59.586,59.586,59.586,0,0,1,59.586,0Z" transform="translate(938.376 7190.33)" fill="#7453d8" opacity="0.444" style="mix-blend-mode: multiply;isolation: isolate"/>
    <path id="Trazado_99200" data-name="Trazado 99200" d="M415.832,51a.81.81,0,1,1-.81-.773A.792.792,0,0,1,415.832,51Z" transform="translate(546.497 7164.674)" fill="#e8e8e8"/>
    <path id="Trazado_99201" data-name="Trazado 99201" d="M424.278,51a.81.81,0,1,1-.809-.773A.792.792,0,0,1,424.278,51Z" transform="translate(545.333 7164.674)" fill="#e8e8e8"/>
    <path id="Trazado_99202" data-name="Trazado 99202" d="M432.724,51a.81.81,0,1,1-.809-.773A.792.792,0,0,1,432.724,51Z" transform="translate(544.169 7164.674)" fill="#e8e8e8"/>
    <path id="Trazado_99203" data-name="Trazado 99203" d="M441.171,51a.81.81,0,1,1-.81-.773A.792.792,0,0,1,441.171,51Z" transform="translate(543.004 7164.674)" fill="#e8e8e8"/>
    <path id="Trazado_99204" data-name="Trazado 99204" d="M449.617,51a.81.81,0,1,1-.809-.773A.792.792,0,0,1,449.617,51Z" transform="translate(541.84 7164.674)" fill="#e8e8e8"/>
    <path id="Trazado_99205" data-name="Trazado 99205" d="M458.063,51a.81.81,0,1,1-.809-.773A.792.792,0,0,1,458.063,51Z" transform="translate(540.676 7164.674)" fill="#e8e8e8"/>
    <path id="Trazado_99206" data-name="Trazado 99206" d="M466.51,51a.81.81,0,1,1-.81-.773A.793.793,0,0,1,466.51,51Z" transform="translate(539.511 7164.674)" fill="#e8e8e8"/>
    <path id="Trazado_99207" data-name="Trazado 99207" d="M474.956,51a.81.81,0,1,1-.809-.773A.792.792,0,0,1,474.956,51Z" transform="translate(538.347 7164.674)" fill="#e8e8e8"/>
    <path id="Trazado_99208" data-name="Trazado 99208" d="M483.4,51a.81.81,0,1,1-.809-.773A.792.792,0,0,1,483.4,51Z" transform="translate(537.183 7164.674)" fill="#e8e8e8"/>
    <path id="Trazado_99209" data-name="Trazado 99209" d="M491.849,51a.81.81,0,1,1-.809-.773A.793.793,0,0,1,491.849,51Z" transform="translate(536.018 7164.674)" fill="#e8e8e8"/>
    <path id="Trazado_99210" data-name="Trazado 99210" d="M500.3,51a.81.81,0,1,1-.81-.773A.792.792,0,0,1,500.3,51Z" transform="translate(534.854 7164.674)" fill="#e8e8e8"/>
    <path id="Trazado_99211" data-name="Trazado 99211" d="M415.832,58.505a.81.81,0,1,1-.81-.773A.792.792,0,0,1,415.832,58.505Z" transform="translate(546.497 7163.356)" fill="#e8e8e8"/>
    <path id="Trazado_99212" data-name="Trazado 99212" d="M424.278,58.505a.81.81,0,1,1-.809-.773A.792.792,0,0,1,424.278,58.505Z" transform="translate(545.333 7163.356)" fill="#e8e8e8"/>
    <path id="Trazado_99213" data-name="Trazado 99213" d="M432.724,58.505a.81.81,0,1,1-.809-.773A.792.792,0,0,1,432.724,58.505Z" transform="translate(544.169 7163.356)" fill="#e8e8e8"/>
    <path id="Trazado_99214" data-name="Trazado 99214" d="M441.171,58.505a.81.81,0,1,1-.81-.773A.792.792,0,0,1,441.171,58.505Z" transform="translate(543.004 7163.356)" fill="#e8e8e8"/>
    <path id="Trazado_99215" data-name="Trazado 99215" d="M449.617,58.505a.81.81,0,1,1-.809-.773A.792.792,0,0,1,449.617,58.505Z" transform="translate(541.84 7163.356)" fill="#e8e8e8"/>
    <path id="Trazado_99216" data-name="Trazado 99216" d="M458.063,58.505a.81.81,0,1,1-.809-.773A.792.792,0,0,1,458.063,58.505Z" transform="translate(540.676 7163.356)" fill="#e8e8e8"/>
    <path id="Trazado_99217" data-name="Trazado 99217" d="M466.51,58.505a.81.81,0,1,1-.81-.773A.793.793,0,0,1,466.51,58.505Z" transform="translate(539.511 7163.356)" fill="#e8e8e8"/>
    <path id="Trazado_99218" data-name="Trazado 99218" d="M474.956,58.505a.81.81,0,1,1-.809-.773A.792.792,0,0,1,474.956,58.505Z" transform="translate(538.347 7163.356)" fill="#e8e8e8"/>
    <path id="Trazado_99219" data-name="Trazado 99219" d="M483.4,58.505a.81.81,0,1,1-.809-.773A.792.792,0,0,1,483.4,58.505Z" transform="translate(537.183 7163.356)" fill="#e8e8e8"/>
    <path id="Trazado_99220" data-name="Trazado 99220" d="M491.849,58.505a.81.81,0,1,1-.809-.773A.793.793,0,0,1,491.849,58.505Z" transform="translate(536.018 7163.356)" fill="#e8e8e8"/>
    <path id="Trazado_99221" data-name="Trazado 99221" d="M500.3,58.505a.81.81,0,1,1-.81-.773A.792.792,0,0,1,500.3,58.505Z" transform="translate(534.854 7163.356)" fill="#e8e8e8"/>
    <path id="Trazado_253835" data-name="Trazado 253835" d="M.809,0a.792.792,0,0,1,.809.774.792.792,0,0,1-.809.774A.792.792,0,0,1,0,.774.792.792,0,0,1,.809,0Z" transform="translate(960.711 7227.278)" fill="#e8e8e8"/>
    <path id="Trazado_99222" data-name="Trazado 99222" d="M424.278,66.013a.81.81,0,1,1-.809-.773A.792.792,0,0,1,424.278,66.013Z" transform="translate(545.333 7162.039)" fill="#e8e8e8"/>
    <path id="Trazado_253836" data-name="Trazado 253836" d="M.809,0a.792.792,0,0,1,.809.774.792.792,0,0,1-.809.774A.792.792,0,0,1,0,.774.792.792,0,0,1,.809,0Z" transform="translate(975.275 7227.278)" fill="#e8e8e8"/>
    <path id="Trazado_99223" data-name="Trazado 99223" d="M441.171,66.013a.81.81,0,1,1-.81-.773A.793.793,0,0,1,441.171,66.013Z" transform="translate(543.004 7162.039)" fill="#e8e8e8"/>
    <path id="Trazado_99224" data-name="Trazado 99224" d="M449.617,66.013a.81.81,0,1,1-.809-.773A.792.792,0,0,1,449.617,66.013Z" transform="translate(541.84 7162.039)" fill="#e8e8e8"/>
    <path id="Trazado_253837" data-name="Trazado 253837" d="M.809,0a.792.792,0,0,1,.809.774.792.792,0,0,1-.809.774A.792.792,0,0,1,0,.774.792.792,0,0,1,.809,0Z" transform="translate(997.121 7227.278)" fill="#e8e8e8"/>
    <path id="Trazado_99225" data-name="Trazado 99225" d="M466.51,66.013a.81.81,0,1,1-.81-.773A.793.793,0,0,1,466.51,66.013Z" transform="translate(539.511 7162.039)" fill="#e8e8e8"/>
    <path id="Trazado_253838" data-name="Trazado 253838" d="M.809,0a.792.792,0,0,1,.809.774.792.792,0,0,1-.809.774A.792.792,0,0,1,0,.774.792.792,0,0,1,.809,0Z" transform="translate(1011.685 7227.278)" fill="#e8e8e8"/>
    <path id="Trazado_253839" data-name="Trazado 253839" d="M.809,0a.792.792,0,0,1,.809.774.792.792,0,0,1-.809.774A.792.792,0,0,1,0,.774.792.792,0,0,1,.809,0Z" transform="translate(1018.967 7227.278)" fill="#e8e8e8"/>
    <path id="Trazado_99226" data-name="Trazado 99226" d="M491.849,66.013a.81.81,0,1,1-.809-.773A.793.793,0,0,1,491.849,66.013Z" transform="translate(536.018 7162.039)" fill="#e8e8e8"/>
    <path id="Trazado_99227" data-name="Trazado 99227" d="M500.3,66.013a.81.81,0,1,1-.81-.773A.793.793,0,0,1,500.3,66.013Z" transform="translate(534.854 7162.039)" fill="#e8e8e8"/>
    <path id="Trazado_253840" data-name="Trazado 253840" d="M.809,0a.792.792,0,0,1,.809.774.792.792,0,0,1-.809.774A.792.792,0,0,1,0,.774.792.792,0,0,1,.809,0Z" transform="translate(960.711 7233.468)" fill="#e8e8e8"/>
    <path id="Trazado_99228" data-name="Trazado 99228" d="M424.278,73.521a.81.81,0,1,1-.809-.774A.792.792,0,0,1,424.278,73.521Z" transform="translate(545.333 7160.721)" fill="#e8e8e8"/>
    <path id="Trazado_253841" data-name="Trazado 253841" d="M.809,0a.792.792,0,0,1,.809.774.792.792,0,0,1-.809.774A.792.792,0,0,1,0,.774.792.792,0,0,1,.809,0Z" transform="translate(975.275 7233.468)" fill="#e8e8e8"/>
    <path id="Trazado_99229" data-name="Trazado 99229" d="M441.171,73.521a.81.81,0,1,1-.81-.774A.792.792,0,0,1,441.171,73.521Z" transform="translate(543.004 7160.721)" fill="#e8e8e8"/>
    <path id="Trazado_99230" data-name="Trazado 99230" d="M449.617,73.521a.81.81,0,1,1-.809-.774A.792.792,0,0,1,449.617,73.521Z" transform="translate(541.84 7160.721)" fill="#e8e8e8"/>
    <path id="Trazado_253842" data-name="Trazado 253842" d="M.809,0a.792.792,0,0,1,.809.774.792.792,0,0,1-.809.774A.792.792,0,0,1,0,.774.792.792,0,0,1,.809,0Z" transform="translate(997.121 7233.468)" fill="#e8e8e8"/>
    <path id="Trazado_99231" data-name="Trazado 99231" d="M466.51,73.521a.81.81,0,1,1-.81-.774A.792.792,0,0,1,466.51,73.521Z" transform="translate(539.511 7160.721)" fill="#e8e8e8"/>
    <path id="Trazado_253843" data-name="Trazado 253843" d="M.809,0a.792.792,0,0,1,.809.774.792.792,0,0,1-.809.774A.792.792,0,0,1,0,.774.792.792,0,0,1,.809,0Z" transform="translate(1011.685 7233.468)" fill="#e8e8e8"/>
    <path id="Trazado_253844" data-name="Trazado 253844" d="M.809,0a.792.792,0,0,1,.809.774.792.792,0,0,1-.809.774A.792.792,0,0,1,0,.774.792.792,0,0,1,.809,0Z" transform="translate(1018.967 7233.468)" fill="#e8e8e8"/>
    <path id="Trazado_99232" data-name="Trazado 99232" d="M491.849,73.521a.81.81,0,1,1-.809-.774A.792.792,0,0,1,491.849,73.521Z" transform="translate(536.018 7160.721)" fill="#e8e8e8"/>
    <path id="Trazado_99233" data-name="Trazado 99233" d="M500.3,73.521a.81.81,0,1,1-.81-.774A.792.792,0,0,1,500.3,73.521Z" transform="translate(534.854 7160.721)" fill="#e8e8e8"/>
    <path id="Trazado_99234" data-name="Trazado 99234" d="M415.832,81.029a.81.81,0,1,1-.81-.774A.792.792,0,0,1,415.832,81.029Z" transform="translate(546.497 7159.403)" fill="#e8e8e8"/>
    <path id="Trazado_99235" data-name="Trazado 99235" d="M424.278,81.029a.81.81,0,1,1-.809-.774A.792.792,0,0,1,424.278,81.029Z" transform="translate(545.333 7159.403)" fill="#e8e8e8"/>
    <path id="Trazado_99236" data-name="Trazado 99236" d="M432.724,81.029a.81.81,0,1,1-.809-.774A.792.792,0,0,1,432.724,81.029Z" transform="translate(544.169 7159.403)" fill="#e8e8e8"/>
    <path id="Trazado_99237" data-name="Trazado 99237" d="M441.171,81.029a.81.81,0,1,1-.81-.774A.792.792,0,0,1,441.171,81.029Z" transform="translate(543.004 7159.403)" fill="#e8e8e8"/>
    <path id="Trazado_99238" data-name="Trazado 99238" d="M449.617,81.029a.81.81,0,1,1-.809-.774A.792.792,0,0,1,449.617,81.029Z" transform="translate(541.84 7159.403)" fill="#e8e8e8"/>
    <path id="Trazado_99239" data-name="Trazado 99239" d="M458.063,81.029a.81.81,0,1,1-.809-.774A.792.792,0,0,1,458.063,81.029Z" transform="translate(540.676 7159.403)" fill="#e8e8e8"/>
    <path id="Trazado_99240" data-name="Trazado 99240" d="M466.51,81.029a.81.81,0,1,1-.81-.774A.792.792,0,0,1,466.51,81.029Z" transform="translate(539.511 7159.403)" fill="#e8e8e8"/>
    <path id="Trazado_99241" data-name="Trazado 99241" d="M474.956,81.029a.81.81,0,1,1-.809-.774A.792.792,0,0,1,474.956,81.029Z" transform="translate(538.347 7159.403)" fill="#e8e8e8"/>
    <path id="Trazado_99242" data-name="Trazado 99242" d="M483.4,81.029a.81.81,0,1,1-.809-.774A.792.792,0,0,1,483.4,81.029Z" transform="translate(537.183 7159.403)" fill="#e8e8e8"/>
    <path id="Trazado_99243" data-name="Trazado 99243" d="M491.849,81.029a.81.81,0,1,1-.809-.774A.792.792,0,0,1,491.849,81.029Z" transform="translate(536.018 7159.403)" fill="#e8e8e8"/>
    <path id="Trazado_99244" data-name="Trazado 99244" d="M500.3,81.029a.81.81,0,1,1-.81-.774A.792.792,0,0,1,500.3,81.029Z" transform="translate(534.854 7159.403)" fill="#e8e8e8"/>
    <path id="Trazado_253845" data-name="Trazado 253845" d="M.809,0a.792.792,0,0,1,.809.774.792.792,0,0,1-.809.774A.792.792,0,0,1,0,.774.792.792,0,0,1,.809,0Z" transform="translate(960.711 7245.849)" fill="#e8e8e8"/>
    <path id="Trazado_99245" data-name="Trazado 99245" d="M424.278,88.537a.81.81,0,1,1-.809-.774A.792.792,0,0,1,424.278,88.537Z" transform="translate(545.333 7158.085)" fill="#e8e8e8"/>
    <path id="Trazado_253846" data-name="Trazado 253846" d="M.809,0a.792.792,0,0,1,.809.774.792.792,0,0,1-.809.774A.792.792,0,0,1,0,.774.792.792,0,0,1,.809,0Z" transform="translate(975.275 7245.849)" fill="#e8e8e8"/>
    <path id="Trazado_99246" data-name="Trazado 99246" d="M441.171,88.537a.81.81,0,1,1-.81-.774A.792.792,0,0,1,441.171,88.537Z" transform="translate(543.004 7158.085)" fill="#e8e8e8"/>
    <path id="Trazado_99247" data-name="Trazado 99247" d="M449.617,88.537a.81.81,0,1,1-.809-.774A.792.792,0,0,1,449.617,88.537Z" transform="translate(541.84 7158.085)" fill="#e8e8e8"/>
    <path id="Trazado_253847" data-name="Trazado 253847" d="M.809,0a.792.792,0,0,1,.809.774.792.792,0,0,1-.809.774A.792.792,0,0,1,0,.774.792.792,0,0,1,.809,0Z" transform="translate(997.121 7245.849)" fill="#e8e8e8"/>
    <path id="Trazado_99248" data-name="Trazado 99248" d="M466.51,88.537a.81.81,0,1,1-.81-.774A.792.792,0,0,1,466.51,88.537Z" transform="translate(539.511 7158.085)" fill="#e8e8e8"/>
    <path id="Trazado_253848" data-name="Trazado 253848" d="M.809,0a.792.792,0,0,1,.809.774.792.792,0,0,1-.809.774A.792.792,0,0,1,0,.774.792.792,0,0,1,.809,0Z" transform="translate(1011.685 7245.849)" fill="#e8e8e8"/>
    <path id="Trazado_253849" data-name="Trazado 253849" d="M.809,0a.792.792,0,0,1,.809.774.792.792,0,0,1-.809.774A.792.792,0,0,1,0,.774.792.792,0,0,1,.809,0Z" transform="translate(1018.967 7245.849)" fill="#e8e8e8"/>
    <path id="Trazado_99249" data-name="Trazado 99249" d="M491.849,88.537a.81.81,0,1,1-.809-.774A.792.792,0,0,1,491.849,88.537Z" transform="translate(536.018 7158.085)" fill="#e8e8e8"/>
    <path id="Trazado_99250" data-name="Trazado 99250" d="M500.3,88.537a.81.81,0,1,1-.81-.774A.792.792,0,0,1,500.3,88.537Z" transform="translate(534.854 7158.085)" fill="#e8e8e8"/>
    <path id="Trazado_253850" data-name="Trazado 253850" d="M.809,0a.792.792,0,0,1,.809.774.792.792,0,0,1-.809.774A.792.792,0,0,1,0,.774.792.792,0,0,1,.809,0Z" transform="translate(960.711 7252.039)" fill="#e8e8e8"/>
    <path id="Trazado_99251" data-name="Trazado 99251" d="M424.278,96.044a.81.81,0,1,1-.809-.773A.792.792,0,0,1,424.278,96.044Z" transform="translate(545.333 7156.768)" fill="#e8e8e8"/>
    <path id="Trazado_253851" data-name="Trazado 253851" d="M.809,0a.792.792,0,0,1,.809.774.792.792,0,0,1-.809.774A.792.792,0,0,1,0,.774.792.792,0,0,1,.809,0Z" transform="translate(975.275 7252.039)" fill="#e8e8e8"/>
    <path id="Trazado_99252" data-name="Trazado 99252" d="M441.171,96.044a.81.81,0,1,1-.81-.773A.792.792,0,0,1,441.171,96.044Z" transform="translate(543.004 7156.768)" fill="#e8e8e8"/>
    <path id="Trazado_99253" data-name="Trazado 99253" d="M449.617,96.044a.81.81,0,1,1-.809-.773A.792.792,0,0,1,449.617,96.044Z" transform="translate(541.84 7156.768)" fill="#e8e8e8"/>
    <path id="Trazado_253852" data-name="Trazado 253852" d="M.809,0a.792.792,0,0,1,.809.774.792.792,0,0,1-.809.774A.792.792,0,0,1,0,.774.792.792,0,0,1,.809,0Z" transform="translate(997.121 7252.039)" fill="#e8e8e8"/>
    <path id="Trazado_99254" data-name="Trazado 99254" d="M466.51,96.044a.81.81,0,1,1-.81-.773A.793.793,0,0,1,466.51,96.044Z" transform="translate(539.511 7156.768)" fill="#e8e8e8"/>
    <path id="Trazado_253853" data-name="Trazado 253853" d="M.809,0a.792.792,0,0,1,.809.774.792.792,0,0,1-.809.774A.792.792,0,0,1,0,.774.792.792,0,0,1,.809,0Z" transform="translate(1011.685 7252.039)" fill="#e8e8e8"/>
    <path id="Trazado_253854" data-name="Trazado 253854" d="M.809,0a.792.792,0,0,1,.809.774.792.792,0,0,1-.809.774A.792.792,0,0,1,0,.774.792.792,0,0,1,.809,0Z" transform="translate(1018.967 7252.039)" fill="#e8e8e8"/>
    <path id="Trazado_99255" data-name="Trazado 99255" d="M491.849,96.044a.81.81,0,1,1-.809-.773A.793.793,0,0,1,491.849,96.044Z" transform="translate(536.018 7156.768)" fill="#e8e8e8"/>
    <path id="Trazado_99256" data-name="Trazado 99256" d="M500.3,96.044a.81.81,0,1,1-.81-.773A.792.792,0,0,1,500.3,96.044Z" transform="translate(534.854 7156.768)" fill="#e8e8e8"/>
    <path id="Trazado_99257" data-name="Trazado 99257" d="M415.832,103.552a.81.81,0,1,1-.81-.773A.792.792,0,0,1,415.832,103.552Z" transform="translate(546.497 7155.45)" fill="#e8e8e8"/>
    <path id="Trazado_99258" data-name="Trazado 99258" d="M424.278,103.552a.81.81,0,1,1-.809-.773A.792.792,0,0,1,424.278,103.552Z" transform="translate(545.333 7155.45)" fill="#e8e8e8"/>
    <path id="Trazado_99259" data-name="Trazado 99259" d="M432.724,103.552a.81.81,0,1,1-.809-.773A.792.792,0,0,1,432.724,103.552Z" transform="translate(544.169 7155.45)" fill="#e8e8e8"/>
    <path id="Trazado_99260" data-name="Trazado 99260" d="M441.171,103.552a.81.81,0,1,1-.81-.773A.792.792,0,0,1,441.171,103.552Z" transform="translate(543.004 7155.45)" fill="#e8e8e8"/>
    <path id="Trazado_99261" data-name="Trazado 99261" d="M449.617,103.552a.81.81,0,1,1-.809-.773A.792.792,0,0,1,449.617,103.552Z" transform="translate(541.84 7155.45)" fill="#e8e8e8"/>
    <path id="Trazado_99262" data-name="Trazado 99262" d="M458.063,103.552a.81.81,0,1,1-.809-.773A.792.792,0,0,1,458.063,103.552Z" transform="translate(540.676 7155.45)" fill="#e8e8e8"/>
    <path id="Trazado_99263" data-name="Trazado 99263" d="M466.51,103.552a.81.81,0,1,1-.81-.773A.793.793,0,0,1,466.51,103.552Z" transform="translate(539.511 7155.45)" fill="#e8e8e8"/>
    <path id="Trazado_99264" data-name="Trazado 99264" d="M474.956,103.552a.81.81,0,1,1-.809-.773A.792.792,0,0,1,474.956,103.552Z" transform="translate(538.347 7155.45)" fill="#e8e8e8"/>
    <path id="Trazado_99265" data-name="Trazado 99265" d="M483.4,103.552a.81.81,0,1,1-.809-.773A.792.792,0,0,1,483.4,103.552Z" transform="translate(537.183 7155.45)" fill="#e8e8e8"/>
    <path id="Trazado_99266" data-name="Trazado 99266" d="M491.849,103.552a.81.81,0,1,1-.809-.773A.793.793,0,0,1,491.849,103.552Z" transform="translate(536.018 7155.45)" fill="#e8e8e8"/>
    <path id="Trazado_99267" data-name="Trazado 99267" d="M500.3,103.552a.81.81,0,1,1-.81-.773A.792.792,0,0,1,500.3,103.552Z" transform="translate(534.854 7155.45)" fill="#e8e8e8"/>
    <path id="Trazado_253855" data-name="Trazado 253855" d="M.809,0a.792.792,0,0,1,.809.774.792.792,0,0,1-.809.774A.792.792,0,0,1,0,.774.792.792,0,0,1,.809,0Z" transform="translate(960.711 7264.419)" fill="#e8e8e8"/>
    <path id="Trazado_99268" data-name="Trazado 99268" d="M424.278,111.06a.81.81,0,1,1-.809-.773A.792.792,0,0,1,424.278,111.06Z" transform="translate(545.333 7154.132)" fill="#e8e8e8"/>
    <path id="Trazado_253856" data-name="Trazado 253856" d="M.809,0a.792.792,0,0,1,.809.774.792.792,0,0,1-.809.774A.792.792,0,0,1,0,.774.792.792,0,0,1,.809,0Z" transform="translate(975.275 7264.419)" fill="#e8e8e8"/>
    <path id="Trazado_99269" data-name="Trazado 99269" d="M441.171,111.06a.81.81,0,1,1-.81-.773A.793.793,0,0,1,441.171,111.06Z" transform="translate(543.004 7154.132)" fill="#e8e8e8"/>
    <path id="Trazado_99270" data-name="Trazado 99270" d="M449.617,111.06a.81.81,0,1,1-.809-.773A.792.792,0,0,1,449.617,111.06Z" transform="translate(541.84 7154.132)" fill="#e8e8e8"/>
    <path id="Trazado_253857" data-name="Trazado 253857" d="M.809,0a.792.792,0,0,1,.809.774.792.792,0,0,1-.809.774A.792.792,0,0,1,0,.774.792.792,0,0,1,.809,0Z" transform="translate(997.121 7264.419)" fill="#e8e8e8"/>
    <path id="Trazado_99271" data-name="Trazado 99271" d="M466.51,111.06a.81.81,0,1,1-.81-.773A.793.793,0,0,1,466.51,111.06Z" transform="translate(539.511 7154.132)" fill="#e8e8e8"/>
    <path id="Trazado_253858" data-name="Trazado 253858" d="M.809,0a.792.792,0,0,1,.809.774.792.792,0,0,1-.809.774A.792.792,0,0,1,0,.774.792.792,0,0,1,.809,0Z" transform="translate(1011.685 7264.419)" fill="#e8e8e8"/>
    <path id="Trazado_253859" data-name="Trazado 253859" d="M.809,0a.792.792,0,0,1,.809.774.792.792,0,0,1-.809.774A.792.792,0,0,1,0,.774.792.792,0,0,1,.809,0Z" transform="translate(1018.967 7264.419)" fill="#e8e8e8"/>
    <path id="Trazado_99272" data-name="Trazado 99272" d="M491.849,111.06a.81.81,0,1,1-.809-.773A.793.793,0,0,1,491.849,111.06Z" transform="translate(536.018 7154.132)" fill="#e8e8e8"/>
    <path id="Trazado_99273" data-name="Trazado 99273" d="M500.3,111.06a.81.81,0,1,1-.81-.773A.793.793,0,0,1,500.3,111.06Z" transform="translate(534.854 7154.132)" fill="#e8e8e8"/>
    <path id="Trazado_99274" data-name="Trazado 99274" d="M415.832,118.568a.81.81,0,1,1-.81-.774A.793.793,0,0,1,415.832,118.568Z" transform="translate(546.497 7152.815)" fill="#e8e8e8"/>
    <path id="Trazado_99275" data-name="Trazado 99275" d="M424.278,118.568a.81.81,0,1,1-.809-.774A.792.792,0,0,1,424.278,118.568Z" transform="translate(545.333 7152.815)" fill="#e8e8e8"/>
    <path id="Trazado_99276" data-name="Trazado 99276" d="M432.724,118.568a.81.81,0,1,1-.809-.774A.792.792,0,0,1,432.724,118.568Z" transform="translate(544.169 7152.815)" fill="#e8e8e8"/>
    <path id="Trazado_99277" data-name="Trazado 99277" d="M441.171,118.568a.81.81,0,1,1-.81-.774A.793.793,0,0,1,441.171,118.568Z" transform="translate(543.004 7152.815)" fill="#e8e8e8"/>
    <path id="Trazado_99278" data-name="Trazado 99278" d="M449.617,118.568a.81.81,0,1,1-.809-.774A.792.792,0,0,1,449.617,118.568Z" transform="translate(541.84 7152.815)" fill="#e8e8e8"/>
    <path id="Trazado_99279" data-name="Trazado 99279" d="M458.063,118.568a.81.81,0,1,1-.809-.774A.792.792,0,0,1,458.063,118.568Z" transform="translate(540.676 7152.815)" fill="#e8e8e8"/>
    <path id="Trazado_99280" data-name="Trazado 99280" d="M466.51,118.568a.81.81,0,1,1-.81-.774A.793.793,0,0,1,466.51,118.568Z" transform="translate(539.511 7152.815)" fill="#e8e8e8"/>
    <path id="Trazado_99281" data-name="Trazado 99281" d="M474.956,118.568a.81.81,0,1,1-.809-.774A.792.792,0,0,1,474.956,118.568Z" transform="translate(538.347 7152.815)" fill="#e8e8e8"/>
    <path id="Trazado_99282" data-name="Trazado 99282" d="M483.4,118.568a.81.81,0,1,1-.809-.774A.792.792,0,0,1,483.4,118.568Z" transform="translate(537.183 7152.815)" fill="#e8e8e8"/>
    <path id="Trazado_99283" data-name="Trazado 99283" d="M491.849,118.568a.81.81,0,1,1-.809-.774A.793.793,0,0,1,491.849,118.568Z" transform="translate(536.018 7152.815)" fill="#e8e8e8"/>
    <path id="Trazado_99284" data-name="Trazado 99284" d="M500.3,118.568a.81.81,0,1,1-.81-.774A.793.793,0,0,1,500.3,118.568Z" transform="translate(534.854 7152.815)" fill="#e8e8e8"/>
    <path id="Trazado_253860" data-name="Trazado 253860" d="M.809,0a.792.792,0,0,1,.809.774.792.792,0,0,1-.809.774A.792.792,0,0,1,0,.774.792.792,0,0,1,.809,0Z" transform="translate(960.711 7276.799)" fill="#e8e8e8"/>
    <path id="Trazado_99285" data-name="Trazado 99285" d="M424.278,126.076a.81.81,0,1,1-.809-.774A.792.792,0,0,1,424.278,126.076Z" transform="translate(545.333 7151.497)" fill="#e8e8e8"/>
    <path id="Trazado_253861" data-name="Trazado 253861" d="M.809,0a.792.792,0,0,1,.809.774.792.792,0,0,1-.809.774A.792.792,0,0,1,0,.774.792.792,0,0,1,.809,0Z" transform="translate(975.275 7276.799)" fill="#e8e8e8"/>
    <path id="Trazado_99286" data-name="Trazado 99286" d="M441.171,126.076a.81.81,0,1,1-.81-.774A.792.792,0,0,1,441.171,126.076Z" transform="translate(543.004 7151.497)" fill="#e8e8e8"/>
    <path id="Trazado_99287" data-name="Trazado 99287" d="M449.617,126.076a.81.81,0,1,1-.809-.774A.792.792,0,0,1,449.617,126.076Z" transform="translate(541.84 7151.497)" fill="#e8e8e8"/>
    <path id="Trazado_253862" data-name="Trazado 253862" d="M.809,0a.792.792,0,0,1,.809.774.792.792,0,0,1-.809.774A.792.792,0,0,1,0,.774.792.792,0,0,1,.809,0Z" transform="translate(997.121 7276.799)" fill="#e8e8e8"/>
    <path id="Trazado_99288" data-name="Trazado 99288" d="M466.51,126.076a.81.81,0,1,1-.81-.774A.792.792,0,0,1,466.51,126.076Z" transform="translate(539.511 7151.497)" fill="#e8e8e8"/>
    <path id="Trazado_253863" data-name="Trazado 253863" d="M.809,0a.792.792,0,0,1,.809.774.792.792,0,0,1-.809.774A.792.792,0,0,1,0,.774.792.792,0,0,1,.809,0Z" transform="translate(1011.685 7276.799)" fill="#e8e8e8"/>
    <path id="Trazado_253864" data-name="Trazado 253864" d="M.809,0a.792.792,0,0,1,.809.774.792.792,0,0,1-.809.774A.792.792,0,0,1,0,.774.792.792,0,0,1,.809,0Z" transform="translate(1018.967 7276.799)" fill="#e8e8e8"/>
    <path id="Trazado_99289" data-name="Trazado 99289" d="M491.849,126.076a.81.81,0,1,1-.809-.774A.792.792,0,0,1,491.849,126.076Z" transform="translate(536.018 7151.497)" fill="#e8e8e8"/>
    <path id="Trazado_99290" data-name="Trazado 99290" d="M500.3,126.076a.81.81,0,1,1-.81-.774A.792.792,0,0,1,500.3,126.076Z" transform="translate(534.854 7151.497)" fill="#e8e8e8"/>
    <path id="Trazado_253865" data-name="Trazado 253865" d="M.809,0a.792.792,0,0,1,.809.774.792.792,0,0,1-.809.774A.792.792,0,0,1,0,.774.792.792,0,0,1,.809,0Z" transform="translate(960.711 7282.99)" fill="#e8e8e8"/>
    <path id="Trazado_99291" data-name="Trazado 99291" d="M424.278,133.584a.81.81,0,1,1-.809-.774A.792.792,0,0,1,424.278,133.584Z" transform="translate(545.333 7150.18)" fill="#e8e8e8"/>
    <path id="Trazado_253866" data-name="Trazado 253866" d="M.809,0a.792.792,0,0,1,.809.774.792.792,0,0,1-.809.774A.792.792,0,0,1,0,.774.792.792,0,0,1,.809,0Z" transform="translate(975.275 7282.99)" fill="#e8e8e8"/>
    <path id="Trazado_99292" data-name="Trazado 99292" d="M441.171,133.584a.81.81,0,1,1-.81-.774A.792.792,0,0,1,441.171,133.584Z" transform="translate(543.004 7150.18)" fill="#e8e8e8"/>
    <path id="Trazado_99293" data-name="Trazado 99293" d="M449.617,133.584a.81.81,0,1,1-.809-.774A.792.792,0,0,1,449.617,133.584Z" transform="translate(541.84 7150.18)" fill="#e8e8e8"/>
    <path id="Trazado_253867" data-name="Trazado 253867" d="M.809,0a.792.792,0,0,1,.809.774.792.792,0,0,1-.809.774A.792.792,0,0,1,0,.774.792.792,0,0,1,.809,0Z" transform="translate(997.121 7282.99)" fill="#e8e8e8"/>
    <path id="Trazado_99294" data-name="Trazado 99294" d="M466.51,133.584a.81.81,0,1,1-.81-.774A.792.792,0,0,1,466.51,133.584Z" transform="translate(539.511 7150.18)" fill="#e8e8e8"/>
    <path id="Trazado_253868" data-name="Trazado 253868" d="M.809,0a.792.792,0,0,1,.809.774.792.792,0,0,1-.809.774A.792.792,0,0,1,0,.774.792.792,0,0,1,.809,0Z" transform="translate(1011.685 7282.99)" fill="#e8e8e8"/>
    <path id="Trazado_253869" data-name="Trazado 253869" d="M.809,0a.792.792,0,0,1,.809.774.792.792,0,0,1-.809.774A.792.792,0,0,1,0,.774.792.792,0,0,1,.809,0Z" transform="translate(1018.967 7282.99)" fill="#e8e8e8"/>
    <path id="Trazado_99295" data-name="Trazado 99295" d="M491.849,133.584a.81.81,0,1,1-.809-.774A.792.792,0,0,1,491.849,133.584Z" transform="translate(536.018 7150.18)" fill="#e8e8e8"/>
    <path id="Trazado_99296" data-name="Trazado 99296" d="M500.3,133.584a.81.81,0,1,1-.81-.774A.792.792,0,0,1,500.3,133.584Z" transform="translate(534.854 7150.18)" fill="#e8e8e8"/>
    <g id="Trazado_253870" data-name="Trazado 253870" transform="translate(1005.108 7058.969)" fill="#d2e1f1">
      <path d="M 266.5 35.5 L 0.5 35.5 L 0.5 0.5 L 266.5 0.5 L 266.5 35.5 Z" stroke="none"/>
      <path d="M 1 1 L 1 35 L 266 35 L 266 1 L 1 1 M 0 0 L 267 0 L 267 36 L 0 36 L 0 0 Z" stroke="none" fill="#29398a"/>
    </g>
    <g id="Trazado_253871" data-name="Trazado 253871" transform="translate(1005.108 7093.969)" fill="#e7e2d9">
      <path d="M 266.5 33.5 L 0.5 33.5 L 0.5 0.5 L 266.5 0.5 L 266.5 33.5 Z" stroke="none"/>
      <path d="M 1 1 L 1 33 L 266 33 L 266 1 L 1 1 M 0 0 L 267 0 L 267 34 L 0 34 L 0 0 Z" stroke="none" fill="#29398a"/>
    </g>
    <g id="Trazado_253872" data-name="Trazado 253872" transform="translate(1005.108 7161.969)" fill="#e7e2d9">
      <path d="M 266.5 34.5 L 0.5 34.5 L 0.5 0.5 L 266.5 0.5 L 266.5 34.5 Z" stroke="none"/>
      <path d="M 1 1 L 1 34 L 266 34 L 266 1 L 1 1 M 0 0 L 267 0 L 267 35 L 0 35 L 0 0 Z" stroke="none" fill="#29398a"/>
    </g>
    <g id="Trazado_253873" data-name="Trazado 253873" transform="translate(1005.108 7229.969)" fill="#e7e2d9">
      <path d="M 266.5 35.5 L 0.5 35.5 L 0.5 0.5 L 266.5 0.5 L 266.5 35.5 Z" stroke="none"/>
      <path d="M 1 1 L 1 35 L 266 35 L 266 1 L 1 1 M 0 0 L 267 0 L 267 36 L 0 36 L 0 0 Z" stroke="none" fill="#29398a"/>
    </g>
    <g id="Trazado_253874" data-name="Trazado 253874" transform="translate(1005.108 7127.969)" fill="#d2e1f1">
      <path d="M 266.5 34.5 L 0.5 34.5 L 0.5 0.5 L 266.5 0.5 L 266.5 34.5 Z" stroke="none"/>
      <path d="M 1 1 L 1 34 L 266 34 L 266 1 L 1 1 M 0 0 L 267 0 L 267 35 L 0 35 L 0 0 Z" stroke="none" fill="#29398a"/>
    </g>
    <g id="Trazado_253875" data-name="Trazado 253875" transform="translate(1005.108 7196.969)" fill="#d2e1f1">
      <path d="M 266.5 33.5 L 0.5 33.5 L 0.5 0.5 L 266.5 0.5 L 266.5 33.5 Z" stroke="none"/>
      <path d="M 1 1 L 1 33 L 266 33 L 266 1 L 1 1 M 0 0 L 267 0 L 267 34 L 0 34 L 0 0 Z" stroke="none" fill="#29398a"/>
    </g>
    <g id="Trazado_253876" data-name="Trazado 253876" transform="translate(1005.108 7264.969)" fill="#d2e1f1">
      <path d="M 266.5 34.5 L 0.5 34.5 L 0.5 0.5 L 266.5 0.5 L 266.5 34.5 Z" stroke="none"/>
      <path d="M 1 1 L 1 34 L 266 34 L 266 1 L 1 1 M 0 0 L 267 0 L 267 35 L 0 35 L 0 0 Z" stroke="none" fill="#29398a"/>
    </g>
    <path id="Trazado_253877" data-name="Trazado 253877" d="M0,0H267V35H0Z" transform="translate(1005.108 7023.969)" fill="#29398a"/>
    <path id="Trazado_253878" data-name="Trazado 253878" d="M102.233,15.133l2.832-10.352h3.828L104.108,19h-3.75L95.612,4.781h3.8ZM115.28,19a3.716,3.716,0,0,1-.312-.947,3.06,3.06,0,0,1-2.539,1.143,3.749,3.749,0,0,1-2.539-.9,2.875,2.875,0,0,1-1.045-2.271,2.955,2.955,0,0,1,1.27-2.6,6.468,6.468,0,0,1,3.691-.879h1.016v-.559q0-1.462-1.26-1.462a1.03,1.03,0,0,0-1.172,1.158H109.1a2.95,2.95,0,0,1,1.3-2.487,5.479,5.479,0,0,1,3.325-.956,4.8,4.8,0,0,1,3.193.986,3.429,3.429,0,0,1,1.2,2.705v4.678a4.79,4.79,0,0,0,.449,2.227V19Zm-2.061-2.148a1.836,1.836,0,0,0,1.021-.264,1.653,1.653,0,0,0,.581-.6V14.3h-.957q-1.719,0-1.719,1.543a.942.942,0,0,0,.3.728A1.1,1.1,0,0,0,113.22,16.852Zm13.115-5.439-1.084-.078a1.947,1.947,0,0,0-1.992.977V19h-3.291V8.434h3.086l.107,1.357a2.548,2.548,0,0,1,2.314-1.553,3.209,3.209,0,0,1,.918.117ZM130.993,19h-3.3V8.434h3.3ZM127.5,5.7A1.482,1.482,0,0,1,128,4.54a2.149,2.149,0,0,1,2.637,0,1.482,1.482,0,0,1,.508,1.159,1.482,1.482,0,0,1-.508,1.159,2.149,2.149,0,0,1-2.637,0A1.482,1.482,0,0,1,127.5,5.7ZM138.972,19a3.716,3.716,0,0,1-.312-.947A3.06,3.06,0,0,1,136.12,19.2a3.749,3.749,0,0,1-2.539-.9,2.875,2.875,0,0,1-1.045-2.271,2.955,2.955,0,0,1,1.27-2.6,6.468,6.468,0,0,1,3.691-.879h1.016v-.559q0-1.462-1.26-1.462a1.03,1.03,0,0,0-1.172,1.158H132.79a2.95,2.95,0,0,1,1.3-2.487,5.479,5.479,0,0,1,3.325-.956,4.8,4.8,0,0,1,3.193.986,3.429,3.429,0,0,1,1.2,2.705v4.678a4.79,4.79,0,0,0,.449,2.227V19Zm-2.061-2.148a1.836,1.836,0,0,0,1.021-.264,1.653,1.653,0,0,0,.581-.6V14.3h-.957q-1.719,0-1.719,1.543a.942.942,0,0,0,.3.728A1.1,1.1,0,0,0,136.911,16.852ZM153.444,13.8A6.44,6.44,0,0,1,152.37,17.8a3.6,3.6,0,0,1-3.027,1.4,3.122,3.122,0,0,1-2.6-1.279L146.608,19h-2.949V4h3.291V9.283a3.013,3.013,0,0,1,2.373-1.045,3.6,3.6,0,0,1,3.047,1.416,6.473,6.473,0,0,1,1.074,3.984Zm-3.3-.21a4.3,4.3,0,0,0-.405-2.169,1.366,1.366,0,0,0-1.245-.648,1.576,1.576,0,0,0-1.543.848v4.192a1.585,1.585,0,0,0,1.563.838,1.4,1.4,0,0,0,1.475-1.131A8.121,8.121,0,0,0,150.144,13.595ZM158.366,19h-3.3V4h3.3Zm7.139.2a5.432,5.432,0,0,1-3.936-1.45,5.008,5.008,0,0,1-1.5-3.774V13.7a6.489,6.489,0,0,1,.6-2.861,4.395,4.395,0,0,1,1.753-1.919,5.292,5.292,0,0,1,2.734-.679,4.574,4.574,0,0,1,3.516,1.382,5.43,5.43,0,0,1,1.289,3.853v1.279h-6.543a2.372,2.372,0,0,0,.771,1.4,2.3,2.3,0,0,0,1.543.508,2.958,2.958,0,0,0,2.441-1.094l1.5,1.777a4.2,4.2,0,0,1-1.743,1.353A5.891,5.891,0,0,1,165.5,19.2Zm-.371-8.418q-1.445,0-1.719,1.914h3.32v-.254a1.63,1.63,0,0,0-.4-1.226A1.593,1.593,0,0,0,165.134,10.777Z" transform="translate(1005.108 7031.969)" fill="#f6f6f6"/>
    <path id="Trazado_253879" data-name="Trazado 253879" d="M74.7,6.585H70.857V17H67.772V6.585H64V4.2H74.7Zm4.983,10.591a4.889,4.889,0,0,1-3.542-1.305,4.507,4.507,0,0,1-1.354-3.4v-.246a5.84,5.84,0,0,1,.541-2.575A3.955,3.955,0,0,1,76.9,7.925a4.763,4.763,0,0,1,2.461-.611,4.117,4.117,0,0,1,3.164,1.244,4.887,4.887,0,0,1,1.16,3.467v1.151H77.8a2.135,2.135,0,0,0,.694,1.257,2.066,2.066,0,0,0,1.389.457,2.662,2.662,0,0,0,2.2-.984l1.354,1.6a3.784,3.784,0,0,1-1.569,1.217A5.3,5.3,0,0,1,79.681,17.176ZM79.347,9.6q-1.3,0-1.547,1.723h2.988v-.229a1.467,1.467,0,0,0-.36-1.1A1.434,1.434,0,0,0,79.347,9.6ZM87.6,7.49l.1,1.116a3.225,3.225,0,0,1,2.716-1.292,2.713,2.713,0,0,1,2.219.888,4.226,4.226,0,0,1,.76,2.672V17H90.421V11a1.6,1.6,0,0,0-.29-1.059A1.342,1.342,0,0,0,89.077,9.6a1.413,1.413,0,0,0-1.292.686V17H84.823V7.49Zm12.41,6.838a.684.684,0,0,0-.4-.606,6.016,6.016,0,0,0-1.5-.475,6.853,6.853,0,0,1-1.828-.646,3.062,3.062,0,0,1-1.1-.971,2.319,2.319,0,0,1-.378-1.31,2.628,2.628,0,0,1,1.081-2.158,4.453,4.453,0,0,1,2.83-.848,4.934,4.934,0,0,1,3.023.853,2.666,2.666,0,0,1,1.143,2.241H99.914q0-1.143-1.2-1.143a1.194,1.194,0,0,0-.782.259.8.8,0,0,0-.316.646.737.737,0,0,0,.387.642,3.654,3.654,0,0,0,1.235.4,10.671,10.671,0,0,1,1.49.378,2.706,2.706,0,0,1,2.145,2.646,2.491,2.491,0,0,1-1.156,2.118,5.068,5.068,0,0,1-2.993.817,5.172,5.172,0,0,1-2.18-.439,3.645,3.645,0,0,1-1.494-1.2,2.707,2.707,0,0,1-.536-1.591h2.769a1.145,1.145,0,0,0,.439.962,1.808,1.808,0,0,0,1.081.3,1.422,1.422,0,0,0,.91-.246A.787.787,0,0,0,100.01,14.328ZM107.375,17H104.4V7.49h2.971ZM104.229,5.029a1.334,1.334,0,0,1,.457-1.043,1.934,1.934,0,0,1,2.373,0,1.334,1.334,0,0,1,.457,1.043,1.334,1.334,0,0,1-.457,1.043,1.934,1.934,0,0,1-2.373,0A1.334,1.334,0,0,1,104.229,5.029Zm4.6,7.128a5.613,5.613,0,0,1,.554-2.536,3.96,3.96,0,0,1,1.591-1.709,4.791,4.791,0,0,1,2.435-.6,4.373,4.373,0,0,1,3.366,1.323,5.076,5.076,0,0,1,1.23,3.6v.105a4.925,4.925,0,0,1-1.235,3.529,4.384,4.384,0,0,1-3.344,1.305,4.434,4.434,0,0,1-3.261-1.217,4.761,4.761,0,0,1-1.327-3.3Zm2.962.185a3.538,3.538,0,0,0,.413,1.934,1.376,1.376,0,0,0,1.222.615q1.582,0,1.617-2.435v-.3q0-2.558-1.635-2.558-1.485,0-1.608,2.206ZM113.809,3.5h3.129l-2.443,2.76-2.417,0Zm8.218,3.99.1,1.116a3.225,3.225,0,0,1,2.716-1.292,2.713,2.713,0,0,1,2.219.888,4.226,4.226,0,0,1,.76,2.672V17h-2.971V11a1.6,1.6,0,0,0-.29-1.059A1.342,1.342,0,0,0,123.5,9.6a1.413,1.413,0,0,0-1.292.686V17H119.25V7.49Zm11.54,4.667a5.613,5.613,0,0,1,.554-2.536,3.96,3.96,0,0,1,1.591-1.709,4.791,4.791,0,0,1,2.435-.6,4.373,4.373,0,0,1,3.366,1.323,5.076,5.076,0,0,1,1.23,3.6v.105a4.925,4.925,0,0,1-1.235,3.529,4.384,4.384,0,0,1-3.344,1.305,4.434,4.434,0,0,1-3.261-1.217,4.761,4.761,0,0,1-1.327-3.3Zm2.962.185a3.538,3.538,0,0,0,.413,1.934,1.376,1.376,0,0,0,1.222.615q1.582,0,1.617-2.435v-.3q0-2.558-1.635-2.558-1.485,0-1.608,2.206Zm15.794,1.134,1.5-5.985h3.12l-3.1,9.51H150.82l-3.1-9.51h3.129Zm5-1.318a5.613,5.613,0,0,1,.554-2.536,3.96,3.96,0,0,1,1.591-1.709,4.791,4.791,0,0,1,2.435-.6,4.373,4.373,0,0,1,3.366,1.323,5.076,5.076,0,0,1,1.23,3.6v.105a4.925,4.925,0,0,1-1.235,3.529,4.384,4.384,0,0,1-3.344,1.305,4.434,4.434,0,0,1-3.261-1.217,4.761,4.761,0,0,1-1.327-3.3Zm2.962.185a3.538,3.538,0,0,0,.413,1.934,1.376,1.376,0,0,0,1.222.615q1.582,0,1.617-2.435v-.3q0-2.558-1.635-2.558-1.485,0-1.608,2.206ZM170.929,17h-2.971V3.5h2.971ZM176.2,5.126V7.49h1.564V9.547H176.2V13.9a1.111,1.111,0,0,0,.193.747,1.037,1.037,0,0,0,.765.211,4.345,4.345,0,0,0,.738-.053v2.118a5.466,5.466,0,0,1-1.67.255,3.1,3.1,0,0,1-2.259-.721,2.954,2.954,0,0,1-.729-2.188V9.547h-1.213V7.49h1.213V5.126ZM184.289,17a3.344,3.344,0,0,1-.281-.853,2.754,2.754,0,0,1-2.285,1.028,3.374,3.374,0,0,1-2.285-.813,2.588,2.588,0,0,1-.94-2.043,2.66,2.66,0,0,1,1.143-2.338,5.821,5.821,0,0,1,3.322-.791h.914v-.5q0-1.316-1.134-1.316a.927.927,0,0,0-1.055,1.042h-2.962A2.655,2.655,0,0,1,179.9,8.175a4.931,4.931,0,0,1,2.993-.86,4.323,4.323,0,0,1,2.874.888,3.086,3.086,0,0,1,1.081,2.435v4.21a4.311,4.311,0,0,0,.4,2V17Zm-1.854-1.934a1.652,1.652,0,0,0,.918-.237,1.487,1.487,0,0,0,.523-.536V12.772h-.861q-1.547,0-1.547,1.389a.848.848,0,0,0,.272.655A.986.986,0,0,0,182.434,15.066Zm9.237-7.576v9.835a3.452,3.452,0,0,1-.967,2.6,3.714,3.714,0,0,1-2.672.914,6.308,6.308,0,0,1-1.4-.149V18.45a5.667,5.667,0,0,0,.835.079,1.084,1.084,0,0,0,1.23-1.222V7.49Zm-3.19-2.461a1.334,1.334,0,0,1,.457-1.043,1.934,1.934,0,0,1,2.373,0,1.334,1.334,0,0,1,.457,1.043,1.334,1.334,0,0,1-.457,1.043,1.934,1.934,0,0,1-2.373,0A1.334,1.334,0,0,1,188.481,5.029Zm9.466,12.146a4.889,4.889,0,0,1-3.542-1.305,4.507,4.507,0,0,1-1.354-3.4v-.246a5.84,5.84,0,0,1,.541-2.575,3.955,3.955,0,0,1,1.578-1.727,4.763,4.763,0,0,1,2.461-.611,4.117,4.117,0,0,1,3.164,1.244,4.887,4.887,0,0,1,1.16,3.467v1.151h-5.889a2.135,2.135,0,0,0,.694,1.257,2.066,2.066,0,0,0,1.389.457,2.662,2.662,0,0,0,2.2-.984l1.354,1.6a3.784,3.784,0,0,1-1.569,1.217A5.3,5.3,0,0,1,197.947,17.176ZM197.613,9.6q-1.3,0-1.547,1.723h2.988v-.229a1.467,1.467,0,0,0-.36-1.1A1.434,1.434,0,0,0,197.613,9.6Z" transform="translate(1005.108 7067.969)" fill="#12263f"/>
    <path id="Trazado_253880" data-name="Trazado 253880" d="M10.27,17H7.193V4.2H10.27ZM15,7.49l.1,1.116a3.225,3.225,0,0,1,2.716-1.292A2.713,2.713,0,0,1,20.03,8.2a4.226,4.226,0,0,1,.76,2.672V17H17.819V11a1.6,1.6,0,0,0-.29-1.059A1.342,1.342,0,0,0,16.475,9.6a1.413,1.413,0,0,0-1.292.686V17H12.221V7.49ZM25.879,5.126V7.49h1.564V9.547H25.879V13.9a1.111,1.111,0,0,0,.193.747,1.037,1.037,0,0,0,.765.211,4.345,4.345,0,0,0,.738-.053v2.118a5.466,5.466,0,0,1-1.67.255,3.1,3.1,0,0,1-2.259-.721,2.954,2.954,0,0,1-.729-2.188V9.547H21.7V7.49h1.213V5.126Zm7.33,12.05a4.889,4.889,0,0,1-3.542-1.305,4.507,4.507,0,0,1-1.354-3.4v-.246a5.84,5.84,0,0,1,.541-2.575,3.955,3.955,0,0,1,1.578-1.727,4.763,4.763,0,0,1,2.461-.611,4.117,4.117,0,0,1,3.164,1.244,4.887,4.887,0,0,1,1.16,3.467v1.151H31.328a2.135,2.135,0,0,0,.694,1.257,2.066,2.066,0,0,0,1.389.457,2.662,2.662,0,0,0,2.2-.984l1.354,1.6a3.784,3.784,0,0,1-1.569,1.217A5.3,5.3,0,0,1,33.209,17.176ZM32.875,9.6q-1.3,0-1.547,1.723h2.988v-.229a1.467,1.467,0,0,0-.36-1.1A1.434,1.434,0,0,0,32.875,9.6ZM41.128,7.49l.1,1.116A3.225,3.225,0,0,1,43.94,7.314,2.713,2.713,0,0,1,46.16,8.2a4.226,4.226,0,0,1,.76,2.672V17H43.949V11a1.6,1.6,0,0,0-.29-1.059A1.342,1.342,0,0,0,42.6,9.6a1.413,1.413,0,0,0-1.292.686V17H38.351V7.49Zm12.41,6.838a.684.684,0,0,0-.4-.606,6.016,6.016,0,0,0-1.5-.475,6.853,6.853,0,0,1-1.828-.646,3.062,3.062,0,0,1-1.1-.971,2.319,2.319,0,0,1-.378-1.31,2.628,2.628,0,0,1,1.081-2.158,4.453,4.453,0,0,1,2.83-.848,4.934,4.934,0,0,1,3.023.853,2.666,2.666,0,0,1,1.143,2.241H53.441q0-1.143-1.2-1.143a1.194,1.194,0,0,0-.782.259.8.8,0,0,0-.316.646.737.737,0,0,0,.387.642,3.654,3.654,0,0,0,1.235.4,10.671,10.671,0,0,1,1.49.378,2.706,2.706,0,0,1,2.145,2.646,2.491,2.491,0,0,1-1.156,2.118,5.068,5.068,0,0,1-2.993.817,5.172,5.172,0,0,1-2.18-.439,3.645,3.645,0,0,1-1.494-1.2,2.707,2.707,0,0,1-.536-1.591H50.8a1.145,1.145,0,0,0,.439.962,1.808,1.808,0,0,0,1.081.3,1.422,1.422,0,0,0,.91-.246A.787.787,0,0,0,53.538,14.328ZM60.9,17H57.933V7.49H60.9ZM57.757,5.029a1.334,1.334,0,0,1,.457-1.043,1.934,1.934,0,0,1,2.373,0,1.334,1.334,0,0,1,.457,1.043,1.334,1.334,0,0,1-.457,1.043,1.934,1.934,0,0,1-2.373,0A1.334,1.334,0,0,1,57.757,5.029Zm4.6,7.146a5.809,5.809,0,0,1,.976-3.56,3.211,3.211,0,0,1,2.725-1.3,2.731,2.731,0,0,1,2.145,1V3.5h2.971V17H68.506l-.149-1.02a2.8,2.8,0,0,1-2.32,1.2,3.205,3.205,0,0,1-2.689-1.3A5.993,5.993,0,0,1,62.354,12.175Zm2.962.185q0,2.531,1.477,2.531a1.458,1.458,0,0,0,1.406-.826V10.443A1.419,1.419,0,0,0,66.81,9.6q-1.371,0-1.485,2.215ZM78.209,17a3.344,3.344,0,0,1-.281-.853,2.754,2.754,0,0,1-2.285,1.028,3.374,3.374,0,0,1-2.285-.813,2.588,2.588,0,0,1-.94-2.043,2.66,2.66,0,0,1,1.143-2.338,5.821,5.821,0,0,1,3.322-.791H77.8v-.5q0-1.316-1.134-1.316a.927.927,0,0,0-1.055,1.042H72.646a2.655,2.655,0,0,1,1.173-2.239,4.931,4.931,0,0,1,2.993-.86,4.323,4.323,0,0,1,2.874.888,3.086,3.086,0,0,1,1.081,2.435v4.21a4.311,4.311,0,0,0,.4,2V17Zm-1.854-1.934a1.652,1.652,0,0,0,.918-.237,1.487,1.487,0,0,0,.523-.536V12.772h-.861q-1.547,0-1.547,1.389a.848.848,0,0,0,.272.655A.986.986,0,0,0,76.354,15.066Zm5.678-2.892a5.809,5.809,0,0,1,.976-3.56,3.211,3.211,0,0,1,2.725-1.3,2.731,2.731,0,0,1,2.145,1V3.5h2.971V17H88.185l-.149-1.02a2.8,2.8,0,0,1-2.32,1.2,3.205,3.205,0,0,1-2.689-1.3A5.993,5.993,0,0,1,82.032,12.175Zm2.962.185q0,2.531,1.477,2.531a1.458,1.458,0,0,0,1.406-.826V10.443A1.419,1.419,0,0,0,86.488,9.6Q85.117,9.6,85,11.814Zm11.646-.2a5.613,5.613,0,0,1,.554-2.536,3.96,3.96,0,0,1,1.591-1.709,4.791,4.791,0,0,1,2.435-.6,4.373,4.373,0,0,1,3.366,1.323,5.076,5.076,0,0,1,1.23,3.6v.105a4.925,4.925,0,0,1-1.235,3.529,4.384,4.384,0,0,1-3.344,1.305,4.434,4.434,0,0,1-3.261-1.217,4.761,4.761,0,0,1-1.327-3.3Zm2.962.185a3.538,3.538,0,0,0,.413,1.934,1.376,1.376,0,0,0,1.222.615q1.582,0,1.617-2.435v-.3q0-2.558-1.635-2.558-1.485,0-1.608,2.206Zm16.022,2.549a1.317,1.317,0,0,0,.967-.338,1.241,1.241,0,0,0,.334-.945H119.7a3.288,3.288,0,0,1-1.121,2.566,4.168,4.168,0,0,1-2.887,1,4.22,4.22,0,0,1-3.27-1.3,5.125,5.125,0,0,1-1.2-3.6v-.123a5.792,5.792,0,0,1,.532-2.544,3.872,3.872,0,0,1,1.534-1.7,4.573,4.573,0,0,1,2.373-.593,4.116,4.116,0,0,1,2.944,1.028,3.647,3.647,0,0,1,1.09,2.786h-2.777a1.626,1.626,0,0,0-.36-1.134,1.244,1.244,0,0,0-.967-.4q-1.151,0-1.345,1.468a10.357,10.357,0,0,0-.062,1.283,4.068,4.068,0,0,0,.343,1.986A1.187,1.187,0,0,0,115.624,14.891Zm4.957-2.733a5.613,5.613,0,0,1,.554-2.536,3.96,3.96,0,0,1,1.591-1.709,4.791,4.791,0,0,1,2.435-.6,4.373,4.373,0,0,1,3.366,1.323,5.076,5.076,0,0,1,1.23,3.6v.105a4.925,4.925,0,0,1-1.235,3.529,4.384,4.384,0,0,1-3.344,1.305,4.434,4.434,0,0,1-3.261-1.217,4.761,4.761,0,0,1-1.327-3.3Zm2.962.185a3.538,3.538,0,0,0,.413,1.934,1.376,1.376,0,0,0,1.222.615q1.582,0,1.617-2.435v-.3q0-2.558-1.635-2.558-1.485,0-1.608,2.206Zm13.271-2.171-.976-.07a1.752,1.752,0,0,0-1.793.879V17h-2.962V7.49h2.777l.1,1.222a2.294,2.294,0,0,1,2.083-1.4,2.888,2.888,0,0,1,.826.105Zm6.82,0-.976-.07a1.752,1.752,0,0,0-1.793.879V17H137.9V7.49h2.777l.1,1.222a2.294,2.294,0,0,1,2.083-1.4,2.888,2.888,0,0,1,.826.105ZM147.827,17h-2.971V7.49h2.971ZM144.681,5.029a1.334,1.334,0,0,1,.457-1.043,1.934,1.934,0,0,1,2.373,0,1.334,1.334,0,0,1,.457,1.043,1.334,1.334,0,0,1-.457,1.043,1.934,1.934,0,0,1-2.373,0A1.334,1.334,0,0,1,144.681,5.029Zm9.571,12.146a4.889,4.889,0,0,1-3.542-1.305,4.507,4.507,0,0,1-1.354-3.4v-.246a5.84,5.84,0,0,1,.541-2.575,3.955,3.955,0,0,1,1.578-1.727,4.763,4.763,0,0,1,2.461-.611A4.117,4.117,0,0,1,157.1,8.558a4.887,4.887,0,0,1,1.16,3.467v1.151h-5.889a2.135,2.135,0,0,0,.694,1.257,2.066,2.066,0,0,0,1.389.457,2.662,2.662,0,0,0,2.2-.984l1.354,1.6a3.784,3.784,0,0,1-1.569,1.217A5.3,5.3,0,0,1,154.252,17.176ZM153.918,9.6q-1.3,0-1.547,1.723h2.988v-.229a1.467,1.467,0,0,0-.36-1.1A1.434,1.434,0,0,0,153.918,9.6Zm8.253-2.109.1,1.116a3.225,3.225,0,0,1,2.716-1.292A2.713,2.713,0,0,1,167.2,8.2a4.226,4.226,0,0,1,.76,2.672V17h-2.971V11a1.6,1.6,0,0,0-.29-1.059,1.342,1.342,0,0,0-1.055-.338,1.413,1.413,0,0,0-1.292.686V17h-2.962V7.49Zm10.881-2.364V7.49h1.564V9.547h-1.564V13.9a1.111,1.111,0,0,0,.193.747,1.037,1.037,0,0,0,.765.211,4.345,4.345,0,0,0,.738-.053v2.118a5.466,5.466,0,0,1-1.67.255,3.1,3.1,0,0,1-2.259-.721,2.954,2.954,0,0,1-.729-2.188V9.547h-1.213V7.49h1.213V5.126Zm7.33,12.05a4.889,4.889,0,0,1-3.542-1.305,4.507,4.507,0,0,1-1.354-3.4v-.246a5.84,5.84,0,0,1,.541-2.575A3.955,3.955,0,0,1,177.6,7.925a4.763,4.763,0,0,1,2.461-.611,4.117,4.117,0,0,1,3.164,1.244,4.887,4.887,0,0,1,1.16,3.467v1.151H178.5a2.135,2.135,0,0,0,.694,1.257,2.066,2.066,0,0,0,1.389.457,2.662,2.662,0,0,0,2.2-.984l1.354,1.6a3.784,3.784,0,0,1-1.569,1.217A5.3,5.3,0,0,1,180.382,17.176ZM180.048,9.6q-1.3,0-1.547,1.723h2.988v-.229a1.467,1.467,0,0,0-.36-1.1A1.434,1.434,0,0,0,180.048,9.6Zm14.616,7.576a4.889,4.889,0,0,1-3.542-1.305,4.507,4.507,0,0,1-1.354-3.4v-.246a5.84,5.84,0,0,1,.541-2.575,3.955,3.955,0,0,1,1.578-1.727,4.763,4.763,0,0,1,2.461-.611,4.117,4.117,0,0,1,3.164,1.244,4.887,4.887,0,0,1,1.16,3.467v1.151h-5.889a2.135,2.135,0,0,0,.694,1.257,2.066,2.066,0,0,0,1.389.457,2.662,2.662,0,0,0,2.2-.984l1.354,1.6a3.784,3.784,0,0,1-1.569,1.217A5.3,5.3,0,0,1,194.664,17.176ZM194.33,9.6q-1.3,0-1.547,1.723h2.988v-.229a1.467,1.467,0,0,0-.36-1.1A1.434,1.434,0,0,0,194.33,9.6Zm8.657,7.4h-2.971V3.5h2.971Zm6.425.176a4.889,4.889,0,0,1-3.542-1.305,4.507,4.507,0,0,1-1.354-3.4v-.246a5.84,5.84,0,0,1,.541-2.575,3.955,3.955,0,0,1,1.578-1.727,4.763,4.763,0,0,1,2.461-.611,4.117,4.117,0,0,1,3.164,1.244,4.887,4.887,0,0,1,1.16,3.467v1.151h-5.889a2.135,2.135,0,0,0,.694,1.257,2.066,2.066,0,0,0,1.389.457,2.662,2.662,0,0,0,2.2-.984l1.354,1.6a3.784,3.784,0,0,1-1.569,1.217A5.3,5.3,0,0,1,209.412,17.176ZM209.078,9.6q-1.3,0-1.547,1.723h2.988v-.229a1.467,1.467,0,0,0-.36-1.1A1.434,1.434,0,0,0,209.078,9.6Zm-.035-6.108h3.129l-2.443,2.76-2.417,0Zm9.589,11.4a1.317,1.317,0,0,0,.967-.338,1.241,1.241,0,0,0,.334-.945h2.777a3.288,3.288,0,0,1-1.121,2.566,4.168,4.168,0,0,1-2.887,1,4.22,4.22,0,0,1-3.27-1.3,5.125,5.125,0,0,1-1.2-3.6v-.123a5.792,5.792,0,0,1,.532-2.544,3.872,3.872,0,0,1,1.534-1.7,4.573,4.573,0,0,1,2.373-.593,4.116,4.116,0,0,1,2.944,1.028,3.647,3.647,0,0,1,1.09,2.786h-2.777a1.626,1.626,0,0,0-.36-1.134,1.244,1.244,0,0,0-.967-.4q-1.151,0-1.345,1.468a10.357,10.357,0,0,0-.062,1.283,4.068,4.068,0,0,0,.343,1.986A1.187,1.187,0,0,0,218.632,14.891Zm8.78-9.765V7.49h1.564V9.547h-1.564V13.9a1.111,1.111,0,0,0,.193.747,1.037,1.037,0,0,0,.765.211,4.345,4.345,0,0,0,.738-.053v2.118a5.466,5.466,0,0,1-1.67.255,3.1,3.1,0,0,1-2.259-.721,2.954,2.954,0,0,1-.729-2.188V9.547h-1.213V7.49h1.213V5.126Zm8.481,5.045-.976-.07a1.752,1.752,0,0,0-1.793.879V17h-2.962V7.49h2.777l.1,1.222a2.294,2.294,0,0,1,2.083-1.4,2.888,2.888,0,0,1,.826.105ZM240.086,17h-2.971V7.49h2.971ZM236.939,5.029a1.334,1.334,0,0,1,.457-1.043,1.934,1.934,0,0,1,2.373,0,1.334,1.334,0,0,1,.457,1.043,1.334,1.334,0,0,1-.457,1.043,1.934,1.934,0,0,1-2.373,0A1.334,1.334,0,0,1,236.939,5.029Zm8.991,9.861a1.317,1.317,0,0,0,.967-.338,1.241,1.241,0,0,0,.334-.945h2.777a3.288,3.288,0,0,1-1.121,2.566,4.168,4.168,0,0,1-2.887,1,4.22,4.22,0,0,1-3.27-1.3,5.125,5.125,0,0,1-1.2-3.6v-.123a5.792,5.792,0,0,1,.532-2.544,3.872,3.872,0,0,1,1.534-1.7,4.573,4.573,0,0,1,2.373-.593,4.116,4.116,0,0,1,2.944,1.028,3.647,3.647,0,0,1,1.09,2.786h-2.777a1.626,1.626,0,0,0-.36-1.134,1.244,1.244,0,0,0-.967-.4q-1.151,0-1.345,1.468a10.357,10.357,0,0,0-.062,1.283,4.068,4.068,0,0,0,.343,1.986A1.187,1.187,0,0,0,245.931,14.891ZM256.618,17a3.344,3.344,0,0,1-.281-.853,2.754,2.754,0,0,1-2.285,1.028,3.374,3.374,0,0,1-2.285-.813,2.588,2.588,0,0,1-.94-2.043,2.66,2.66,0,0,1,1.143-2.338,5.821,5.821,0,0,1,3.322-.791h.914v-.5q0-1.316-1.134-1.316a.927.927,0,0,0-1.055,1.042h-2.962a2.655,2.655,0,0,1,1.173-2.239,4.931,4.931,0,0,1,2.993-.86,4.323,4.323,0,0,1,2.874.888,3.086,3.086,0,0,1,1.081,2.435v4.21a4.311,4.311,0,0,0,.4,2V17Zm-1.854-1.934a1.652,1.652,0,0,0,.918-.237,1.487,1.487,0,0,0,.523-.536V12.772h-.861q-1.547,0-1.547,1.389a.848.848,0,0,0,.272.655A.986.986,0,0,0,254.764,15.066Z" transform="translate(1005.108 7101.969)" fill="#12263f"/>
    <path id="Trazado_253881" data-name="Trazado 253881" d="M91.775,12.667a4.673,4.673,0,0,1-.721,2.36,4.35,4.35,0,0,1-1.85,1.586,6.3,6.3,0,0,1-2.72.563,5.025,5.025,0,0,1-3.973-1.644,6.786,6.786,0,0,1-1.45-4.641v-.633a7.746,7.746,0,0,1,.655-3.292A4.961,4.961,0,0,1,83.6,4.788a5.26,5.26,0,0,1,2.848-.769,5.516,5.516,0,0,1,3.744,1.226A4.844,4.844,0,0,1,91.8,8.624H88.725a2.292,2.292,0,0,0-.589-1.679,2.422,2.422,0,0,0-1.687-.51,1.843,1.843,0,0,0-1.687.861,5.536,5.536,0,0,0-.562,2.751v.905a6.126,6.126,0,0,0,.514,2.927,1.882,1.882,0,0,0,1.771.879,2.369,2.369,0,0,0,1.626-.5,2.126,2.126,0,0,0,.6-1.591ZM98.455,17a3.344,3.344,0,0,1-.281-.853,2.754,2.754,0,0,1-2.285,1.028,3.374,3.374,0,0,1-2.285-.813,2.588,2.588,0,0,1-.94-2.043,2.66,2.66,0,0,1,1.143-2.338,5.821,5.821,0,0,1,3.322-.791h.914v-.5q0-1.316-1.134-1.316a.927.927,0,0,0-1.055,1.042H92.891a2.655,2.655,0,0,1,1.173-2.239,4.931,4.931,0,0,1,2.993-.86,4.323,4.323,0,0,1,2.874.888,3.086,3.086,0,0,1,1.081,2.435v4.21a4.311,4.311,0,0,0,.4,2V17ZM96.6,15.066a1.652,1.652,0,0,0,.918-.237,1.487,1.487,0,0,0,.523-.536V12.772H97.18q-1.547,0-1.547,1.389a.848.848,0,0,0,.272.655A.986.986,0,0,0,96.6,15.066Zm14.88-2.751a5.735,5.735,0,0,1-1,3.538,3.2,3.2,0,0,1-2.694,1.323,2.742,2.742,0,0,1-2.153-.958v4.438h-2.962V7.49h2.769l.088.879a2.742,2.742,0,0,1,2.241-1.055,3.224,3.224,0,0,1,2.733,1.3,5.805,5.805,0,0,1,.976,3.564Zm-2.962-.185q0-2.531-1.477-2.531a1.394,1.394,0,0,0-1.406.756V14.1a1.439,1.439,0,0,0,1.424.791q1.415,0,1.459-2.443ZM118.142,17a3.344,3.344,0,0,1-.281-.853,2.754,2.754,0,0,1-2.285,1.028,3.374,3.374,0,0,1-2.285-.813,2.588,2.588,0,0,1-.94-2.043,2.66,2.66,0,0,1,1.143-2.338,5.821,5.821,0,0,1,3.322-.791h.914v-.5q0-1.316-1.134-1.316a.927.927,0,0,0-1.055,1.042h-2.962a2.655,2.655,0,0,1,1.173-2.239,4.931,4.931,0,0,1,2.993-.86,4.323,4.323,0,0,1,2.874.888,3.086,3.086,0,0,1,1.081,2.435v4.21a4.311,4.311,0,0,0,.4,2V17Zm-1.854-1.934a1.652,1.652,0,0,0,.918-.237,1.487,1.487,0,0,0,.523-.536V12.772h-.861q-1.547,0-1.547,1.389a.848.848,0,0,0,.272.655A.986.986,0,0,0,116.288,15.066Zm10.072-.176a1.317,1.317,0,0,0,.967-.338,1.241,1.241,0,0,0,.334-.945h2.777a3.288,3.288,0,0,1-1.121,2.566,4.168,4.168,0,0,1-2.887,1,4.22,4.22,0,0,1-3.27-1.3,5.125,5.125,0,0,1-1.2-3.6v-.123A5.792,5.792,0,0,1,122.5,9.6a3.872,3.872,0,0,1,1.534-1.7,4.573,4.573,0,0,1,2.373-.593,4.116,4.116,0,0,1,2.944,1.028,3.647,3.647,0,0,1,1.09,2.786h-2.777A1.626,1.626,0,0,0,127.3,10a1.244,1.244,0,0,0-.967-.4q-1.151,0-1.345,1.468a10.357,10.357,0,0,0-.062,1.283,4.068,4.068,0,0,0,.343,1.986A1.187,1.187,0,0,0,126.36,14.891ZM134.815,17h-2.971V7.49h2.971ZM131.668,5.029a1.334,1.334,0,0,1,.457-1.043,1.934,1.934,0,0,1,2.373,0,1.334,1.334,0,0,1,.457,1.043,1.334,1.334,0,0,1-.457,1.043,1.934,1.934,0,0,1-2.373,0A1.334,1.334,0,0,1,131.668,5.029Zm8.42.1V7.49h1.564V9.547h-1.564V13.9a1.111,1.111,0,0,0,.193.747,1.037,1.037,0,0,0,.765.211,4.345,4.345,0,0,0,.738-.053v2.118a5.466,5.466,0,0,1-1.67.255,3.1,3.1,0,0,1-2.259-.721,2.954,2.954,0,0,1-.729-2.188V9.547h-1.213V7.49h1.213V5.126ZM148.174,17a3.344,3.344,0,0,1-.281-.853,2.754,2.754,0,0,1-2.285,1.028,3.374,3.374,0,0,1-2.285-.813,2.588,2.588,0,0,1-.94-2.043,2.66,2.66,0,0,1,1.143-2.338,5.821,5.821,0,0,1,3.322-.791h.914v-.5q0-1.316-1.134-1.316a.927.927,0,0,0-1.055,1.042h-2.962a2.655,2.655,0,0,1,1.173-2.239,4.931,4.931,0,0,1,2.993-.86,4.323,4.323,0,0,1,2.874.888,3.086,3.086,0,0,1,1.081,2.435v4.21a4.311,4.311,0,0,0,.4,2V17Zm-1.854-1.934a1.652,1.652,0,0,0,.918-.237,1.487,1.487,0,0,0,.523-.536V12.772H146.9q-1.547,0-1.547,1.389a.848.848,0,0,0,.272.655A.986.986,0,0,0,146.32,15.066Zm8.771-7.576.1,1.116A3.225,3.225,0,0,1,157.9,7.314a2.713,2.713,0,0,1,2.219.888,4.226,4.226,0,0,1,.76,2.672V17h-2.971V11a1.6,1.6,0,0,0-.29-1.059,1.342,1.342,0,0,0-1.055-.338,1.413,1.413,0,0,0-1.292.686V17h-2.962V7.49Zm11.452,7.4a1.317,1.317,0,0,0,.967-.338,1.241,1.241,0,0,0,.334-.945h2.777a3.288,3.288,0,0,1-1.121,2.566,4.168,4.168,0,0,1-2.887,1,4.22,4.22,0,0,1-3.27-1.3,5.125,5.125,0,0,1-1.2-3.6v-.123a5.792,5.792,0,0,1,.532-2.544,3.872,3.872,0,0,1,1.534-1.7,4.573,4.573,0,0,1,2.373-.593,4.116,4.116,0,0,1,2.944,1.028,3.647,3.647,0,0,1,1.09,2.786h-2.777a1.626,1.626,0,0,0-.36-1.134,1.244,1.244,0,0,0-.967-.4q-1.151,0-1.345,1.468a10.357,10.357,0,0,0-.062,1.283,4.068,4.068,0,0,0,.343,1.986A1.187,1.187,0,0,0,166.543,14.891ZM175,17h-2.971V7.49H175ZM171.852,5.029a1.334,1.334,0,0,1,.457-1.043,1.934,1.934,0,0,1,2.373,0,1.334,1.334,0,0,1,.457,1.043,1.334,1.334,0,0,1-.457,1.043,1.934,1.934,0,0,1-2.373,0A1.334,1.334,0,0,1,171.852,5.029ZM182.179,17a3.344,3.344,0,0,1-.281-.853,2.754,2.754,0,0,1-2.285,1.028,3.374,3.374,0,0,1-2.285-.813,2.588,2.588,0,0,1-.94-2.043,2.66,2.66,0,0,1,1.143-2.338,5.821,5.821,0,0,1,3.322-.791h.914v-.5q0-1.316-1.134-1.316a.927.927,0,0,0-1.055,1.042h-2.962a2.655,2.655,0,0,1,1.173-2.239,4.931,4.931,0,0,1,2.993-.86,4.323,4.323,0,0,1,2.874.888,3.086,3.086,0,0,1,1.081,2.435v4.21a4.311,4.311,0,0,0,.4,2V17Zm-1.854-1.934a1.652,1.652,0,0,0,.918-.237,1.487,1.487,0,0,0,.523-.536V12.772H180.9q-1.547,0-1.547,1.389a.848.848,0,0,0,.272.655A.986.986,0,0,0,180.325,15.066Z" transform="translate(1005.108 7169.969)" fill="#12263f"/>
    <path id="Trazado_253882" data-name="Trazado 253882" d="M101.206,12.658V17H98.121V4.2h5.106a5.948,5.948,0,0,1,2.6.541,4.074,4.074,0,0,1,1.749,1.538,4.2,4.2,0,0,1,.62,2.263,3.7,3.7,0,0,1-1.34,2.993,5.561,5.561,0,0,1-3.678,1.121Zm0-2.382h2.021a1.906,1.906,0,0,0,1.367-.448,1.665,1.665,0,0,0,.47-1.266,2.059,2.059,0,0,0-.483-1.433,1.712,1.712,0,0,0-1.318-.545h-2.057Zm8.007,1.881a5.613,5.613,0,0,1,.554-2.536,3.96,3.96,0,0,1,1.591-1.709,4.791,4.791,0,0,1,2.435-.6,4.373,4.373,0,0,1,3.366,1.323,5.076,5.076,0,0,1,1.23,3.6v.105a4.925,4.925,0,0,1-1.235,3.529,4.384,4.384,0,0,1-3.344,1.305,4.434,4.434,0,0,1-3.261-1.217,4.761,4.761,0,0,1-1.327-3.3Zm2.962.185a3.538,3.538,0,0,0,.413,1.934,1.376,1.376,0,0,0,1.222.615q1.582,0,1.617-2.435v-.3q0-2.558-1.635-2.558-1.485,0-1.608,2.206Zm10.969-7.216V7.49h1.564V9.547h-1.564V13.9a1.111,1.111,0,0,0,.193.747,1.037,1.037,0,0,0,.765.211,4.345,4.345,0,0,0,.738-.053v2.118a5.466,5.466,0,0,1-1.67.255,3.1,3.1,0,0,1-2.259-.721,2.954,2.954,0,0,1-.729-2.188V9.547h-1.213V7.49h1.213V5.126Zm7.33,12.05a4.889,4.889,0,0,1-3.542-1.305,4.507,4.507,0,0,1-1.354-3.4v-.246a5.84,5.84,0,0,1,.541-2.575A3.955,3.955,0,0,1,127.7,7.925a4.763,4.763,0,0,1,2.461-.611,4.117,4.117,0,0,1,3.164,1.244,4.887,4.887,0,0,1,1.16,3.467v1.151h-5.889a2.135,2.135,0,0,0,.694,1.257,2.066,2.066,0,0,0,1.389.457,2.662,2.662,0,0,0,2.2-.984l1.354,1.6a3.784,3.784,0,0,1-1.569,1.217A5.3,5.3,0,0,1,130.473,17.176ZM130.139,9.6q-1.3,0-1.547,1.723h2.988v-.229a1.467,1.467,0,0,0-.36-1.1A1.434,1.434,0,0,0,130.139,9.6Zm8.253-2.109.1,1.116A3.225,3.225,0,0,1,141.2,7.314a2.713,2.713,0,0,1,2.219.888,4.226,4.226,0,0,1,.76,2.672V17h-2.971V11a1.6,1.6,0,0,0-.29-1.059,1.342,1.342,0,0,0-1.055-.338,1.413,1.413,0,0,0-1.292.686V17h-2.962V7.49Zm11.452,7.4a1.317,1.317,0,0,0,.967-.338,1.241,1.241,0,0,0,.334-.945h2.777a3.288,3.288,0,0,1-1.121,2.566,4.168,4.168,0,0,1-2.887,1,4.22,4.22,0,0,1-3.27-1.3,5.125,5.125,0,0,1-1.2-3.6v-.123a5.792,5.792,0,0,1,.532-2.544,3.872,3.872,0,0,1,1.534-1.7,4.573,4.573,0,0,1,2.373-.593,4.116,4.116,0,0,1,2.944,1.028,3.647,3.647,0,0,1,1.09,2.786h-2.777a1.626,1.626,0,0,0-.36-1.134,1.244,1.244,0,0,0-.967-.4q-1.151,0-1.345,1.468a10.357,10.357,0,0,0-.062,1.283,4.068,4.068,0,0,0,.343,1.986A1.187,1.187,0,0,0,149.844,14.891ZM158.3,17h-2.971V7.49H158.3ZM155.153,5.029a1.334,1.334,0,0,1,.457-1.043,1.934,1.934,0,0,1,2.373,0,1.334,1.334,0,0,1,.457,1.043,1.334,1.334,0,0,1-.457,1.043,1.934,1.934,0,0,1-2.373,0A1.334,1.334,0,0,1,155.153,5.029ZM165.48,17a3.344,3.344,0,0,1-.281-.853,2.754,2.754,0,0,1-2.285,1.028,3.374,3.374,0,0,1-2.285-.813,2.588,2.588,0,0,1-.94-2.043,2.66,2.66,0,0,1,1.143-2.338,5.821,5.821,0,0,1,3.322-.791h.914v-.5q0-1.316-1.134-1.316a.927.927,0,0,0-1.055,1.042h-2.962a2.655,2.655,0,0,1,1.173-2.239,4.931,4.931,0,0,1,2.993-.86,4.323,4.323,0,0,1,2.874.888,3.086,3.086,0,0,1,1.081,2.435v4.21a4.311,4.311,0,0,0,.4,2V17Zm-1.854-1.934a1.652,1.652,0,0,0,.918-.237,1.487,1.487,0,0,0,.523-.536V12.772h-.861q-1.547,0-1.547,1.389a.848.848,0,0,0,.272.655A.986.986,0,0,0,163.625,15.066Z" transform="translate(1005.108 7238.969)" fill="#12263f"/>
    <path id="Trazado_253883" data-name="Trazado 253883" d="M91.265,12.474H89.6V17H86.51V4.2h5.036a5.621,5.621,0,0,1,3.56,1.01,3.421,3.421,0,0,1,1.283,2.853,4.155,4.155,0,0,1-.541,2.213A3.837,3.837,0,0,1,94.157,11.7l2.672,5.167V17h-3.3ZM89.6,10.1h1.951a1.751,1.751,0,0,0,1.323-.463,1.788,1.788,0,0,0,.444-1.291,1.809,1.809,0,0,0-.448-1.3,1.735,1.735,0,0,0-1.318-.471H89.6Zm13.122,7.075a4.889,4.889,0,0,1-3.542-1.305,4.507,4.507,0,0,1-1.354-3.4v-.246a5.84,5.84,0,0,1,.541-2.575A3.955,3.955,0,0,1,99.94,7.925a4.763,4.763,0,0,1,2.461-.611,4.117,4.117,0,0,1,3.164,1.244,4.887,4.887,0,0,1,1.16,3.467v1.151h-5.889a2.135,2.135,0,0,0,.694,1.257,2.066,2.066,0,0,0,1.389.457,2.662,2.662,0,0,0,2.2-.984l1.354,1.6a3.784,3.784,0,0,1-1.569,1.217A5.3,5.3,0,0,1,102.717,17.176ZM102.383,9.6q-1.3,0-1.547,1.723h2.988v-.229a1.467,1.467,0,0,0-.36-1.1A1.434,1.434,0,0,0,102.383,9.6ZM112.9,14.328a.684.684,0,0,0-.4-.606,6.016,6.016,0,0,0-1.5-.475,6.853,6.853,0,0,1-1.828-.646,3.062,3.062,0,0,1-1.1-.971,2.319,2.319,0,0,1-.378-1.31,2.628,2.628,0,0,1,1.081-2.158,4.453,4.453,0,0,1,2.83-.848,4.934,4.934,0,0,1,3.023.853,2.666,2.666,0,0,1,1.143,2.241H112.8q0-1.143-1.2-1.143a1.194,1.194,0,0,0-.782.259.8.8,0,0,0-.316.646.737.737,0,0,0,.387.642,3.654,3.654,0,0,0,1.235.4,10.671,10.671,0,0,1,1.49.378,2.706,2.706,0,0,1,2.145,2.646,2.491,2.491,0,0,1-1.156,2.118,5.068,5.068,0,0,1-2.993.817,5.172,5.172,0,0,1-2.18-.439,3.645,3.645,0,0,1-1.494-1.2,2.707,2.707,0,0,1-.536-1.591h2.769a1.145,1.145,0,0,0,.439.962,1.808,1.808,0,0,0,1.081.3,1.422,1.422,0,0,0,.91-.246A.787.787,0,0,0,112.9,14.328ZM120.26,17H117.29V7.49h2.971ZM117.114,5.029a1.334,1.334,0,0,1,.457-1.043,1.934,1.934,0,0,1,2.373,0,1.334,1.334,0,0,1,.457,1.043,1.334,1.334,0,0,1-.457,1.043,1.934,1.934,0,0,1-2.373,0A1.334,1.334,0,0,1,117.114,5.029Zm9.949,9.3a.684.684,0,0,0-.4-.606,6.016,6.016,0,0,0-1.5-.475,6.853,6.853,0,0,1-1.828-.646,3.062,3.062,0,0,1-1.1-.971,2.319,2.319,0,0,1-.378-1.31,2.628,2.628,0,0,1,1.081-2.158,4.453,4.453,0,0,1,2.83-.848,4.934,4.934,0,0,1,3.023.853,2.666,2.666,0,0,1,1.143,2.241h-2.971q0-1.143-1.2-1.143a1.194,1.194,0,0,0-.782.259.8.8,0,0,0-.316.646.737.737,0,0,0,.387.642,3.654,3.654,0,0,0,1.235.4,10.671,10.671,0,0,1,1.49.378,2.706,2.706,0,0,1,2.145,2.646,2.491,2.491,0,0,1-1.156,2.118,5.068,5.068,0,0,1-2.993.817,5.172,5.172,0,0,1-2.18-.439,3.645,3.645,0,0,1-1.494-1.2,2.707,2.707,0,0,1-.536-1.591h2.769a1.145,1.145,0,0,0,.439.962,1.808,1.808,0,0,0,1.081.3,1.422,1.422,0,0,0,.91-.246A.787.787,0,0,0,127.063,14.328Zm7.69-9.2V7.49h1.564V9.547h-1.564V13.9a1.111,1.111,0,0,0,.193.747,1.037,1.037,0,0,0,.765.211,4.345,4.345,0,0,0,.738-.053v2.118a5.466,5.466,0,0,1-1.67.255,3.1,3.1,0,0,1-2.259-.721,2.954,2.954,0,0,1-.729-2.188V9.547h-1.213V7.49h1.213V5.126Zm7.33,12.05a4.889,4.889,0,0,1-3.542-1.305,4.507,4.507,0,0,1-1.354-3.4v-.246a5.84,5.84,0,0,1,.541-2.575,3.955,3.955,0,0,1,1.578-1.727,4.763,4.763,0,0,1,2.461-.611,4.117,4.117,0,0,1,3.164,1.244,4.887,4.887,0,0,1,1.16,3.467v1.151H140.2a2.135,2.135,0,0,0,.694,1.257,2.066,2.066,0,0,0,1.389.457,2.662,2.662,0,0,0,2.2-.984l1.354,1.6a3.784,3.784,0,0,1-1.569,1.217A5.3,5.3,0,0,1,142.083,17.176ZM141.75,9.6q-1.3,0-1.547,1.723h2.988v-.229a1.467,1.467,0,0,0-.36-1.1A1.434,1.434,0,0,0,141.75,9.6ZM150,7.49l.1,1.116a3.225,3.225,0,0,1,2.716-1.292,2.713,2.713,0,0,1,2.219.888,4.226,4.226,0,0,1,.76,2.672V17h-2.971V11a1.6,1.6,0,0,0-.29-1.059,1.342,1.342,0,0,0-1.055-.338,1.413,1.413,0,0,0-1.292.686V17h-2.962V7.49Zm11.452,7.4a1.317,1.317,0,0,0,.967-.338,1.241,1.241,0,0,0,.334-.945h2.777a3.288,3.288,0,0,1-1.121,2.566,4.168,4.168,0,0,1-2.887,1,4.22,4.22,0,0,1-3.27-1.3,5.125,5.125,0,0,1-1.2-3.6v-.123a5.792,5.792,0,0,1,.532-2.544,3.872,3.872,0,0,1,1.534-1.7,4.573,4.573,0,0,1,2.373-.593,4.116,4.116,0,0,1,2.944,1.028,3.647,3.647,0,0,1,1.09,2.786h-2.777A1.626,1.626,0,0,0,162.4,10a1.244,1.244,0,0,0-.967-.4q-1.151,0-1.345,1.468a10.357,10.357,0,0,0-.062,1.283,4.068,4.068,0,0,0,.343,1.986A1.187,1.187,0,0,0,161.455,14.891ZM169.91,17h-2.971V7.49h2.971ZM166.763,5.029a1.334,1.334,0,0,1,.457-1.043,1.934,1.934,0,0,1,2.373,0,1.334,1.334,0,0,1,.457,1.043,1.334,1.334,0,0,1-.457,1.043,1.934,1.934,0,0,1-2.373,0A1.334,1.334,0,0,1,166.763,5.029ZM177.09,17a3.344,3.344,0,0,1-.281-.853,2.754,2.754,0,0,1-2.285,1.028,3.374,3.374,0,0,1-2.285-.813,2.588,2.588,0,0,1-.94-2.043,2.66,2.66,0,0,1,1.143-2.338,5.821,5.821,0,0,1,3.322-.791h.914v-.5q0-1.316-1.134-1.316a.927.927,0,0,0-1.055,1.042h-2.962A2.655,2.655,0,0,1,172.7,8.175a4.931,4.931,0,0,1,2.993-.86,4.323,4.323,0,0,1,2.874.888,3.086,3.086,0,0,1,1.081,2.435v4.21a4.311,4.311,0,0,0,.4,2V17Zm-1.854-1.934a1.652,1.652,0,0,0,.918-.237,1.487,1.487,0,0,0,.523-.536V12.772h-.861q-1.547,0-1.547,1.389a.848.848,0,0,0,.272.655A.986.986,0,0,0,175.236,15.066Z" transform="translate(1005.108 7135.969)" fill="#12263f"/>
    <path id="Trazado_253884" data-name="Trazado 253884" d="M89.78,17H86.7V4.2H89.78Zm4.729-9.51.1,1.116a3.225,3.225,0,0,1,2.716-1.292A2.713,2.713,0,0,1,99.54,8.2a4.226,4.226,0,0,1,.76,2.672V17H97.33V11a1.6,1.6,0,0,0-.29-1.059A1.342,1.342,0,0,0,95.985,9.6a1.413,1.413,0,0,0-1.292.686V17H91.731V7.49Zm7.058,4.685a5.809,5.809,0,0,1,.976-3.56,3.211,3.211,0,0,1,2.725-1.3,2.731,2.731,0,0,1,2.145,1V3.5h2.971V17h-2.663l-.149-1.02a2.8,2.8,0,0,1-2.32,1.2,3.205,3.205,0,0,1-2.689-1.3A5.993,5.993,0,0,1,101.566,12.175Zm2.962.185q0,2.531,1.477,2.531a1.458,1.458,0,0,0,1.406-.826V10.443a1.419,1.419,0,0,0-1.389-.844q-1.371,0-1.485,2.215Zm13.2,3.612a3.054,3.054,0,0,1-2.54,1.2,3,3,0,0,1-2.369-.91,3.826,3.826,0,0,1-.8-2.615V7.49h2.962v6.179a1.065,1.065,0,0,0,1.187,1.222,1.548,1.548,0,0,0,1.45-.729V7.49h2.979V17h-2.777Zm8.508-1.081a1.317,1.317,0,0,0,.967-.338,1.241,1.241,0,0,0,.334-.945h2.777a3.288,3.288,0,0,1-1.121,2.566,4.168,4.168,0,0,1-2.887,1,4.22,4.22,0,0,1-3.27-1.3,5.125,5.125,0,0,1-1.2-3.6v-.123a5.792,5.792,0,0,1,.532-2.544,3.872,3.872,0,0,1,1.534-1.7,4.573,4.573,0,0,1,2.373-.593,4.116,4.116,0,0,1,2.944,1.028,3.647,3.647,0,0,1,1.09,2.786h-2.777a1.626,1.626,0,0,0-.36-1.134,1.244,1.244,0,0,0-.967-.4q-1.151,0-1.345,1.468a10.357,10.357,0,0,0-.062,1.283,4.068,4.068,0,0,0,.343,1.986A1.187,1.187,0,0,0,126.237,14.891Zm8.78-9.765V7.49h1.564V9.547h-1.564V13.9a1.111,1.111,0,0,0,.193.747,1.037,1.037,0,0,0,.765.211,4.345,4.345,0,0,0,.738-.053v2.118a5.466,5.466,0,0,1-1.67.255,3.1,3.1,0,0,1-2.259-.721,2.954,2.954,0,0,1-.729-2.188V9.547h-1.213V7.49h1.213V5.126ZM143.1,17a3.344,3.344,0,0,1-.281-.853,2.754,2.754,0,0,1-2.285,1.028,3.374,3.374,0,0,1-2.285-.813,2.588,2.588,0,0,1-.94-2.043,2.66,2.66,0,0,1,1.143-2.338,5.821,5.821,0,0,1,3.322-.791h.914v-.5q0-1.316-1.134-1.316a.927.927,0,0,0-1.055,1.042H137.54a2.655,2.655,0,0,1,1.173-2.239,4.931,4.931,0,0,1,2.993-.86,4.323,4.323,0,0,1,2.874.888,3.086,3.086,0,0,1,1.081,2.435v4.21a4.311,4.311,0,0,0,.4,2V17Zm-1.854-1.934a1.652,1.652,0,0,0,.918-.237,1.487,1.487,0,0,0,.523-.536V12.772h-.861q-1.547,0-1.547,1.389a.848.848,0,0,0,.272.655A.986.986,0,0,0,141.249,15.066ZM150.02,7.49l.1,1.116a3.225,3.225,0,0,1,2.716-1.292,2.713,2.713,0,0,1,2.219.888,4.226,4.226,0,0,1,.76,2.672V17h-2.971V11a1.6,1.6,0,0,0-.29-1.059A1.342,1.342,0,0,0,151.5,9.6a1.413,1.413,0,0,0-1.292.686V17h-2.962V7.49Zm11.452,7.4a1.317,1.317,0,0,0,.967-.338,1.241,1.241,0,0,0,.334-.945h2.777a3.288,3.288,0,0,1-1.121,2.566,4.168,4.168,0,0,1-2.887,1,4.22,4.22,0,0,1-3.27-1.3,5.125,5.125,0,0,1-1.2-3.6v-.123a5.792,5.792,0,0,1,.532-2.544,3.872,3.872,0,0,1,1.534-1.7,4.573,4.573,0,0,1,2.373-.593,4.116,4.116,0,0,1,2.944,1.028,3.647,3.647,0,0,1,1.09,2.786h-2.777a1.626,1.626,0,0,0-.36-1.134,1.244,1.244,0,0,0-.967-.4q-1.151,0-1.345,1.468a10.357,10.357,0,0,0-.062,1.283,4.068,4.068,0,0,0,.343,1.986A1.187,1.187,0,0,0,161.472,14.891ZM169.927,17h-2.971V7.49h2.971ZM166.781,5.029a1.334,1.334,0,0,1,.457-1.043,1.934,1.934,0,0,1,2.373,0,1.334,1.334,0,0,1,.457,1.043,1.334,1.334,0,0,1-.457,1.043,1.934,1.934,0,0,1-2.373,0A1.334,1.334,0,0,1,166.781,5.029ZM177.108,17a3.344,3.344,0,0,1-.281-.853,2.754,2.754,0,0,1-2.285,1.028,3.374,3.374,0,0,1-2.285-.813,2.588,2.588,0,0,1-.94-2.043,2.66,2.66,0,0,1,1.143-2.338,5.821,5.821,0,0,1,3.322-.791h.914v-.5q0-1.316-1.134-1.316a.927.927,0,0,0-1.055,1.042h-2.962a2.655,2.655,0,0,1,1.173-2.239,4.931,4.931,0,0,1,2.993-.86,4.323,4.323,0,0,1,2.874.888,3.086,3.086,0,0,1,1.081,2.435v4.21a4.311,4.311,0,0,0,.4,2V17Zm-1.854-1.934a1.652,1.652,0,0,0,.918-.237,1.487,1.487,0,0,0,.523-.536V12.772h-.861q-1.547,0-1.547,1.389a.848.848,0,0,0,.272.655A.986.986,0,0,0,175.253,15.066Z" transform="translate(1005.108 7203.969)" fill="#12263f"/>
    <path id="Trazado_253885" data-name="Trazado 253885" d="M97.338,11.9H92.364V17H89.279V4.2h8.561V6.585H92.364V9.529h4.975Zm7.172-1.731-.976-.07a1.752,1.752,0,0,0-1.793.879V17H98.78V7.49h2.777l.1,1.222a2.294,2.294,0,0,1,2.083-1.4,2.888,2.888,0,0,1,.826.105Zm5.5,7a4.889,4.889,0,0,1-3.542-1.305,4.507,4.507,0,0,1-1.354-3.4v-.246a5.84,5.84,0,0,1,.541-2.575,3.955,3.955,0,0,1,1.578-1.727,4.763,4.763,0,0,1,2.461-.611,4.117,4.117,0,0,1,3.164,1.244,4.887,4.887,0,0,1,1.16,3.467v1.151h-5.889a2.135,2.135,0,0,0,.694,1.257,2.066,2.066,0,0,0,1.389.457,2.662,2.662,0,0,0,2.2-.984l1.354,1.6a3.784,3.784,0,0,1-1.569,1.217A5.3,5.3,0,0,1,110.012,17.176ZM109.678,9.6q-1.3,0-1.547,1.723h2.988v-.229a1.467,1.467,0,0,0-.36-1.1A1.434,1.434,0,0,0,109.678,9.6Zm9.554,5.291a1.317,1.317,0,0,0,.967-.338,1.241,1.241,0,0,0,.334-.945h2.777a3.288,3.288,0,0,1-1.121,2.566,4.168,4.168,0,0,1-2.887,1,4.22,4.22,0,0,1-3.27-1.3,5.125,5.125,0,0,1-1.2-3.6v-.123a5.792,5.792,0,0,1,.532-2.544,3.872,3.872,0,0,1,1.534-1.7,4.573,4.573,0,0,1,2.373-.593,4.116,4.116,0,0,1,2.944,1.028,3.647,3.647,0,0,1,1.09,2.786h-2.777a1.626,1.626,0,0,0-.36-1.134,1.244,1.244,0,0,0-.967-.4q-1.151,0-1.345,1.468a10.357,10.357,0,0,0-.062,1.283,4.068,4.068,0,0,0,.343,1.986A1.187,1.187,0,0,0,119.232,14.891Zm11,1.081a3.054,3.054,0,0,1-2.54,1.2,3,3,0,0,1-2.369-.91,3.826,3.826,0,0,1-.8-2.615V7.49h2.962v6.179a1.065,1.065,0,0,0,1.187,1.222,1.548,1.548,0,0,0,1.45-.729V7.49h2.979V17h-2.777Zm9.088,1.2a4.889,4.889,0,0,1-3.542-1.305,4.507,4.507,0,0,1-1.354-3.4v-.246a5.84,5.84,0,0,1,.541-2.575,3.955,3.955,0,0,1,1.578-1.727A4.763,4.763,0,0,1,139,7.314a4.117,4.117,0,0,1,3.164,1.244,4.887,4.887,0,0,1,1.16,3.467v1.151h-5.889a2.135,2.135,0,0,0,.694,1.257,2.066,2.066,0,0,0,1.389.457,2.662,2.662,0,0,0,2.2-.984l1.354,1.6a3.784,3.784,0,0,1-1.569,1.217A5.3,5.3,0,0,1,139.315,17.176ZM138.981,9.6q-1.3,0-1.547,1.723h2.988v-.229a1.467,1.467,0,0,0-.36-1.1A1.434,1.434,0,0,0,138.981,9.6Zm8.253-2.109.1,1.116a3.225,3.225,0,0,1,2.716-1.292,2.713,2.713,0,0,1,2.219.888,4.226,4.226,0,0,1,.76,2.672V17h-2.971V11a1.6,1.6,0,0,0-.29-1.059A1.342,1.342,0,0,0,148.71,9.6a1.413,1.413,0,0,0-1.292.686V17h-2.962V7.49Zm11.452,7.4a1.317,1.317,0,0,0,.967-.338,1.241,1.241,0,0,0,.334-.945h2.777a3.288,3.288,0,0,1-1.121,2.566,4.168,4.168,0,0,1-2.887,1,4.22,4.22,0,0,1-3.27-1.3,5.125,5.125,0,0,1-1.2-3.6v-.123a5.792,5.792,0,0,1,.532-2.544,3.872,3.872,0,0,1,1.534-1.7,4.573,4.573,0,0,1,2.373-.593,4.116,4.116,0,0,1,2.944,1.028,3.647,3.647,0,0,1,1.09,2.786h-2.777a1.626,1.626,0,0,0-.36-1.134,1.244,1.244,0,0,0-.967-.4q-1.151,0-1.345,1.468a10.357,10.357,0,0,0-.062,1.283,4.068,4.068,0,0,0,.343,1.986A1.187,1.187,0,0,0,158.686,14.891ZM167.141,17H164.17V7.49h2.971ZM163.995,5.029a1.334,1.334,0,0,1,.457-1.043,1.934,1.934,0,0,1,2.373,0,1.334,1.334,0,0,1,.457,1.043,1.334,1.334,0,0,1-.457,1.043,1.934,1.934,0,0,1-2.373,0A1.334,1.334,0,0,1,163.995,5.029ZM174.322,17a3.344,3.344,0,0,1-.281-.853,2.754,2.754,0,0,1-2.285,1.028,3.374,3.374,0,0,1-2.285-.813,2.588,2.588,0,0,1-.94-2.043,2.66,2.66,0,0,1,1.143-2.338,5.821,5.821,0,0,1,3.322-.791h.914v-.5q0-1.316-1.134-1.316a.927.927,0,0,0-1.055,1.042h-2.962a2.655,2.655,0,0,1,1.173-2.239,4.931,4.931,0,0,1,2.993-.86A4.323,4.323,0,0,1,175.8,8.2a3.086,3.086,0,0,1,1.081,2.435v4.21a4.311,4.311,0,0,0,.4,2V17Zm-1.854-1.934a1.652,1.652,0,0,0,.918-.237,1.487,1.487,0,0,0,.523-.536V12.772h-.861q-1.547,0-1.547,1.389a.848.848,0,0,0,.272.655A.986.986,0,0,0,172.467,15.066Z" transform="translate(1005.108 7271.969)" fill="#12263f"/>
  </g>
</svg>
