<?xml version="1.0" encoding="utf-8"?>
<!-- Generator: Adobe Illustrator 26.1.0, SVG Export Plug-In . SVG Version: 6.00 Build 0)  -->
<svg version="1.1" id="Capa_1" xmlns="http://www.w3.org/2000/svg" xmlns:xlink="http://www.w3.org/1999/xlink" x="0px" y="0px"
	 viewBox="0 0 935.5 560.1" style="enable-background:new 0 0 935.5 560.1;" xml:space="preserve">
<style type="text/css">
	.st0{fill:#E8E8E8;}
	.st1{fill:#E0E0E0;}
	.st2{fill:#FAFAFA;}
	.st3{fill:#F0F0F0;}
	.st4{fill:#FFFFFF;}
	.st5{fill:#EBEBEB;}
	.st6{fill:#263238;}
	.st7{fill:#455A64;}
	.st8{fill:#37474F;}
	.st9{fill:#8776BC;}
	.st10{fill:#7453D8;}
	.st11{fill:#5232B2;}
	.st12{opacity:0.1;enable-background:new    ;}
	.st13{fill:#27DEBF;}
	.st14{opacity:0.5;enable-background:new    ;}
	.st15{fill:#20CB7D;}
	.st16{fill:#16945A;}
	.st17{opacity:0.1;fill:url(#Trazado_253510_00000171706585824465491160000011280311318837877376_);enable-background:new    ;}
	.st18{fill:#FDA929;}
	.st19{opacity:0.3;fill:#FFFFFF;enable-background:new    ;}
	.st20{opacity:0.2;fill:#FFFFFF;enable-background:new    ;}
	.st21{fill:#C18120;}
	.st22{fill:#12263F;}
	.st23{fill:#29398A;}
	.st24{opacity:0.3;enable-background:new    ;}
	.st25{fill:#E6E6E6;}
	.st26{opacity:0.1;fill:#20CB7D;enable-background:new    ;}
	.st27{opacity:5.000000e-02;fill:#20CB7D;enable-background:new    ;}
	.st28{opacity:0.4;fill:#20CB7D;enable-background:new    ;}
	.st29{opacity:0.4;enable-background:new    ;}
	.st30{fill:none;}
	.st31{fill:none;stroke:#E0E0E0;stroke-width:2;stroke-linecap:round;stroke-linejoin:round;}
	.st32{opacity:0.1;fill:#0E5032;enable-background:new    ;}
	.st33{opacity:0.1;fill:#FDA929;enable-background:new    ;}
	.st34{fill:#636363;}
	.st35{fill:none;stroke:#20CB7D;stroke-width:4;stroke-linecap:round;stroke-miterlimit:10;}
	.st36{opacity:0.4;}
	.st37{fill:#5638AE;}
	.st38{fill:url(#Trazado_253635_00000133526062078584435190000003260434331954841005_);}
	.st39{fill:url(#Trazado_253636_00000042731179497777039450000006405710392554334108_);}
	.st40{fill:#FFA8A7;}
	.st41{opacity:0.15;enable-background:new    ;}
	.st42{opacity:0.2;enable-background:new    ;}
	.st43{fill:#F28F8F;}
</style>
<g id="Grupo_146997" transform="translate(-332 -2300.667)">
	<g id="Grupo_146790" transform="translate(512.286 2264.338)">
		<g id="Floor" transform="translate(45.583 222.285)">
			<ellipse id="Floor-2" class="st0" cx="259.7" cy="147.4" rx="259.7" ry="147.4"/>
		</g>
		<g id="Shadows" transform="translate(52.027 282.494)">
			<path id="Shadow" class="st1" d="M370.6,61.8L334.5,41c-1.3-0.7-1.3-1.9,0-2.7l46.1-26.7c1.4-0.7,3.1-0.7,4.6,0l36.1,20.8
				c1.3,0.7,1.3,1.9,0,2.7l-46.1,26.7C373.7,62.5,372,62.5,370.6,61.8z"/>
			<ellipse id="Shadow-2" class="st1" cx="447" cy="94.6" rx="55.7" ry="37.9"/>
			<path id="Shadow-3" class="st1" d="M88.9,158.1l-88-50.8c-0.7-0.2-1.1-1-0.9-1.8c0.1-0.4,0.5-0.7,0.9-0.9l137.8-79.6
				c1.4-0.7,3.1-0.7,4.6,0l88,50.8c0.7,0.2,1.1,1,0.9,1.8c-0.1,0.4-0.5,0.7-0.9,0.9L93.5,158.1C92,158.8,90.4,158.8,88.9,158.1z"/>
			<path id="Shadow-4" class="st1" d="M100.5,150l20.3,11.7c1.7,0.9,3.8,0.9,5.5,0l253-146.1c1.5-0.9,1.5-2.3,0-3.2L358.9,0.7
				c-1.7-0.9-3.8-0.9-5.5,0L100.5,146.8C99,147.7,99,149.1,100.5,150z"/>
		</g>
		<g id="Gears" transform="translate(88.168 49.25)">
			<g id="Gears-2">
				<g id="Grupo_146702" transform="translate(0.693 11.958)">
					<path id="Trazado_253460" class="st1" d="M45.9,8.9L45.9,8.9C45.6,8.8,45.3,8.8,45,9l-1.9,1.2l-0.4,1.1c-0.2,0.7,0,1.5,0.5,2.1
						c0.3,0.3,0.6,0.7,0.9,1.1c0.4,0.6,1.2,0.8,1.8,0.4l4.5-2.9c0.3-0.2,0.6-0.2,0.9-0.1L45.9,8.9z M39,25c-0.6-3.6-3-5.3-6-5.1
						c0.3,0.7,0.5,1.4,0.6,2.1c1,5.6-2.7,13.7-8.2,17.9c-1.7,1.4-3.7,2.2-5.8,2.5c1.8,3.8,6.4,4.1,11.2,0.5C36.3,38.7,40,30.7,39,25
						z M39.1,0.9L39.1,0.9c-0.1-0.1-0.2-0.1-0.4-0.1L35.3,0c-0.8-0.1-1.5,0.2-1.9,0.9l-3.2,5.9c-0.2,0.3-0.4,0.6-0.7,0.8h0
						c-0.2,0.1-0.3,0.3-0.5,0.4l1,3.2c0.2,0.6,0.8,1,1.5,0.8c0,0,0.1,0,0.1-0.1c0.7-0.3,1.4-0.5,2.1-0.7c0.4-0.1,0.9-0.3,1.2-0.6
						c0.3-0.2,0.5-0.5,0.7-0.8l3.2-5.9c0.4-0.7,1.2-1,1.9-0.9l3.4,0.7c0.1,0,0.2,0.1,0.3,0.1L39.1,0.9z M29.5,58.4
						c-0.2-0.1-0.3-0.3-0.3-0.5L28,54.2c-0.2-0.6-0.8-1-1.4-0.8c-0.1,0-0.1,0-0.2,0.1c-0.7,0.3-1.4,0.5-2.1,0.7
						c-0.2,0.1-0.5,0.2-0.7,0.3l0.2,0.5c0.1,0.2,0.2,0.4,0.4,0.6v0L29.5,58.4z M23,3.9c-0.1-0.1-0.2-0.1-0.4-0.1
						c-0.2,0-0.5,0.1-0.6,0.2L16.9,8c-0.1,0.1-0.1,0.1-0.2,0.2c0,0-0.1,0.1-0.1,0.1c-0.2,0.2-0.3,0.5-0.4,0.8c0,0.1,0,0.1-0.1,0.2h0
						c-0.1,0.3-0.1,0.5-0.1,0.8l0.3,4.7c0,0.8-0.3,1.6-0.8,2.3c-0.8,1-1.6,2-2.4,3c-0.3,0.4-0.7,0.7-1.1,0.8
						c-0.1,0.1-0.3,0.1-0.4,0.1c-0.1,0-0.1,0-0.2,0c-0.1,0-0.2,0-0.3,0L7.7,21H7.6c-0.1,0-0.2,0-0.3,0c-0.1,0-0.2,0-0.2,0.1
						c0,0,0,0,0,0c-0.1,0-0.2,0.1-0.3,0.1c-0.2,0.1-0.3,0.2-0.5,0.3c-0.2,0.2-0.4,0.4-0.5,0.7l-3.1,6.7c-0.3,0.6,0,1.3,0.5,1.6
						l3.6,2C7,32.8,7,33.1,7,33.4c-0.2,1.1-0.4,2.1-0.6,3.2c-0.1,0.8-0.5,1.6-1.1,2.2l-0.1,0l-4.5,4c-0.1,0.1-0.2,0.1-0.2,0.2
						c0,0,0,0,0,0c-0.1,0.1-0.1,0.2-0.2,0.3C0.1,43.9,0,44.4,0,45l0.9,4.8c0,0.3,0.2,0.5,0.4,0.7l5.3,3c-0.2-0.2-0.3-0.4-0.4-0.6
						L5.4,48c0-0.3,0-0.6,0.1-0.9c0.1-0.5,0.4-0.9,0.7-1.2l4.5-4l0.1,0c0.6-0.6,1-1.4,1.1-2.2c0.1-1.1,0.3-2.1,0.6-3.2
						c0.2-0.7-0.2-1.5-0.9-1.8l-2.7-1.1c-0.7-0.3-1-1-0.7-1.7c0,0,0,0,0,0l3.1-6.7c0.1-0.3,0.3-0.5,0.5-0.7c0.4-0.3,0.9-0.5,1.4-0.5
						l3.3,0.2c0.3,0,0.6-0.1,0.9-0.2c0.4-0.2,0.8-0.5,1.1-0.8c0.7-1.1,1.5-2.1,2.4-3c0.5-0.6,0.8-1.5,0.8-2.3l-0.3-4.7
						c0-0.3,0-0.6,0.1-0.8c0.1-0.5,0.4-1,0.8-1.3l5.1-3.9c0.3-0.3,0.7-0.3,1-0.1L23,3.9z M15.3,54c0.2-0.7,0-1.5-0.5-2.1
						c-0.3-0.3-0.6-0.7-0.9-1.1c-0.4-0.6-1.2-0.8-1.8-0.4l-2.6,1.7l-1.9,4.9c-0.2,0.5,0,1.1,0.5,1.3l0,0l5.4,3
						c-0.5-0.3-0.7-0.9-0.5-1.4L15.3,54z"/>
					<path id="Trazado_253461" class="st2" d="M10.6,41.8l-4.5,4c-0.3,0.3-0.6,0.8-0.7,1.2l-5.4-3c0.1-0.2,0.2-0.5,0.3-0.7
						c0-0.1,0.1-0.2,0.2-0.3c0,0,0,0,0,0c0.1-0.1,0.1-0.2,0.2-0.2l4.5-4L10.6,41.8z"/>
					<path id="Trazado_253462" class="st2" d="M17.3,24c-0.3,0.1-0.6,0.2-0.9,0.2L13.1,24c-0.5,0-1,0.2-1.4,0.5l-5.4-3
						c0.1-0.1,0.3-0.2,0.5-0.3c0.1,0,0.2-0.1,0.3-0.1c0,0,0,0,0,0c0.1,0,0.2,0,0.2-0.1c0.1,0,0.2,0,0.3,0h0.1l3.3,0.2
						c0.1,0,0.2,0,0.3,0c0.1,0,0.1,0,0.2,0c0.1,0,0.3-0.1,0.4-0.1l0,0L17.3,24z"/>
					<path id="Trazado_253463" class="st2" d="M51.3,11.9c-0.3-0.1-0.7-0.1-0.9,0.1l-4.5,2.9c-0.6,0.4-1.4,0.2-1.8-0.4
						c-0.3-0.4-0.6-0.7-0.9-1.1c-0.5-0.6-0.7-1.4-0.5-2.1l0.4-1.1L45,9c0.3-0.2,0.6-0.2,0.9-0.1v0L51.3,11.9z"/>
					<path id="Trazado_253464" class="st2" d="M44.4,3.9c-0.1-0.1-0.2-0.1-0.3-0.1L40.7,3c-0.8-0.1-1.5,0.2-1.9,0.9l-3.2,5.9
						c-0.2,0.3-0.4,0.6-0.7,0.8l-5.4-3c0.3-0.2,0.5-0.5,0.7-0.8l3.2-5.9c0.4-0.7,1.2-1,1.9-0.9l3.4,0.7c0.1,0,0.2,0.1,0.4,0.1v0
						L44.4,3.9z"/>
					<path id="Trazado_253465" class="st2" d="M28.3,6.9c-0.3-0.2-0.7-0.1-1,0.1L22.2,11c-0.4,0.3-0.7,0.8-0.8,1.3l-5.4-3
						c0-0.1,0-0.1,0.1-0.2c0.1-0.3,0.3-0.5,0.4-0.8c0-0.1,0.1-0.1,0.1-0.1C16.7,8.1,16.8,8,16.9,8L22,4.1c0.2-0.1,0.4-0.2,0.6-0.2
						c0.1,0,0.3,0,0.4,0.1L28.3,6.9z"/>
					<path id="Trazado_253466" class="st3" d="M52.6,17.4l-0.8-4.8c0-0.4-0.4-0.8-0.9-0.8c-0.2,0-0.3,0.1-0.5,0.2l-4.5,2.9
						c-0.6,0.4-1.4,0.2-1.8-0.4c-0.3-0.4-0.6-0.7-0.9-1c-0.5-0.6-0.7-1.4-0.5-2.1l2.3-6.1c0.2-0.6,0-1.2-0.6-1.4
						c-0.1,0-0.2-0.1-0.2-0.1L40.7,3c-0.8-0.1-1.5,0.2-1.9,0.9l-3.2,5.9c-0.4,0.7-1.1,1.2-1.9,1.4c-0.7,0.2-1.4,0.4-2.1,0.7
						c-0.6,0.3-1.3,0-1.6-0.6c0,0,0-0.1-0.1-0.1l-1.2-3.7c-0.1-0.5-0.5-0.8-1-0.7c-0.2,0-0.3,0.1-0.4,0.2L22.2,11
						c-0.6,0.5-1,1.3-1,2.1l0.3,4.7c0,0.8-0.3,1.6-0.8,2.3c-0.8,1-1.6,2-2.4,3.1c-0.5,0.6-1.3,1-2.1,1L13.1,24
						c-0.8,0-1.5,0.4-1.9,1.1l-3.1,6.7c-0.3,0.6,0,1.4,0.6,1.7c0,0,0,0,0.1,0l2.6,1.1c0.7,0.3,1.1,1,0.9,1.8
						c-0.2,1.1-0.4,2.1-0.6,3.2c-0.1,0.8-0.5,1.6-1.1,2.2l-4.5,4c-0.6,0.6-0.9,1.4-0.8,2.2l0.8,4.8c0,0.4,0.4,0.8,0.9,0.8
						c0.2,0,0.3-0.1,0.5-0.2l4.5-2.9c0.6-0.4,1.4-0.2,1.8,0.4c0.3,0.4,0.6,0.7,0.9,1c0.5,0.5,0.7,1.3,0.5,2.1L13,60.1
						c-0.2,0.6,0,1.2,0.6,1.4c0.1,0,0.2,0.1,0.2,0.1l3.4,0.7c0.8,0.1,1.5-0.2,1.9-0.9l3.2-5.9c0.4-0.7,1.1-1.2,1.9-1.4
						c0.7-0.2,1.4-0.4,2.1-0.7c0.6-0.3,1.3,0,1.6,0.6c0,0,0,0.1,0.1,0.2l1.2,3.7c0.1,0.5,0.5,0.8,1,0.7c0.2,0,0.3-0.1,0.4-0.2
						l5.1-3.9c0.6-0.5,1-1.3,1-2.1l-0.3-4.7c0-0.8,0.3-1.6,0.8-2.3c0.8-1,1.6-2,2.4-3.1c0.5-0.6,1.3-1,2.1-1l3.3,0.2
						c0.8,0,1.5-0.4,1.9-1.1l3.1-6.7c0.3-0.6,0-1.4-0.6-1.7c0,0,0,0-0.1,0l-2.6-1.1c-0.7-0.3-1.1-1-0.9-1.8c0.2-1.1,0.4-2.1,0.6-3.2
						c0.1-0.8,0.5-1.6,1.1-2.2l4.5-4C52.4,19,52.7,18.2,52.6,17.4z M30.8,42.9C25.3,47.1,20,46,19,40.3s2.7-13.7,8.2-17.9
						S38,19.4,39,25S36.3,38.7,30.8,42.9z"/>
				</g>
				<g id="Grupo_146703" transform="translate(0 86.991)">
					<path id="Trazado_253467" class="st1" d="M53.1,10.3L53.1,10.3c-0.3-0.2-0.8-0.1-1.1,0.1l-2.2,1.4l-0.5,1.3
						c-0.3,0.9,0,1.8,0.6,2.4c0.4,0.4,0.7,0.8,1,1.2c0.5,0.7,1.4,0.9,2.1,0.5l5.2-3.3c0.3-0.2,0.7-0.3,1.1-0.1L53.1,10.3z
						 M45.1,28.9c-0.7-4.1-3.4-6.2-6.9-5.9c0.3,0.8,0.6,1.6,0.7,2.4c1.2,6.5-3.1,15.8-9.5,20.7c-1.9,1.6-4.2,2.6-6.7,2.9
						c2.1,4.4,7.4,4.8,12.9,0.6C42,44.7,46.2,35.5,45.1,28.9z M45.2,1.1L45.2,1.1c-0.1-0.1-0.3-0.1-0.4-0.2L40.8,0
						c-0.9-0.2-1.8,0.2-2.2,1l-3.7,6.9c-0.2,0.4-0.5,0.7-0.8,0.9h0c-0.2,0.2-0.4,0.3-0.6,0.4l1.2,3.7c0.2,0.7,1,1.1,1.7,0.9
						c0.1,0,0.1,0,0.2-0.1c0.8-0.3,1.6-0.6,2.4-0.8c0.5-0.1,1-0.4,1.4-0.7c0.3-0.2,0.6-0.6,0.8-0.9l3.7-6.9c0.5-0.8,1.4-1.2,2.2-1
						L51,4.4c0.1,0,0.3,0.1,0.4,0.1L45.2,1.1z M34.1,67.5c-0.2-0.1-0.3-0.4-0.4-0.6l-1.3-4.3c-0.2-0.7-1-1.1-1.7-0.9
						c-0.1,0-0.1,0-0.2,0.1c-0.8,0.3-1.6,0.6-2.4,0.8c-0.3,0.1-0.5,0.2-0.8,0.3l0.2,0.6c0.1,0.3,0.3,0.5,0.5,0.7v0L34.1,67.5z
						 M26.6,4.5c-0.1-0.1-0.3-0.1-0.4-0.1c-0.3,0-0.5,0.1-0.7,0.3l-5.9,4.5c-0.1,0.1-0.2,0.1-0.2,0.2c-0.1,0.1-0.1,0.1-0.2,0.2
						c-0.2,0.3-0.4,0.6-0.5,0.9c0,0.1-0.1,0.2-0.1,0.2h0c-0.1,0.3-0.2,0.6-0.2,0.9l0.4,5.5c0,1-0.3,1.9-0.9,2.6
						c-1,1.1-1.9,2.3-2.7,3.5c-0.3,0.4-0.8,0.8-1.3,1c-0.2,0.1-0.3,0.1-0.5,0.1c-0.1,0-0.2,0-0.2,0c-0.1,0-0.2,0-0.3,0l-3.8-0.2H8.8
						c-0.1,0-0.2,0-0.3,0c-0.1,0-0.2,0-0.3,0.1c0,0,0,0,0,0c-0.1,0-0.2,0.1-0.3,0.1c-0.2,0.1-0.4,0.2-0.5,0.3
						c-0.3,0.2-0.5,0.5-0.6,0.8l-3.6,7.8c-0.3,0.7-0.1,1.5,0.6,1.9L8,37.6c0.1,0.3,0.2,0.7,0.1,1.1c-0.3,1.2-0.5,2.5-0.7,3.7
						c-0.1,1-0.6,1.8-1.3,2.5l-0.1,0.1l-5.2,4.6c-0.1,0.1-0.2,0.2-0.2,0.3c0,0,0,0,0,0.1c-0.1,0.1-0.2,0.2-0.2,0.3
						C0.1,50.7,0,51.4,0,52l1,5.5c0,0.3,0.2,0.6,0.5,0.8l6.2,3.5c-0.2-0.2-0.4-0.4-0.4-0.7l-1-5.5c-0.1-0.4,0-0.7,0.1-1.1
						c0.1-0.5,0.4-1.1,0.8-1.4l5.2-4.6l0.1-0.1c0.7-0.7,1.1-1.6,1.3-2.5c0.1-1.2,0.4-2.5,0.7-3.7c0.2-0.8-0.3-1.7-1.1-2.1l-3.1-1.3
						c-0.8-0.3-1.1-1.2-0.8-1.9c0,0,0,0,0-0.1l3.6-7.8c0.1-0.3,0.4-0.6,0.6-0.8c0.4-0.4,1-0.6,1.6-0.6l3.8,0.2
						c0.4,0,0.7-0.1,1.1-0.2c0.5-0.2,1-0.5,1.3-1c0.9-1.2,1.8-2.4,2.7-3.5c0.6-0.7,0.9-1.7,0.9-2.6l-0.4-5.5c0-0.3,0-0.6,0.1-0.9
						c0.2-0.6,0.5-1.1,1-1.5l5.9-4.5c0.3-0.3,0.8-0.4,1.2-0.2L26.6,4.5z M17.7,62.5c0.2-0.9,0-1.8-0.6-2.4c-0.4-0.4-0.7-0.8-1-1.2
						c-0.5-0.7-1.4-0.9-2.1-0.5l-3,1.9L8.8,66c-0.2,0.6,0,1.2,0.5,1.6l0,0l6.2,3.5c-0.5-0.3-0.8-1-0.5-1.6L17.7,62.5z"/>
					<path id="Trazado_253468" class="st2" d="M12.3,48.4L7.1,53c-0.4,0.4-0.7,0.9-0.8,1.4L0.1,51c0.1-0.3,0.2-0.5,0.3-0.8
						c0.1-0.1,0.1-0.2,0.2-0.3c0,0,0,0,0-0.1c0.1-0.1,0.2-0.2,0.2-0.3l5.2-4.6L12.3,48.4z"/>
					<path id="Trazado_253469" class="st2" d="M20,27.7c-0.3,0.2-0.7,0.2-1.1,0.2l-3.8-0.2c-0.6,0-1.1,0.2-1.6,0.6l-6.2-3.5
						c0.2-0.1,0.4-0.2,0.5-0.3c0.1,0,0.2-0.1,0.3-0.1c0,0,0,0,0,0c0.1,0,0.2,0,0.3-0.1c0.1,0,0.2,0,0.3,0h0.1l3.8,0.2
						c0.1,0,0.2,0,0.3,0c0.1,0,0.2,0,0.2,0c0.2,0,0.3-0.1,0.5-0.2l0,0L20,27.7z"/>
					<path id="Trazado_253470" class="st2" d="M59.3,13.8c-0.3-0.2-0.8-0.1-1.1,0.1L53,17.2c-0.7,0.4-1.6,0.2-2.1-0.5
						c-0.3-0.4-0.6-0.8-1-1.2c-0.6-0.6-0.9-1.6-0.6-2.4l0.5-1.3l2.2-1.4c0.3-0.2,0.7-0.3,1.1-0.1v0L59.3,13.8z"/>
					<path id="Trazado_253471" class="st2" d="M51.4,4.5c-0.1-0.1-0.3-0.1-0.4-0.1L47,3.5c-0.9-0.2-1.8,0.2-2.2,1l-3.7,6.9
						c-0.2,0.4-0.5,0.7-0.8,0.9l-6.2-3.5c0.3-0.2,0.6-0.6,0.8-0.9L38.6,1c0.5-0.8,1.3-1.2,2.2-1l3.9,0.9c0.1,0,0.3,0.1,0.4,0.2v0
						L51.4,4.5z"/>
					<path id="Trazado_253472" class="st2" d="M32.8,8c-0.4-0.2-0.8-0.1-1.2,0.2l-5.9,4.5c-0.5,0.4-0.8,0.9-1,1.5l-6.2-3.5
						c0-0.1,0.1-0.1,0.1-0.2c0.1-0.3,0.3-0.6,0.5-0.9c0-0.1,0.1-0.1,0.2-0.2c0.1-0.1,0.1-0.1,0.2-0.2l5.9-4.5
						c0.2-0.2,0.5-0.3,0.7-0.3c0.2,0,0.3,0,0.4,0.1L32.8,8z"/>
					<path id="Trazado_253473" class="st3" d="M60.8,20.1l-1-5.5c0-0.5-0.5-0.9-1-0.9c-0.2,0-0.4,0.1-0.6,0.2L53,17.2
						c-0.7,0.4-1.6,0.2-2.1-0.5c-0.3-0.4-0.6-0.8-1-1.2c-0.6-0.6-0.9-1.6-0.6-2.4l2.7-7c0.3-0.7,0-1.4-0.7-1.7
						c-0.1,0-0.2-0.1-0.3-0.1L47,3.5c-0.9-0.2-1.8,0.2-2.2,1l-3.7,6.9c-0.5,0.8-1.3,1.4-2.2,1.6c-0.8,0.2-1.6,0.5-2.4,0.8
						c-0.7,0.3-1.5,0-1.8-0.7c0-0.1,0-0.1-0.1-0.2l-1.3-4.3c-0.1-0.5-0.6-0.9-1.2-0.8c-0.2,0-0.4,0.1-0.5,0.3l-5.9,4.5
						c-0.7,0.6-1.1,1.5-1.1,2.4l0.4,5.5c0,1-0.3,1.9-0.9,2.6c-1,1.1-1.9,2.3-2.7,3.5c-0.6,0.7-1.5,1.2-2.4,1.2l-3.8-0.2
						c-0.9,0-1.7,0.5-2.2,1.3l-3.6,7.8c-0.3,0.7,0,1.6,0.7,1.9c0,0,0,0,0.1,0l3.1,1.3c0.8,0.4,1.2,1.2,1.1,2.1
						c-0.3,1.2-0.5,2.5-0.7,3.7c-0.2,1-0.6,1.8-1.3,2.5L7.1,53c-0.7,0.7-1,1.6-0.9,2.5l1,5.5c0,0.5,0.5,0.9,1,0.9
						c0.2,0,0.4-0.1,0.6-0.2l5.2-3.3c0.7-0.4,1.6-0.2,2.1,0.5c0.3,0.4,0.6,0.8,1,1.2c0.6,0.6,0.9,1.6,0.6,2.4l-2.7,7
						c-0.3,0.7,0,1.4,0.7,1.7c0.1,0,0.2,0.1,0.3,0.1L20,72c0.9,0.2,1.8-0.2,2.2-1l3.7-6.9c0.5-0.8,1.3-1.4,2.2-1.6
						c0.8-0.2,1.6-0.5,2.4-0.8c0.7-0.3,1.5,0,1.8,0.7c0,0.1,0,0.1,0.1,0.2l1.3,4.3c0.1,0.5,0.6,0.9,1.2,0.8c0.2,0,0.4-0.1,0.5-0.3
						l5.9-4.5c0.7-0.6,1.1-1.5,1.1-2.4L42.1,55c0-1,0.3-1.9,0.9-2.6c1-1.1,1.9-2.3,2.7-3.5c0.6-0.7,1.5-1.2,2.4-1.2l3.8,0.2
						c0.9,0,1.8-0.5,2.2-1.3l3.6-7.8c0.3-0.7,0-1.6-0.7-1.9c0,0,0,0-0.1,0l-3.1-1.3c-0.8-0.4-1.2-1.2-1.1-2.1
						c0.3-1.2,0.5-2.5,0.7-3.7c0.2-1,0.6-1.8,1.3-2.5l5.2-4.7C60.6,21.9,60.9,21,60.8,20.1z M35.6,49.6c-6.4,4.9-12.5,3.6-13.7-3
						S25,30.9,31.4,26s12.5-3.6,13.7,3S42,44.7,35.6,49.6z"/>
				</g>
				<g id="Grupo_146704" transform="translate(62.458)">
					<path id="Trazado_253474" class="st1" d="M19,85c0.3-0.7,0.2-1.5-0.1-2.2c-0.9-1.4-1.5-2.9-2-4.4c-0.2-0.6-0.8-0.9-1.3-0.8
						c-0.1,0-0.1,0-0.2,0.1l-2.2,1c0.2,0.4,0.5,0.9,0.7,1.3c0.4,0.7,0.4,1.5,0.1,2.2L7.9,94.1c-0.3,0.6-0.1,1.4,0.5,1.7l5,2.8
						c-0.6-0.4-0.8-1.1-0.5-1.7L19,85z M46.1,1.8c-0.1-0.1-0.2-0.1-0.3-0.1c-0.2,0-0.3,0.1-0.5,0.1L35,7.6l-0.2,0.1
						c-0.1,0-0.1,0.1-0.2,0.1S34.6,8,34.6,8c-0.1,0.1-0.2,0.2-0.3,0.3c-0.3,0.3-0.4,0.8-0.5,1.2l-1,11.1c-0.1,0.8-0.5,1.5-1.1,2.1
						c-2,1.8-3.9,3.8-5.7,5.9c-0.5,0.6-1.3,0.8-2,0.6l-6.6-2.2c-0.2-0.1-0.3-0.1-0.5-0.1h0c0,0-0.1,0-0.1,0c0,0-0.1,0-0.1,0
						c-0.1,0-0.1,0-0.2,0c-0.2,0.1-0.4,0.2-0.6,0.3c0,0-0.1,0.1-0.1,0.1c-0.1,0.1-0.2,0.2-0.2,0.3L8,40.3c-0.2,0.3-0.2,0.6-0.2,0.9
						c0,0.4,0.2,0.7,0.5,1l5.3,4.4c0.5,0.5,0.7,1.3,0.5,2c-1,2.5-1.8,5.1-2.4,7.7c-0.1,0.4-0.3,0.8-0.6,1.2
						c-0.1,0.1-0.1,0.2-0.2,0.2c-0.1,0.1-0.1,0.1-0.2,0.2c-0.1,0.1-0.2,0.2-0.4,0.3L1,64.7c-0.1,0-0.1,0.1-0.2,0.1
						c-0.1,0.1-0.1,0.1-0.2,0.2C0.3,65.4,0,66,0,66.7v11.5c0,0.3,0.1,0.6,0.4,0.7l5.1,2.8C5.2,81.6,5,81.3,5.1,81V69.5
						c0-0.5,0.2-0.9,0.4-1.3c0.2-0.3,0.4-0.5,0.6-0.7l9.4-6.4c0.3-0.2,0.5-0.5,0.7-0.7c0.3-0.4,0.5-0.8,0.6-1.2
						c0.6-2.6,1.4-5.2,2.4-7.7c0.2-0.7,0-1.5-0.5-2L13.4,45c-0.3-0.2-0.5-0.6-0.5-1c-0.1-0.3,0-0.7,0.2-0.9l7.6-12.7
						c0.3-0.4,0.7-0.7,1.3-0.7c0.2,0,0.4,0,0.6,0.1L29,32c0.7,0.2,1.5,0,2-0.6c1.8-2.1,3.7-4,5.7-5.9c0.6-0.6,0.9-1.3,1.1-2.1
						l1-11.1c0-0.2,0.1-0.5,0.2-0.7c0.2-0.5,0.6-0.9,1-1.2l10.3-5.8c0.2-0.1,0.5-0.2,0.8-0.1L46.1,1.8z M39.2,100.7
						c-0.2-0.2-0.3-0.4-0.3-0.7l-1-9.7c-0.1-0.6-0.6-1-1.2-1c-0.1,0-0.1,0-0.2,0c-1.1,0.2-2.3,0.4-3.4,0.5l0.8,7.4
						c0,0.3,0.2,0.5,0.4,0.7v0L39.2,100.7z M55.2,31.2c1.5,2,2.2,5,2.2,8.9c0,10.8-7.8,23.8-17.3,29.2c-3.7,2.1-6.9,2.8-9.4,2.2
						c3.1,3.5,8.4,4,14.5,0.6c9.6-5.4,17.3-18.5,17.3-29.2C62.5,36.4,59.7,32.2,55.2,31.2z M65.2,0.2c-0.6-0.3-1.4-0.2-1.8,0.4
						l-7.6,11.1c0,0-0.1,0.1-0.1,0.1c-0.1,0.1-0.1,0.1-0.2,0.2c0,0-0.1,0.1-0.1,0.1c0,0-0.1,0.1-0.1,0.1c-0.4,0.3-1,0.5-1.5,0.5
						c-0.5,0-1,0-1.5,0l0.2,2.4c0.1,0.6,0.6,1,1.2,1c0.1,0,0.1,0,0.2,0c1.6-0.4,3.3-0.5,4.9-0.5c0.5,0,1.1-0.2,1.5-0.5
						c0.2-0.1,0.4-0.3,0.5-0.5l7.6-11.1c0.4-0.6,1.2-0.7,1.8-0.4L65.2,0.2z M79.9,20.8c-0.1,0-0.1,0-0.2-0.1c-0.2,0-0.4,0-0.6,0.1
						l-6.9,3c0.2,0.3,0.3,0.6,0.5,1c0.1,0.3,0.3,0.6,0.4,0.9c0,0.1,0.1,0.1,0.1,0.2c0.1,0.3,0.2,0.6,0.3,0.9c0,0.1,0,0.1,0.1,0.2
						c0.1,0.2,0.1,0.3,0.3,0.5c0,0,0.1,0.1,0.1,0.1c0,0,0.1,0,0.1,0.1c0.1,0.1,0.2,0.1,0.3,0.1c0,0,0.1,0,0.1,0c0.1,0,0.3,0,0.4,0v0
						c0,0,0,0,0,0c0.1,0,0.1,0,0.2-0.1l9.1-4c0.2-0.1,0.5-0.1,0.7-0.1c0,0,0.1,0,0.1,0.1L79.9,20.8z"/>
					<path id="Trazado_253475" class="st2" d="M70.2,3c-0.6-0.3-1.4-0.2-1.8,0.4l-7.6,11.1c-0.1,0.2-0.3,0.4-0.5,0.5l-5-2.8l0,0
						c0.1,0,0.1-0.1,0.2-0.2c0.1-0.1,0.1-0.1,0.2-0.2c0,0,0.1-0.1,0.1-0.1l7.6-11.1c0.4-0.6,1.2-0.8,1.8-0.4L70.2,3z"/>
					<path id="Trazado_253476" class="st2" d="M16.2,60.4c-0.2,0.3-0.5,0.5-0.7,0.7l-9.4,6.4c-0.3,0.2-0.5,0.4-0.6,0.7l-5-2.8
						c0.1-0.1,0.2-0.3,0.3-0.4c0.1-0.1,0.1-0.1,0.2-0.2c0.1,0,0.1-0.1,0.2-0.1l9.4-6.4c0.1-0.1,0.3-0.2,0.4-0.3
						c0.1-0.1,0.1-0.1,0.2-0.2s0.1-0.1,0.2-0.2h0L16.2,60.4z"/>
					<path id="Trazado_253477" class="st2" d="M21.8,29.7c-0.5,0-1,0.3-1.3,0.7L13,43.1c-0.2,0.3-0.2,0.6-0.2,0.9l-5-2.8
						c0-0.3,0-0.6,0.2-0.9l7.5-12.7c0.1-0.1,0.1-0.2,0.2-0.3c0,0,0.1-0.1,0.1-0.1c0.2-0.1,0.4-0.2,0.6-0.3c0.1,0,0.1,0,0.2,0
						c0,0,0.1,0,0.1,0c0,0,0.1,0,0.1,0c0,0,0,0,0,0l0,0L21.8,29.7z"/>
					<path id="Trazado_253478" class="st2" d="M51.1,4.6c-0.3-0.1-0.5,0-0.8,0.1l-10.3,5.8c-0.5,0.3-0.8,0.7-1,1.2l-5-2.8
						c0.1-0.2,0.2-0.4,0.3-0.5c0.1-0.1,0.2-0.2,0.3-0.3c0.1-0.1,0.1-0.1,0.1-0.1s0.1-0.1,0.2-0.1L35,7.6l10.3-5.8
						c0.2-0.1,0.3-0.1,0.5-0.1c0.1,0,0.2,0,0.3,0.1L51.1,4.6z"/>
					<path id="Trazado_253479" class="st2" d="M79.9,20.8l5.1,2.8c0,0-0.1,0-0.1-0.1c-0.2-0.1-0.5-0.1-0.7,0.1l-9.1,4
						c-0.4,0.2-0.9,0.1-1.2-0.2c-0.1-0.1-0.2-0.3-0.3-0.5c0-0.1,0-0.1-0.1-0.2c-0.1-0.3-0.2-0.6-0.3-0.9c0-0.1,0-0.1-0.1-0.2
						c-0.1-0.3-0.2-0.6-0.4-0.9c-0.1-0.3-0.3-0.6-0.5-1l6.9-3c0.2-0.1,0.4-0.1,0.6-0.1C79.8,20.8,79.9,20.8,79.9,20.8L79.9,20.8z"/>
					<rect id="Rectángulo_44293" x="85" y="23.6" class="st2" width="0" height="0"/>
					<path id="Trazado_253480" class="st3" d="M85.3,35.9V24.4c0.1-0.4-0.2-0.8-0.7-0.8c-0.2,0-0.4,0-0.5,0.1l-9.1,4
						c-0.5,0.3-1.2,0-1.5-0.5c0-0.1,0-0.1-0.1-0.2c-0.5-1.5-1.2-3-2-4.4c-0.4-0.7-0.4-1.5-0.1-2.2l6.1-11.9c0.3-0.6,0.1-1.4-0.5-1.7
						L70.3,3c-0.6-0.3-1.4-0.2-1.8,0.4l-7.6,11.1c-0.5,0.6-1.2,1-2,1c-1.7,0-3.3,0.1-4.9,0.5c-0.6,0.2-1.2-0.2-1.3-0.7
						c0-0.1,0-0.1,0-0.2l-1-9.7c0-0.4-0.3-0.8-0.8-0.8c-0.2,0-0.3,0.1-0.5,0.2l-10.3,5.8c-0.7,0.4-1.1,1.1-1.2,1.9l-1,11.1
						c-0.1,0.8-0.5,1.5-1.1,2.1c-2,1.8-3.9,3.8-5.7,5.9c-0.5,0.5-1.3,0.8-2,0.6l-6.6-2.2c-0.7-0.2-1.5,0.1-1.8,0.7L13,43.1
						c-0.3,0.6-0.2,1.4,0.3,1.9l5.3,4.4c0.5,0.5,0.7,1.3,0.5,2c-1,2.5-1.8,5.1-2.4,7.7c-0.2,0.8-0.7,1.4-1.3,1.9l-9.4,6.4
						c-0.6,0.5-1,1.2-1,2V81c-0.1,0.4,0.2,0.8,0.7,0.8c0.2,0,0.4,0,0.5-0.1l9.1-4c0.5-0.3,1.2,0,1.5,0.5c0,0.1,0,0.1,0.1,0.2
						c0.5,1.5,1.2,3,2,4.4c0.4,0.7,0.4,1.5,0.1,2.2L13,96.9c-0.3,0.6-0.1,1.4,0.5,1.7l6.6,3.7c0.6,0.3,1.4,0.2,1.8-0.4l7.6-11.1
						c0.5-0.6,1.2-1,2-1c1.7,0,3.3-0.1,4.9-0.5c0.6-0.2,1.2,0.2,1.3,0.7c0,0.1,0,0.1,0,0.2l1,9.7c0,0.4,0.3,0.8,0.8,0.8
						c0.2,0,0.3-0.1,0.5-0.2l10.3-5.8c0.7-0.4,1.1-1.1,1.2-1.9l1-11.1c0.1-0.8,0.5-1.5,1.1-2.1c2-1.8,3.9-3.8,5.7-5.9
						c0.5-0.6,1.3-0.8,2-0.6l6.6,2.2c0.7,0.2,1.5-0.1,1.8-0.7l7.5-12.7c0.3-0.6,0.2-1.4-0.3-1.9L71.7,56c-0.5-0.5-0.7-1.3-0.5-2
						c1-2.5,1.8-5.1,2.4-7.7c0.2-0.8,0.7-1.5,1.3-1.9l9.4-6.4C84.9,37.4,85.3,36.7,85.3,35.9z M45.2,72.2c-9.6,5.4-17.3,1-17.3-9.7
						s7.8-23.8,17.3-29.2s17.3-1,17.3,9.7S54.8,66.8,45.2,72.2z"/>
				</g>
			</g>
		</g>
		<g id="Books" transform="translate(52.937 228.016)">
			<g id="Books-2">
				<g id="Book" transform="translate(13.396 59.133)">
					<g id="Grupo_146705">
						<path id="Trazado_253481" d="M0,97.5l75.8,43.2l125.1-71.8l-75.7-42.2L0,97.5z"/>
						<path id="Trazado_253482" class="st4" d="M76.6,137.4L3.5,95.5c1.9-5.4,1.8-11.7-0.4-19L75.8,118
							C75.8,118,77.1,122.6,76.6,137.4z"/>
						<path id="Trazado_253483" class="st5" d="M75.8,118L3.1,76.5c0.6,2,1.1,4.1,1.3,6.2l72.1,41.6C76.5,122.2,76.2,120.1,75.8,118
							z"/>
						<path id="Trazado_253484" class="st6" d="M72,112.1c4.1,2.7,6.7,7.2,7,12.1v14.1c0,4.5-3.1,6.3-7,4L0,101l0-3.5L71.1,138
							c2.3,1.3,4.2,0.3,4.2-2.4l-0.1-13.1c-0.2-3-1.7-5.6-4.2-7.3L0,74.7v-4L72,112.1z"/>
						<path id="Trazado_253485" class="st7" d="M0,70.8L125.2,0l72,40.3c4.1,2.7,6.7,7.2,7,12.1v14.1c0,2.2-0.8,3.8-2.1,4.5
							L77,142.8c1.3-0.7,2.1-2.3,2.1-4.5l0-14.1c-0.3-4.9-2.9-9.4-7-12.1L0,70.8z"/>
						<path id="Trazado_253486" class="st8" d="M77,117.3c1.3,2.1,2,4.4,2.1,6.9l0,14.1c0,2.2-0.8,3.8-2.1,4.5L202.1,71
							c1.3-0.7,2.1-2.3,2.1-4.5V52.4c-0.1-2.4-0.8-4.8-2.1-6.9L77,117.3z"/>
					</g>
				</g>
				<g id="Book-2" transform="translate(13.193 30.501)">
					<g id="Grupo_146706">
						<path id="Trazado_253487" class="st9" d="M0,90.3l76.2,43.6l116-66.6L116,24.8L0,90.3z"/>
						<path id="Trazado_253490" class="st4" d="M77,130.9L3.3,88.5c1.8-5,1.6-10.9-0.4-17.6l73.3,42C76.2,112.9,77.5,117.1,77,130.9
							z"/>
						<path id="Trazado_253491" class="st5" d="M76.2,112.9l-73.3-42c0.6,2,1.1,4.1,1.3,6.2l72.7,42C76.9,117,76.7,114.9,76.2,112.9
							z"/>
						<path id="Trazado_253492" class="st10" d="M72.8,107.4c3.8,2.5,6.3,6.6,6.5,11.2v13.1c0,4.1-2.9,5.8-6.5,3.7L0,93.6l0-3.2
							l71.9,41.1c2.2,1.2,3.9,0.2,3.9-2.2l-0.1-12.1c-0.2-2.7-1.6-5.2-3.9-6.7L0,69.2v-3.7L72.8,107.4z"/>
						<path id="Trazado_253495" class="st10" d="M0,65.6L116,0l72.7,40.8c3.8,2.5,6.3,6.6,6.5,11.2v13.1c0,2.1-0.7,3.5-1.9,4.2
							l-116,66.6c1.2-0.7,1.9-2.1,1.9-4.2l0-13.1c-0.3-4.6-2.7-8.7-6.5-11.2L0,65.6z"/>
						<path id="Trazado_253497" class="st11" d="M77.4,112.2c1.2,1.9,1.8,4.1,1.9,6.4l0,13.1c0,2.1-0.7,3.5-1.9,4.2l116-66.6
							c1.2-0.7,1.9-2.1,1.9-4.2V52c-0.1-2.3-0.7-4.4-1.9-6.4L77.4,112.2z"/>
					</g>
				</g>
				<path id="Trazado_253499" class="st12" d="M82.5,135.9v28l-5,2.7l-64.1-36.8l5-2.8l-5.2-3l0-3.2l3.3-1.9
					c1.9-5.4,1.5-11.4-0.4-17.6l-2.9-1.7V96L82.5,135.9z"/>
				<g id="Book-3">
					<g id="Grupo_146707">
						<path id="Trazado_253500" class="st13" d="M0,90.3l76.9,44.2l116-66.6L116,24.8L0,90.3z"/>
						<path id="Trazado_253501" class="st14" d="M0,90.3l76.9,44.2l116-66.6L116,24.8L0,90.3z"/>
						<path id="Trazado_253502" class="st4" d="M77.7,131.5l-74.4-43c1.8-5,1.6-9.9-0.4-16.5l74,42.6
							C76.9,114.5,78.2,117.8,77.7,131.5z"/>
						<path id="Trazado_253503" class="st5" d="M76.9,114.5l-74-42.6C3.5,74,4,76,4.3,78.1l73.4,42.4
							C77.6,118.5,77.4,116.5,76.9,114.5z"/>
						<path id="Trazado_253504" class="st15" d="M73.5,109.1c3.8,2.5,6.3,6.6,6.5,11.2v12.1c0,4.1-2.9,5.8-6.5,3.7L0,93.6l0-3.2
							l72.6,41.7c2.2,1.2,3.9,0.2,3.9-2.2l-0.1-11.1c-0.2-2.7-1.6-5.2-3.9-6.7L0,70.3v-3.7L73.5,109.1z"/>
						<path id="Trazado_253506" class="st15" d="M0,66.6L116,0l73.4,42.5c3.8,2.5,6.3,6.6,6.5,11.2v12.1c0,2.1-0.7,3.5-1.9,4.2
							l-116,66.6c1.2-0.7,1.9-2.1,1.9-4.2l0-12.1c-0.3-4.6-2.7-8.7-6.5-11.2L0,66.6z"/>
						<path id="Trazado_253508" class="st16" d="M78.1,113.9c1.2,1.9,1.8,4.1,1.9,6.4l0,12.1c0,2.1-0.7,3.5-1.9,4.2l116-66.6
							c1.2-0.7,1.9-2.1,1.9-4.2V53.7c-0.1-2.3-0.7-4.4-1.9-6.4L78.1,113.9z"/>
					</g>
				</g>
				
					<linearGradient id="Trazado_253510_00000125565746791938758300000007810720696197405598_" gradientUnits="userSpaceOnUse" x1="-71.9073" y1="484.5325" x2="-71.9073" y2="483.5325" gradientTransform="matrix(136.793 0 0 -147.317 9985.6133 71427.1641)">
					<stop  offset="0" style="stop-color:#BA68C8"/>
					<stop  offset="0.19" style="stop-color:#9139AF"/>
					<stop  offset="0.31" style="stop-color:#7B1FA2"/>
					<stop  offset="1" style="stop-color:#45147B"/>
				</linearGradient>
				
					<path id="Trazado_253510" style="opacity:0.1;fill:url(#Trazado_253510_00000125565746791938758300000007810720696197405598_);enable-background:new    ;" d="
					M217.6,112L217.6,112v-0.5c0-0.9-0.1-1.7-0.3-2.6v0c-0.9-3.9-3.3-7.3-6.7-9.5l-2.5-1.4c0.3-0.8,0.4-1.6,0.4-2.4V82.5
					c-0.3-4.6-2.7-8.7-6.5-11.2l-6.3-3.5c0.2-0.7,0.3-1.4,0.3-2.1V53.7c0-0.3,0-0.5,0-0.8c0-0.3-0.1-0.7-0.1-1
					c-0.1-0.5-0.2-1-0.3-1.4l0,0c-0.1-0.3-0.2-0.5-0.3-0.8l0,0c-0.3-0.8-0.7-1.6-1.1-2.3l0,0l-90.9,52.2v22.6l-22.4,12.9l1.7,1
					l10.7-6.2l9.9,5.7v23.6l-8.6,5l0,0l-3.9,2.3l-0.1,0.1c-1.2,0.7-2.8,0.6-4.6-0.4l-3.4-2l-1.5,0.8l5.5,3.2c1.5,0.9,3.4,0.9,4.9,0
					l5-2.9l6.8,3.9v25.6l112.3-64.5c0.3-0.2,0.6-0.4,0.9-0.7c0.9-1.1,1.3-2.4,1.2-3.8L217.6,112z"/>
			</g>
		</g>
		<g id="Apple" transform="translate(77.806 227.971)">
			<g id="Apple-2" transform="translate(0)">
				<path id="Trazado_253511" class="st12" d="M11.3,80.9c10.2,7.9,29.7,9.7,43.6,4s16.9-16.7,6.6-24.6s-29.7-9.7-43.6-4
					C4.1,62,1.1,73,11.3,80.9z"/>
				<g id="Grupo_146711">
					<g id="Grupo_146708" transform="translate(0 14.828)">
						<path id="Trazado_253512" class="st18" d="M25,2C19.2,2.3,9.1,3.1,2.9,16c-7.1,14.7,0,32.9,10.9,40.6
							c13.8,9.7,35.3,10.3,48-1.3c14-12.8,15.1-37,5.5-47.6S43,0,39.1,1.7C33.4,4.1,29.5,1.7,25,2z"/>
						<path id="Trazado_253513" class="st19" d="M19,7.1c-3.7-0.3-9.1,3-12,8.1c-3.5,6.3-4,15.2-2.9,21.7
							C6.3,49.9,19,56.8,20.2,55.6S12.2,46,17.3,33C22.4,19.8,25.1,7.6,19,7.1z"/>
						<path id="Trazado_253514" class="st20" d="M16.1,9.2c-3.8,1.3-8.2,7.4-9.3,11.6s-0.6,7.2,0,7.7c1.1,0.9,8.8-6.6,11.3-10
							C21.6,13.8,22.2,7.1,16.1,9.2z"/>
						<path id="Trazado_253515" class="st21" d="M31,13.1c-2-1.6-3.9-2.4-4.9,0s4.4,6.3,10.4,4.5s8-5.6,7.9-7.6c0,0-2.7,4.3-6.7,4.8
							C35.3,15,32.9,14.4,31,13.1z"/>
					</g>
					<g id="Grupo_146709" transform="translate(12.468)">
						<path id="Trazado_253517" class="st22" d="M23.9,30.9c-0.1-5.6-1-11.1-2.7-16.3c-2.7-7.7-7.5-13-8.8-13.6
							c-2.1-0.8-4.3-1.1-6.5-1C2.8,0-0.8,2.1,0.2,3.3S5.6,5.4,11,10.4s10.5,14.8,10.5,20.6C22.2,31.4,23.2,31.4,23.9,30.9z"/>
						<path id="Trazado_253518" class="st23" d="M12.2,0.9c-0.1,0-0.2-0.1-0.3-0.1l0,0c-1.9-0.6-4-0.9-6-0.8C3.6,0,1,1.2,0.2,2.2
							C0,2.7,0.7,3.3,3.5,3.7c2.7,0.4,5.5,0.1,8.1-0.8C12.7,2.5,13.2,1.4,12.2,0.9z"/>
						<path id="Trazado_253519" class="st12" d="M19.9,21.3C17.5,14.4,10.2,8.6,5.2,6.1l0,0c2.1,1.2,4,2.6,5.8,4.3
							c5.4,5,10.5,14.8,10.5,20.6c0.8,0.5,1.7,0.5,2.5,0c0,0,0-2.1-0.3-5.1C23.4,28.6,22.2,27.7,19.9,21.3z"/>
					</g>
					<g id="Grupo_146710" transform="translate(34.35 0.683)">
						<path id="Trazado_253520" class="st15" d="M0.6,18.2C5.7,19,10.7,17,14,13c4.2-5.6,1.5-12.8,1.5-12.8
							C11.1-0.6,6.7,0.8,3.6,3.9C-0.1,7.7-0.6,15,0.6,18.2z"/>
						<path id="Trazado_253521" class="st24" d="M0.6,18.2C5.7,19,10.7,17,14,13c4.2-5.6,1.5-12.8,1.5-12.8
							C11.1-0.6,6.7,0.8,3.6,3.9C-0.1,7.7-0.6,15,0.6,18.2z"/>
						<path id="Trazado_253522" class="st12" d="M15.4,0.2C11.1-0.6,6.7,0.8,3.6,3.9C-0.1,7.7-0.6,15,0.6,18.2
							C4,7.5,15.4,0.2,15.4,0.2z"/>
						<path id="Trazado_253523" class="st13" d="M10.8,1.2C5.3,2.2,1.2,6.9,1,12.4c0,0,1.6-4.4,3.8-6.7C6.5,3.9,8.5,2.3,10.8,1.2z"
							/>
					</g>
				</g>
			</g>
		</g>
		<g id="Schedule" transform="translate(160.533 36.329)">
			<g id="Schedule-2">
				<g id="Grupo_146715" transform="translate(0 4.079)">
					<g id="Grupo_146712">
						<path id="Trazado_253524" class="st25" d="M264.6,3.4L5.8,152.8v203.7l0,36.6l-2.3-1.3L0,389.7V149.4L258.7,0l4.5,2.6
							L264.6,3.4z"/>
						<path id="Trazado_253525" class="st3" d="M264.6,3.4v203.7l-250,144.3l-5.8,3.4l-1.4,0.8l-1.4,0.8l0,0V152.8L264.6,3.4z"/>
						<path id="Trazado_253526" class="st3" d="M258.7,0l5.8,3.4L5.8,152.8L0,149.4L258.7,0z"/>
					</g>
					<g id="Grupo_146713" transform="translate(3.589 1.377)">
						<path id="Trazado_253527" class="st15" d="M263.1,0.8L261,2L2.3,151.4l-0.8,0.5v239.3L0,390.4V151.1l0.9-0.5L259.6,1.2
							l2.1-1.2L263.1,0.8z"/>
						<path id="Trazado_253528" class="st26" d="M263.1,0.8L261,2L2.3,151.4l-0.8,0.5v239.3L0,390.4V151.1l0.9-0.5L259.6,1.2
							l2.1-1.2L263.1,0.8z"/>
						<path id="Trazado_253529" class="st15" d="M261,2L2.3,151.4v0l-0.8,0.5v239.3l0.9,0.5l260.8-150.2v-37V0.8L261,2z"/>
						<path id="Trazado_253530" class="st27" d="M261,2L2.3,151.4v0l-0.8,0.5v239.3l0.9,0.5l260.8-150.2v-37V0.8L261,2z"/>
						<path id="Trazado_253531" class="st15" d="M261.7,0l1.4,0.8L1.4,151.9L0,151.1L261.7,0z"/>
						<path id="Trazado_253532" class="st28" d="M261.7,0l1.4,0.8L1.4,151.9L0,151.1L261.7,0z"/>
					</g>
					<g id="Grupo_146714" transform="translate(5.874 2.695)">
						<path id="Trazado_253533" class="st15" d="M263.1,0.8l-2.3,1.3l-2.1,1.2l-71.3,41.1L1.4,151.9v239.3L0,390.4V151.1L258.7,1.7
							l2.1-1.2l0.9-0.5L263.1,0.8z"/>
						<path id="Trazado_253534" class="st26" d="M263.1,0.8l-2.3,1.3l-2.1,1.2l-71.3,41.1L1.4,151.9v239.3L0,390.4V151.1L258.7,1.7
							l2.1-1.2l0.9-0.5L263.1,0.8z"/>
						<path id="Trazado_253535" class="st15" d="M260.8,2.1l-2.1,1.2l-71.3,41.1L1.4,151.9v239.3l1.4,0.8l5.7-3.4l254.5-147V0.8
							L260.8,2.1z"/>
						<path id="Trazado_253536" class="st15" d="M261.7,0l1.4,0.8L1.4,151.9L0,151.1L261.7,0z"/>
						<path id="Trazado_253537" class="st28" d="M261.7,0l1.4,0.8L1.4,151.9L0,151.1L261.7,0z"/>
					</g>
					<path id="Trazado_253538" class="st25" d="M273.3,8.4L269,11l-2.3,1.3l-2.1,1.2l-250,144.3v240.3l-5.8-3.4V154.5L264.6,6.8
						l2.1-1.2l0.8-0.5l1.5,0.8L273.3,8.4z"/>
					<path id="Trazado_253539" class="st3" d="M267.5,5.1l5.8,3.4L14.6,157.8l-5.8-3.4L267.5,5.1z"/>
					<path id="Trazado_253540" class="st2" d="M14.6,157.8v240.3l258.8-149.4V8.4L14.6,157.8z"/>
				</g>
				<g id="Notebook" transform="translate(4.972)">
					<g id="Grupo_146735">
						<g id="Grupo_146734">
							<g id="Grupo_146733">
								<g id="Grupo_146716" transform="translate(14.812 128.318)">
									<path id="Trazado_253541" class="st8" d="M21.4,26c1.7-1,3-0.2,3,1.8c-0.1,2.1-1.2,4.1-3,5.3c-1.7,1-3.1,0.2-3.1-1.8
										C18.4,29.1,19.6,27.2,21.4,26z"/>
									<path id="Trazado_253542" class="st13" d="M12.8,1.7c-3.3-1.9-6.5-2.2-9-0.8S0,5.2,0,9c0,1.5,0.2,2.9,0.5,4.3l2-1.2
										c-0.2-1-0.3-2.1-0.3-3.1c0-3,1-5.2,2.7-6.2S9,2.1,11.6,3.6C17.4,7,22.2,15.1,22.2,21.8c0,1.4-0.3,2.9-0.9,4.2
										c-0.4,0.8-1,1.5-1.8,2c-0.1,0-0.1,0.1-0.2,0.1c-0.5,0.8-0.8,1.7-1,2.7c0.8-0.1,1.6-0.4,2.3-0.8c1.5-0.9,2.6-2.3,3.2-4
										c0.4-1.3,0.7-2.7,0.6-4.1C24.4,14.4,19.2,5.4,12.8,1.7z"/>
								</g>
								<g id="Grupo_146717" transform="translate(29.629 119.763)">
									<path id="Trazado_253543" class="st8" d="M21.4,26c1.7-1,3.1-0.2,3.1,1.8c-0.1,2.1-1.2,4.1-3.1,5.3c-1.7,1-3.1,0.2-3.1-1.8
										C18.4,29.1,19.6,27.2,21.4,26z"/>
									<path id="Trazado_253544" class="st13" d="M12.8,1.7c-3.3-1.9-6.5-2.2-9-0.8S0,5.2,0,9c0,1.5,0.2,2.9,0.5,4.3l2-1.2
										c-0.2-1-0.3-2.1-0.3-3.1c0-3,1-5.2,2.7-6.2S9,2.1,11.6,3.6C17.4,7,22.2,15.1,22.2,21.8c0,1.4-0.2,2.9-0.9,4.2
										c-0.4,0.8-1,1.5-1.8,2c-0.1,0-0.1,0.1-0.2,0.1c-0.5,0.8-0.8,1.7-1,2.7c0.8-0.1,1.6-0.4,2.3-0.8c1.5-0.9,2.6-2.3,3.2-4
										c0.4-1.3,0.7-2.7,0.6-4.1C24.4,14.4,19.2,5.4,12.8,1.7z"/>
								</g>
								<g id="Grupo_146718" transform="translate(0 136.862)">
									<path id="Trazado_253545" class="st8" d="M21.4,26c1.7-1,3.1-0.2,3.1,1.8c-0.1,2.1-1.2,4.1-3.1,5.3c-1.7,1-3.1,0.2-3.1-1.8
										C18.4,29.1,19.6,27.2,21.4,26z"/>
									<path id="Trazado_253546" class="st13" d="M12.8,1.7c-3.3-1.9-6.5-2.2-9-0.8S0,5.2,0,9c0,1.5,0.2,2.9,0.5,4.3l2-1.2
										c-0.2-1-0.3-2.1-0.3-3.1c0-3,1-5.2,2.7-6.2S9,2.1,11.6,3.6C17.4,7,22.2,15.1,22.2,21.8c0,1.4-0.3,2.9-0.9,4.2
										c-0.4,0.8-1,1.5-1.8,2c-0.1,0-0.1,0.1-0.2,0.1c-0.5,0.8-0.8,1.7-1,2.7c0.8-0.1,1.6-0.4,2.3-0.8c1.5-0.9,2.6-2.3,3.2-4
										c0.4-1.3,0.7-2.7,0.6-4.1C24.4,14.4,19.2,5.4,12.8,1.7z"/>
								</g>
								<g id="Grupo_146719" transform="translate(44.445 111.208)">
									<path id="Trazado_253547" class="st8" d="M21.4,26c1.7-1,3.1-0.2,3.1,1.8c-0.1,2.1-1.2,4.1-3.1,5.3c-1.7,1-3,0.2-3-1.8
										C18.4,29.1,19.6,27.2,21.4,26z"/>
									<path id="Trazado_253548" class="st13" d="M12.8,1.7c-3.3-1.9-6.5-2.2-9-0.8S0,5.2,0,9c0,1.5,0.2,2.9,0.5,4.3l2-1.2
										c-0.2-1-0.3-2.1-0.3-3.1c0-3,1-5.2,2.7-6.2S9,2.1,11.6,3.6C17.4,7,22.2,15.1,22.2,21.8c0,1.4-0.2,2.9-0.9,4.2
										c-0.4,0.8-1,1.5-1.8,2c-0.1,0-0.1,0.1-0.2,0.1c-0.5,0.8-0.8,1.7-1,2.7c0.8-0.1,1.6-0.4,2.3-0.8c1.5-0.9,2.6-2.3,3.2-4
										c0.4-1.3,0.7-2.7,0.6-4.1C24.4,14.4,19.2,5.4,12.8,1.7z"/>
								</g>
								<g id="Grupo_146720" transform="translate(59.262 102.653)">
									<path id="Trazado_253549" class="st8" d="M21.4,26c1.7-1,3.1-0.2,3.1,1.8c-0.1,2.1-1.2,4.1-3.1,5.3c-1.7,1-3.1,0.2-3.1-1.8
										C18.4,29.1,19.6,27.2,21.4,26z"/>
									<path id="Trazado_253550" class="st13" d="M12.8,1.7c-3.3-1.9-6.5-2.2-9-0.8S0,5.2,0,9c0,1.5,0.2,2.9,0.5,4.3l2-1.2
										c-0.2-1-0.3-2.1-0.3-3.1c0-3,1-5.2,2.7-6.2S9,2.1,11.6,3.6C17.4,7,22.2,15.1,22.2,21.8c0,1.4-0.2,2.9-0.9,4.2
										c-0.4,0.8-1,1.5-1.8,2c-0.1,0-0.1,0.1-0.2,0.1c-0.5,0.8-0.8,1.7-1,2.7c0.8-0.1,1.6-0.4,2.3-0.8c1.5-0.9,2.6-2.3,3.2-4
										c0.4-1.3,0.7-2.7,0.6-4.1C24.4,14.4,19.2,5.4,12.8,1.7z"/>
								</g>
								<g id="Grupo_146721" transform="translate(74.078 94.099)">
									<path id="Trazado_253551" class="st8" d="M21.4,26c1.7-1,3.1-0.2,3.1,1.8c-0.1,2.1-1.2,4.1-3.1,5.3c-1.7,1-3,0.2-3-1.8
										C18.4,29.1,19.6,27.2,21.4,26z"/>
									<path id="Trazado_253552" class="st13" d="M12.8,1.7c-3.3-1.9-6.5-2.2-9-0.8S0,5.2,0,9c0,1.5,0.2,2.9,0.5,4.3l2-1.2
										c-0.2-1-0.3-2.1-0.3-3.1c0-3,1-5.2,2.7-6.2S9,2.1,11.6,3.6C17.4,7,22.2,15.1,22.2,21.8c0,1.4-0.2,2.9-0.9,4.2
										c-0.4,0.8-1,1.5-1.8,2c-0.1,0-0.1,0.1-0.2,0.1c-0.5,0.8-0.8,1.7-1,2.7c0.8-0.1,1.6-0.4,2.3-0.8c1.5-0.9,2.6-2.3,3.2-4
										c0.4-1.3,0.7-2.7,0.6-4.1C24.4,14.4,19.2,5.4,12.8,1.7z"/>
								</g>
								<g id="Grupo_146722" transform="translate(88.895 85.544)">
									<path id="Trazado_253553" class="st8" d="M21.4,26c1.7-1,3-0.2,3,1.8c-0.1,2.1-1.2,4.1-3,5.3c-1.7,1-3.1,0.2-3.1-1.8
										C18.4,29.1,19.6,27.2,21.4,26z"/>
									<path id="Trazado_253554" class="st13" d="M12.8,1.7c-3.3-1.9-6.5-2.2-9-0.8S0,5.2,0,9c0,1.5,0.2,2.9,0.5,4.3l2-1.2
										c-0.2-1-0.3-2.1-0.3-3.1c0-3,1-5.2,2.7-6.2S9,2.1,11.6,3.6C17.4,7,22.2,15.1,22.2,21.8c0,1.4-0.2,2.9-0.9,4.2
										c-0.4,0.8-1,1.5-1.8,2c-0.1,0-0.1,0.1-0.2,0.1c-0.5,0.8-0.8,1.7-1,2.7c0.8-0.1,1.6-0.4,2.3-0.8c1.5-0.9,2.6-2.3,3.2-4
										c0.4-1.3,0.7-2.7,0.6-4.1C24.4,14.4,19.2,5.4,12.8,1.7z"/>
								</g>
								<g id="Grupo_146723" transform="translate(103.711 76.989)">
									<path id="Trazado_253555" class="st8" d="M21.4,26c1.7-1,3-0.2,3,1.8c-0.1,2.1-1.2,4.1-3,5.3c-1.7,1-3,0.2-3-1.8
										C18.4,29.1,19.6,27.2,21.4,26z"/>
									<path id="Trazado_253556" class="st13" d="M12.8,1.7c-3.3-1.9-6.5-2.2-9-0.8S0,5.2,0,9c0,1.5,0.2,2.9,0.5,4.3l2-1.2
										c-0.2-1-0.3-2.1-0.3-3.1c0-3,1-5.2,2.7-6.2S9,2.1,11.6,3.6C17.4,7,22.2,15.1,22.2,21.8c0,1.4-0.2,2.9-0.9,4.2
										c-0.4,0.8-1,1.5-1.8,2c-0.1,0-0.1,0.1-0.2,0.1c-0.5,0.8-0.8,1.7-1,2.7c0.8-0.1,1.6-0.4,2.3-0.8c1.5-0.9,2.6-2.3,3.2-4
										c0.4-1.3,0.7-2.7,0.6-4.1C24.4,14.4,19.2,5.4,12.8,1.7z"/>
								</g>
								<g id="Grupo_146724" transform="translate(118.529 68.434)">
									<path id="Trazado_253557" class="st8" d="M21.4,26c1.7-1,3-0.2,3,1.8c-0.1,2.1-1.2,4.1-3,5.3c-1.7,1-3,0.2-3-1.8
										C18.4,29.1,19.6,27.2,21.4,26z"/>
									<path id="Trazado_253558" class="st13" d="M12.8,1.7c-3.3-1.9-6.5-2.2-9-0.8S0,5.2,0,9c0,1.5,0.2,2.9,0.5,4.3l2-1.2
										c-0.2-1-0.3-2.1-0.3-3.1c0-3,1-5.2,2.7-6.2S9,2.1,11.6,3.6C17.4,7,22.2,15.1,22.2,21.8c0,1.4-0.2,2.9-0.9,4.2
										c-0.4,0.8-1,1.5-1.8,2c-0.1,0-0.1,0.1-0.2,0.1c-0.5,0.8-0.8,1.7-1,2.7c0.8-0.1,1.6-0.4,2.3-0.8c1.5-0.9,2.6-2.3,3.2-4
										c0.4-1.3,0.7-2.7,0.6-4.1C24.4,14.4,19.2,5.4,12.8,1.7z"/>
								</g>
								<g id="Grupo_146725" transform="translate(133.345 59.879)">
									<path id="Trazado_253559" class="st8" d="M21.4,26c1.7-1,3-0.2,3,1.8c-0.1,2.1-1.2,4.1-3,5.3c-1.7,1-3,0.2-3-1.8
										C18.4,29.1,19.6,27.2,21.4,26z"/>
									<path id="Trazado_253560" class="st13" d="M12.8,1.7c-3.3-1.9-6.5-2.2-9-0.8S0,5.2,0,9c0,1.5,0.2,2.9,0.5,4.3l2-1.2
										c-0.2-1-0.3-2.1-0.3-3.1c0-3,1-5.2,2.7-6.2S9,2.1,11.6,3.6C17.4,7,22.2,15.1,22.2,21.8c0,1.4-0.2,2.9-0.9,4.2
										c-0.4,0.8-1,1.5-1.8,2c-0.1,0-0.1,0.1-0.2,0.1c-0.5,0.8-0.8,1.7-1,2.7c0.8-0.1,1.6-0.4,2.3-0.8c1.5-0.9,2.6-2.3,3.2-4
										c0.4-1.3,0.7-2.7,0.6-4.1C24.4,14.4,19.2,5.4,12.8,1.7z"/>
								</g>
								<g id="Grupo_146726" transform="translate(148.161 51.325)">
									<path id="Trazado_253561" class="st8" d="M21.4,26c1.7-1,3-0.2,3,1.8c-0.1,2.1-1.2,4.1-3,5.3c-1.7,1-3,0.2-3-1.8
										C18.4,29.1,19.6,27.2,21.4,26z"/>
									<path id="Trazado_253562" class="st13" d="M12.8,1.7c-3.3-1.9-6.5-2.2-9-0.8S0,5.2,0,9c0,1.5,0.2,2.9,0.5,4.3l2-1.2
										c-0.2-1-0.3-2.1-0.3-3.1c0-3,1-5.2,2.7-6.2S9,2.1,11.6,3.6C17.4,7,22.2,15.1,22.2,21.8c0,1.4-0.2,2.9-0.9,4.2
										c-0.4,0.8-1,1.5-1.8,2c-0.1,0-0.1,0.1-0.2,0.1c-0.5,0.8-0.8,1.7-1,2.7c0.8-0.1,1.6-0.4,2.3-0.8c1.5-0.9,2.6-2.3,3.2-4
										c0.4-1.3,0.7-2.7,0.6-4.1C24.4,14.4,19.2,5.4,12.8,1.7z"/>
								</g>
								<g id="Grupo_146727" transform="translate(162.978 42.77)">
									<path id="Trazado_253563" class="st8" d="M21.4,26c1.7-1,3-0.2,3,1.8c-0.1,2.1-1.2,4.1-3,5.3c-1.7,1-3,0.2-3-1.8
										C18.4,29.1,19.6,27.2,21.4,26z"/>
									<path id="Trazado_253564" class="st13" d="M12.8,1.7c-3.3-1.9-6.5-2.2-9-0.8S0,5.2,0,9c0,1.5,0.2,2.9,0.5,4.3l2-1.2
										c-0.2-1-0.3-2.1-0.3-3.1c0-3,1-5.2,2.7-6.2S9,2.1,11.6,3.6C17.4,7,22.2,15.1,22.2,21.8c0,1.4-0.3,2.9-0.9,4.2
										c-0.4,0.8-1,1.5-1.8,2c-0.1,0-0.1,0.1-0.2,0.1c-0.5,0.8-0.8,1.7-1,2.7c0.8-0.1,1.6-0.4,2.3-0.8c1.5-0.9,2.6-2.3,3.2-4
										c0.4-1.3,0.7-2.7,0.6-4.1C24.4,14.4,19.2,5.4,12.8,1.7z"/>
								</g>
								<g id="Grupo_146728" transform="translate(177.779 34.219)">
									<path id="Trazado_253565" class="st8" d="M21.4,26c1.7-1,3-0.2,3,1.8c-0.1,2.1-1.2,4.1-3,5.3c-1.7,1-3,0.2-3-1.8
										C18.4,29.1,19.6,27.2,21.4,26z"/>
									<path id="Trazado_253566" class="st13" d="M12.8,1.7c-3.3-1.9-6.5-2.2-9-0.8S0,5.2,0,9c0,1.5,0.2,2.9,0.5,4.3l2-1.2
										c-0.2-1-0.3-2.1-0.3-3.1c0-3,1-5.2,2.7-6.2S9,2.1,11.6,3.6C17.4,7,22.2,15.1,22.2,21.8c0,1.4-0.2,2.9-0.9,4.2
										c-0.4,0.8-1,1.5-1.8,2c-0.1,0-0.1,0.1-0.2,0.1c-0.5,0.8-0.8,1.7-1,2.7c0.8-0.1,1.6-0.4,2.3-0.8c1.5-0.9,2.6-2.3,3.2-4
										c0.4-1.3,0.7-2.7,0.6-4.1C24.4,14.4,19.2,5.4,12.8,1.7z"/>
								</g>
								<g id="Grupo_146729" transform="translate(192.595 25.664)">
									<path id="Trazado_253567" class="st8" d="M21.4,26c1.7-1,3-0.2,3,1.8c-0.1,2.1-1.2,4.1-3,5.3c-1.7,1-3,0.2-3-1.8
										C18.4,29.1,19.6,27.2,21.4,26z"/>
									<path id="Trazado_253568" class="st13" d="M12.8,1.7c-3.3-1.9-6.5-2.2-9-0.8S0,5.2,0,9c0,1.5,0.2,2.9,0.5,4.3l2-1.2
										c-0.2-1-0.3-2.1-0.3-3.1c0-3,1-5.2,2.7-6.2S9,2.1,11.6,3.6C17.4,7,22.2,15.1,22.2,21.8c0,1.4-0.2,2.9-0.9,4.2
										c-0.4,0.8-1,1.5-1.8,2c-0.1,0-0.1,0.1-0.2,0.1c-0.5,0.8-0.8,1.7-1,2.7c0.8-0.1,1.6-0.4,2.3-0.8c1.5-0.9,2.6-2.3,3.2-4
										c0.4-1.3,0.7-2.7,0.6-4.1C24.4,14.4,19.2,5.4,12.8,1.7z"/>
								</g>
								<g id="Grupo_146730" transform="translate(207.411 17.109)">
									<path id="Trazado_253569" class="st8" d="M21.4,26c1.7-1,3-0.2,3,1.8c-0.1,2.1-1.2,4.1-3,5.3c-1.7,1-3,0.2-3-1.8
										C18.4,29.1,19.6,27.2,21.4,26z"/>
									<path id="Trazado_253570" class="st13" d="M12.8,1.7c-3.3-1.9-6.5-2.2-9-0.8S0,5.2,0,9c0,1.5,0.2,2.9,0.5,4.3l2-1.2
										c-0.2-1-0.3-2.1-0.3-3.1c0-3,1-5.2,2.7-6.2S9,2.1,11.6,3.6C17.4,7,22.2,15.1,22.2,21.8c0,1.4-0.2,2.9-0.9,4.2
										c-0.4,0.8-1,1.5-1.8,2c-0.1,0-0.1,0.1-0.2,0.1c-0.5,0.8-0.8,1.7-1,2.7c0.8-0.1,1.6-0.4,2.3-0.8c1.5-0.9,2.6-2.3,3.2-4
										c0.4-1.3,0.7-2.7,0.6-4.1C24.4,14.4,19.2,5.4,12.8,1.7z"/>
								</g>
								<g id="Grupo_146731" transform="translate(222.228 8.555)">
									<path id="Trazado_253571" class="st8" d="M21.4,26c1.7-1,3-0.2,3,1.8c-0.1,2.1-1.2,4.1-3,5.3c-1.7,1-3,0.2-3-1.8
										C18.4,29.1,19.6,27.2,21.4,26z"/>
									<path id="Trazado_253572" class="st13" d="M12.8,1.7c-3.3-1.9-6.5-2.2-9-0.8S0,5.2,0,9c0,1.5,0.2,2.9,0.5,4.3l2-1.2
										c-0.2-1-0.3-2.1-0.3-3.1c0-3,1-5.2,2.7-6.2S9,2.1,11.6,3.6C17.4,7,22.1,15.1,22.1,21.8c0,1.4-0.2,2.9-0.9,4.2
										c-0.4,0.8-1,1.5-1.8,2c-0.1,0-0.1,0.1-0.2,0.1c-0.5,0.8-0.8,1.7-1,2.7c0.8-0.1,1.6-0.4,2.3-0.8c1.5-0.9,2.6-2.3,3.2-4
										c0.4-1.3,0.7-2.7,0.6-4.1C24.4,14.4,19.2,5.4,12.8,1.7z"/>
								</g>
								<g id="Grupo_146732" transform="translate(237.044)">
									<path id="Trazado_253573" class="st8" d="M21.4,26c1.7-1,3-0.2,3,1.8c-0.1,2.1-1.2,4.1-3,5.3c-1.7,1-3,0.2-3-1.8
										C18.4,29.1,19.6,27.2,21.4,26z"/>
									<path id="Trazado_253574" class="st13" d="M12.8,1.7c-3.3-1.9-6.5-2.2-9-0.8S0,5.2,0,9c0,1.5,0.2,2.9,0.5,4.3l2-1.2
										c-0.2-1-0.3-2.1-0.3-3.1c0-3,1-5.2,2.7-6.2S9,2.1,11.6,3.6C17.4,7,22.2,15.1,22.2,21.8c0,1.4-0.3,2.9-0.9,4.2
										c-0.4,0.8-1,1.5-1.8,2c-0.1,0-0.1,0.1-0.2,0.1c-0.5,0.8-0.8,1.7-1,2.7c0.8-0.1,1.6-0.4,2.3-0.8c1.5-0.9,2.6-2.3,3.2-4
										c0.4-1.3,0.7-2.7,0.6-4.1C24.4,14.4,19.2,5.4,12.8,1.7z"/>
								</g>
							</g>
						</g>
						<path id="Trazado_253575" class="st29" d="M249.8,1.7c-3.3-1.9-6.5-2.2-9-0.8S237,5.2,237,9c0,0.9,0.1,1.9,0.3,2.8
							c-0.7-0.6-1.5-1.1-2.3-1.6c-3.3-1.9-6.5-2.2-9-0.8s-3.8,4.3-3.8,8.1c0,0.9,0.1,1.9,0.3,2.8c-0.7-0.6-1.5-1.1-2.3-1.6
							c-3.3-1.9-6.5-2.2-9-0.8s-3.8,4.3-3.8,8.1c0,0.9,0.1,1.9,0.3,2.8c-0.7-0.6-1.5-1.1-2.3-1.6c-3.3-1.9-6.5-2.2-9-0.8
							s-3.8,4.3-3.8,8.1c0,0.9,0.1,1.9,0.3,2.8c-0.7-0.6-1.5-1.1-2.3-1.6c-3.3-1.9-6.5-2.2-9-0.8s-3.8,4.3-3.8,8.1
							c0,0.9,0.1,1.8,0.2,2.8c-0.7-0.6-1.5-1.1-2.3-1.6c-3.3-1.9-6.5-2.2-9-0.8S163,48,163,51.8c0,0.9,0.1,1.9,0.3,2.8
							c-0.7-0.6-1.5-1.1-2.3-1.6c-3.3-1.9-6.5-2.2-9-0.8s-3.8,4.3-3.8,8.1c0,0.9,0.1,1.9,0.3,2.8c-0.7-0.6-1.5-1.1-2.3-1.6
							c-3.3-1.9-6.5-2.2-9-0.8s-3.8,4.3-3.8,8.1c0,0.9,0.1,1.9,0.3,2.8c-0.7-0.6-1.5-1.1-2.3-1.6c-3.3-1.9-6.5-2.2-9-0.8
							s-3.8,4.3-3.8,8.1c0,0.9,0.1,1.9,0.3,2.8c-0.7-0.6-1.5-1.1-2.3-1.6c-3.3-1.9-6.5-2.2-9-0.8s-3.8,4.3-3.8,8.1
							c0,0.9,0.1,1.9,0.3,2.8c-0.7-0.6-1.5-1.1-2.3-1.6c-3.3-1.9-6.5-2.2-9-0.8s-3.8,4.3-3.8,8.1c0,0.9,0.1,1.9,0.3,2.8
							c-0.7-0.6-1.5-1.1-2.3-1.6c-3.3-1.9-6.5-2.2-9-0.8s-3.8,4.3-3.8,8.1c0,0.9,0.1,1.9,0.3,2.8c-0.7-0.6-1.5-1.1-2.3-1.6
							c-3.3-1.9-6.5-2.2-9-0.8s-3.8,4.3-3.8,8.1c0,0.9,0.1,1.9,0.3,2.8c-0.7-0.6-1.5-1.1-2.3-1.6c-3.3-1.9-6.5-2.2-9-0.8
							s-3.8,4.3-3.8,8.1c0,0.9,0.1,1.9,0.3,2.8c-0.7-0.6-1.5-1.1-2.3-1.6c-3.3-1.9-6.5-2.2-9-0.8s-3.8,4.3-3.8,8.1
							c0,0.9,0.1,1.9,0.3,2.8c-0.7-0.6-1.5-1.1-2.3-1.6c-3.3-1.9-6.5-2.2-9-0.8c-2.5,1.4-3.8,4.3-3.8,8.1c0,0.9,0.1,1.8,0.2,2.7
							c-0.7-0.6-1.5-1.1-2.3-1.6c-3.3-1.9-6.5-2.2-9-0.8S0,142.1,0,145.9c0,1.5,0.2,2.9,0.5,4.3l2-1.2c-0.2-1-0.3-2.1-0.3-3.1
							c0-3,1-5.2,2.7-6.2s4.1-0.7,6.7,0.8c5.8,3.3,10.5,11.5,10.5,18.2c0,1.4-0.3,2.9-0.9,4.2c-0.4,0.8-1,1.5-1.8,2
							c-0.1,0-0.1,0.1-0.2,0.1c-0.5,0.8-0.8,1.7-1,2.7c0.8-0.1,1.6-0.4,2.3-0.8c1.5-0.9,2.6-2.3,3.2-4c0.4-1.3,0.7-2.7,0.6-4.1
							c0-6-3.4-13.1-8.2-17.5l1.1-0.7c-0.2-1-0.3-2.1-0.3-3.1c0-3,1-5.2,2.7-6.2s4.1-0.7,6.7,0.8c5.8,3.3,10.5,11.5,10.5,18.2
							c0,1.4-0.3,2.9-0.9,4.2c-0.4,0.8-1,1.5-1.8,2c-0.1,0-0.1,0.1-0.2,0.1c-0.5,0.8-0.8,1.7-1,2.7c0.8-0.1,1.6-0.4,2.3-0.8
							c1.5-0.9,2.6-2.3,3.2-4c0.4-1.3,0.7-2.7,0.6-4.1c0-6-3.4-13.1-8.2-17.5l1.1-0.7c-0.2-1-0.3-2.1-0.3-3.1c0-3,1-5.2,2.7-6.2
							s4.1-0.7,6.7,0.8c5.8,3.3,10.5,11.5,10.5,18.2c0,1.4-0.2,2.9-0.9,4.2c-0.4,0.8-1,1.5-1.8,2c-0.1,0-0.1,0.1-0.2,0.1
							c-0.5,0.8-0.8,1.7-1,2.7c0.8-0.1,1.6-0.4,2.3-0.8c1.5-0.9,2.6-2.3,3.2-4c0.4-1.3,0.7-2.7,0.6-4.1c0-6-3.4-13.1-8.2-17.5
							l1.1-0.7c-0.2-1-0.3-2.1-0.3-3.1c0-3,1-5.2,2.7-6.2s4.1-0.7,6.7,0.8c5.8,3.3,10.5,11.5,10.5,18.2c0,1.4-0.2,2.9-0.9,4.2
							c-0.4,0.8-1,1.5-1.8,2c-0.1,0-0.1,0.1-0.2,0.1c-0.5,0.8-0.8,1.7-1,2.7c0.8-0.1,1.6-0.4,2.3-0.8c1.5-0.9,2.6-2.3,3.2-4
							c0.4-1.3,0.7-2.7,0.6-4.1c0-6-3.4-13.1-8.2-17.5l1.1-0.7c-0.2-1-0.3-2.1-0.3-3.1c0-3,1-5.2,2.7-6.2s4.1-0.7,6.7,0.8
							c5.8,3.3,10.5,11.5,10.5,18.2c0,1.4-0.2,2.9-0.9,4.2c-0.4,0.8-1,1.5-1.8,2c-0.1,0-0.1,0.1-0.2,0.1c-0.5,0.8-0.8,1.7-1,2.7
							c0.8-0.1,1.6-0.4,2.3-0.8c1.5-0.9,2.6-2.3,3.2-4c0.4-1.3,0.7-2.7,0.6-4.1c0-6-3.4-13.1-8.2-17.5l1.1-0.7
							c-0.2-1-0.3-2.1-0.3-3.1c0-3,1-5.2,2.7-6.2s4.1-0.7,6.7,0.8c5.8,3.3,10.5,11.5,10.5,18.2c0,1.4-0.2,2.9-0.9,4.2
							c-0.4,0.8-1,1.5-1.8,2c-0.1,0-0.1,0.1-0.2,0.1c-0.5,0.8-0.8,1.7-1,2.6c0.8-0.1,1.6-0.4,2.3-0.8c1.5-0.9,2.6-2.3,3.2-4
							c0.4-1.3,0.7-2.7,0.6-4.1c0-6-3.4-13.1-8.2-17.5l1.1-0.7c-0.2-1-0.3-2.1-0.3-3.1c0-3,1-5.2,2.7-6.2s4.1-0.7,6.7,0.8
							c5.8,3.3,10.5,11.5,10.5,18.2c0,1.4-0.2,2.9-0.9,4.2c-0.4,0.8-1,1.5-1.8,2c-0.1,0-0.1,0.1-0.2,0.1c-0.5,0.8-0.8,1.7-1,2.7
							c0.8-0.1,1.6-0.4,2.3-0.8c1.5-0.9,2.6-2.3,3.2-4c0.4-1.3,0.7-2.7,0.6-4.1c0-6-3.4-13.1-8.2-17.5l1.1-0.7
							c-0.2-1-0.3-2.1-0.3-3.1c0-3,1-5.2,2.7-6.2s4.1-0.7,6.7,0.8c5.8,3.3,10.5,11.5,10.5,18.2c0,1.4-0.2,2.9-0.9,4.2
							c-0.4,0.8-1,1.5-1.8,2c-0.1,0-0.1,0.1-0.2,0.1c-0.5,0.8-0.8,1.7-1,2.7c0.8-0.1,1.6-0.4,2.3-0.8c1.5-0.9,2.6-2.3,3.2-4
							c0.4-1.3,0.7-2.7,0.6-4.1c0-6-3.4-13.1-8.2-17.5l1.1-0.7c-0.2-1-0.3-2.1-0.3-3.1c0-3,1-5.2,2.7-6.2s4.1-0.7,6.7,0.8
							c5.8,3.3,10.5,11.5,10.5,18.2c0,1.4-0.3,2.9-0.9,4.2c-0.4,0.8-1,1.5-1.8,2c-0.1,0-0.1,0.1-0.2,0.1c-0.5,0.8-0.8,1.7-1,2.7
							c0.8-0.1,1.6-0.4,2.3-0.8c1.5-0.9,2.6-2.3,3.2-4c0.4-1.3,0.7-2.7,0.6-4.1c0-6-3.4-13.1-8.2-17.5l1.1-0.7
							c-0.2-1-0.3-2.1-0.3-3.1c0-3,1-5.2,2.7-6.2s4.1-0.7,6.7,0.8c5.8,3.3,10.5,11.5,10.5,18.2c0,1.4-0.2,2.9-0.9,4.2
							c-0.4,0.8-1,1.5-1.8,2c-0.1,0-0.1,0.1-0.2,0.1c-0.5,0.8-0.8,1.7-1,2.7c0.8-0.1,1.6-0.4,2.3-0.8c1.5-0.9,2.6-2.3,3.2-4
							c0.4-1.3,0.7-2.7,0.6-4.1c0-6-3.4-13.1-8.2-17.5l1.1-0.7c-0.2-1-0.3-2.1-0.3-3.1c0-3,1-5.2,2.7-6.2s4.1-0.7,6.7,0.8
							c5.8,3.3,10.5,11.5,10.5,18.2c0,1.4-0.2,2.9-0.9,4.2c-0.4,0.8-1,1.5-1.8,2c-0.1,0-0.1,0.1-0.2,0.1c-0.5,0.8-0.8,1.7-1,2.7
							c0.8-0.1,1.6-0.4,2.3-0.8c1.5-0.9,2.6-2.3,3.2-4c0.4-1.3,0.7-2.7,0.6-4.1c0-6-3.4-13.1-8.2-17.5l1.1-0.7
							c-0.2-1-0.3-2.1-0.3-3.1c0-3,1-5.2,2.7-6.2s4.1-0.7,6.7,0.8c5.8,3.3,10.5,11.5,10.5,18.2c0,1.4-0.3,2.9-0.9,4.2
							c-0.4,0.8-1,1.5-1.8,2c-0.1,0-0.1,0.1-0.2,0.1c-0.5,0.8-0.8,1.7-1,2.7c0.8-0.1,1.6-0.4,2.3-0.8c1.5-0.9,2.6-2.3,3.2-4
							c0.4-1.3,0.7-2.7,0.6-4.1c0-6-3.4-13.1-8.2-17.5l1.1-0.7c-0.2-1-0.3-2.1-0.3-3.1c0-3,1-5.2,2.7-6.2s4.1-0.7,6.7,0.8
							c5.8,3.3,10.5,11.5,10.5,18.2c0,1.4-0.2,2.9-0.9,4.2c-0.4,0.8-1,1.5-1.8,2c-0.1,0-0.1,0.1-0.2,0.1c-0.5,0.8-0.8,1.7-1,2.7
							c0.8-0.1,1.6-0.4,2.3-0.8c1.5-0.9,2.6-2.3,3.2-4c0.4-1.3,0.7-2.7,0.6-4.1c0-6-3.4-13.1-8.2-17.5l1.1-0.7
							c-0.2-1-0.3-2.1-0.3-3.1c0-3,1-5.2,2.7-6.2s4.1-0.7,6.7,0.8c5.8,3.3,10.5,11.5,10.5,18.2c0,1.4-0.2,2.9-0.9,4.2
							c-0.4,0.8-1,1.5-1.8,2c-0.1,0-0.1,0.1-0.2,0.1c-0.5,0.8-0.8,1.7-1,2.7c0.8-0.1,1.6-0.4,2.3-0.8c1.5-0.9,2.6-2.3,3.2-4
							c0.4-1.3,0.7-2.7,0.6-4.1c0-6-3.4-13.1-8.2-17.5l1.1-0.7c-0.2-1-0.3-2.1-0.3-3.1c0-3,1-5.2,2.7-6.2s4.1-0.7,6.7,0.8
							c5.8,3.3,10.5,11.5,10.5,18.2c0,1.4-0.2,2.9-0.9,4.2c-0.4,0.8-1,1.5-1.8,2c-0.1,0-0.1,0.1-0.2,0.1c-0.5,0.8-0.8,1.7-1,2.7
							c0.8-0.1,1.6-0.4,2.3-0.8c1.5-0.9,2.6-2.3,3.2-4c0.4-1.3,0.7-2.7,0.6-4.1c0-6-3.4-13.1-8.2-17.5l1.1-0.7
							c-0.2-1-0.3-2.1-0.3-3.1c0-3,1-5.2,2.7-6.2s4.1-0.7,6.7,0.8c5.8,3.3,10.5,11.5,10.5,18.2c0,1.4-0.2,2.9-0.9,4.2
							c-0.4,0.8-1,1.5-1.8,2c-0.1,0-0.1,0.1-0.2,0.1c-0.5,0.8-0.8,1.7-1,2.7c0.8-0.1,1.6-0.4,2.3-0.8c1.5-0.9,2.6-2.3,3.2-4
							c0.4-1.3,0.7-2.7,0.6-4.1c0-6-3.4-13.1-8.2-17.5l1.1-0.7c-0.2-1-0.3-2.1-0.3-3.1c0-3,1-5.2,2.7-6.2s4.1-0.7,6.7,0.8
							c5.8,3.3,10.5,11.5,10.5,18.2c0,1.4-0.3,2.9-0.9,4.2c-0.4,0.8-1,1.5-1.8,2c-0.1,0-0.1,0.1-0.2,0.1c-0.5,0.8-0.8,1.7-1,2.7
							c0.8-0.1,1.6-0.4,2.3-0.8c1.5-0.9,2.6-2.3,3.2-4c0.4-1.3,0.7-2.7,0.6-4.1C261.5,14.4,256.2,5.4,249.8,1.7z"/>
					</g>
				</g>
				<g id="Grupo_146764" transform="translate(20.427 60.469)">
					<g id="Grupo_146736" transform="translate(24.526)">
						<path id="Trazado_253576" class="st23" d="M2.5,120.7L21,110c1.4-0.8,2.5-0.2,2.5,1.3c-0.1,1.7-1,3.2-2.5,4.1L2.5,126.1
							c-1.4,0.8-2.5,0.2-2.5-1.2C0.1,123.1,1,121.6,2.5,120.7z"/>
						<path id="Trazado_253577" class="st23" d="M34.1,102.4l18.5-10.7c1.4-0.8,2.5-0.2,2.5,1.3c-0.1,1.7-1,3.2-2.5,4.1l-18.5,10.7
							c-1.4,0.8-2.5,0.2-2.5-1.2C31.8,104.9,32.7,103.3,34.1,102.4z"/>
						<path id="Trazado_253578" class="st23" d="M65.8,84.2l18.5-10.7c1.4-0.8,2.5-0.2,2.5,1.3c-0.1,1.7-1,3.2-2.5,4.1L65.8,89.5
							c-1.4,0.8-2.5,0.2-2.5-1.2C63.4,86.6,64.3,85.1,65.8,84.2z"/>
						<path id="Trazado_253579" class="st23" d="M97.4,65.9l18.5-10.7c1.4-0.8,2.5-0.2,2.5,1.3c-0.1,1.7-1,3.2-2.5,4.1L97.4,71.3
							c-1.4,0.8-2.5,0.2-2.5-1.2C95.1,68.3,96,66.8,97.4,65.9z"/>
						<path id="Trazado_253580" class="st23" d="M129,47.6l18.5-10.7c1.4-0.8,2.5-0.2,2.5,1.3c-0.1,1.7-1,3.2-2.5,4.1L129.1,53
							c-1.4,0.8-2.5,0.2-2.5-1.2C126.7,50.1,127.6,48.5,129,47.6z"/>
						<path id="Trazado_253581" class="st23" d="M160.7,29.4l18.5-10.7c1.4-0.8,2.5-0.2,2.5,1.3c-0.1,1.7-1,3.2-2.5,4.1l-18.5,10.7
							c-1.4,0.8-2.5,0.2-2.5-1.2C158.3,31.8,159.3,30.3,160.7,29.4z"/>
						<path id="Trazado_253582" class="st23" d="M192.3,11.1l18.5-10.7c1.4-0.8,2.5-0.2,2.5,1.3c-0.1,1.7-1,3.2-2.5,4.1l-18.5,10.7
							c-1.4,0.8-2.5,0.2-2.5-1.2C190,13.5,190.9,12,192.3,11.1z"/>
					</g>
					<g id="Grupo_146739" transform="translate(22.561 21.632)">
						<g id="Trazado_253583" transform="translate(-188.627 -110.689)">
							<path class="st30" d="M188.6,237.6l219.8-126.9l-0.3,159.2L188.6,396.8V237.6z"/>
							<path class="st1" d="M406.4,114.2L190.6,238.7v154.6l215.5-124.6L406.4,114.2 M408.4,110.7l-0.3,159.2L188.6,396.8V237.6
								L408.4,110.7z"/>
						</g>
						<g id="Grupo_146737" transform="translate(31.358 19.187)">
							<line id="Línea_355" class="st31" x1="0" y1="247.7" x2="0" y2="90.6"/>
							<line id="Línea_356" class="st31" x1="31.4" y1="72.5" x2="31.4" y2="229.6"/>
							<line id="Línea_357" class="st31" x1="62.8" y1="54.4" x2="62.7" y2="211.4"/>
							<line id="Línea_358" class="st31" x1="94.2" y1="36.3" x2="94.1" y2="193.3"/>
							<line id="Línea_359" class="st31" x1="125.6" y1="18.1" x2="125.4" y2="175.2"/>
							<line id="Línea_360" class="st31" x1="157" y1="0" x2="156.8" y2="157.1"/>
						</g>
						<g id="Grupo_146738" transform="translate(1.288 40.411)">
							<line id="Línea_361" class="st31" x1="0" y1="125.5" x2="217.4" y2="0"/>
							<line id="Línea_362" class="st31" x1="0" y1="165.3" x2="217.4" y2="39.8"/>
							<line id="Línea_363" class="st31" x1="0" y1="205.1" x2="217.4" y2="79.6"/>
						</g>
					</g>
					<g id="Note" transform="translate(178.748 42.506)">
						<g id="Grupo_146742" transform="translate(3.511)">
							<g id="Note-2">
								<path id="Trazado_253584" class="st12" d="M0,18.8v39.3l32.6-18.8V0L0,18.8z"/>
								<g id="Grupo_146741" transform="translate(1.308 0.65)">
									<g id="Grupo_146740">
										<path id="Trazado_253585" class="st15" d="M39.4,36.5c0,0-1.6,2.7-7.3,6L3.4,59L0,24.8L32.6,6l1.8,19.8
											C34.7,29,35.1,33.7,39.4,36.5z"/>
										<path id="Trazado_253586" class="st15" d="M32.6,6L0,24.8v-6L32.6,0L32.6,6z"/>
										<path id="Trazado_253587" class="st32" d="M32.6,6L0,24.8v-6L32.6,0L32.6,6z"/>
									</g>
								</g>
							</g>
							<path id="Trazado_253588" class="st7" d="M30.6,23.4c-0.2-0.9-0.4-1.8-0.8-2.7c0-0.1-0.1-0.2-0.1-0.3c0.5-1,0.3-2.1-0.5-2.9
								c-0.1-0.1-0.5-0.3-0.6,0c-0.2,0.9-0.2,1.8,0.2,2.6c-0.3,0.6-0.6,1.2-1,1.7c-0.3,0.5-0.7,1-1.1,1.5c-0.5,0.5-1.3,1.3-2.1,1.4
								c-0.5,0-0.9-0.3-1-0.8c0.2-0.4,0.5-0.7,0.7-1.1c0.5-0.8,0.9-1.7,1.1-2.6c0.1-0.5-0.2-1.1-0.8-1.2c-0.2,0-0.3,0-0.5,0
								c-0.9,0.2-1.2,1.4-1.4,2.2c-0.2,0.8-0.2,1.6,0,2.4c-0.2,0.3-0.4,0.6-0.7,0.9c-0.1,0.1-0.2,0.2-0.3,0.3c0-0.1,0-0.3,0-0.3
								c0-0.3-0.4-0.7-0.7-0.5c-0.7,0.6-0.9,1.5-1.3,2.2c-0.1,0.2-0.2,0.3-0.4,0.5c-0.2,0.2-0.2,0.2-0.3,0c-0.1-0.4-0.3-0.8-0.4-1.1
								c-0.1-0.2-0.6-0.4-0.8-0.1c-0.3,0.4-0.5,0.9-0.6,1.4c-0.4-0.4-1.1-0.5-1.5-0.1c0,0-0.1,0.1-0.1,0.1c-0.6,0.6-1.1,1.3-1.5,2.1
								c-0.1,0.2-0.2,0.4-0.4,0.6c0,0.1-0.1,0.1-0.1,0.2c0,0,0-0.1,0-0.1c-0.1-0.6-0.1-1.2,0-1.9l0,0c0,0,0-0.1,0-0.1
								c0-0.4-1-0.7-1-0.2c0,0.1,0,0.1,0,0.2c0,1.6-1.3,3.1-2.5,4c-0.4,0.3-1.4,1-2,0.8c-0.5-0.2-0.4-1.1-0.4-1.5
								c0.1-1.4,0.5-2.7,1.1-3.9c0.3-0.6,0.7-1.1,1.3-1.5c0.3-0.2,0.8-0.3,1.2-0.2c0.5,0.2,0.5,0.8,0.3,1.2
								c-0.1,0.2,0.2,0.6,0.4,0.3c0.8-1.5-0.5-2.8-2-2.2c-1.4,0.5-2.2,2.1-2.6,3.4c-0.4,1.2-0.9,3-0.4,4.3c0.7,1.5,2.5,0.9,3.6,0.2
								c1-0.6,1.8-1.5,2.3-2.4c0.1,0.1,0.1,0.2,0.2,0.2c0.7,0.7,1.4,0,1.7-0.6c0.4-0.8,0.9-1.5,1.5-2.2c0.1-0.1,0.2-0.1,0.2-0.2
								c0,0,0,0,0,0c0,0.2,0.1,0.4,0.1,0.6c0,0.4,0,0.8,0.1,1.2s0.8,0.7,0.9,0.2c0.2-0.9,0.4-1.8,0.7-2.7c0.3,0.6,0.7,1.2,1.4,0.9
								c0.9-0.4,1-1.5,1.5-2.3c0.2,0.4,0.6,0.5,1,0.3c0,0,0.1,0,0.1,0c0.3-0.2,0.6-0.5,0.8-0.8c0,0,0.1-0.1,0.1-0.1
								c0.4,0.7,1.2,1,2,0.9c1.1-0.4,2-1.1,2.7-2c0.5-0.6,1-1.3,1.4-2c0,0,0,0.1,0,0.1c0.3,1,0.5,2,0.6,3c0,0.3,0,0.5,0,0.8
								c-1.2-0.4-2.5,0-3.2,1c-0.7,0.8-0.9,2.5,0.3,3c1,0.4,2.1-0.4,2.8-1.1C31.2,27,31,25,30.6,23.4z M23.8,21.2
								c0.1-0.3,0.2-0.7,0.4-1c0.1-0.1,0.1-0.2,0.2-0.3c0.1-0.1,0.4-0.2,0.3-0.2s-0.1,0.5-0.1,0.6c-0.1,0.2-0.2,0.5-0.3,0.7
								c-0.2,0.5-0.4,0.9-0.7,1.4C23.7,22,23.7,21.6,23.8,21.2L23.8,21.2z M28.3,28.4c-0.5,0.3-1,0.5-1-0.2c-0.1-1.2,1.6-2.6,2.7-2
								c0,0.4-0.2,0.8-0.4,1.2C29.2,27.7,28.8,28.1,28.3,28.4L28.3,28.4z"/>
							<path id="Trazado_253589" class="st7" d="M10.7,37.5c-0.3,1-0.8,2-1.3,3c-0.5,0.7-1.3,1.2-1.4,2.1c0,0.1,0.1,0.4,0.3,0.3
								c0.8-0.6,1.5-1.4,2-2.2c0,0,0-0.1,0.1-0.1c-0.2,1-0.4,2-0.5,3c-0.1,1-0.2,2-0.4,3.1c-0.1,1-0.1,2-0.3,3
								c-0.1,0.5,0.8,0.8,0.9,0.3c0.1-0.5,0.1-1,0.1-1.5c0.1-0.5,0.1-1.1,0.2-1.6c0.1-1,0.3-2,0.4-3.1c0.4-2,0.6-4,0.7-6
								C11.6,37.3,10.9,37.1,10.7,37.5z"/>
							<path id="Trazado_253590" class="st7" d="M18,37.5c-0.2-0.3-0.5-0.6-0.8-0.8c-0.3-0.2-0.9-0.4-1.2-0.2c0,0-0.1-0.1-0.1-0.1
								c-1.1-0.3-1.8,0.6-2.3,1.5c-0.5,0.8-0.8,1.7-1.1,2.6c-0.6,1.5-1.1,4.1,0.5,5.2c1.5,1,3.1,0.1,4-1.1c0.9-1.4,1.5-3,1.5-4.7
								C18.6,39.1,18.4,38.3,18,37.5z M16.4,43.6c-0.5,0.9-1.5,2-2.6,1.6c-0.7-0.2-0.8-1-0.8-1.6c0-0.8,0.1-1.6,0.4-2.3
								c0.3-0.8,0.6-1.6,1-2.4c0.3-0.6,0.9-1.8,1.7-1.9c0,0,0.1,0.1,0.1,0.1c0.3,0.1,0.5,0.2,0.8,0.3c0.1,0.1,0.3,0.3,0.3,0.4
								c0.2,0.5,0.4,1.1,0.3,1.7C17.5,41,17.1,42.3,16.4,43.6L16.4,43.6z"/>
							<path id="Trazado_253591" class="st7" d="M35,37.3c-0.4-0.9-0.7-1.8-1-2.8c-0.2-0.9-0.7-1.7-1.3-2.3c-0.2-0.1-0.6-0.3-0.7,0
								c-0.6,1-0.9,2.1-1.1,3.2c-0.2-0.2-0.3-0.4-0.5-0.6c-0.2-0.2-0.4-0.2-0.6-0.1c-0.2,0.2-0.3,0.4-0.4,0.6
								c-0.2-0.5-0.5-0.9-0.9-1.3c-0.2-0.2-0.5-0.2-0.7,0c-1.1,1.1-0.8,3.1-1.1,4.5c0,0.3-0.1,0.6-0.3,0.8c-0.2,0.2-0.3,0-0.4-0.2
								c-0.3-0.5-0.5-1-0.6-1.6c0-0.2,0-0.4,0-0.5c0,0,0,0,0,0l0,0c0,0,0-0.1,0-0.1c0-0.4-1-0.6-1-0.1c0.1,1.2-0.1,2.3-0.7,3.3
								c-0.3,0.5-1.5,2.2-2,1.2c-0.4-0.7,0.2-1.8,0.6-2.4c0.4-0.8,1.1-1.4,1.9-1.8l0,0c0.2-0.1,0-0.5-0.2-0.5
								c-1.2,0.1-2.2,1.3-2.7,2.2c-0.6,1-1,2.3,0,3.2c1.1,1.1,2.4,0,3.1-0.9c0.4-0.5,0.7-1.1,0.9-1.6c0,0,0,0.1,0,0.1
								c0.4,0.6,1.2,1.2,1.9,0.6c0.6-0.6,0.6-1.7,0.7-2.5c0-0.9,0.2-1.7,0.5-2.5c0.4,0.7,0.7,1.6,0.7,2.4c0.1,0.4,0.8,0.7,0.9,0.2
								c0-0.6,0.1-1.3,0.3-1.9c0.3,0.4,0.5,0.8,0.7,1.2c0.2,0.3,0.9,0.5,0.9,0c-0.1-1.3,0.1-2.6,0.8-3.8c0.3,0.6,0.6,1.2,0.7,1.8
								c0.2,0.8,0.5,1.6,0.8,2.4C34.4,37.8,35.3,37.8,35,37.3z"/>
						</g>
						<g id="Grupo_146743" transform="translate(0 13.958)">
							<path id="Trazado_253592" class="st8" d="M0,7.2C0.2,4.5,1.6,2,3.9,0.5c0.8-0.6,1.9-0.7,2.8-0.2l0,0l1.8,1L7.7,2.6
								c0,0.1,0,0.1,0,0.1C7.6,5.4,6.2,7.9,3.9,9.4l0,0l-0.8,1.4L1.2,9.7l0,0l-0.1,0l0,0C0.3,9.1-0.1,8.1,0,7.2z"/>
							<path id="Trazado_253593" class="st7" d="M9.6,3.9c-0.2,2.7-1.6,5.2-3.9,6.7c-2.1,1.2-3.9,0.2-3.9-2.2
								c0.2-2.7,1.6-5.2,3.9-6.7C7.9,0.4,9.6,1.4,9.6,3.9z"/>
						</g>
					</g>
					<g id="Note-3" transform="translate(86.639 177.044)">
						<g id="Grupo_146747" transform="translate(3.51)">
							<g id="Note-4">
								<path id="Trazado_253594" class="st33" d="M0,18.8v39.3l32.6-18.8V0L0,18.8z"/>
								<g id="Grupo_146745" transform="translate(1.309 0.65)">
									<g id="Grupo_146744">
										<path id="Trazado_253595" class="st18" d="M39.4,36.5c0,0-1.6,2.7-7.3,6L3.4,59L0,24.8L32.6,6l1.8,19.8
											C34.7,29,35.1,33.7,39.4,36.5z"/>
										<path id="Trazado_253596" class="st18" d="M32.6,6L0,24.8v-6L32.6,0L32.6,6z"/>
										<path id="Trazado_253597" class="st33" d="M32.6,6L0,24.8v-6L32.6,0L32.6,6z"/>
									</g>
								</g>
							</g>
							<path id="Trazado_253598" class="st34" d="M29.9,28.2c0.1,0,0.2,0,0.3-0.1c0.5-0.1,0.1-0.7-0.2-0.7c-0.1,0-0.2,0-0.3,0.1
								c-0.1-0.2-0.2-0.5-0.3-0.7c-0.7-2-1.8-3.9-3.2-5.5c-0.2-0.2-0.7-0.3-0.7,0.1c-0.1,1.5-0.4,3-0.8,4.5c0,0,0,0,0,0
								c-0.1-0.5-0.2-0.9-0.3-1.4c-0.1-0.3-0.8-0.6-0.8-0.1c-0.1,0.5,0,1,0.3,1.5c0,0.7,0,1.3,0,2c0,1.5-0.2,3-0.6,4.4
								c-0.3,0.9-0.8,2.1-1.9,1.7c0,0,0,0,0,0c0.1-0.3,0.1-0.5,0.2-0.8c0.5-2.3,1.3-6.1-1.6-7.2c-0.1-0.1-0.3,0-0.4,0.1
								c-0.5,1.3-0.7,2.7-0.6,4.1c-0.1,1.5,0.4,2.9,1.4,4c-0.1,0.4-0.3,0.7-0.6,1c-0.9,0.6-2-0.8-2.4-1.4c-0.1-0.2-0.5-0.4-0.7-0.2
								c-0.9,0.9-1,2.3-0.9,3.6c-0.1-0.1-0.4-0.2-0.5-0.1c-0.7,0.3-1.1,1.1-1.1,1.8c-0.5-0.9-1.2-1.5-2.2-0.9
								c-0.5,0.3-0.9,0.8-1.1,1.4c-0.1-1-0.5-2-1.2-2.8c-0.7-0.6-1.8-0.6-2.4,0c-0.7,0.8-1,1.9-1,2.9c0,0.6,0,1.1,0.1,1.7
								c0.1,0.2,0.1,0.5,0.3,0.5c0.2,0,0.3-0.2,0.2-0.4c-0.3-1,0.2-5.1,1.9-4.4c0.9,0.4,1,2.3,1.2,3.1c0.3,1.6,0.6,3.1,0.9,4.7
								c0.1,0.5,0.9,0.7,1,0.1c0-1.8-0.8-4.1,0.2-5.7c0.1-0.2,0.5-0.6,0.7-0.5c0.2,0.1,0.4,0.6,0.5,0.8c0.3,0.7,0.5,1.4,0.8,2.1
								c0.2,0.4,0.9,0.6,0.9,0c0-0.9-0.6-2.6,0.1-3.4c0.2,0.3,0.3,0.6,0.5,0.9c0.2,0.3,0.9,0.6,0.9,0c0-1.3-0.4-3.2,0.3-4.4
								c0.7,0.8,1.7,1.7,2.7,1.5c0.8-0.1,1.2-0.7,1.4-1.4c0.9,0.4,2,0.1,2.5-0.8c0.7-1.4,1.1-3,1.1-4.6c0.1-0.9,0.1-1.7,0.1-2.6
								c0.1,0,0.3,0.1,0.4,0.1c0.1,0,0.3-0.1,0.3-0.2c0.4-1.3,0.7-2.6,0.8-4c0.9,1.3,1.7,2.7,2.2,4.2c0.1,0.3,0.3,0.7,0.4,1
								c-1.3,0.4-2.2,1.5-2.4,2.8c0,1.4,0.9,2.6,2.1,3.1c1.4,0.5,2-1,2-2.2C30.5,30.4,30.3,29.3,29.9,28.2z M19.6,30.7
								c-0.2-1.3-0.1-2.6,0.4-3.9c1.6,1,0.9,4.1,0.6,5.5c-0.1,0.3-0.1,0.6-0.2,1C20,32.5,19.7,31.6,19.6,30.7L19.6,30.7z M29.1,32.9
								c-0.6,0.2-1.2-0.7-1.4-1.1c-0.8-1.4,0.2-2.7,1.5-3.3c0.3,0.8,0.5,1.7,0.6,2.6C29.8,31.6,29.8,32.7,29.1,32.9L29.1,32.9z"/>
							<path id="Trazado_253599" class="st7" d="M31.2,20.3c-0.4-1.1-0.9-2.2-1.4-3.2c-0.3-0.5-0.6-1.1-0.8-1.6
								c-0.2-0.5-0.5-1-0.7-1.5c-0.1-0.3-0.8-0.5-0.8,0c0.1,0.6,0.2,1.2,0.4,1.7c0.2,0.6,0.5,1.1,0.7,1.7c0.5,1,0.9,2.1,1.3,3.2
								c0.2,0.5,0.2,1.3,1,1.3C31.7,21.6,31.4,20.8,31.2,20.3z"/>
							<g id="Grupo_146746" transform="translate(31.79 23.953)">
								<path id="Trazado_253600" class="st7" d="M0.8,0.1L0.8,0.1l0.1,0.1L0.8,0.1z"/>
								<path id="Trazado_253601" class="st7" d="M1.5,1.1c0-0.1,0-0.2-0.1-0.3c0,0,0-0.1-0.1-0.1c0,0,0,0,0,0
									c0-0.2-0.2-0.3-0.3-0.3C1,0.2,0.9,0.2,0.8,0.1c-0.1,0-0.1-0.1-0.2-0.1C0.6,0,0.4,0,0.3,0c0,0-0.1,0-0.1,0.1
									c0,0.1-0.1,0.1-0.1,0.2c0,0.1,0,0.1,0,0.2c0,0.1-0.1,0.1-0.1,0.2C0,0.8,0,0.9,0,1C0,1,0,1.1,0,1.2c0,0.2,0.2,0.4,0.3,0.5
									C0.6,1.8,0.8,1.8,1,1.8c0.1,0,0.3,0,0.4-0.1l0.1-0.1c0.1-0.1,0.1-0.1,0.1-0.2C1.6,1.4,1.5,1.2,1.5,1.1z"/>
							</g>
						</g>
						<g id="Grupo_146748" transform="translate(0 13.958)">
							<path id="Trazado_253602" class="st8" d="M0,7.2C0.2,4.5,1.6,2,3.9,0.5c0.8-0.6,1.9-0.7,2.8-0.2v0l1.8,1L7.7,2.6
								c0,0,0,0.1,0,0.1C7.6,5.4,6.2,7.9,3.9,9.4l0,0l-0.8,1.4L1.1,9.7l0,0l-0.1,0l0,0C0.3,9.1-0.1,8.1,0,7.2z"/>
							<path id="Trazado_253603" class="st7" d="M9.6,3.9c-0.2,2.7-1.6,5.2-3.9,6.7c-2.1,1.2-3.9,0.2-3.9-2.2C2,5.6,3.5,3.1,5.8,1.7
								C7.9,0.4,9.6,1.4,9.6,3.9z"/>
						</g>
					</g>
					<path id="Trazado_253604" class="st15" d="M163.3,159.6l59-34.1c3.9-2.3,7.1-0.8,7.1,3.4c0,4.1-3.2,9.3-7.1,11.6l-59,34.1
						c-3.9,2.3-7.1,0.8-7.1-3.4S159.3,161.9,163.3,159.6z"/>
					<g id="Grupo_146749" transform="translate(60.563 245.11)">
						<line id="Línea_364" class="st35" x1="0" y1="9.8" x2="18.8" y2="20.7"/>
						<line id="Línea_365" class="st35" x1="17.5" y1="0" x2="0.8" y2="30.1"/>
					</g>
					<path id="Trazado_253605" class="st18" d="M178.8,199.4c-0.1-1.5-0.7-3-1.8-4.1c-1.2-1.1-2.7-1.7-4.3-1.9
						c-2.4-0.3-4.8,0.1-7,1.1c-1.9,0.9-3.6,2.1-5.1,3.5c-0.7,0.6-1.4,1.2-2.1,1.8c-0.4,0.3,0.2,0.9,0.6,0.7c1.7-1,3.1-2.2,4.7-3.2
						c1.8-1.1,3.8-1.9,5.8-2.2c2.8-0.4,6.5,0.4,7.3,3.5c0.3,1.6,0.2,3.2-0.2,4.8c-0.3,1.6-0.8,3.2-1.5,4.7c-1.4,3-3.4,5.6-5.9,7.8
						c-2.1,2-4.8,3.5-7.6,4.2c-2.4,0.6-5,0.3-7.2-0.7c-1-0.5-1.9-1.2-2.5-2.1c-0.7-1.2-1-2.5-0.9-3.9c0-3.3,0.8-6.6,2.4-9.5
						c3.2-6,8.6-10.6,15-12.8c0.9-0.3,1.8-0.5,2.7-0.8c0.3-0.1,0.5-0.4,0.4-0.7c-0.1-0.3-0.4-0.5-0.7-0.5c-3.8,0.5-7.4,2-10.4,4.3
						c-3.2,2.3-5.9,5.2-7.9,8.5c-1.9,3.1-3.1,6.7-3.3,10.4c-0.1,3.1,0.4,6.2,3.1,8c2.4,1.5,5.3,2.1,8,1.7c3.1-0.5,6-1.8,8.4-3.7
						c3-2.2,5.4-5,7.1-8.2C178,206.8,178.9,203.1,178.8,199.4z"/>
					<path id="Trazado_253606" class="st18" d="M39.3,148.2l2.3,4.8c0.1,0.2,0.3,0.3,0.5,0.2c0,0,0,0,0,0l5.1-1.9
						c0.5-0.2,0.7,0.5,0.4,1.3l-3.7,6.9c-0.1,0.3-0.2,0.6-0.2,0.9l0.9,6.2c0.1,0.7-0.5,1.5-0.9,1.4l-4.5-0.6c-0.2,0-0.5,0.1-0.6,0.3
						l-4.5,5.8c-0.5,0.6-1,0.4-0.9-0.4l0.9-7.2c0.1-0.2,0-0.5-0.2-0.7l-3.7-2.7c-0.4-0.3-0.2-1.3,0.4-1.7l5.1-3.9
						c0.2-0.2,0.4-0.5,0.5-0.8l2.3-7.4C38.4,148.1,39.1,147.7,39.3,148.2z"/>
					<g id="Grupo_146750" transform="translate(88.852 109.242)">
						<path id="Trazado_253607" class="st23" d="M1.3,10.1l17.2-10c0.7-0.4,1.3-0.1,1.3,0.7c-0.1,0.9-0.6,1.7-1.3,2.2L1.3,13
							C0.6,13.4,0,13.1,0,12.3C0.1,11.4,0.6,10.6,1.3,10.1z"/>
						<path id="Trazado_253608" class="st23" d="M1.3,17.2l11.9-6.9c0.7-0.4,1.3-0.1,1.3,0.7c-0.1,0.9-0.6,1.7-1.3,2.2L1.3,20.1
							C0.6,20.5,0,20.2,0,19.4C0.1,18.5,0.6,17.7,1.3,17.2z"/>
					</g>
					<g id="Grupo_146751" transform="translate(150.509 108.475)">
						<path id="Trazado_253609" class="st23" d="M1.3,10.1l17.2-10c0.7-0.4,1.3-0.1,1.3,0.7c-0.1,0.9-0.6,1.7-1.3,2.2L1.3,13
							C0.6,13.4,0,13.1,0,12.3C0.1,11.4,0.6,10.6,1.3,10.1z"/>
						<path id="Trazado_253610" class="st23" d="M1.3,17.2l11.9-6.9c0.7-0.4,1.3-0.1,1.3,0.7c-0.1,0.9-0.6,1.7-1.3,2.2L1.3,20.1
							C0.6,20.5,0,20.2,0,19.4C0.1,18.5,0.6,17.7,1.3,17.2z"/>
					</g>
					<g id="Grupo_146752" transform="translate(28.462 218.74)">
						<path id="Trazado_253611" class="st23" d="M1.3,10.1l17.2-10c0.7-0.4,1.3-0.1,1.3,0.7c-0.1,0.9-0.6,1.7-1.3,2.2L1.3,13
							C0.6,13.4,0,13.1,0,12.3C0.1,11.4,0.6,10.6,1.3,10.1z"/>
						<path id="Trazado_253612" class="st23" d="M1.3,17.2l11.9-6.9c0.7-0.4,1.3-0.1,1.3,0.7c-0.1,0.9-0.6,1.7-1.3,2.2L1.3,20.1
							C0.6,20.5,0,20.2,0,19.4C0.1,18.5,0.6,17.7,1.3,17.2z"/>
					</g>
					<g id="Grupo_146753" transform="translate(182.828 169.475)">
						<path id="Trazado_253613" class="st23" d="M1.3,10.1l17.2-10c0.7-0.4,1.3-0.1,1.3,0.7c-0.1,0.9-0.6,1.7-1.3,2.2L1.3,13
							C0.6,13.4,0,13.1,0,12.3C0.1,11.4,0.6,10.6,1.3,10.1z"/>
						<path id="Trazado_253614" class="st23" d="M1.3,17.2l11.9-6.9c0.7-0.4,1.3-0.1,1.3,0.7c-0.1,0.9-0.6,1.7-1.3,2.2L1.3,20.1
							C0.6,20.5,0,20.2,0,19.4C0.1,18.5,0.6,17.7,1.3,17.2z"/>
					</g>
					<path id="Trazado_253615" class="st13" d="M85.4,152.2l23.4-13.7L85.2,177L85.4,152.2z"/>
					<path id="Trazado_253616" class="st24" d="M85.4,152.2l23.4-13.7L85.2,177L85.4,152.2z"/>
					<g id="Grupo_146758" transform="translate(0 157.254)">
						<g id="Grupo_146754">
							<path id="Trazado_253617" class="st23" d="M1.4,8.6l14.5-8.4c0.8-0.4,1.4-0.1,1.4,0.7c-0.1,0.9-0.6,1.8-1.4,2.3L1.4,11.6
								C0.6,12.1,0,11.7,0,10.9C0.1,10,0.6,9.1,1.4,8.6z"/>
							<path id="Trazado_253618" class="st23" d="M1.4,15l10.7-6.2c0.8-0.4,1.4-0.1,1.4,0.7c-0.1,0.9-0.6,1.8-1.4,2.3L1.4,18
								C0.6,18.4,0,18.1,0,17.3C0.1,16.4,0.6,15.5,1.4,15z"/>
						</g>
						<g id="Grupo_146755" transform="translate(0 39.741)">
							<path id="Trazado_253619" class="st23" d="M1.4,8.6l14.5-8.4c0.8-0.4,1.4-0.1,1.4,0.7c-0.1,0.9-0.6,1.8-1.4,2.3L1.4,11.6
								C0.6,12.1,0,11.7,0,10.9C0.1,10,0.6,9.1,1.4,8.6z"/>
							<path id="Trazado_253620" class="st23" d="M1.4,15l10.7-6.2c0.8-0.4,1.4-0.1,1.4,0.7c-0.1,0.9-0.6,1.8-1.4,2.3L1.4,18
								C0.6,18.4,0,18.1,0,17.3C0.1,16.4,0.6,15.5,1.4,15z"/>
						</g>
						<g id="Grupo_146756" transform="translate(0 79.551)">
							<path id="Trazado_253621" class="st23" d="M1.4,8.6l14.5-8.4c0.8-0.4,1.4-0.1,1.4,0.7c-0.1,0.9-0.6,1.8-1.4,2.3L1.4,11.6
								C0.6,12.1,0,11.7,0,10.9C0.1,10,0.6,9.1,1.4,8.6z"/>
							<path id="Trazado_253622" class="st23" d="M1.4,15l10.7-6.2c0.8-0.4,1.4-0.1,1.4,0.7c-0.1,0.9-0.6,1.8-1.4,2.3L1.4,18
								C0.6,18.4,0,18.1,0,17.3C0.1,16.4,0.6,15.5,1.4,15z"/>
						</g>
						<g id="Grupo_146757" transform="translate(0 119.265)">
							<path id="Trazado_253623" class="st23" d="M1.4,8.6l14.5-8.4c0.8-0.4,1.4-0.1,1.4,0.7c-0.1,0.9-0.6,1.8-1.4,2.3L1.4,11.6
								C0.6,12.1,0,11.7,0,10.9C0.1,10,0.6,9.1,1.4,8.6z"/>
							<path id="Trazado_253624" class="st23" d="M1.4,15l10.7-6.2c0.8-0.4,1.4-0.1,1.4,0.7c-0.1,0.9-0.6,1.8-1.4,2.3L1.4,18
								C0.6,18.4,0,18.1,0,17.3C0.1,16.4,0.6,15.5,1.4,15z"/>
						</g>
					</g>
					<g id="Grupo_146763" transform="translate(0 165.856)" class="st36">
						<g id="Grupo_146759">
							<path id="Trazado_253625" d="M1.4,6.4l10.7-6.2c0.8-0.4,1.4-0.1,1.4,0.7c-0.1,0.9-0.6,1.8-1.4,2.3L1.4,9.4
								C0.6,9.8,0,9.5,0,8.7C0.1,7.8,0.6,6.9,1.4,6.4z"/>
						</g>
						<g id="Grupo_146760" transform="translate(0 39.74)">
							<path id="Trazado_253626" d="M1.4,6.4l10.7-6.2c0.8-0.4,1.4-0.1,1.4,0.7c-0.1,0.9-0.6,1.8-1.4,2.3L1.4,9.4
								C0.6,9.8,0,9.5,0,8.7C0.1,7.8,0.6,6.9,1.4,6.4z"/>
						</g>
						<g id="Grupo_146761" transform="translate(0 79.551)">
							<path id="Trazado_253627" d="M1.4,6.4l10.7-6.2c0.8-0.4,1.4-0.1,1.4,0.7c-0.1,0.9-0.6,1.8-1.4,2.3L1.4,9.4
								C0.6,9.8,0,9.5,0,8.7C0.1,7.8,0.6,6.9,1.4,6.4z"/>
						</g>
						<g id="Grupo_146762" transform="translate(0 119.265)">
							<path id="Trazado_253628" d="M1.4,6.4l10.7-6.2c0.8-0.4,1.4-0.1,1.4,0.7c-0.1,0.9-0.6,1.8-1.4,2.3L1.4,9.4
								C0.6,9.8,0,9.5,0,8.7C0.1,7.8,0.6,6.9,1.4,6.4z"/>
						</g>
					</g>
					<path id="Trazado_253629" class="st12" d="M252.9,143.8c-3.2,1.5-6.3,3.2-9.3,5c-19.3,12.4-34,41-32.9,63.9
						c0.1,1.3,0.2,2.6,0.3,3.8l41.8-24.1L252.9,143.8z"/>
				</g>
			</g>
		</g>
		<g id="Clock" transform="translate(396.651 245.315)">
			<g id="Clock-2">
				<path id="Trazado_253630" class="st37" d="M62.1,7.3L62.1,7.3L62.1,7.3L62.1,7.3l-9.6-5.6l0,0l-0.1,0l0,0
					c-6-3.1-14.1-2.2-22.7,3.4C12.3,16.4-1,42.2,0.1,62.8c0.5,10.3,4.5,17.4,10.5,20.5l0,0l0.1,0h0l9.6,5.5h0l0.1,0l0,0
					c6,3.1,14.1,2.2,22.7-3.4c17.4-11.2,30.7-37,29.7-57.7C72.1,17.5,68.1,10.5,62.1,7.3z"/>
				<path id="Trazado_253631" class="st37" d="M19.7,88.7l-9.1-5.3h0l-0.1,0c-6-3.1-9.9-10.2-10.4-20.5c-0.4-9.2,2-19.5,6.3-29
					l9.6,5.5c-4.3,9.5-6.7,19.7-6.3,29C10.1,78.5,13.9,85.4,19.7,88.7z"/>
				<path id="Trazado_253632" class="st10" d="M42.9,85.5c17.4-11.2,30.7-37,29.7-57.7S56.7-0.5,39.3,10.7S8.6,47.7,9.6,68.4
					S25.5,96.7,42.9,85.5z"/>
				<path id="Trazado_253633" class="st2" d="M28.3,84.1c-10.3,0.5-11.9-11-12.2-16c-0.9-18.2,11.3-42,26.7-51.8
					c3.9-2.5,7.7-3.9,11-4.1c10.3-0.5,11.9,11,12.2,16c0.9,18.2-11.3,42-26.7,51.8C35.5,82.5,31.6,83.9,28.3,84.1L28.3,84.1z"/>
				<g id="Grupo_146765" transform="translate(42 22.918)">
					<path id="Trazado_253634" class="st8" d="M1.1,28.6c-0.6,0-1.1-0.5-1.1-1.1V1.1C0,0.5,0.5,0,1.1,0s1.1,0.5,1.1,1.1l0,0v23.1
						L14.5,8.4c0.4-0.5,1.1-0.6,1.6-0.2c0.5,0.4,0.6,1.1,0.2,1.6c0,0,0,0,0,0L2,28.2C1.8,28.4,1.5,28.6,1.1,28.6z"/>
				</g>
				<g id="Grupo_146767" transform="translate(36.328 44.522)">
					<g id="Grupo_146766" transform="translate(0 4.674)">
						
							<linearGradient id="Trazado_253635_00000098917845483186009280000011570404446724276362_" gradientUnits="userSpaceOnUse" x1="-473.5036" y1="413.5406" x2="-473.5036" y2="412.5406" gradientTransform="matrix(7.1245 0 0 -21.7905 3377.0144 9011.2686)">
							<stop  offset="0" style="stop-color:#BA68C8"/>
							<stop  offset="0.19" style="stop-color:#9139AF"/>
							<stop  offset="0.31" style="stop-color:#7B1FA2"/>
							<stop  offset="1" style="stop-color:#45147B"/>
						</linearGradient>
						<path id="Trazado_253635" style="fill:url(#Trazado_253635_00000098917845483186009280000011570404446724276362_);" d="
							M0.5,21.8c-0.1,0-0.1,0-0.2,0c-0.2-0.1-0.4-0.3-0.3-0.6c0,0,0,0,0,0L6.2,0.3C6.3,0.1,6.5-0.1,6.8,0s0.4,0.3,0.3,0.6L0.9,21.5
							C0.9,21.6,0.7,21.8,0.5,21.8z"/>
					</g>
					
						<linearGradient id="Trazado_253636_00000164506532345624971480000002019406663762946969_" gradientUnits="userSpaceOnUse" x1="-472.6273" y1="412.0079" x2="-472.6273" y2="411.0079" gradientTransform="matrix(7.41 0 0 -10.0138 3508.8184 4125.7495)">
						<stop  offset="0" style="stop-color:#BA68C8"/>
						<stop  offset="0.19" style="stop-color:#9139AF"/>
						<stop  offset="0.31" style="stop-color:#7B1FA2"/>
						<stop  offset="1" style="stop-color:#45147B"/>
					</linearGradient>
					<path id="Trazado_253636" style="fill:url(#Trazado_253636_00000164506532345624971480000002019406663762946969_);" d="
						M6.4,0.6c2-1.3,3.8-0.4,3.9,2c0,2.7-1.3,5.2-3.5,6.8c-2,1.3-3.8,0.4-3.9-2C3,4.7,4.3,2.2,6.4,0.6z"/>
				</g>
			</g>
		</g>
		<g id="Pencil" transform="translate(203.521 367.027)">
			<g id="Pencil-2">
				<path id="Shadow-5" class="st1" d="M1.5,102.1c-6.5,3.3,10,15,18.2,10.5L163,28.7l17.2-18.1c0.4-0.5,0.4-1.2,0-1.6
					c-0.3-0.3-0.7-0.4-1.1-0.3l-33.2,10.1L1.5,102.1z"/>
				<g id="Grupo_146769" transform="translate(7.621)">
					<g id="Grupo_146768">
						<path id="Trazado_253637" class="st40" d="M139.5,6L170,0c0.5-0.1,1,0.2,1.1,0.7c0.1,0.3,0,0.6-0.2,0.8L150.2,25L139.5,6z"/>
						<path id="Trazado_253638" class="st6" d="M170.9,1.6c0.3-0.4,0.3-1-0.1-1.3C170.6,0,170.3,0,170,0l-6,1.2l0,0
							c1.7,1,2.6,2.9,2.5,4.9l0,0.5L170.9,1.6z"/>
						<path id="Trazado_253639" class="st15" d="M36.4,90.3l2.5-1.4l3-1.7L150.2,25c1-3.4,0.7-7-0.9-10.1c-2.2-4.8-6.4-8.7-9.9-8.9
							L31.3,68.1l-5.8,3.3C29.3,69.5,40.2,88.3,36.4,90.3z"/>
						<path id="Trazado_253640" class="st5" d="M45.9,84.9l5.6-3.2c1.6-0.9,0.7-4.9-1.2-9.1c-2.5-5.6-7.6-10.9-9.7-9.8l-4.1,2.4
							L34.9,66c2.2-1.2,7.2,4.2,9.7,9.8c1.8,4,2.8,7.9,1.4,9l0,0C46,84.8,46,84.9,45.9,84.9z"/>
						<path id="Trazado_253641" class="st15" d="M47.3,84.1c3.8-2-7.1-20.9-11-18.9l-5.6,3.2c3.8-2,14.8,16.8,11,18.9L47.3,84.1z"/>
						<path id="Trazado_253642" class="st5" d="M36.4,90.3l5.5-3.2c3.8-2-6.6-20.3-10.6-19.1c-0.1,0-0.2,0-0.2,0.1l-5.5,3.2
							C29.3,69.5,40.2,88.3,36.4,90.3z"/>
						<path id="Trazado_253643" class="st41" d="M171.1,0.5L170,0l-22.2,12.1L33.3,77.9c-0.2-0.3-0.4-0.4-0.5-0.1
							c3.3,5.1,5.7,11.5,3.6,12.6l2.5-1.4l3-1.7L150.2,25l0,0l20.7-23.5C171.2,1.3,171.2,0.9,171.1,0.5z"/>
						<path id="Trazado_253644" class="st18" d="M13,103.7l23.4-13.4c1.6-0.9,0.7-4.9-1.2-9c-2.5-5.6-7.5-11-9.7-9.9c0,0,0,0,0,0
							L2,84.9c-4.7,2.7-0.4,12.8,4.8,17.3C8.8,103.9,10.9,104.7,13,103.7z"/>
					</g>
					<path id="Trazado_253645" class="st12" d="M14.4,96.4C13,91.2,8.8,86,4.8,84.9c-1.2-0.4-2.5-0.2-3.5,0.5
						c-3.5,3.3,0.6,12.6,5.5,16.8c1.9,1.7,4,2.4,6,1.5C14.6,102.7,15.3,100,14.4,96.4z"/>
				</g>
			</g>
		</g>
		<g id="Character" transform="translate(423.059 113.446)">
			<g id="Character-2" transform="translate(0 0)">
				<g id="Grupo_146776" transform="translate(42.561 107.69)">
					<g id="Grupo_146770" transform="translate(45.611 129.205)">
						<path id="Trazado_253646" class="st22" d="M20.9,13.5c0.7,0.3,0.9,1.7,0.9,4.5c0,2.1,0.4,5.8-2.1,6.5s-6.1,0.2-7.6-1.8
							c-1.9-2.5-3.2-4.7-6-7.8c-2.4-2.7-5-5.2-5.9-8.9c-0.8-3.3,0-4.8,2.2-5.7c3.1-1.3,8,3.2,10.4,3.9C15,4.8,20.2,13.2,20.9,13.5z"
							/>
					</g>
					<g id="Grupo_146771" transform="translate(57.083 138.633)">
						<path id="Trazado_253647" class="st40" d="M9.5,1.5L9.4,4.9c0,0-3.6,2.7-8.6,0C0.6,4.6,0,0,0,0L9.5,1.5z"/>
					</g>
					<g id="Grupo_146772" transform="translate(0 161.723)">
						<path id="Trazado_253648" class="st22" d="M38.4,0c0.6,1.8,1,3.7,1.4,5.6c0.4,2.1,0.9,5.5,0.1,7.1s-3.6,2.5-8,2.3
							c-2.8-0.1-7.3,1.7-10.4,3.4c-3.2,1.7-9.7,2.2-13,1.8c-3.9-0.5-7.9-2.9-8.5-4.5s0.3-3.3,9.5-7c0.1,0,12.9-3.9,17.4-8.7L38.4,0z
							"/>
					</g>
					<g id="Grupo_146773" transform="translate(27.087 158.027)">
						<path id="Trazado_253649" class="st40" d="M11.4,0c0,0-0.1,2.5-0.1,4S9.5,7.6,5.1,7.3C2,7.1-0.2,6.3,0,3.7L0.1,0L11.4,0z"/>
					</g>
					<g id="Grupo_146774" transform="translate(17.517)">
						<path id="Trazado_253650" class="st23" d="M52.3,94.8c-0.6-6.1-1.8-12.1-3.6-17.9c0,0,1.6-15.3,2.5-29.9
							c1-15.7,1.9-23.8-1.2-46.5c0,0-48.2-4.3-49.5,13.8s0.6,64.5,1,72.5s1.6,15.1,3,28.1C5.8,127.7,9.7,158,9.7,158
							c5.7,3.3,11.3,0,11.3,0s4.4-36.3,4.2-45.5c-0.1-6.8-1.2-13.6-3-20.2c0,0,1.3-15,2.4-28s2.2-19.3,2.5-24.9l1.1-0.5
							c0,0,0.6,22.5,1,30.5s1.5,15.7,3.5,30.6c1.7,12.9,7.1,40.3,7.1,40.3c5.7,3.3,9.3-0.2,9.3-0.2S53.6,106,52.3,94.8z"/>
					</g>
					<g id="Grupo_146775" transform="translate(44.62 28.256)">
						<path id="Trazado_253651" class="st22" d="M0,11.1c0,0,12.5-5.8,18.7-11.1c0,0-5.9,7.9-13.5,11.3c0,0-3.3,27.9-3.3,27.3
							L1,11.1L0,11.1z"/>
					</g>
				</g>
				<g id="Grupo_146789">
					<path id="Trazado_253652" class="st40" d="M78.5,43.4L80.4,60l15.7-0.8l-1.7-19.4L78.5,43.4z"/>
					<g id="Grupo_146780" transform="translate(0 42.34)">
						<path id="Trazado_253653" class="st10" d="M102.1,7.4c5.9-0.3,8.8,0.6,11.5,5.7s3.7,20.1,4.6,27.9s1.1,13.3-2.1,14.1
							s-15.7,1.1-15.7,1.1L102.1,7.4z"/>
						<path id="Trazado_253654" class="st15" d="M111.9,16c-0.8-4.7-7-9.6-12.7-8.6c-1.3,0.2-2.6,0.4-3.9,0.7
							c-0.7,2.8-8.4,4.6-15.7,2.8c-2.2,0.6-9.5,1.9-11.3,2.6c-5.3,1.7-7.4,6.9-8.3,24.1c0,0,0.4,38.9,0.2,46.7
							c13,5.5,26.7,5.6,34.2,4.2c15.8-3.1,17.8-9.5,17.8-9.5L110,61C110,61,113.9,26.6,111.9,16z"/>
						<path id="Trazado_253656" class="st10" d="M79.2,6.5l0.1,1c3.2,0.7,6.5,0.7,9.6,0C94,6.4,95.1,5,95.1,5L95,3.8
							c0,0,1.3-0.5,1.9,1.5c0.3,0.8,0.5,1.6,0.7,2.4c0,0,0.6,3.6-5.4,5.4c-5,1.6-10.4,1-14.9-1.6L74.9,12c0,0,2-4.7,2.7-5.6
							c0.3-0.5,0.9-0.9,1.5-0.8L79.2,6.5z"/>
						<g id="Device_2" transform="translate(1.219)">
							<path id="Trazado_253657" class="st13" d="M11.3,36.8l-0.5-0.2c-0.4-0.2-0.7-0.5-0.9-0.9L0,8c-0.1-0.3,0-0.6,0.3-0.7
								c0,0,0,0,0,0L13.4,0c0.4-0.1,0.8,0,1.2,0.2l0.5,0.2C15.5,0.7,15.8,1,16,1.4l9.9,27.7c0.1,0.3,0,0.6-0.3,0.7c0,0,0,0,0,0
								L12.5,37C12,37.1,11.6,37,11.3,36.8z"/>
							<path id="Trazado_253658" class="st42" d="M11.3,36.8l-0.5-0.2c-0.4-0.2-0.7-0.5-0.9-0.9L0,8c-0.1-0.3,0-0.6,0.3-0.7
								c0,0,0,0,0,0L13.4,0c0.4-0.1,0.8,0,1.2,0.2l0.5,0.2C15.5,0.7,15.8,1,16,1.4l9.9,27.7c0.1,0.3,0,0.6-0.3,0.7c0,0,0,0,0,0
								L12.5,37C12,37.1,11.6,37,11.3,36.8z"/>
							<path id="Trazado_253659" class="st13" d="M12.4,37.1c-0.4,0-0.8,0-1.1-0.2l-0.5-0.2c-0.4-0.2-0.7-0.5-0.9-0.9L0,8
								C0,7.9,0,7.7,0,7.6l1.9,1C1.9,8.7,1.8,8.8,1.9,9l9.9,27.7C11.8,36.9,12.1,37.1,12.4,37.1z"/>
							<path id="Trazado_253660" class="st29" d="M12.4,37.1c-0.4,0-0.8,0-1.1-0.2l-0.5-0.2c-0.4-0.2-0.7-0.5-0.9-0.9L0,8
								C0,7.9,0,7.7,0,7.6l1.9,1C1.9,8.7,1.8,8.8,1.9,9l9.9,27.7C11.8,36.9,12.1,37.1,12.4,37.1z"/>
							<path id="Trazado_253661" class="st13" d="M1.9,9l9.9,27.7c0.1,0.3,0.4,0.5,0.7,0.4l13.1-7.3c0.3-0.1,0.4-0.4,0.3-0.7
								c0,0,0,0,0,0L16,1.4c-0.1-0.3-0.4-0.5-0.7-0.4L2.2,8.3C1.9,8.4,1.8,8.7,1.9,9C1.9,9,1.9,9,1.9,9z"/>
							<path id="Trazado_253662" class="st24" d="M1.9,9l9.9,27.7c0.1,0.3,0.4,0.5,0.7,0.4l13.1-7.3c0.3-0.1,0.4-0.4,0.3-0.7
								c0,0,0,0,0,0L16,1.4c-0.1-0.3-0.4-0.5-0.7-0.4L2.2,8.3C1.9,8.4,1.8,8.7,1.9,9C1.9,9,1.9,9,1.9,9z"/>
							<path id="Trazado_253663" class="st4" d="M3.7,10.6l11.6-6.5C15.6,4,15.9,4.1,16,4.4l7.9,22.3c0.1,0.2,0,0.5-0.3,0.6
								c0,0,0,0,0,0L12,34c-0.3,0.1-0.5-0.1-0.6-0.3l-8-22.5C3.4,10.9,3.5,10.7,3.7,10.6C3.7,10.6,3.7,10.6,3.7,10.6z"/>
							<path id="Trazado_253664" class="st6" d="M8.4,5.5c0.2-0.1,0.4,0,0.5,0.2C9,5.8,9,6.1,8.8,6.2c0,0,0,0,0,0
								C8.6,6.3,8.4,6.2,8.3,6C8.2,5.8,8.3,5.6,8.4,5.5C8.4,5.5,8.4,5.5,8.4,5.5z"/>
							<g id="Grupo_146777" transform="translate(7.211 5.663)">
								<path id="Trazado_253665" class="st6" d="M0.7,1.4C1.4,1,2.5,0.4,3.1,0C3.2,0,3.3,0,3.4,0.1c0.1,0.1,0,0.2-0.1,0.3
									c0,0,0,0,0,0L0.9,1.7c-0.1,0.1-0.2,0-0.3-0.1C0.6,1.6,0.6,1.4,0.7,1.4C0.7,1.4,0.7,1.4,0.7,1.4z"/>
								<path id="Trazado_253666" class="st6" d="M0.1,1.7c0.1-0.1,0.2,0,0.3,0.1c0.1,0.1,0,0.2-0.1,0.3c0,0,0,0,0,0
									C0.2,2.1,0.1,2.1,0,2C0,1.9,0,1.8,0.1,1.7C0.1,1.7,0.1,1.7,0.1,1.7z"/>
							</g>
							<path id="Trazado_253667" class="st6" d="M18.6,31.2c0.4-0.1,0.8,0.1,0.9,0.5c0.1,0.4,0,0.8-0.4,0.9c0,0,0,0,0,0
								c-0.4,0.1-0.8-0.1-0.9-0.5C18.1,31.8,18.3,31.4,18.6,31.2C18.6,31.2,18.6,31.2,18.6,31.2z"/>
							<path id="Trazado_253668" class="st13" d="M11.6,10.6l1.9,2.5c0.1,0.1,0.2,0.1,0.3,0.1l2.3-1c0.2-0.1,0.5,0.3,0.4,0.7
								l-0.9,3.6c0,0.1,0,0.3,0,0.4l1.4,3.2c0.1,0.3,0,0.8-0.3,0.8l-2.4-0.3c-0.1,0-0.2,0.1-0.3,0.2l-1.5,3
								c-0.2,0.3-0.5,0.2-0.5-0.2l-0.6-3.7c0-0.1-0.1-0.3-0.2-0.3L9,18.1c-0.2-0.2-0.3-0.6-0.1-0.9l2-2c0.1-0.1,0.1-0.2,0.1-0.4
								l0.1-3.8C11.2,10.5,11.5,10.3,11.6,10.6z"/>
						</g>
						<g id="Grupo_146779" transform="translate(32.383 13.451)">
							<g id="Grupo_146778">
								<path id="Trazado_253669" class="st40" d="M36,0c-7.2,0.6-10.3,1.9-15.7,11.7C14.4,22.2,3.2,41.4,1.7,43.8
									c-2,3.4-2.4,8.5-0.6,11.6c1.6,2.9,6.7,4.2,12.5-2.3c6.9-7.7,19.6-26.7,19.6-26.7S44,12.1,36,0z"/>
							</g>
						</g>
						<path id="Trazado_253670" class="st40" d="M36.5,71c-5.5-0.7-18.4-18.1-22.1-23.9c-2.9-4.6-6.7-8.6-11.2-11.8
							c-0.9-0.6-1.6-1.3-2.2-2.2c-0.4-0.9-0.7-1.8-0.6-2.8c0.1-1.3,0.1-2.5-0.1-3.8C0.1,25.9,0,25.2,0,24.4c0.1-0.7,0.4-1.4,0.6-2.1
							c0.1-0.9,0-1.8-0.1-2.6c0-0.6,0.1-1.2,0.3-1.7C1.1,17.5,1.5,17,2,16.6c0.6-0.5,1.2-0.9,1.8-1.3l1.9,5.2l1.8,5
							c0.7,0.6,1.9,1.9,2.6,0.6c0.2-0.4,0.3-0.7,0.3-1.1c0.1-1.3,0-2.6,0.3-3.8c0.1-0.8,0.5-1.5,1-2.2c0.3-0.4,1.3-1.3,1.8-0.8
							c0.2,0.2,0.3,0.4,0.3,0.6c0.1,0.6-0.1,1.2,0,1.7c0.1,0.7,0.4,1.5,0.5,2.2c0.3,1.5,0.5,3,0.5,4.6c0,1.1,0,2.3,0.2,3.4
							c0.1,1.3,0.6,2.6,1.3,3.6C17.8,36.3,37,54.7,37,54.7L36.5,71z"/>
						<path id="Trazado_253671" class="st10" d="M69.7,13.1c-4.4-0.1-9.6,0.6-13.7,5.9S35.8,52.9,35.8,52.9l-9.1-8.2
							c-3.6,2.2-6.1,5.8-7,9.9c2.5,3.9,5.2,7.7,8.2,11.2c3.9,4.2,8.1,7.2,11.7,5.9s7.1-4.1,14.7-14.6s15.9-23,15.9-23
							S75.4,21.8,69.7,13.1z"/>
					</g>
					<g id="Grupo_146781" transform="translate(63.965 23.006)">
						<path id="Trazado_253672" class="st43" d="M3.5,0c0,0-3.9,6-3.5,6.5s3.3,1.1,3.3,1.1L3.5,0z"/>
					</g>
					<g id="Grupo_146782" transform="translate(64.638 17.481)">
						<path id="Trazado_253673" class="st6" d="M4.7,9.4C2.1,9.4,0,7.3,0,4.7C0,2.1,2.1,0,4.7,0c2.6,0,4.7,2.1,4.7,4.7
							C9.3,7.3,7.3,9.3,4.7,9.4z M4.7,1C2.7,1,1,2.7,1,4.7s1.6,3.6,3.6,3.6c2,0,3.6-1.6,3.6-3.6c0,0,0,0,0,0C8.3,2.7,6.7,1,4.7,1z"
							/>
					</g>
					<g id="Grupo_146783" transform="translate(67.164 5.758)">
						<path id="Trazado_253674" class="st40" d="M11.2,0.8C3.3,2.5,1,5.9,0.2,18.6c-0.8,13.2,0.6,17.3,2.3,19.1
							c1.2,1.2,7.7,1.4,10.9,0.5c4.1-1.1,13.4-4.4,17.7-11c5.1-7.8,6.4-18.4,1-22.7C24.5-1.7,14.4,0.1,11.2,0.8z"/>
					</g>
					<path id="Trazado_253675" class="st43" d="M78.6,44.3l-0.4-2.4c-2.5,1.3-5.3,2-8.1,1.8C71.7,44.5,75.6,44.7,78.6,44.3z"/>
					<path id="Trazado_253676" class="st6" d="M65.1,21.2L79.2,23l-0.6,1l-13.5-1.8V21.2z"/>
					<g id="Grupo_146788" transform="translate(63.155)">
						<g id="Grupo_146785">
							<g id="Grupo_146784">
								<path id="Trazado_253677" class="st6" d="M3.7,11.8c-0.2,1.2,0,2.4,0.6,3.5c1.1,1.9,3.2,3,5.3,2.8c-0.4,0,1,1.8,1.1,1.9
									c0.6,0.5,1.3,0.8,2.1,0.8c0.3,1.8,0.2,3.6,2.1,4.5c0,0,1.3-4.9,5.4-4.3c4.1,0.6,4.7,5.9,2.1,9.1c-2.6,3.2-5,2-5,2
									c0.2,0.1,0.3,1.7,0.4,2c0.3,0.9,0.6,1.8,1.1,2.7c0.9,1.7,2.2,3.2,3.7,4.4c1.3,1,2.9,1.8,4.5,2.1c1.5,0.2,3.2-0.4,4.7-0.6
									c3.8-5.2,7-10.8,9.5-16.6c1.3-2.6,2.1-5.4,2.3-8.3c0-2.4-0.1-4.9-1.5-6.9C40.9,9,39,7.9,37,7.6c-0.4-2.6-2-4.9-4.4-6.1
									c-2.4-1.2-5-1.7-7.6-1.5c-2.6,0.1-5.2,0.5-7.8,0.8C11.8,1.2,6.4,1.1,1.1,0.5c-0.2,0-0.4,0-0.6,0.1C0.4,0.7,0.2,0.9,0.2,1.1
									C-0.6,4.7,1,8.4,4.8,9.3C4.2,10,3.9,10.9,3.7,11.8z"/>
							</g>
						</g>
						<g id="Grupo_146787" transform="translate(12.234 22.477)">
							<g id="Grupo_146786">
								<path id="Trazado_253678" class="st6" d="M2.7,5.5L2.8,0C1.3,0,0,1.2,0,2.7C0,4.2,1.2,5.5,2.7,5.5z"/>
							</g>
						</g>
					</g>
				</g>
			</g>
		</g>
	</g>
	<g id="Grupo_146795" transform="translate(17.564 -51)">
		<path id="Rectángulo_44294" class="st18" d="M442.5,2427h14c0.8,0,1.5,0.7,1.5,1.5l0,0c0,0.8-0.7,1.5-1.5,1.5h-14
			c-0.8,0-1.5-0.7-1.5-1.5l0,0C441,2427.7,441.7,2427,442.5,2427z"/>
		<path id="Rectángulo_44295" class="st18" d="M462.5,2427h14c0.8,0,1.5,0.7,1.5,1.5l0,0c0,0.8-0.7,1.5-1.5,1.5h-14
			c-0.8,0-1.5-0.7-1.5-1.5l0,0C461,2427.7,461.7,2427,462.5,2427z"/>
		<path id="Rectángulo_44296" class="st18" d="M481.5,2427h14c0.8,0,1.5,0.7,1.5,1.5l0,0c0,0.8-0.7,1.5-1.5,1.5h-14
			c-0.8,0-1.5-0.7-1.5-1.5l0,0C480,2427.7,480.7,2427,481.5,2427z"/>
		<path id="Rectángulo_44297" class="st18" d="M501.5,2427h14c0.8,0,1.5,0.7,1.5,1.5l0,0c0,0.8-0.7,1.5-1.5,1.5h-14
			c-0.8,0-1.5-0.7-1.5-1.5l0,0C500,2427.7,500.7,2427,501.5,2427z"/>
		<path id="Rectángulo_44294-2" class="st18" d="M521.5,2427h14c0.8,0,1.5,0.7,1.5,1.5l0,0c0,0.8-0.7,1.5-1.5,1.5h-14
			c-0.8,0-1.5-0.7-1.5-1.5l0,0C520,2427.7,520.7,2427,521.5,2427z"/>
		<path id="Rectángulo_44295-2" class="st18" d="M541.5,2427h14c0.8,0,1.5,0.7,1.5,1.5l0,0c0,0.8-0.7,1.5-1.5,1.5h-14
			c-0.8,0-1.5-0.7-1.5-1.5l0,0C540,2427.7,540.7,2427,541.5,2427z"/>
		<path id="Rectángulo_44296-2" class="st18" d="M561.5,2427h14c0.8,0,1.5,0.7,1.5,1.5l0,0c0,0.8-0.7,1.5-1.5,1.5h-14
			c-0.8,0-1.5-0.7-1.5-1.5l0,0C560,2427.7,560.7,2427,561.5,2427z"/>
		<path id="Rectángulo_44297-2" class="st18" d="M581.5,2427h14c0.8,0,1.5,0.7,1.5,1.5l0,0c0,0.8-0.7,1.5-1.5,1.5h-14
			c-0.8,0-1.5-0.7-1.5-1.5l0,0C580,2427.7,580.7,2427,581.5,2427z"/>
		<path id="Rectángulo_44294-3" class="st18" d="M601.5,2427h14c0.8,0,1.5,0.7,1.5,1.5l0,0c0,0.8-0.7,1.5-1.5,1.5h-14
			c-0.8,0-1.5-0.7-1.5-1.5l0,0C600,2427.7,600.7,2427,601.5,2427z"/>
		<path id="Rectángulo_44295-3" class="st18" d="M621.5,2427h14c0.8,0,1.5,0.7,1.5,1.5l0,0c0,0.8-0.7,1.5-1.5,1.5h-14
			c-0.8,0-1.5-0.7-1.5-1.5l0,0C620,2427.7,620.7,2427,621.5,2427z"/>
	</g>
	<g id="Grupo_146801" transform="translate(16.564 -53)">
		<g id="Grupo_146798" transform="translate(197 154)">
			<path id="Rectángulo_44294-4" class="st18" d="M442.5,2427h14c0.8,0,1.5,0.7,1.5,1.5l0,0c0,0.8-0.7,1.5-1.5,1.5h-14
				c-0.8,0-1.5-0.7-1.5-1.5l0,0C441,2427.7,441.7,2427,442.5,2427z"/>
			<path id="Rectángulo_44295-4" class="st18" d="M462.5,2427h14c0.8,0,1.5,0.7,1.5,1.5l0,0c0,0.8-0.7,1.5-1.5,1.5h-14
				c-0.8,0-1.5-0.7-1.5-1.5l0,0C461,2427.7,461.7,2427,462.5,2427z"/>
			<path id="Rectángulo_44296-3" class="st18" d="M481.5,2427h14c0.8,0,1.5,0.7,1.5,1.5l0,0c0,0.8-0.7,1.5-1.5,1.5h-14
				c-0.8,0-1.5-0.7-1.5-1.5l0,0C480,2427.7,480.7,2427,481.5,2427z"/>
			<path id="Rectángulo_44297-3" class="st18" d="M501.5,2427h14c0.8,0,1.5,0.7,1.5,1.5l0,0c0,0.8-0.7,1.5-1.5,1.5h-14
				c-0.8,0-1.5-0.7-1.5-1.5l0,0C500,2427.7,500.7,2427,501.5,2427z"/>
			<path id="Rectángulo_44294-5" class="st18" d="M521.5,2427h14c0.8,0,1.5,0.7,1.5,1.5l0,0c0,0.8-0.7,1.5-1.5,1.5h-14
				c-0.8,0-1.5-0.7-1.5-1.5l0,0C520,2427.7,520.7,2427,521.5,2427z"/>
			<path id="Rectángulo_44295-5" class="st18" d="M541.5,2427h14c0.8,0,1.5,0.7,1.5,1.5l0,0c0,0.8-0.7,1.5-1.5,1.5h-14
				c-0.8,0-1.5-0.7-1.5-1.5l0,0C540,2427.7,540.7,2427,541.5,2427z"/>
			<path id="Rectángulo_44296-4" class="st18" d="M561.5,2427h14c0.8,0,1.5,0.7,1.5,1.5l0,0c0,0.8-0.7,1.5-1.5,1.5h-14
				c-0.8,0-1.5-0.7-1.5-1.5l0,0C560,2427.7,560.7,2427,561.5,2427z"/>
			<path id="Rectángulo_44297-4" class="st18" d="M581.5,2427h14c0.8,0,1.5,0.7,1.5,1.5l0,0c0,0.8-0.7,1.5-1.5,1.5h-14
				c-0.8,0-1.5-0.7-1.5-1.5l0,0C580,2427.7,580.7,2427,581.5,2427z"/>
			<path id="Rectángulo_44294-6" class="st18" d="M601.5,2427h14c0.8,0,1.5,0.7,1.5,1.5l0,0c0,0.8-0.7,1.5-1.5,1.5h-14
				c-0.8,0-1.5-0.7-1.5-1.5l0,0C600,2427.7,600.7,2427,601.5,2427z"/>
			<path id="Rectángulo_44295-6" class="st18" d="M621.5,2427h14c0.8,0,1.5,0.7,1.5,1.5l0,0c0,0.8-0.7,1.5-1.5,1.5h-14
				c-0.8,0-1.5-0.7-1.5-1.5l0,0C620,2427.7,620.7,2427,621.5,2427z"/>
		</g>
		<g id="Grupo_146799" transform="translate(-2 154)">
			<path id="Rectángulo_44294-7" class="st18" d="M442.5,2427h14c0.8,0,1.5,0.7,1.5,1.5l0,0c0,0.8-0.7,1.5-1.5,1.5h-14
				c-0.8,0-1.5-0.7-1.5-1.5l0,0C441,2427.7,441.7,2427,442.5,2427z"/>
			<path id="Rectángulo_44299" class="st18" d="M402.5,2427h14c0.8,0,1.5,0.7,1.5,1.5l0,0c0,0.8-0.7,1.5-1.5,1.5h-14
				c-0.8,0-1.5-0.7-1.5-1.5l0,0C401,2427.7,401.7,2427,402.5,2427z"/>
			<path id="Rectángulo_44295-7" class="st18" d="M462.5,2427h14c0.8,0,1.5,0.7,1.5,1.5l0,0c0,0.8-0.7,1.5-1.5,1.5h-14
				c-0.8,0-1.5-0.7-1.5-1.5l0,0C461,2427.7,461.7,2427,462.5,2427z"/>
			<path id="Rectángulo_44300" class="st18" d="M422.5,2427h14c0.8,0,1.5,0.7,1.5,1.5l0,0c0,0.8-0.7,1.5-1.5,1.5h-14
				c-0.8,0-1.5-0.7-1.5-1.5l0,0C421,2427.7,421.7,2427,422.5,2427z"/>
			<path id="Rectángulo_44296-5" class="st18" d="M481.5,2427h14c0.8,0,1.5,0.7,1.5,1.5l0,0c0,0.8-0.7,1.5-1.5,1.5h-14
				c-0.8,0-1.5-0.7-1.5-1.5l0,0C480,2427.7,480.7,2427,481.5,2427z"/>
			<path id="Rectángulo_44297-5" class="st18" d="M501.5,2427h14c0.8,0,1.5,0.7,1.5,1.5l0,0c0,0.8-0.7,1.5-1.5,1.5h-14
				c-0.8,0-1.5-0.7-1.5-1.5l0,0C500,2427.7,500.7,2427,501.5,2427z"/>
			<path id="Rectángulo_44294-8" class="st18" d="M521.5,2427h14c0.8,0,1.5,0.7,1.5,1.5l0,0c0,0.8-0.7,1.5-1.5,1.5h-14
				c-0.8,0-1.5-0.7-1.5-1.5l0,0C520,2427.7,520.7,2427,521.5,2427z"/>
			<path id="Rectángulo_44295-8" class="st18" d="M541.5,2427h14c0.8,0,1.5,0.7,1.5,1.5l0,0c0,0.8-0.7,1.5-1.5,1.5h-14
				c-0.8,0-1.5-0.7-1.5-1.5l0,0C540,2427.7,540.7,2427,541.5,2427z"/>
			<path id="Rectángulo_44296-6" class="st18" d="M561.5,2427h14c0.8,0,1.5,0.7,1.5,1.5l0,0c0,0.8-0.7,1.5-1.5,1.5h-14
				c-0.8,0-1.5-0.7-1.5-1.5l0,0C560,2427.7,560.7,2427,561.5,2427z"/>
			<path id="Rectángulo_44297-6" class="st18" d="M581.5,2427h14c0.8,0,1.5,0.7,1.5,1.5l0,0c0,0.8-0.7,1.5-1.5,1.5h-14
				c-0.8,0-1.5-0.7-1.5-1.5l0,0C580,2427.7,580.7,2427,581.5,2427z"/>
			<path id="Rectángulo_44294-9" class="st18" d="M601.5,2427h14c0.8,0,1.5,0.7,1.5,1.5l0,0c0,0.8-0.7,1.5-1.5,1.5h-14
				c-0.8,0-1.5-0.7-1.5-1.5l0,0C600,2427.7,600.7,2427,601.5,2427z"/>
			<path id="Rectángulo_44295-9" class="st18" d="M621.5,2427h14c0.8,0,1.5,0.7,1.5,1.5l0,0c0,0.8-0.7,1.5-1.5,1.5h-14
				c-0.8,0-1.5-0.7-1.5-1.5l0,0C620,2427.7,620.7,2427,621.5,2427z"/>
		</g>
	</g>
	<g id="Grupo_146796" transform="translate(607.564 -36)">
		<path id="Rectángulo_44294-10" class="st18" d="M442.5,2427h14c0.8,0,1.5,0.7,1.5,1.5l0,0c0,0.8-0.7,1.5-1.5,1.5h-14
			c-0.8,0-1.5-0.7-1.5-1.5l0,0C441,2427.7,441.7,2427,442.5,2427z"/>
		<path id="Rectángulo_44295-10" class="st18" d="M462.5,2427h14c0.8,0,1.5,0.7,1.5,1.5l0,0c0,0.8-0.7,1.5-1.5,1.5h-14
			c-0.8,0-1.5-0.7-1.5-1.5l0,0C461,2427.7,461.7,2427,462.5,2427z"/>
		<path id="Rectángulo_44296-7" class="st18" d="M481.5,2427h14c0.8,0,1.5,0.7,1.5,1.5l0,0c0,0.8-0.7,1.5-1.5,1.5h-14
			c-0.8,0-1.5-0.7-1.5-1.5l0,0C480,2427.7,480.7,2427,481.5,2427z"/>
		<path id="Rectángulo_44297-7" class="st18" d="M501.5,2427h14c0.8,0,1.5,0.7,1.5,1.5l0,0c0,0.8-0.7,1.5-1.5,1.5h-14
			c-0.8,0-1.5-0.7-1.5-1.5l0,0C500,2427.7,500.7,2427,501.5,2427z"/>
		<path id="Rectángulo_44294-11" class="st18" d="M521.5,2427h14c0.8,0,1.5,0.7,1.5,1.5l0,0c0,0.8-0.7,1.5-1.5,1.5h-14
			c-0.8,0-1.5-0.7-1.5-1.5l0,0C520,2427.7,520.7,2427,521.5,2427z"/>
		<path id="Rectángulo_44295-11" class="st18" d="M541.5,2427h14c0.8,0,1.5,0.7,1.5,1.5l0,0c0,0.8-0.7,1.5-1.5,1.5h-14
			c-0.8,0-1.5-0.7-1.5-1.5l0,0C540,2427.7,540.7,2427,541.5,2427z"/>
		<path id="Rectángulo_44296-8" class="st18" d="M561.5,2427h14c0.8,0,1.5,0.7,1.5,1.5l0,0c0,0.8-0.7,1.5-1.5,1.5h-14
			c-0.8,0-1.5-0.7-1.5-1.5l0,0C560,2427.7,560.7,2427,561.5,2427z"/>
	</g>
	<g id="Grupo_146797" transform="translate(3375.564 2161.5) rotate(90)">
		<path id="Rectángulo_44294-12" class="st18" d="M442.5,2427h14c0.8,0,1.5,0.7,1.5,1.5l0,0c0,0.8-0.7,1.5-1.5,1.5h-14
			c-0.8,0-1.5-0.7-1.5-1.5l0,0C441,2427.7,441.7,2427,442.5,2427z"/>
		<path id="Rectángulo_44295-12" class="st18" d="M462.5,2427h14c0.8,0,1.5,0.7,1.5,1.5l0,0c0,0.8-0.7,1.5-1.5,1.5h-14
			c-0.8,0-1.5-0.7-1.5-1.5l0,0C461,2427.7,461.7,2427,462.5,2427z"/>
		<path id="Rectángulo_44296-9" class="st18" d="M481.5,2427h14c0.8,0,1.5,0.7,1.5,1.5l0,0c0,0.8-0.7,1.5-1.5,1.5h-14
			c-0.8,0-1.5-0.7-1.5-1.5l0,0C480,2427.7,480.7,2427,481.5,2427z"/>
		<path id="Rectángulo_44297-8" class="st18" d="M501.5,2427h14c0.8,0,1.5,0.7,1.5,1.5l0,0c0,0.8-0.7,1.5-1.5,1.5h-14
			c-0.8,0-1.5-0.7-1.5-1.5l0,0C500,2427.7,500.7,2427,501.5,2427z"/>
		<path id="Rectángulo_44294-13" class="st18" d="M521.5,2427h14c0.8,0,1.5,0.7,1.5,1.5l0,0c0,0.8-0.7,1.5-1.5,1.5h-14
			c-0.8,0-1.5-0.7-1.5-1.5l0,0C520,2427.7,520.7,2427,521.5,2427z"/>
		<path id="Rectángulo_44295-13" class="st18" d="M541.5,2427h14c0.8,0,1.5,0.7,1.5,1.5l0,0c0,0.8-0.7,1.5-1.5,1.5h-14
			c-0.8,0-1.5-0.7-1.5-1.5l0,0C540,2427.7,540.7,2427,541.5,2427z"/>
		<path id="Rectángulo_44296-10" class="st18" d="M561.5,2427h14c0.8,0,1.5,0.7,1.5,1.5l0,0c0,0.8-0.7,1.5-1.5,1.5h-14
			c-0.8,0-1.5-0.7-1.5-1.5l0,0C560,2427.7,560.7,2427,561.5,2427z"/>
		<path id="Rectángulo_44297-9" class="st18" d="M581.5,2427h14c0.8,0,1.5,0.7,1.5,1.5l0,0c0,0.8-0.7,1.5-1.5,1.5h-14
			c-0.8,0-1.5-0.7-1.5-1.5l0,0C580,2427.7,580.7,2427,581.5,2427z"/>
		<path id="Rectángulo_44294-14" class="st18" d="M601.5,2427h14c0.8,0,1.5,0.7,1.5,1.5l0,0c0,0.8-0.7,1.5-1.5,1.5h-14
			c-0.8,0-1.5-0.7-1.5-1.5l0,0C600,2427.7,600.7,2427,601.5,2427z"/>
	</g>
</g>
</svg>
