<svg xmlns="http://www.w3.org/2000/svg" xmlns:xlink="http://www.w3.org/1999/xlink" width="194.631" height="191.728" viewBox="0 0 194.631 191.728">
  <defs>
    <clipPath id="clip-path">
      <ellipse id="Elipse_3994" data-name="Elipse 3994" cx="91.197" cy="90.603" rx="91.197" ry="90.603" transform="translate(0)" fill="#20cb7d"/>
    </clipPath>
  </defs>
  <g id="Grupo_146896" data-name="Grupo 146896" transform="translate(0.5 0.5)">
    <path id="Trazado_99503" data-name="Trazado 99503" d="M991.256,343.942A90.89,90.89,0,0,1,900.42,253" transform="translate(-900.42 -153.214)" fill="none" stroke="#fda929" stroke-miterlimit="10" stroke-width="1"/>
    <g id="Grupo_146895" data-name="Grupo 146895" transform="translate(3.43)">
      <path id="Trazado_252307" data-name="Trazado 252307" d="M90.836,90.942A90.89,90.89,0,0,1,0,0" transform="matrix(-1, -0.017, 0.017, -1, 188.606, 92.513)" fill="none" stroke="#20cb7d" stroke-miterlimit="10" stroke-width="1"/>
      <g id="Grupo_146894" data-name="Grupo 146894" transform="translate(0 2.191)">
        <ellipse id="Elipse_3992" data-name="Elipse 3992" cx="92.614" cy="92.051" rx="92.614" ry="92.051" fill="#fff"/>
        <g id="Grupo_146893" data-name="Grupo 146893" transform="translate(1.418 1.448)">
          <g id="tienda-de-reparacion" transform="translate(41.196 35.563)">
            <path id="Trazado_253218" data-name="Trazado 253218" d="M94.727,89.453H91.8V41.8h6.836a1.368,1.368,0,0,0,1.323-1.713L92.136,10.2a1.366,1.366,0,0,0-1.323-1.021h-12.3V4.495A4.5,4.5,0,0,0,74.023,0H25.976a4.5,4.5,0,0,0-4.492,4.492V9.18H9.186A1.366,1.366,0,0,0,7.863,10.2L.044,40.086A1.368,1.368,0,0,0,1.367,41.8H8.2V89.453H5.272a5.273,5.273,0,0,0,0,10.547H94.726a5.273,5.273,0,0,0,0-10.547ZM89.758,11.914l7.1,27.148H78.515V11.916ZM24.219,4.492a1.76,1.76,0,0,1,1.758-1.758H74.023a1.76,1.76,0,0,1,1.758,1.758v34.57H72.265V30.834A1.367,1.367,0,0,0,70.9,29.466H68.115v-9.3l1.953-2.773a1.372,1.372,0,0,0,.2-1.133L67.929,7.273A1.366,1.366,0,0,0,66.6,6.25H61.62A1.366,1.366,0,0,0,60.3,7.272l-2.344,8.984a1.372,1.372,0,0,0,.2,1.133l1.953,2.773v9.3H57.324a1.367,1.367,0,0,0-1.367,1.367v8.229H47.866v-9.9a13.324,13.324,0,0,0,6.68-11.512q0-.041,0-.084V12.844A6.6,6.6,0,0,0,47.955,6.25H46.042a1.366,1.366,0,0,0-1.367,1.367v9.927L41.142,19.43l-3.534-1.886V7.617A1.367,1.367,0,0,0,36.241,6.25H34.328a6.6,6.6,0,0,0-6.594,6.594v4.805a13.327,13.327,0,0,0,6.68,11.512v9.9h-10.2ZM62.593,18.945l-1.835-2.609,1.92-7.352h2.87l1.92,7.352-1.835,2.609a1.37,1.37,0,0,0-.248.787v9.735H62.844V19.731a1.371,1.371,0,0,0-.251-.787ZM61.475,32.2h8.056v6.862H58.691V32.2ZM36.4,27.123a10.619,10.619,0,0,1-5.928-9.558V12.844a3.863,3.863,0,0,1,3.859-3.859h.547v9.38A1.368,1.368,0,0,0,35.6,19.57l4.9,2.617a1.364,1.364,0,0,0,1.288,0l4.9-2.615a1.368,1.368,0,0,0,.723-1.206V8.984h.547a3.863,3.863,0,0,1,3.859,3.859v4.72a10.619,10.619,0,0,1-5.923,9.556,1.367,1.367,0,0,0-.758,1.223v10.72H37.151V28.345a1.367,1.367,0,0,0-.758-1.223ZM10.241,11.916H21.484V39.063H3.138Zm.7,29.88H89.062V89.453H42.627v-37.5a1.367,1.367,0,0,0-1.367-1.367H15.82a1.367,1.367,0,0,0-1.367,1.367v37.5H10.937ZM39.893,89.453H17.187V53.317H39.893Zm54.834,7.813H5.272a2.539,2.539,0,0,1,0-5.078H94.726a2.539,2.539,0,0,1,0,5.078Z" transform="translate(0.001)" fill="#7453d8"/>
            <path id="Trazado_253219" data-name="Trazado 253219" d="M64.617,89.991h33.4a1.368,1.368,0,0,0,1.367-1.367V66.117a1.367,1.367,0,0,0-1.367-1.367h-33.4a1.367,1.367,0,0,0-1.367,1.367V88.624A1.368,1.368,0,0,0,64.617,89.991Zm1.367-22.51H96.648V87.257H65.984Z" transform="translate(-13.835 -14.164)" fill="#7453d8"/>
            <path id="Trazado_253220" data-name="Trazado 253220" d="M42.492,92.351a1.367,1.367,0,0,0,1.367-1.367V87.37a1.367,1.367,0,0,0-2.734,0v3.613a1.367,1.367,0,0,0,1.367,1.367Z" transform="translate(-8.995 -18.813)" fill="#7453d8"/>
          </g>
        </g>
      </g>
    </g>
  </g>
</svg>
