<svg xmlns="http://www.w3.org/2000/svg" xmlns:xlink="http://www.w3.org/1999/xlink" width="194.631" height="191.728" viewBox="0 0 194.631 191.728">
  <defs>
    <clipPath id="clip-path">
      <ellipse id="Elipse_3994" data-name="Elipse 3994" cx="91.197" cy="90.603" rx="91.197" ry="90.603" transform="translate(0)" fill="#fff"/>
    </clipPath>
  </defs>
  <g id="Grupo_148525" data-name="Grupo 148525" transform="translate(0.5 0.5)">
    <g id="Grupo_145784" data-name="Grupo 145784" transform="translate(0 0)">
      <path id="Trazado_99503" data-name="Trazado 99503" d="M991.256,343.942A90.89,90.89,0,0,1,900.42,253" transform="translate(-900.42 -153.214)" fill="none" stroke="#fda929" stroke-miterlimit="10" stroke-width="1"/>
      <ellipse id="Elipse_3992" data-name="Elipse 3992" cx="92.614" cy="92.051" rx="92.614" ry="92.051" transform="translate(3.429 3.191)" fill="#fff"/>
      <path id="Trazado_175808" data-name="Trazado 175808" d="M91.2,0c50.367,0,91.2,40.576,91.2,90.628s-40.83,90.628-91.2,90.628S0,140.681,0,90.628,40.83,0,91.2,0Z" transform="translate(4.847 4.614)" fill="#fff" opacity="0.6"/>
      <path id="Trazado_252307" data-name="Trazado 252307" d="M90.836,90.942A90.89,90.89,0,0,1,0,0" transform="matrix(-1, -0.017, 0.017, -1, 192.035, 92.514)" fill="none" stroke="#20cb7d" stroke-miterlimit="10" stroke-width="1"/>
    </g>
    <g id="circuito" transform="translate(45.811 48.041)">
      <path id="Trazado_253272" data-name="Trazado 253272" d="M83.26,25.278V8.613A1.613,1.613,0,0,0,81.647,7H9.065A1.613,1.613,0,0,0,7.452,8.613V29.581H2.613A1.613,1.613,0,0,0,1,31.194v6.452a1.613,1.613,0,0,0,1.613,1.613H21.968a1.613,1.613,0,0,0,1.613-1.613V31.194a1.613,1.613,0,0,0-1.613-1.613H17.129v-12.9H73.583v8.6a22.568,22.568,0,0,0,0,44.091v8.6H17.129v-12.9h4.839a1.613,1.613,0,0,0,1.613-1.613V57a1.613,1.613,0,0,0-1.613-1.613H2.613A1.613,1.613,0,0,0,1,57v6.452a1.613,1.613,0,0,0,1.613,1.613H7.452V86.034a1.613,1.613,0,0,0,1.613,1.613H81.647a1.613,1.613,0,0,0,1.613-1.613V69.369a22.568,22.568,0,0,0,0-44.091Zm-62.9,10.755H4.226V32.807H20.355ZM75.2,13.452H15.517A1.613,1.613,0,0,0,13.9,15.065V29.581H10.678V10.226H80.034v14.6c-.536-.039-1.068-.082-1.613-.082s-1.077.044-1.613.082v-9.76A1.613,1.613,0,0,0,75.2,13.452ZM4.226,58.614H20.355V61.84H4.226ZM80.034,84.421H10.678V65.066H13.9V79.583A1.613,1.613,0,0,0,15.517,81.2H75.2a1.613,1.613,0,0,0,1.613-1.613v-9.76c.536.039,1.068.082,1.613.082s1.077-.044,1.613-.082ZM78.421,66.679A19.355,19.355,0,1,1,97.777,47.324,19.355,19.355,0,0,1,78.421,66.679Z" fill="#7453d8"/>
      <path id="Trazado_253273" data-name="Trazado 253273" d="M65.194,33.291H57.376l1.35-9.449a1.613,1.613,0,0,0-2.845-1.25L41.364,40.334a1.613,1.613,0,0,0,1.248,2.634h7.539L47.513,52.2a1.613,1.613,0,0,0,2.742,1.527L66.384,35.989a1.613,1.613,0,0,0-1.19-2.7ZM52.51,46.459,53.842,41.8a1.613,1.613,0,0,0-1.552-2.055H46.016L54.71,29.111l-.8,5.563a1.613,1.613,0,0,0,1.6,1.842h6.031Z" transform="translate(24.518 9.194)" fill="#7453d8"/>
      <path id="Trazado_253274" data-name="Trazado 253274" d="M17.517,38.678a1.613,1.613,0,0,0,1.613-1.613V30.613A1.613,1.613,0,0,0,17.517,29H4.613A1.613,1.613,0,0,0,3,30.613v6.452a1.613,1.613,0,0,0,1.613,1.613ZM6.226,32.226H15.9v3.226H6.226Z" transform="translate(1.226 13.485)" fill="#7453d8"/>
      <path id="Trazado_253275" data-name="Trazado 253275" d="M22.9,36.4l1.482-2.969L28,44.253a1.613,1.613,0,0,0,1.521,1.1h.026a1.613,1.613,0,0,0,1.519-1.15L34.573,32.5l1.51,3.778a1.613,1.613,0,0,0,1.5,1.013h6.452V34.066h-5.36l-2.819-7.052A1.576,1.576,0,0,0,34.283,26,1.613,1.613,0,0,0,32.81,27.15L29.436,38.4,26.21,28.724a1.613,1.613,0,0,0-2.973-.211l-2.782,5.553H15v3.226h6.452A1.613,1.613,0,0,0,22.9,36.4Z" transform="translate(8.581 11.645)" fill="#7453d8"/>
    </g>
  </g>
</svg>
